# Blender 4.0.0
# www.blender.org
o Mug_1_mug_1_1_collision_20
v 0.003637 0.009863 0.050216
v 0.003133 0.009863 0.050283
v 0.003550 0.006369 0.050228
v 0.003637 0.009863 0.043015
v 0.002116 0.009863 0.050418
v 0.003133 0.006369 0.050283
v 0.003637 0.006369 0.028356
v -0.019322 0.006369 0.020813
v -0.020466 0.009863 0.038229
v 0.000860 0.009863 0.050582
v 0.001693 0.006369 0.050474
v 0.002116 0.006369 0.050418
v -0.020466 0.006369 0.020723
v -0.020466 0.009863 0.045927
v 0.000164 0.009863 0.050599
v 0.000438 0.006369 0.050594
v 0.000860 0.006369 0.050582
v -0.020466 0.006369 0.045927
v -0.014631 0.006369 0.048343
v -0.015464 0.009863 0.047998
v -0.000397 0.009863 0.050611
v -0.000397 0.006369 0.050611
v -0.014209 0.006369 0.048516
v -0.014209 0.009863 0.048516
v -0.001091 0.009863 0.050538
v -0.000819 0.006369 0.050567
v -0.013518 0.006369 0.048756
v -0.013744 0.009863 0.048677
v -0.001652 0.009863 0.050476
v -0.001652 0.006369 0.050476
v -0.013168 0.009863 0.048876
v -0.013168 0.006369 0.048876
v -0.002072 0.006369 0.050424
v -0.003250 0.009863 0.050269
v -0.012888 0.009863 0.048943
v -0.012751 0.006369 0.048975
v -0.011135 0.009863 0.049230
v -0.010863 0.006369 0.049265
v -0.012541 0.009863 0.049025
v -0.012541 0.006369 0.049025
v -0.011696 0.009863 0.049154
v -0.011696 0.006369 0.049154
v -0.012163 0.009863 0.049084
vn 0.1321 -0.0000 0.9912
vn 0.9997 -0.0250 0.0040
vn 1.0000 -0.0000 -0.0000
vn -0.0000 1.0000 -0.0000
vn -0.0000 1.0000 -0.0001
vn -0.0000 1.0000 0.0004
vn 0.1312 -0.0000 0.9914
vn 0.1320 -0.0000 0.9913
vn -0.0000 -1.0000 -0.0000
vn -0.0000 -1.0000 0.0007
vn 0.0760 0.9699 -0.2312
vn 0.0386 0.9802 -0.1942
vn 0.1294 0.0001 0.9916
vn 0.1305 -0.0000 0.9914
vn 0.0155 0.9805 -0.1957
vn -1.0000 -0.0000 -0.0000
vn 0.0252 0.0003 0.9997
vn 0.0277 -0.0000 0.9996
vn 0.1289 -0.0000 0.9917
vn -0.3827 -0.0000 0.9239
vn -0.3826 0.0001 0.9239
vn 0.0208 -0.0000 0.9998
vn 0.0210 -0.0000 0.9998
vn -0.3784 -0.0000 0.9257
vn -0.3814 0.0004 0.9244
vn -0.1049 0.0002 0.9945
vn -0.1034 -0.0000 0.9946
vn -0.3279 -0.0000 0.9447
vn -0.3272 0.0002 0.9450
vn -0.1088 -0.0000 0.9941
vn -0.1083 -0.0001 0.9941
vn -0.3267 0.0002 0.9451
vn -0.3249 -0.0000 0.9457
vn -0.1244 -0.0000 0.9922
vn -0.1290 0.0006 0.9916
vn -0.2331 -0.0000 0.9725
vn -0.2317 -0.0001 0.9728
vn -0.1306 -0.0000 0.9914
vn -0.1307 -0.0002 0.9914
vn -0.2305 -0.0001 0.9731
vn -0.2299 -0.0000 0.9732
vn -0.1342 -0.0000 0.9910
vn -0.1323 -0.0003 0.9912
vn -0.1532 -0.0000 0.9882
vn -0.1507 -0.0003 0.9886
vn -0.1487 -0.0000 0.9889
vn -0.0000 -1.0000 0.0016
vn 0.0252 -0.0000 0.9997
vn -0.3826 -0.0000 0.9239
vn 0.0277 0.0005 0.9996
vn -0.3827 0.0001 0.9239
vn -0.1066 -0.0000 0.9943
vn -0.2313 -0.0001 0.9729
s 0
f 1//1 2//1 3//1
f 1//2 3//2 7//2
f 1//3 7//3 4//3
f 1//4 4//4 9//4
f 1//4 9//4 14//4
f 1//4 14//4 20//4
f 1//4 20//4 24//4
f 1//4 24//4 28//4
f 1//4 28//4 31//4
f 1//4 31//4 35//4
f 1//4 35//4 39//4
f 1//4 39//4 43//4
f 1//4 43//4 41//4
f 1//5 41//5 37//5
f 1//4 37//4 34//4
f 1//4 34//4 29//4
f 1//4 29//4 25//4
f 1//4 25//4 21//4
f 1//4 21//4 15//4
f 1//4 15//4 10//4
f 1//6 10//6 5//6
f 1//4 5//4 2//4
f 2//7 5//7 12//7
f 2//7 12//7 6//7
f 2//8 6//8 3//8
f 3//4 12//4 6//4
f 3//9 12//9 11//9
f 3//10 11//10 17//10
f 3//9 17//9 16//9
f 3//9 16//9 22//9
f 3//9 22//9 26//9
f 3//9 26//9 30//9
f 3//9 30//9 33//9
f 3//9 33//9 38//9
f 3//9 38//9 42//9
f 3//9 42//9 40//9
f 3//9 40//9 36//9
f 3//9 36//9 32//9
f 3//9 32//9 27//9
f 3//9 27//9 23//9
f 3//9 23//9 19//9
f 3//9 19//9 18//9
f 3//9 18//9 13//9
f 3//9 13//9 8//9
f 3//9 8//9 7//9
f 4//11 7//11 8//11
f 4//12 8//12 9//12
f 5//13 10//13 11//13
f 5//14 11//14 12//14
f 8//15 13//15 9//15
f 9//16 13//16 18//16
f 9//16 18//16 14//16
f 10//17 15//17 16//17
f 10//18 16//18 17//18
f 10//19 17//19 11//19
f 14//20 18//20 19//20
f 14//21 19//21 20//21
f 15//22 21//22 22//22
f 15//23 22//23 16//23
f 19//24 23//24 24//24
f 19//25 24//25 20//25
f 21//26 25//26 26//26
f 21//27 26//27 22//27
f 23//28 27//28 24//28
f 24//29 27//29 28//29
f 25//30 29//30 30//30
f 25//31 30//31 26//31
f 27//32 31//32 28//32
f 27//33 32//33 31//33
f 29//34 33//34 30//34
f 29//35 34//35 33//35
f 31//36 32//36 35//36
f 32//37 36//37 35//37
f 33//38 34//38 37//38
f 33//39 37//39 38//39
f 35//40 36//40 40//40
f 35//41 40//41 39//41
f 37//42 41//42 42//42
f 37//43 42//43 38//43
f 39//44 40//44 43//44
f 40//45 42//45 43//45
f 41//46 43//46 42//46
f 2//1 6//1 1//1
f 6//8 3//8 1//8
f 4//4 9//4 14//4
f 4//4 14//4 20//4
f 4//4 20//4 24//4
f 4//4 24//4 28//4
f 4//4 28//4 31//4
f 4//4 31//4 35//4
f 4//4 35//4 39//4
f 4//4 39//4 43//4
f 4//4 43//4 41//4
f 4//4 41//4 37//4
f 4//4 37//4 34//4
f 4//4 34//4 29//4
f 4//4 29//4 21//4
f 4//4 21//4 15//4
f 4//4 15//4 10//4
f 4//4 10//4 5//4
f 4//4 5//4 2//4
f 4//4 2//4 1//4
f 5//7 12//7 6//7
f 5//7 6//7 2//7
f 12//47 11//47 17//47
f 12//9 17//9 16//9
f 12//9 16//9 22//9
f 12//9 22//9 30//9
f 12//9 30//9 33//9
f 12//9 33//9 38//9
f 12//9 38//9 42//9
f 12//9 42//9 40//9
f 12//9 40//9 32//9
f 12//9 32//9 27//9
f 12//9 27//9 23//9
f 12//9 23//9 19//9
f 12//9 19//9 18//9
f 12//9 18//9 13//9
f 12//9 13//9 8//9
f 12//9 8//9 7//9
f 12//9 7//9 3//9
f 13//16 18//16 14//16
f 13//16 14//16 9//16
f 15//48 17//48 10//48
f 18//49 20//49 14//49
f 15//50 16//50 17//50
f 19//51 20//51 18//51
f 29//52 30//52 22//52
f 29//52 22//52 21//52
f 40//53 35//53 32//53
