# Blender 4.0.0
# www.blender.org
o decimated_mesh
v -0.037705 0.009863 0.021758
v -0.038925 0.102225 0.021735
v -0.039382 0.103115 0.021735
v -0.040582 0.103417 0.021735
v -0.045390 0.009863 0.021758
v -0.044030 0.103395 0.021733
v -0.045321 0.102944 0.021733
v -0.043614 0.009863 -0.000001
v -0.044724 0.103030 0.000620
v -0.045595 0.103353 0.000618
v -0.048858 0.102976 0.013056
v -0.047930 0.103409 0.011935
v -0.050654 0.009864 -0.000002
v -0.048822 0.009863 0.013405
v -0.050008 0.102864 0.005075
v -0.050589 0.102218 0.000617
v -0.050306 0.103127 0.000621
v -0.049372 0.103417 0.000618
vn -0.0000 -1.0000 -0.0000
vn 0.8676 0.4454 -0.2213
vn 0.0004 0.0003 -1.0000
vn 0.9650 0.0127 -0.2621
vn 0.3467 0.9341 -0.0851
vn -0.9260 0.0011 0.3774
vn 0.0170 0.9999 -0.0015
vn -0.6850 0.7231 0.0886
vn -0.9908 0.0001 0.1354
vn -0.3742 0.9261 0.0484
vn -0.0051 0.0059 -1.0000
vn -0.0001 -0.0058 -1.0000
vn 0.0001 0.0067 -1.0000
vn -0.0005 0.0067 -1.0000
vn 0.9643 0.0132 -0.2643
vn -0.9518 0.2957 0.0812
vn 0.2437 0.9676 -0.0656
vn -0.9250 0.0008 0.3801
vn 0.0043 1.0000 -0.0041
vn -0.0066 1.0000 0.0041
vn -0.0002 0.0003 1.0000
vn -0.0000 0.0003 1.0000
vn -0.0002 0.0006 1.0000
vn -0.0000 -0.0000 1.0000
vn -0.0005 -0.0006 1.0000
vn -0.9842 -0.1039 0.1433
vn -0.9905 -0.0002 0.1378
vn -0.3262 0.9354 0.1363
vn -0.2977 0.9471 0.1199
vn -0.2966 0.9539 0.0461
vn 0.0005 0.0003 1.0000
vn 0.0001 0.0003 1.0000
vn -0.0005 0.0003 1.0000
vn -0.9898 0.0002 0.1426
vn -0.9908 -0.0005 0.1354
vn 0.0001 0.0066 -1.0000
vn 0.0046 0.0067 -1.0000
vn 0.3465 0.9336 -0.0914
vn 0.2438 0.9679 -0.0608
vn -0.0024 1.0000 0.0010
vn 0.0170 0.9998 -0.0071
vn -0.3682 0.9282 0.0542
vn -0.9916 -0.0002 0.1292
vn -0.0077 0.0067 -0.9999
vn -0.0054 0.0067 -1.0000
vn -0.2967 0.9542 0.0385
s 0
f 14//1 13//1 8//1
f 2//2 9//2 3//2
f 9//3 16//3 18//3
f 8//4 2//4 1//4
f 4//5 9//5 10//5
f 7//6 11//6 14//6
f 18//7 12//7 10//7
f 11//8 17//8 15//8
f 13//9 14//9 11//9
f 12//10 18//10 11//10
f 8//1 1//1 14//1
f 1//1 5//1 14//1
f 17//11 18//11 16//11
f 18//12 10//12 9//12
f 9//13 8//13 13//13
f 13//14 16//14 9//14
f 8//15 9//15 2//15
f 15//16 17//16 16//16
f 4//17 3//17 9//17
f 14//18 5//18 7//18
f 4//19 10//19 12//19
f 6//20 4//20 12//20
f 7//21 5//21 2//21
f 5//22 1//22 2//22
f 7//23 2//23 6//23
f 2//24 3//24 4//24
f 4//25 6//25 2//25
f 15//26 16//26 11//26
f 16//27 13//27 11//27
f 11//28 7//28 6//28
f 6//29 12//29 11//29
f 17//30 11//30 18//30
f 2//31 3//31 1//31
f 3//32 4//32 1//32
f 4//22 5//22 1//22
f 4//33 6//33 5//33
f 6//22 7//22 5//22
f 11//34 15//34 14//34
f 15//35 13//35 14//35
f 13//36 10//36 8//36
f 10//37 9//37 8//37
f 9//38 10//38 3//38
f 10//39 4//39 3//39
f 18//40 12//40 4//40
f 10//41 18//41 4//41
f 12//42 17//42 11//42
f 16//43 13//43 15//43
f 16//44 17//44 13//44
f 17//45 18//45 13//45
f 18//36 10//36 13//36
f 17//46 12//46 18//46
