# Blender 4.0.0
# www.blender.org
o decimated_mesh
v 0.046371 0.007456 0.019350
v 0.044949 0.007463 0.019352
v 0.046113 0.005838 0.019352
v 0.045690 0.005769 0.020828
v 0.028770 0.007464 0.039599
v 0.043934 0.007465 0.025284
v 0.045573 0.005135 0.020469
v 0.045690 0.005136 0.019352
v 0.044283 0.005184 0.023994
v 0.030993 0.007461 0.039600
v 0.042893 0.005197 0.026399
v 0.045309 0.005148 0.019352
v 0.033616 0.005137 0.037273
v 0.037518 0.005153 0.033300
v 0.029020 0.005838 0.039599
v 0.030876 0.005959 0.039591
v 0.035925 0.005980 0.035555
v 0.029795 0.005134 0.039607
v 0.031588 0.005282 0.038806
v 0.035713 0.007461 0.035966
vn 0.0006 1.0000 0.0005
vn 0.9521 -0.1514 0.2658
vn 0.8529 -0.5145 0.0887
vn 0.9176 -0.3102 0.2484
vn 0.8791 -0.3473 0.3265
vn -0.0002 0.0002 1.0000
vn 0.9163 -0.0816 0.3921
vn 0.7914 -0.0645 0.6079
vn 0.0074 0.9999 0.0122
vn 0.5959 0.6605 0.4568
vn 0.7756 0.1194 0.6198
vn 0.6311 -0.4690 0.6179
vn 0.6197 -0.1263 0.7746
vn 0.2632 -0.8636 0.4299
vn 0.0011 1.0000 0.0013
vn -0.0011 1.0000 -0.0005
vn 0.0047 1.0000 0.0005
vn 0.0047 -0.0064 1.0000
vn -0.0004 -0.0001 1.0000
vn 0.0033 0.0150 0.9999
vn 0.7803 -0.1513 0.6068
vn -0.0000 -0.0000 1.0000
vn 0.0012 0.0009 1.0000
vn 0.3883 -0.4935 0.7782
vn 0.8558 -0.1493 0.4954
vn 0.9243 -0.0405 0.3796
vn 0.7912 -0.0559 0.6089
vn 0.5608 -0.3033 0.7704
vn 0.6203 -0.1189 0.7753
vn 0.0047 0.9999 0.0088
vn -0.0183 0.9997 -0.0133
vn 0.0299 0.9995 0.0041
vn 0.0414 0.9991 0.0014
vn -0.0057 0.9999 -0.0090
vn 0.7755 0.1206 0.6197
vn 0.6092 -0.0522 0.7913
vn -0.0024 0.0015 1.0000
vn -0.0002 0.0008 1.0000
vn 0.0012 0.0002 1.0000
vn -0.0004 1.0000 -0.0004
vn 0.0009 1.0000 0.0011
vn 0.0013 1.0000 0.0012
vn 0.0299 0.9993 0.0236
vn -0.0121 -0.0019 0.9999
vn -0.0004 0.0032 1.0000
vn -0.0599 0.9974 -0.0403
vn -0.0470 0.9984 -0.0309
vn 0.6193 -0.1227 0.7755
vn 0.6214 -0.1258 0.7734
vn -0.0159 0.9998 -0.0114
vn -0.0013 1.0000 -0.0010
vn 0.0206 -0.0076 0.9998
s 0
f 2//1 5//1 20//1
f 1//2 4//2 3//2
f 3//3 7//3 8//3
f 3//4 4//4 7//4
f 4//5 9//5 7//5
f 3//6 12//6 8//6
f 6//7 9//7 4//7
f 17//8 11//8 6//8
f 11//9 18//9 14//9
f 12//10 15//10 18//10
f 2//11 5//11 15//11
f 17//12 13//12 14//12
f 17//13 20//13 16//13
f 13//14 19//14 18//14
f 5//15 10//15 20//15
f 20//16 6//16 2//16
f 6//17 1//17 2//17
f 16//18 10//18 15//18
f 5//19 15//19 10//19
f 15//20 18//20 16//20
f 14//21 11//21 17//21
f 12//22 3//22 2//22
f 1//23 2//23 3//23
f 18//24 19//24 16//24
f 6//25 11//25 9//25
f 1//26 6//26 4//26
f 6//27 20//27 17//27
f 19//28 13//28 16//28
f 13//29 17//29 16//29
f 14//30 18//30 13//30
f 18//31 11//31 12//31
f 12//32 7//32 8//32
f 7//33 12//33 9//33
f 9//34 12//34 11//34
f 2//35 15//35 12//35
f 20//36 10//36 16//36
f 3//37 1//37 8//37
f 8//38 1//38 12//38
f 12//39 1//39 2//39
f 5//40 6//40 2//40
f 5//41 20//41 6//41
f 7//42 8//42 18//42
f 18//43 8//43 12//43
f 15//44 18//44 5//44
f 18//45 10//45 5//45
f 14//46 11//46 9//46
f 14//47 9//47 7//47
f 16//48 13//48 20//48
f 13//49 17//49 20//49
f 14//50 7//50 13//50
f 13//51 7//51 18//51
f 16//52 10//52 18//52
