# Blender 4.0.0
# www.blender.org
o Mug_1_mug_1_0_collision_9
v 0.024638 0.007464 0.024435
v 0.025342 0.007679 0.024435
v 0.044318 0.007464 0.024435
v 0.003258 0.007464 0.034292
v 0.037051 0.010732 0.024435
v 0.044322 0.008352 0.024435
v 0.044157 0.007464 0.024752
v 0.003258 0.007464 0.050299
v 0.003258 0.007762 0.035034
v 0.044318 0.010732 0.024435
v 0.003258 0.010732 0.044331
v 0.044065 0.008352 0.024936
v 0.044065 0.010732 0.024936
v 0.044061 0.007464 0.024936
v 0.003258 0.009790 0.050299
v 0.009649 0.007464 0.049471
v 0.009517 0.010732 0.049488
v 0.003258 0.010732 0.050296
v 0.043490 0.010732 0.025845
v 0.043056 0.007464 0.026529
v 0.010019 0.007464 0.049423
v 0.012033 0.010732 0.049159
v 0.043056 0.010732 0.026529
v 0.042509 0.010732 0.027246
v 0.042131 0.007464 0.027737
v 0.011277 0.007464 0.049258
v 0.012166 0.007464 0.049142
v 0.012166 0.010732 0.049142
v 0.038695 0.010732 0.032216
v 0.037207 0.007464 0.034153
v 0.012865 0.007464 0.049035
v 0.012865 0.010732 0.049035
v 0.036970 0.010732 0.034462
v 0.037022 0.007464 0.034393
v 0.015739 0.007464 0.047934
v 0.015739 0.010732 0.047934
v 0.036524 0.008352 0.035024
v 0.036524 0.010732 0.035024
v 0.036520 0.007464 0.035024
v 0.019144 0.007464 0.046526
v 0.019144 0.010732 0.046526
v 0.035893 0.008352 0.035697
v 0.035893 0.007464 0.035695
v 0.036078 0.007464 0.035497
v 0.021917 0.007464 0.045377
v 0.021917 0.010732 0.045377
v 0.035829 0.010732 0.035763
v 0.035278 0.008352 0.036325
v 0.035278 0.007464 0.036322
v 0.024682 0.007464 0.044227
v 0.024682 0.010732 0.044227
v 0.035278 0.010732 0.036325
v 0.034832 0.007464 0.036679
v 0.024867 0.007464 0.044144
v 0.025245 0.010732 0.043969
v 0.034647 0.010732 0.036826
v 0.034647 0.007464 0.036826
v 0.025309 0.007464 0.043939
v 0.034562 0.010732 0.036892
v 0.034072 0.007464 0.037269
v 0.025510 0.007464 0.043792
v 0.026785 0.010732 0.042860
v 0.028794 0.010732 0.041318
v 0.026970 0.007464 0.042718
v 0.026785 0.007464 0.042860
vn -0.0000 -0.0000 1.0000
vn -0.0000 -1.0000 -0.0000
vn 0.2466 -0.8081 0.5349
vn 0.2216 -0.8499 0.4780
vn 0.8915 -0.0040 0.4529
vn 1.0000 -0.0000 -0.0000
vn 0.1946 -0.9103 0.3654
vn 0.1764 -0.9376 0.2995
vn -0.0000 1.0000 -0.0000
vn 0.8897 -0.0024 0.4565
vn 0.8926 0.0015 0.4509
vn 0.8897 -0.0000 0.4565
vn 0.8865 -0.0040 0.4627
vn 0.1285 -0.0002 0.9917
vn 0.1284 -0.0000 0.9917
vn 0.8452 -0.0000 0.5345
vn 0.8448 -0.0003 0.5350
vn 0.8457 -0.0038 0.5336
vn 0.1280 0.0027 0.9918
vn 0.1290 -0.0001 0.9916
vn 0.1297 -0.0000 0.9916
vn 0.8442 -0.0000 0.5361
vn 0.7950 -0.0000 0.6066
vn 0.7941 -0.0004 0.6078
vn 0.1300 -0.0001 0.9915
vn 0.1325 -0.0000 0.9912
vn 0.7933 -0.0002 0.6088
vn 0.1503 -0.0000 0.9886
vn 0.7932 -0.0000 0.6090
vn 0.7928 -0.0001 0.6094
vn 0.3579 -0.0000 0.9338
vn 0.7842 -0.0004 0.6206
vn 0.7832 -0.0000 0.6217
vn 0.7820 -0.0035 0.6232
vn 0.3821 -0.0000 0.9241
vn 0.7284 -0.0000 0.6851
vn 0.7297 0.0008 0.6837
vn 0.7297 -0.0020 0.6837
vn 0.7300 -0.0024 0.6835
vn 0.7309 -0.0033 0.6825
vn 0.3829 -0.0000 0.9238
vn 0.7144 -0.0000 0.6997
vn 0.7144 -0.0020 0.6997
vn 0.3838 -0.0000 0.9234
vn 0.7143 -0.0000 0.6998
vn 0.6220 -0.0000 0.7830
vn 0.6248 -0.0022 0.7808
vn 0.4118 -0.0000 0.9113
vn 0.4171 0.0004 0.9089
vn 0.6219 -0.0000 0.7831
vn 0.4208 -0.0002 0.9072
vn 0.6150 -0.0000 0.7886
vn 0.6105 -0.0002 0.7920
vn 0.5900 0.0041 0.8074
vn 0.5845 0.0034 0.8114
vn 0.6087 0.0002 0.7934
vn 0.6087 0.0001 0.7934
vn 0.6087 -0.0000 0.7934
vn 0.5903 -0.0000 0.8072
vn 0.6085 -0.0000 0.7935
vn -0.0000 -1.0000 -0.0001
vn 0.1298 -0.0000 0.9915
vn 0.7934 -0.0007 0.6087
vn 0.7933 -0.0001 0.6089
vn 0.7832 -0.0005 0.6217
vn 0.7845 -0.0000 0.6202
vn 0.7297 -0.0000 0.6837
vn 0.7297 -0.0021 0.6837
vn 0.7284 0.0007 0.6851
vn 0.7300 -0.0020 0.6834
vn 0.6150 -0.0006 0.7886
vn 0.6219 0.0003 0.7831
s 0
f 1//1 5//1 2//1
f 1//1 10//1 5//1
f 1//1 6//1 10//1
f 1//1 3//1 6//1
f 1//2 3//2 7//2
f 1//2 7//2 14//2
f 1//2 14//2 20//2
f 1//2 20//2 25//2
f 1//2 25//2 30//2
f 1//2 30//2 34//2
f 1//2 34//2 39//2
f 1//2 39//2 44//2
f 1//2 44//2 43//2
f 1//2 43//2 49//2
f 1//2 49//2 53//2
f 1//2 53//2 57//2
f 1//2 57//2 60//2
f 1//2 60//2 64//2
f 1//2 64//2 65//2
f 1//2 65//2 61//2
f 1//2 61//2 58//2
f 1//2 58//2 54//2
f 1//2 54//2 50//2
f 1//2 50//2 45//2
f 1//2 45//2 40//2
f 1//2 40//2 35//2
f 1//2 35//2 31//2
f 1//2 31//2 27//2
f 1//2 27//2 26//2
f 1//2 26//2 21//2
f 1//2 21//2 16//2
f 1//2 16//2 8//2
f 1//2 8//2 4//2
f 1//3 2//3 4//3
f 2//4 5//4 4//4
f 3//5 6//5 7//5
f 4//6 15//6 8//6
f 4//6 18//6 15//6
f 4//6 11//6 18//6
f 4//6 9//6 11//6
f 4//7 5//7 9//7
f 5//8 11//8 9//8
f 5//9 11//9 18//9
f 5//9 18//9 17//9
f 5//9 17//9 22//9
f 5//9 22//9 28//9
f 5//9 28//9 32//9
f 5//9 32//9 36//9
f 5//9 36//9 41//9
f 5//9 41//9 46//9
f 5//9 46//9 51//9
f 5//9 51//9 55//9
f 5//9 55//9 62//9
f 5//9 62//9 63//9
f 5//9 63//9 59//9
f 5//9 59//9 56//9
f 5//9 56//9 52//9
f 5//9 52//9 47//9
f 5//9 47//9 38//9
f 5//9 38//9 33//9
f 5//9 33//9 29//9
f 5//9 29//9 24//9
f 5//9 24//9 23//9
f 5//9 23//9 19//9
f 5//9 19//9 13//9
f 5//9 13//9 10//9
f 6//10 12//10 7//10
f 6//11 10//11 13//11
f 6//12 13//12 12//12
f 7//13 12//13 14//13
f 8//14 16//14 17//14
f 8//15 17//15 15//15
f 12//16 13//16 19//16
f 12//17 19//17 20//17
f 12//18 20//18 14//18
f 15//19 17//19 18//19
f 16//20 21//20 17//20
f 17//21 21//21 26//21
f 17//21 26//21 22//21
f 19//22 23//22 20//22
f 20//23 23//23 24//23
f 20//24 24//24 25//24
f 22//25 26//25 27//25
f 22//26 27//26 28//26
f 24//27 29//27 30//27
f 24//27 30//27 25//27
f 27//28 31//28 32//28
f 27//28 32//28 28//28
f 29//29 33//29 30//29
f 30//30 33//30 34//30
f 31//31 35//31 36//31
f 31//31 36//31 32//31
f 33//32 37//32 34//32
f 33//33 38//33 37//33
f 34//34 37//34 39//34
f 35//35 40//35 41//35
f 35//35 41//35 36//35
f 37//36 38//36 47//36
f 37//37 47//37 42//37
f 37//38 42//38 43//38
f 37//39 43//39 44//39
f 37//40 44//40 39//40
f 40//41 45//41 46//41
f 40//41 46//41 41//41
f 42//42 47//42 48//42
f 42//43 48//43 49//43
f 42//43 49//43 43//43
f 45//44 50//44 51//44
f 45//44 51//44 46//44
f 47//45 52//45 48//45
f 48//46 52//46 53//46
f 48//47 53//47 49//47
f 50//48 54//48 51//48
f 51//49 54//49 55//49
f 52//46 56//46 53//46
f 53//50 56//50 57//50
f 54//51 58//51 55//51
f 56//52 59//52 57//52
f 57//53 59//53 60//53
f 58//54 61//54 55//54
f 55//55 61//55 62//55
f 59//56 63//56 60//56
f 60//57 63//57 62//57
f 60//58 62//58 64//58
f 61//59 65//59 62//59
f 62//60 65//60 64//60
f 2//1 10//1 5//1
f 2//1 6//1 10//1
f 2//1 3//1 6//1
f 2//1 1//1 3//1
f 3//61 7//61 14//61
f 3//2 14//2 20//2
f 3//2 20//2 34//2
f 3//2 34//2 39//2
f 3//2 39//2 44//2
f 3//2 44//2 43//2
f 3//2 43//2 49//2
f 3//2 49//2 53//2
f 3//2 53//2 57//2
f 3//2 57//2 60//2
f 3//2 60//2 64//2
f 3//2 64//2 65//2
f 3//2 65//2 61//2
f 3//2 61//2 58//2
f 3//2 58//2 54//2
f 3//2 54//2 50//2
f 3//2 50//2 45//2
f 3//2 45//2 40//2
f 3//2 40//2 35//2
f 3//2 35//2 31//2
f 3//2 31//2 27//2
f 3//2 27//2 21//2
f 3//2 21//2 16//2
f 3//2 16//2 8//2
f 3//2 8//2 4//2
f 3//2 4//2 1//2
f 8//6 18//6 15//6
f 8//6 11//6 18//6
f 8//6 9//6 11//6
f 8//6 4//6 9//6
f 11//9 18//9 17//9
f 11//9 17//9 28//9
f 11//9 28//9 32//9
f 11//9 32//9 36//9
f 11//9 36//9 41//9
f 11//9 41//9 46//9
f 11//9 46//9 51//9
f 11//9 51//9 55//9
f 11//9 55//9 62//9
f 11//9 62//9 63//9
f 11//9 63//9 59//9
f 11//9 59//9 56//9
f 11//9 56//9 52//9
f 11//9 52//9 47//9
f 11//9 47//9 38//9
f 11//9 38//9 33//9
f 11//9 33//9 24//9
f 11//9 24//9 23//9
f 11//9 23//9 19//9
f 11//9 19//9 13//9
f 11//9 13//9 10//9
f 11//9 10//9 5//9
f 21//62 28//62 17//62
f 27//62 28//62 21//62
f 24//63 34//63 20//63
f 33//64 34//64 24//64
f 33//65 38//65 34//65
f 38//66 37//66 34//66
f 38//67 42//67 37//67
f 42//68 44//68 37//68
f 47//69 42//69 38//69
f 43//70 44//70 42//70
f 47//45 52//45 42//45
f 52//42 48//42 42//42
f 48//43 49//43 43//43
f 48//43 43//43 42//43
f 59//71 53//71 56//71
f 59//72 57//72 53//72
f 64//58 63//58 62//58
f 64//58 60//58 63//58
