# Blender 4.0.0
# www.blender.org
o decimated_mesh
v 0.062900 0.041910 0.010581
v 0.066165 0.045725 0.010540
v 0.071184 0.071518 0.010544
v 0.065355 0.041914 0.010194
v 0.069929 0.057022 0.010526
v 0.071184 0.065812 0.010538
v 0.066905 0.044336 0.010162
v 0.069929 0.071518 0.010456
v 0.060813 0.041911 0.010129
v 0.070939 0.056614 0.010184
v 0.071916 0.062604 0.010196
v 0.073108 0.071518 0.010133
v 0.068279 0.043981 0.007974
v 0.069138 0.071518 0.010206
v 0.068106 0.041913 0.006321
v 0.069379 0.044204 0.006256
v 0.073289 0.056032 0.006222
v 0.075020 0.071513 0.006925
v 0.075450 0.071512 0.005690
v 0.070551 0.045030 0.000031
v 0.074088 0.055651 -0.000035
v 0.069161 0.041903 0.000059
v 0.069487 0.042392 0.000243
v 0.070123 0.046451 -0.006174
v 0.073303 0.056106 -0.006219
v 0.076185 0.070788 -0.000013
v 0.058309 0.041911 0.006207
v 0.069635 0.046133 -0.006906
v 0.066756 0.071518 0.006349
v 0.057385 0.041905 0.000042
v 0.065638 0.046132 -0.010587
v 0.067594 0.046170 -0.010174
v 0.076173 0.071513 0.000120
v 0.061093 0.046133 -0.006896
v 0.063121 0.046136 -0.009828
v 0.063740 0.046133 -0.010290
v 0.065895 0.071516 0.000310
v 0.066727 0.071444 -0.006323
v 0.075042 0.071439 -0.006880
v 0.075455 0.071439 -0.005668
v 0.073116 0.071437 -0.010133
v 0.071184 0.071443 -0.010547
v 0.069138 0.071443 -0.010206
v 0.069929 0.071443 -0.010456
v 0.071184 0.065812 -0.010538
v 0.069929 0.057025 -0.010526
v 0.070954 0.056701 -0.010195
v 0.071985 0.063084 -0.010199
vn -0.0020 1.0000 -0.0017
vn 0.9816 -0.1358 -0.1346
vn -0.2113 0.0543 0.9759
vn -0.0437 0.0048 0.9990
vn -0.1545 0.0313 -0.9875
vn -0.9097 0.2106 -0.3579
vn 0.9529 -0.2712 -0.1357
vn -0.3002 0.0819 0.9504
vn 0.8200 -0.2314 -0.5235
vn 0.9809 -0.1320 0.1430
vn 0.0003 -0.9293 -0.3693
vn 0.8072 -0.1923 0.5581
vn 0.7837 -0.5531 -0.2827
vn 0.1016 -0.9126 -0.3961
vn 0.7199 -0.4691 0.5115
vn -0.4146 -0.7240 -0.5513
vn -0.0651 -0.9089 -0.4120
vn -0.5933 0.1292 -0.7945
vn 0.6022 -0.6999 -0.3841
vn -0.8044 -0.2078 -0.5565
vn 0.9407 -0.3107 0.1360
vn 0.8112 -0.2667 0.5204
vn 0.8551 -0.1118 -0.5063
vn 0.8614 -0.1187 0.4939
vn 0.8009 -0.5832 0.1359
vn -0.3005 0.0673 -0.9514
vn 0.8450 -0.0802 -0.5288
vn 0.2092 -0.0011 0.9779
vn -0.0722 -0.0015 -0.9974
vn 0.0007 1.0000 -0.0008
vn 0.2094 -0.0014 -0.9778
vn 0.0005 1.0000 -0.0002
vn -0.0002 1.0000 0.0005
vn -0.0002 1.0000 -0.0010
vn 0.0002 1.0000 -0.0016
vn 0.9397 -0.1204 -0.3202
vn 0.9375 -0.1196 0.3269
vn 0.9810 -0.1326 -0.1418
vn -0.0705 -0.0011 0.9975
vn -0.0026 0.0048 1.0000
vn 0.0179 -0.0047 0.9998
vn 0.9517 -0.2722 -0.1424
vn 0.9917 -0.0072 0.1286
vn 0.2932 -0.0479 -0.9548
vn 0.2798 -0.0912 -0.9557
vn 0.2076 -0.0762 -0.9752
vn 0.2714 -0.0401 -0.9616
vn 0.2948 -0.0324 -0.9550
vn 0.7868 -0.4241 0.4483
vn -0.9536 0.2751 -0.1226
vn 0.8277 -0.2314 -0.5112
vn 0.9816 -0.1362 0.1336
vn 0.9396 -0.3137 -0.1366
vn 0.9126 -0.3804 -0.1500
vn 0.9400 -0.3102 -0.1421
vn 0.8339 -0.1905 0.5179
vn 0.8487 -0.4810 -0.2200
vn 0.7197 -0.4536 0.5256
vn 0.9234 -0.3626 0.1259
vn 0.9398 -0.3121 0.1389
vn 0.8101 -0.2671 0.5220
vn 0.8438 -0.0345 0.5355
vn 0.8613 -0.1190 -0.4939
vn 0.8438 -0.1366 -0.5190
vn 0.8537 -0.1105 0.5090
vn 0.8427 -0.1386 0.5203
vn 0.8651 -0.4758 0.1589
vn 0.8235 -0.2638 -0.5023
vn 0.8109 -0.2695 -0.5194
vn -0.0439 0.0049 -0.9990
vn 0.0020 0.0049 -1.0000
vn 0.9916 0.0393 -0.1234
vn 0.0037 1.0000 -0.0029
vn -0.0000 1.0000 -0.0002
vn 0.0006 1.0000 0.0004
vn -0.0001 1.0000 -0.0003
vn 0.0013 0.9999 -0.0107
vn 0.0006 1.0000 -0.0005
vn -0.0000 1.0000 -0.0000
vn 0.0003 1.0000 0.0001
vn -0.0000 1.0000 -0.0016
vn 0.0007 1.0000 0.0002
vn 0.0001 0.9999 -0.0127
vn 0.0005 1.0000 -0.0001
vn 0.2340 -0.1371 0.9625
vn 0.2979 -0.0995 0.9494
vn 0.3017 -0.0512 0.9520
vn 0.2724 -0.0403 0.9614
vn 0.1546 -0.1219 0.9804
vn 0.2852 -0.0938 0.9539
vn 0.2995 -0.0332 0.9535
vn 0.0005 1.0000 -0.0004
vn -0.0020 1.0000 -0.0019
vn 0.0157 -0.0036 0.9999
vn 0.0083 -0.0011 1.0000
vn -0.0705 0.0210 0.9973
vn 0.0023 1.0000 -0.0013
vn 0.0002 1.0000 -0.0006
vn 0.8204 -0.2293 -0.5238
vn -0.0025 1.0000 -0.0021
vn 0.0002 1.0000 -0.0004
vn 0.0004 1.0000 -0.0004
vn 0.8273 -0.2335 -0.5110
vn 0.9520 -0.2709 -0.1424
vn 0.9525 -0.2725 -0.1357
vn 0.0141 -0.0015 -0.9999
vn 0.0281 -0.0054 -0.9996
vn -0.0722 0.0174 -0.9972
vn 0.8165 -0.2649 -0.5131
vn 0.8136 -0.2606 -0.5197
vn 0.8501 -0.2820 -0.4446
vn 0.8262 -0.2718 0.4934
vn 0.8126 -0.2621 0.5206
vn 0.7973 -0.2629 0.5434
vn 0.0038 1.0000 0.0007
vn 0.0003 1.0000 -0.0004
vn 0.0004 1.0000 0.0001
vn 0.0588 0.9981 -0.0200
vn 0.0226 0.9996 -0.0141
vn 0.0050 0.9999 -0.0089
vn 0.0002 1.0000 -0.0066
vn 0.8328 -0.1971 0.5172
vn 0.8085 -0.1839 0.5590
vn -0.0005 1.0000 -0.0070
vn -0.0024 1.0000 -0.0077
vn -0.0215 0.9997 -0.0136
vn 0.9403 -0.3122 0.1357
vn 0.9404 -0.3105 0.1389
s 0
f 15//1 1//1 4//1
f 25//2 26//2 21//2
f 1//3 8//3 9//3
f 5//4 6//4 8//4
f 44//5 31//5 36//5
f 38//6 34//6 30//6
f 37//7 29//7 27//7
f 14//8 9//8 8//8
f 9//9 27//9 29//9
f 26//10 19//10 17//10
f 31//11 22//11 30//11
f 35//12 38//12 34//12
f 24//13 22//13 28//13
f 22//14 31//14 32//14
f 13//15 4//15 15//15
f 30//16 35//16 36//16
f 30//17 36//17 31//17
f 36//18 35//18 43//18
f 32//19 28//19 22//19
f 34//20 35//20 30//20
f 17//21 16//21 20//21
f 16//22 17//22 10//22
f 48//23 41//23 39//23
f 11//24 17//24 18//24
f 23//25 15//25 22//25
f 36//26 43//26 44//26
f 24//27 28//27 32//27
f 6//28 12//28 3//28
f 44//29 42//29 45//29
f 29//30 3//30 18//30
f 42//31 41//31 45//31
f 9//32 1//32 27//32
f 1//33 15//33 27//33
f 27//34 15//34 30//34
f 22//35 30//35 15//35
f 39//36 40//36 25//36
f 17//37 19//37 18//37
f 25//38 40//38 26//38
f 6//39 3//39 8//39
f 8//40 1//40 5//40
f 5//41 1//41 2//41
f 37//42 27//42 30//42
f 19//43 26//43 33//43
f 48//44 47//44 46//44
f 47//45 32//45 46//45
f 32//46 31//46 46//46
f 46//47 45//47 48//47
f 48//48 45//48 41//48
f 13//49 15//49 16//49
f 30//50 37//50 38//50
f 9//51 29//51 14//51
f 21//52 26//52 17//52
f 21//53 20//53 24//53
f 20//54 23//54 24//54
f 24//55 25//55 21//55
f 38//56 35//56 43//56
f 24//57 23//57 22//57
f 13//58 7//58 4//58
f 16//59 23//59 20//59
f 20//60 21//60 17//60
f 10//61 7//61 16//61
f 16//62 7//62 13//62
f 39//63 25//63 48//63
f 25//64 47//64 48//64
f 18//65 12//65 11//65
f 11//66 10//66 17//66
f 23//67 16//67 15//67
f 32//68 47//68 24//68
f 25//69 24//69 47//69
f 45//70 46//70 44//70
f 44//71 46//71 31//71
f 40//72 33//72 26//72
f 41//73 42//73 39//73
f 42//74 44//74 38//74
f 39//75 42//75 38//75
f 44//76 43//76 38//76
f 38//77 37//77 40//77
f 37//78 29//78 19//78
f 29//79 14//79 8//79
f 37//80 19//80 33//80
f 8//79 3//79 29//79
f 3//81 12//81 18//81
f 18//82 19//82 29//82
f 33//83 40//83 37//83
f 40//84 39//84 38//84
f 4//85 7//85 2//85
f 7//86 10//86 2//86
f 10//87 11//87 5//87
f 5//88 11//88 6//88
f 2//89 1//89 4//89
f 5//90 2//90 10//90
f 11//91 12//91 6//91
f 9//92 1//92 22//92
f 22//93 1//93 4//93
f 5//94 6//94 1//94
f 6//95 3//95 1//95
f 3//96 8//96 1//96
f 27//97 9//97 30//97
f 30//98 9//98 22//98
f 14//99 9//99 27//99
f 15//100 22//100 4//100
f 12//101 33//101 3//101
f 33//102 29//102 3//102
f 14//103 27//103 29//103
f 29//104 27//104 30//104
f 29//105 30//105 37//105
f 42//106 45//106 31//106
f 45//107 46//107 31//107
f 44//108 42//108 31//108
f 25//109 28//109 32//109
f 47//110 25//110 32//110
f 25//111 24//111 28//111
f 16//112 17//112 13//112
f 17//113 10//113 13//113
f 10//114 7//114 13//114
f 18//115 33//115 12//115
f 37//116 29//116 33//116
f 18//117 19//117 33//117
f 40//118 39//118 33//118
f 39//119 41//119 33//119
f 41//120 42//120 33//120
f 42//121 37//121 33//121
f 38//122 34//122 43//122
f 43//123 34//123 35//123
f 42//124 44//124 37//124
f 44//125 43//125 37//125
f 43//126 38//126 37//126
f 21//127 16//127 20//127
f 21//128 17//128 16//128
