# Blender 4.0.0
# www.blender.org
o decimated_mesh
v 0.045811 0.010745 -0.020866
v 0.044324 0.010742 -0.010742
v 0.045709 0.005817 -0.020876
v 0.044324 0.009353 -0.010742
v 0.003262 0.007464 0.039579
v 0.010642 0.007464 0.038537
v 0.020248 0.007472 0.034405
v 0.028467 0.007462 0.028018
v 0.034726 0.007464 0.019756
v 0.038458 0.007466 0.010752
v 0.044230 0.007175 -0.024649
v 0.043737 0.010745 -0.025556
v 0.003262 0.005108 0.030038
v 0.044517 0.005140 -0.023494
v 0.021798 0.005168 0.021585
v 0.042614 0.005216 -0.026874
v 0.003262 0.010745 -0.045274
v 0.033909 0.005148 -0.036998
v 0.037502 0.005153 -0.033315
v 0.035792 0.010745 -0.035872
v 0.003262 0.008972 -0.045270
v 0.018595 0.010745 -0.046745
v 0.025915 0.005189 -0.043307
v 0.035738 0.006196 -0.035802
v 0.018555 0.005911 -0.046664
v 0.020607 0.005189 -0.045655
v 0.003263 0.005087 -0.029951
v 0.025309 0.010745 -0.043930
v 0.025309 0.007095 -0.043930
vn 0.3779 -0.0186 -0.9257
vn -0.0939 -0.0159 -0.9955
vn 0.2866 -0.9511 0.1153
vn 0.7749 -0.1524 -0.6135
vn 0.9647 -0.0000 0.2633
vn 0.6088 -0.1804 -0.7725
vn 0.2318 0.9568 0.1758
vn 1.0000 -0.0000 -0.0000
vn 0.8216 -0.0313 -0.5692
vn 0.9894 -0.0000 0.1453
vn -0.0000 1.0000 0.0001
vn 0.9294 -0.2901 0.2282
vn 0.6093 -0.0225 -0.7926
vn 0.7008 0.6515 0.2906
vn 0.0854 -0.9768 0.1966
vn -0.2137 -0.9464 -0.2422
vn 0.9285 -0.0185 -0.3708
vn 0.3866 -0.0000 -0.9223
vn -0.0955 -0.0024 -0.9954
vn 0.2743 -0.9549 0.1134
vn 0.3934 -0.1497 -0.9071
vn 0.3988 -0.1681 -0.9015
vn -1.0000 -0.0000 -0.0000
vn 0.0968 0.9876 0.1232
vn 0.7911 -0.0189 -0.6114
vn 0.7922 -0.0156 -0.6101
vn 0.8593 -0.1554 -0.4873
vn 0.9896 -0.0208 0.1425
vn -0.0000 1.0000 -0.0000
vn 0.0004 1.0000 0.0028
vn 0.0113 0.9992 0.0386
vn -0.0419 0.9979 0.0499
vn -0.0005 1.0000 0.0002
vn -0.0003 1.0000 0.0002
vn 0.1871 -0.9778 0.0949
vn 0.1930 -0.9703 0.1460
vn -0.0011 1.0000 -0.0012
vn -0.0034 1.0000 -0.0004
vn -0.0019 1.0000 0.0044
vn -0.0004 1.0000 0.0070
vn -0.0019 1.0000 0.0005
vn -0.0027 1.0000 -0.0077
vn -0.0053 0.9997 0.0254
vn 0.6083 -0.0195 -0.7935
vn 0.7171 -0.0000 -0.6970
vn 0.0338 -0.9703 0.2396
vn 0.0882 -0.9785 0.1865
vn 0.1483 -0.9701 0.1922
vn -0.2115 -0.9474 -0.2403
vn 0.9149 -0.0938 -0.3926
vn 0.9143 0.0234 -0.4043
vn 0.6524 -0.4124 -0.6358
vn -0.0001 1.0000 0.0003
vn -0.0324 0.9987 0.0386
vn 0.0104 0.9972 0.0734
vn 0.0392 0.9949 0.0930
vn 0.0001 1.0000 -0.0001
vn -0.0046 1.0000 -0.0029
vn -0.0012 1.0000 -0.0004
vn 0.0016 -1.0000 -0.0018
vn 0.0102 -0.9999 -0.0086
vn 0.1380 -0.9854 -0.0999
vn 0.6136 -0.0195 -0.7894
vn 0.6095 -0.0000 -0.7928
vn 1.0000 0.0001 -0.0000
vn -0.2118 -0.9459 -0.2459
vn -0.2119 -0.9473 -0.2403
vn -0.0007 1.0000 0.0058
vn -0.0066 0.9999 0.0149
vn 0.6100 -0.0644 -0.7897
s 0
f 22//1 29//1 25//1
f 21//2 22//2 25//2
f 14//3 3//3 10//3
f 24//4 16//4 19//4
f 2//5 10//5 4//5
f 18//6 23//6 24//6
f 8//7 9//7 2//7
f 27//8 21//8 17//8
f 11//9 16//9 12//9
f 4//10 1//10 2//10
f 20//11 17//11 2//11
f 4//12 10//12 3//12
f 20//13 23//13 28//13
f 9//14 10//14 2//14
f 7//15 6//15 13//15
f 27//16 25//16 26//16
f 1//17 3//17 11//17
f 22//18 28//18 29//18
f 21//19 17//19 22//19
f 10//20 9//20 14//20
f 25//21 29//21 26//21
f 29//22 23//22 26//22
f 27//8 17//8 13//8
f 5//23 17//23 13//23
f 8//24 2//24 7//24
f 16//25 24//25 20//25
f 12//26 16//26 20//26
f 14//27 16//27 11//27
f 4//28 3//28 1//28
f 20//29 28//29 17//29
f 28//29 22//29 17//29
f 6//30 7//30 5//30
f 5//31 7//31 17//31
f 7//32 2//32 17//32
f 2//33 1//33 12//33
f 12//34 20//34 2//34
f 15//35 14//35 9//35
f 9//36 8//36 15//36
f 14//37 27//37 15//37
f 27//38 13//38 15//38
f 27//39 23//39 26//39
f 23//40 27//40 18//40
f 18//41 27//41 19//41
f 19//42 27//42 16//42
f 27//43 14//43 16//43
f 20//44 24//44 23//44
f 23//45 29//45 28//45
f 6//46 5//46 13//46
f 13//47 15//47 7//47
f 8//48 7//48 15//48
f 27//49 21//49 25//49
f 3//50 14//50 11//50
f 12//51 1//51 11//51
f 24//52 19//52 18//52
f 12//29 17//29 1//29
f 17//53 2//53 1//53
f 17//54 5//54 2//54
f 5//55 6//55 2//55
f 6//56 7//56 2//56
f 20//57 28//57 12//57
f 28//29 22//29 12//29
f 22//29 17//29 12//29
f 21//8 17//8 13//8
f 15//58 14//58 13//58
f 13//59 14//59 27//59
f 27//60 18//60 14//60
f 18//61 19//61 14//61
f 19//62 16//62 14//62
f 24//63 29//63 20//63
f 29//64 28//64 20//64
f 21//65 13//65 27//65
f 25//66 26//66 21//66
f 26//67 27//67 21//67
f 26//68 27//68 18//68
f 26//69 18//69 23//69
f 23//70 29//70 24//70
