# Blender 4.0.0
# www.blender.org
o decimated_mesh
v 0.028775 0.007464 0.039600
v 0.003258 0.006050 0.048978
v 0.031001 0.007460 0.039600
v 0.003258 0.007464 0.048919
v 0.003236 0.006093 0.050098
v 0.003258 0.007464 0.050299
v 0.030726 0.005790 0.039600
v 0.003997 0.005151 0.049120
v 0.012195 0.005136 0.048920
v 0.025390 0.005176 0.043661
v 0.029878 0.005118 0.039574
v 0.012842 0.006336 0.049028
v 0.025361 0.007459 0.043928
v 0.012867 0.007464 0.049036
vn 0.0358 -0.0060 -0.9993
vn -0.7736 -0.6336 0.0090
vn 0.1131 -0.1492 0.9823
vn 0.3921 -0.0145 0.9198
vn 0.6066 -0.0847 0.7905
vn 0.3570 -0.2727 0.8934
vn 0.5030 -0.6568 0.5618
vn 0.0158 -0.7137 0.7003
vn 0.1303 -0.0093 0.9914
vn -0.3428 -0.0389 -0.9386
vn -0.3180 -0.3972 -0.8609
vn -0.0000 1.0000 -0.0000
vn -0.0001 0.0112 -0.9999
vn -0.9999 0.0160 -0.0000
vn -0.9998 -0.0008 -0.0196
vn 0.3764 -0.1029 0.9207
vn 0.6098 -0.1001 0.7862
vn 0.0155 -0.9994 0.0313
vn -0.0018 -1.0000 -0.0015
vn 0.1131 -0.1459 0.9828
vn -0.3341 -0.1466 -0.9311
vn 0.0013 1.0000 0.0022
vn 0.0020 1.0000 0.0027
vn 0.3832 -0.1025 0.9180
vn 0.3784 -0.0142 0.9256
s 0
f 3//1 7//1 11//1
f 2//2 8//2 5//2
f 12//3 5//3 9//3
f 14//4 12//4 10//4
f 10//5 3//5 13//5
f 10//6 12//6 9//6
f 11//7 7//7 10//7
f 9//8 5//8 8//8
f 6//9 12//9 14//9
f 1//10 2//10 4//10
f 11//11 8//11 2//11
f 1//12 4//12 14//12
f 11//13 1//13 3//13
f 5//14 6//14 4//14
f 2//15 5//15 4//15
f 13//16 14//16 10//16
f 10//17 7//17 3//17
f 10//18 9//18 11//18
f 8//19 11//19 9//19
f 6//20 5//20 12//20
f 1//21 11//21 2//21
f 4//12 6//12 14//12
f 14//22 13//22 1//22
f 13//23 3//23 1//23
f 13//24 12//24 10//24
f 12//25 13//25 14//25
