# Blender 4.0.0
# www.blender.org
o decimated_mesh
v -0.045235 0.103367 0.020601
v -0.039887 0.103373 0.020600
v -0.043688 0.103382 -0.010464
v -0.039479 0.102348 0.020600
v -0.048838 0.103254 0.012872
v -0.046319 0.103256 0.018968
v -0.043299 0.102313 -0.010463
v -0.048888 0.103369 -0.010463
v -0.050648 0.102120 0.000052
v -0.050061 0.103249 0.003654
v -0.045785 0.102350 0.020601
v -0.049283 0.102298 -0.010464
v -0.050213 0.103328 -0.002019
v -0.045820 0.010753 0.020600
v -0.039325 0.010753 0.020600
v -0.042948 0.010333 -0.010464
v -0.049358 0.010333 -0.010464
v -0.049017 0.010772 0.012930
v -0.050690 0.010307 0.000153
vn -0.9824 0.1386 -0.1251
vn -0.0000 0.0001 -1.0000
vn -0.9230 -0.3675 0.1139
vn -0.2611 0.9593 0.1076
vn -0.9231 0.0004 0.3847
vn -0.7705 0.4161 0.4829
vn -0.9283 0.3428 -0.1441
vn -0.1357 0.9906 0.0175
vn -0.1350 -0.9894 0.0537
vn -0.9922 0.0003 -0.1246
vn -0.9933 -0.0038 0.1159
vn -0.0192 0.9998 0.0068
vn -0.0000 -0.0000 -1.0000
vn -0.0000 -0.0001 -1.0000
vn -0.9336 -0.3396 0.1141
vn -0.0000 -1.0000 -0.0025
vn 0.0189 -0.9998 0.0113
vn -0.0000 -0.9998 0.0218
vn -0.9300 0.0020 0.3676
vn -0.9230 0.3835 0.0302
vn -0.9868 0.0959 0.1308
vn -0.9149 0.1416 0.3780
vn -0.9902 0.0020 0.1396
vn -0.9915 0.0006 0.1299
vn -0.9917 0.0008 -0.1287
vn -0.9925 -0.0017 0.1221
vn -0.0000 -0.0000 1.0000
vn 0.0002 -0.0000 1.0000
vn 0.0002 0.0006 1.0000
vn 0.0001 0.0002 1.0000
vn -0.0011 0.9999 -0.0142
vn -0.0068 1.0000 0.0011
vn -0.0026 1.0000 0.0044
vn 0.0001 0.0007 1.0000
vn 0.0002 0.0003 1.0000
vn -0.0011 1.0000 0.0004
vn -0.9231 -0.3676 0.1129
vn -0.0174 0.9998 0.0021
vn -0.0526 0.9986 0.0098
vn -0.0026 1.0000 0.0003
vn -0.9933 -0.0017 0.1159
vn -0.9925 -0.0038 0.1221
vn -0.9335 -0.3396 0.1152
s 0
f 9//1 13//1 12//1
f 12//2 8//2 7//2
f 7//3 4//3 2//3
f 5//4 6//4 1//4
f 18//5 14//5 11//5
f 6//6 11//6 1//6
f 8//7 12//7 13//7
f 10//8 5//8 13//8
f 14//9 18//9 19//9
f 9//10 17//10 19//10
f 7//11 16//11 15//11
f 13//12 5//12 2//12
f 7//13 16//13 12//13
f 16//13 17//13 12//13
f 8//14 3//14 7//14
f 7//15 2//15 3//15
f 17//16 16//16 19//16
f 16//17 15//17 19//17
f 15//18 14//18 19//18
f 5//19 18//19 11//19
f 10//20 13//20 9//20
f 9//21 5//21 10//21
f 5//22 11//22 6//22
f 5//23 9//23 18//23
f 19//24 18//24 9//24
f 9//25 12//25 17//25
f 7//26 15//26 4//26
f 11//27 14//27 15//27
f 15//28 4//28 11//28
f 11//29 4//29 1//29
f 2//30 1//30 4//30
f 1//31 2//31 5//31
f 2//32 3//32 13//32
f 3//33 8//33 13//33
f 2//34 1//34 11//34
f 4//35 2//35 11//35
f 3//36 1//36 2//36
f 4//37 2//37 3//37
f 8//38 13//38 1//38
f 13//39 5//39 1//39
f 3//40 8//40 1//40
f 16//41 15//41 4//41
f 16//42 4//42 7//42
f 7//43 4//43 3//43
f 7//14 12//14 3//14
f 12//2 8//2 3//2
