# Blender 4.0.0
# www.blender.org
o decimated_mesh
v 0.047397 0.103409 0.014308
v 0.048394 0.103001 0.014288
v 0.045165 0.103288 0.000009
v 0.042682 0.103287 0.014312
v 0.050526 0.103059 0.000009
v 0.050655 0.096564 0.010499
v 0.044643 0.102231 0.000008
v 0.048467 0.014282 0.014312
v 0.050650 0.030658 0.010707
v 0.042021 0.102227 0.014313
v 0.048887 0.009501 0.013062
v 0.042512 0.009500 0.000009
v 0.040286 0.009501 0.013062
v 0.042003 0.014273 0.014312
v 0.050630 0.009499 0.000014
vn 0.9855 -0.0226 0.1681
vn -0.0260 0.9997 -0.0044
vn -0.0001 0.0001 1.0000
vn -0.0000 1.0000 -0.0000
vn -0.0000 -0.2535 0.9673
vn 0.8537 0.0008 0.5208
vn 0.9889 -0.0677 0.1322
vn -0.0000 -0.0000 1.0000
vn -0.8396 0.5234 -0.1457
vn -0.8847 0.4370 -0.1620
vn 0.9084 -0.0293 0.4172
vn -0.5889 0.0001 0.8082
vn 0.9834 -0.0208 0.1802
vn 1.0000 0.0011 -0.0041
vn 0.9999 -0.0001 -0.0124
vn 0.0427 0.9990 -0.0151
vn -0.0006 -0.0000 1.0000
vn -0.0000 0.0009 -1.0000
vn 0.0002 1.0000 -0.0001
vn 0.0004 -0.2530 0.9675
vn 0.8598 0.0015 0.5106
vn 0.0040 0.0003 1.0000
vn 0.0078 -0.0314 0.9995
vn 0.0008 0.0004 1.0000
vn 0.3792 0.9233 0.0604
vn 0.9571 0.2515 0.1439
vn 0.0014 0.0001 1.0000
vn 0.0008 0.0001 1.0000
vn -0.0001 -0.0000 1.0000
vn 0.9834 -0.0226 0.1802
vn 0.9856 -0.0207 0.1681
vn 0.0208 0.0003 0.9998
vn 0.9999 0.0011 -0.0117
vn -0.0006 0.0001 1.0000
vn 0.0002 1.0000 -0.0000
vn -0.0000 1.0000 -0.0001
vn 1.0000 -0.0001 -0.0017
s 0
f 13//1 12//1 7//1
f 3//2 4//2 1//2
f 5//3 7//3 15//3
f 11//4 12//4 13//4
f 11//5 14//5 13//5
f 9//6 2//6 8//6
f 9//7 11//7 15//7
f 10//8 14//8 8//8
f 4//9 3//9 10//9
f 7//10 10//10 3//10
f 8//11 11//11 9//11
f 13//12 14//12 10//12
f 13//13 7//13 10//13
f 15//14 5//14 9//14
f 9//15 5//15 6//15
f 1//16 5//16 3//16
f 15//17 7//17 12//17
f 3//18 5//18 7//18
f 15//19 12//19 11//19
f 11//20 8//20 14//20
f 9//21 6//21 2//21
f 8//22 2//22 10//22
f 10//23 2//23 1//23
f 1//24 4//24 10//24
f 2//25 5//25 1//25
f 6//26 5//26 2//26
f 10//27 8//27 4//27
f 8//28 1//28 4//28
f 5//29 7//29 12//29
f 7//30 10//30 12//30
f 12//31 10//31 13//31
f 2//32 1//32 8//32
f 6//33 15//33 5//33
f 15//34 5//34 12//34
f 15//35 12//35 13//35
f 15//36 13//36 11//36
f 15//37 6//37 9//37
