# Blender 4.0.0
# www.blender.org
o Mug_1_mug_1_0_collision_7
v 0.033312 0.007464 0.009416
v 0.024640 0.007464 0.024431
v 0.034042 0.007747 0.009416
v 0.049504 0.007464 0.009416
v 0.025346 0.007679 0.024431
v 0.044320 0.007464 0.024431
v 0.043507 0.010726 0.009416
v 0.049504 0.010732 0.009416
v 0.049326 0.010732 0.010757
v 0.049336 0.007464 0.010683
v 0.025974 0.007843 0.024431
v 0.044519 0.010732 0.009416
v 0.037052 0.010732 0.024431
v 0.044385 0.007464 0.024305
v 0.044351 0.010732 0.024371
v 0.049243 0.007464 0.011378
v 0.049243 0.010732 0.011378
v 0.045632 0.007464 0.021297
v 0.048428 0.010732 0.014549
v 0.048467 0.007464 0.014453
v 0.048467 0.010732 0.014453
vn 0.3532 -0.9130 0.2040
vn -0.0000 -0.0000 1.0000
vn -0.0000 -1.0000 -0.0000
vn 0.2874 -0.9451 0.1558
vn 0.2960 -0.9403 0.1677
vn -0.0000 0.0184 0.9998
vn 0.0083 -0.0313 0.9995
vn 0.9913 -0.0000 0.1314
vn 0.2513 -0.9618 0.1088
vn 0.2509 -0.9620 0.1082
vn -0.0000 1.0000 -0.0004
vn -0.0008 1.0000 -0.0003
vn -0.0009 1.0000 -0.0002
vn -0.0010 1.0000 -0.0001
vn 0.8873 -0.0001 0.4613
vn 0.9913 -0.0000 0.1319
vn 0.9238 -0.0001 0.3828
vn 0.9236 0.0019 0.3833
vn 0.9696 -0.0000 0.2448
vn 0.9239 -0.0002 0.3828
vn 0.9260 -0.0000 0.3774
vn -0.0000 -1.0000 -0.0003
vn -0.0057 1.0000 -0.0028
vn 0.0083 0.0184 0.9998
vn 0.9913 0.0001 0.1316
vn -0.0000 1.0000 -0.0000
vn 0.9238 -0.0002 0.3828
s 0
f 1//1 3//1 2//1
f 1//2 7//2 3//2
f 1//2 12//2 7//2
f 1//2 8//2 12//2
f 1//2 4//2 8//2
f 1//3 4//3 10//3
f 1//3 10//3 16//3
f 1//3 16//3 20//3
f 1//3 20//3 18//3
f 1//3 18//3 14//3
f 1//3 14//3 6//3
f 1//3 6//3 2//3
f 2//4 7//4 5//4
f 2//5 3//5 7//5
f 2//6 6//6 15//6
f 2//7 15//7 13//7
f 2//2 13//2 11//2
f 2//2 11//2 5//2
f 4//8 8//8 9//8
f 4//8 9//8 10//8
f 5//9 7//9 11//9
f 7//10 13//10 11//10
f 7//11 13//11 15//11
f 7//12 15//12 19//12
f 7//12 19//12 21//12
f 7//13 21//13 17//13
f 7//14 17//14 9//14
f 7//14 9//14 8//14
f 7//2 8//2 12//2
f 6//15 14//15 15//15
f 9//16 16//16 10//16
f 9//16 17//16 16//16
f 14//17 18//17 19//17
f 14//18 19//18 15//18
f 16//19 17//19 21//19
f 16//19 21//19 20//19
f 18//20 20//20 19//20
f 19//21 20//21 21//21
f 3//2 12//2 7//2
f 3//2 8//2 12//2
f 3//2 4//2 8//2
f 3//2 1//2 4//2
f 4//22 10//22 16//22
f 4//3 16//3 20//3
f 4//3 20//3 14//3
f 4//3 14//3 6//3
f 4//3 6//3 2//3
f 4//3 2//3 1//3
f 6//2 13//2 11//2
f 6//2 11//2 5//2
f 6//2 5//2 2//2
f 8//8 10//8 4//8
f 13//23 12//23 7//23
f 15//24 13//24 6//24
f 17//25 10//25 8//25
f 12//26 13//26 15//26
f 12//26 15//26 19//26
f 12//26 19//26 21//26
f 12//26 21//26 17//26
f 12//26 17//26 8//26
f 17//16 16//16 10//16
f 20//27 19//27 14//27
