# Blender 4.0.0
# www.blender.org
o decimated_mesh
v 0.050631 0.009503 0.000147
v 0.041300 0.014270 -0.028737
v 0.050561 0.002405 -0.000147
v 0.003637 0.009499 0.050218
v 0.012796 0.009499 0.049012
v 0.025294 0.009499 0.043916
v 0.035768 0.009494 0.035851
v 0.043854 0.009499 0.025313
v 0.048859 0.009499 0.013184
v 0.048936 0.008728 -0.013048
v 0.044073 0.008785 -0.024883
v 0.048934 0.003175 0.012799
v 0.049227 0.002363 0.010215
v 0.049227 0.002363 -0.010205
v 0.048885 0.003110 -0.012891
v 0.003642 0.014270 -0.050218
v 0.003637 0.003060 0.050166
v 0.025221 0.003027 0.043886
v 0.035697 0.003043 0.035819
v 0.043921 0.003165 0.025111
v 0.035771 0.014270 -0.035846
v 0.048188 0.001228 0.012599
v 0.047986 0.002349 0.015150
v 0.048283 0.001375 -0.012495
v 0.049058 0.000213 0.000061
v 0.048392 -0.000373 0.001906
v 0.012668 0.002599 0.048971
v 0.015491 0.002286 0.047789
v 0.024752 0.002166 0.043854
v 0.027434 0.002284 0.042148
v 0.035703 0.001976 0.035371
v 0.038973 0.002412 0.031607
v 0.043572 0.002336 0.025484
v 0.047981 0.002349 -0.015140
v 0.038769 0.002424 -0.031876
v 0.035744 0.003060 -0.035760
v 0.048197 -0.000328 -0.003837
v 0.046940 -0.000301 0.012841
v 0.012650 0.002613 -0.048974
v 0.013184 0.001271 0.048017
v 0.003643 0.002482 -0.050075
v 0.003644 -0.000353 -0.048153
v 0.003642 -0.000677 -0.047082
v 0.024253 -0.000208 0.042311
v 0.043749 0.002365 -0.025211
v 0.042109 -0.000215 -0.024557
v 0.035691 0.001955 -0.035351
v 0.046952 -0.000304 -0.012772
v 0.046068 -0.000666 0.011925
v 0.012870 0.014270 -0.048986
v 0.003637 0.001860 0.049756
v 0.003637 -0.000677 0.047091
v 0.012643 0.000082 -0.047343
v 0.034449 -0.000271 0.034424
v 0.042117 -0.000229 0.024566
v 0.046064 -0.000668 -0.011915
v 0.015491 0.002286 -0.047780
v 0.011560 0.000024 0.047471
v 0.003641 -0.000344 0.048198
v 0.013403 -0.000337 -0.046683
v 0.013422 -0.000593 -0.045823
v 0.013350 -0.000331 0.046714
v 0.034368 -0.000168 -0.034614
v 0.031630 0.002382 -0.038932
v 0.013422 -0.000592 0.045833
v 0.024262 -0.000199 -0.042310
v 0.024729 -0.000595 0.040809
v 0.041042 -0.000584 0.024480
v 0.041038 -0.000584 -0.024490
v 0.026664 0.002349 -0.042726
v 0.025221 0.003027 -0.043886
v 0.024664 0.002178 -0.043892
v 0.024729 -0.000595 -0.040809
v 0.034200 -0.000433 -0.034110
v 0.025285 0.014270 -0.043916
vn 0.2058 -0.6046 0.7695
vn 0.0565 -0.9968 -0.0559
vn 0.6086 -0.0106 0.7934
vn 0.6662 -0.5509 -0.5027
vn 0.3400 -0.9390 0.0514
vn 0.4658 -0.5488 0.6941
vn 0.9071 0.1973 -0.3718
vn 0.4562 -0.5452 -0.7033
vn 0.3137 -0.5679 -0.7610
vn 0.5196 -0.3128 0.7951
vn 0.9913 -0.0127 -0.1310
vn 0.3376 0.9402 0.0461
vn 0.0059 -1.0000 0.0069
vn 0.1215 -0.0120 -0.9925
vn 0.9261 -0.0120 0.3771
vn 0.3039 -0.9244 -0.2305
vn 0.8026 -0.0134 -0.5964
vn 0.8161 -0.5690 -0.1014
vn 0.2901 -0.9310 0.2217
vn 0.7994 -0.0171 0.6006
vn 0.1012 -0.5742 0.8124
vn 0.3757 -0.0085 0.9267
vn 0.3766 -0.0863 0.9224
vn -0.0000 1.0000 -0.0000
vn 0.0928 -0.7889 -0.6075
vn 0.7477 0.6503 -0.1342
vn 0.5962 -0.3078 0.7415
vn 0.7597 -0.5710 0.3112
vn 0.9917 -0.0151 0.1276
vn 0.0915 -0.8011 0.5915
vn 0.1080 -0.3213 0.9408
vn 0.6072 -0.0090 -0.7945
vn 0.0611 0.9950 0.0788
vn 0.2928 -0.4804 0.8268
vn 0.9000 -0.2059 0.3842
vn 0.1284 -0.9484 -0.2898
vn 0.9248 -0.0138 -0.3801
vn 0.1879 0.9791 0.0775
vn 0.1305 -0.0082 0.9914
vn 0.3763 -0.2413 -0.8945
vn 0.4970 -0.3210 -0.8062
vn -1.0000 -0.0017 -0.0021
vn 0.6101 -0.0132 0.7922
vn 0.6155 -0.0106 0.7881
vn 0.6490 -0.5714 -0.5022
vn 0.6487 -0.5763 -0.4971
vn 0.8241 -0.5533 0.1217
vn 0.8197 -0.5635 0.1032
vn 0.8284 -0.5514 0.0984
vn 0.7784 -0.6185 0.1075
vn 0.1253 -0.9921 -0.0000
vn 0.3375 -0.9400 -0.0496
vn 0.2125 -0.9770 -0.0150
vn 0.8998 -0.3686 0.2334
vn 0.9036 -0.3685 0.2182
vn 0.4931 -0.5871 0.6421
vn 0.5124 -0.5603 0.6508
vn 0.4987 -0.5762 -0.6475
vn 0.5191 -0.5501 -0.6542
vn 0.4990 -0.5697 -0.6530
vn 0.9912 -0.0184 -0.1313
vn 0.3314 -0.5763 -0.7470
vn 0.3172 -0.5620 -0.7639
vn 0.9919 -0.0045 -0.1271
vn 0.6128 -0.3007 -0.7308
vn 0.0120 -0.9999 0.0113
vn 0.0123 -0.9995 0.0283
vn 0.0002 -1.0000 -0.0000
vn 0.0121 -0.9995 -0.0275
vn 0.0121 -0.9999 -0.0115
vn 0.0059 -1.0000 -0.0069
vn 0.0003 -1.0000 0.0001
vn 0.7445 -0.2547 0.6171
vn 0.1323 -0.0035 -0.9912
vn 0.6169 -0.7866 -0.0272
vn 0.1260 -0.9504 0.2842
vn 0.1281 -0.9481 0.2910
vn 0.2350 -0.9209 0.3111
vn 0.0452 -0.9569 0.2868
vn 0.0452 -0.9567 0.2875
vn 0.9059 -0.3640 -0.2165
vn 0.8996 -0.3666 -0.2375
vn 0.9244 -0.0024 0.3815
vn 0.2751 -0.9539 -0.1202
vn 0.3154 -0.9397 -0.1323
vn 0.1011 -0.5582 -0.8235
vn 0.1099 -0.5386 -0.8353
vn 0.8010 -0.0097 -0.5986
vn 0.7884 -0.0066 -0.6151
vn 0.7894 -0.0059 -0.6138
vn 0.7391 -0.2654 -0.6191
vn 0.8257 -0.5550 -0.1010
vn 0.8185 -0.5646 -0.1062
vn 0.0948 -0.9910 0.0941
vn 0.7450 -0.0134 0.6669
vn 0.7933 -0.0058 0.6087
vn 0.7885 -0.0117 0.6149
vn 0.1378 -0.5421 0.8290
vn 0.1165 -0.5368 0.8356
vn 0.3775 -0.0124 0.9259
vn 0.2792 -0.5207 -0.8068
vn 0.7605 -0.5647 -0.3205
vn 0.7719 -0.5630 -0.2952
vn 0.7557 -0.5742 -0.3149
vn 0.3772 -0.2388 0.8948
vn 0.0204 0.9973 0.0700
vn 0.0001 1.0000 -0.0001
vn -0.0271 0.9985 0.0474
vn 0.4053 -0.8578 -0.3160
vn 0.2753 -0.9540 0.1190
vn 0.3022 -0.9447 0.1271
vn 0.7567 -0.5730 0.3148
vn 0.7670 -0.5521 0.3269
vn 0.9909 -0.0049 0.1346
vn 0.9938 0.0050 0.1112
vn 0.3780 -0.0081 -0.9258
vn 0.3753 -0.0046 -0.9269
vn 0.3171 -0.5627 0.7634
vn 0.3271 -0.5757 0.7494
vn 0.3134 -0.5689 0.7603
vn 0.6615 -0.5556 0.5038
vn 0.6504 -0.5731 0.4985
vn 0.6507 -0.5682 0.5037
vn 0.7877 -0.6059 -0.1114
vn 0.6247 -0.0056 -0.7808
vn 0.6098 -0.0068 -0.7925
vn 0.6113 -0.0076 -0.7914
vn 0.1068 0.9909 0.0824
vn 0.9261 0.0102 0.3771
vn 0.2394 -0.9180 -0.3163
vn 0.1270 -0.9499 -0.2855
vn 0.9299 -0.0187 -0.3674
vn 0.9216 -0.0266 -0.3873
vn 0.1307 -0.0080 0.9914
vn 0.3761 -0.0973 -0.9214
vn 0.2846 -0.8843 -0.3702
vn 1.0000 -0.0000 -0.0000
vn 1.0000 0.0046 -0.0044
vn -1.0000 -0.0001 -0.0004
vn 0.0450 -0.9564 -0.2885
vn 0.0449 -0.9572 -0.2858
vn 0.9909 0.0035 0.1346
vn 0.9920 -0.0150 0.1255
vn 0.9288 -0.0116 0.3705
vn 0.9256 -0.0090 0.3784
vn 0.9907 -0.0475 0.1273
vn 0.8171 -0.5671 -0.1034
vn 0.8318 -0.5445 -0.1080
vn 0.8337 -0.5421 0.1051
vn 0.8250 -0.5558 0.1022
vn 0.8048 -0.0101 -0.5935
vn 0.8010 -0.0125 -0.5986
vn 0.0085 0.9979 0.0643
vn 0.0293 0.9970 0.0719
vn 0.7961 -0.0109 0.6051
vn 0.7975 -0.0657 0.5998
vn 0.8029 -0.5872 0.1032
vn 0.6532 -0.5666 -0.5024
vn 0.6112 -0.0076 -0.7915
vn 0.6099 -0.0056 -0.7925
vn 0.3781 -0.0046 -0.9258
vn 0.3758 -0.0124 0.9266
vn 0.3775 -0.0085 0.9260
vn 0.6101 -0.0105 0.7923
vn 0.6101 -0.0106 0.7923
vn 0.3019 -0.9445 0.1299
vn 0.2771 -0.9537 0.1172
vn 0.6551 -0.5631 0.5037
vn 0.6480 -0.5731 0.5016
vn 0.2777 -0.9535 -0.1173
vn 0.3149 -0.9393 -0.1364
vn 0.6464 -0.5761 -0.5003
vn 0.6112 -0.0065 -0.7915
vn 0.6062 -0.0654 -0.7926
vn 0.3754 -0.0080 -0.9268
vn 1.0000 0.0033 -0.0040
vn 1.0000 -0.0014 0.0041
vn 0.6097 -0.0364 0.7918
vn 0.1265 -0.9500 -0.2855
vn 0.1288 -0.9484 -0.2899
vn 0.4969 -0.5748 -0.6502
vn 0.5031 -0.5658 -0.6533
vn 0.3173 -0.5619 -0.7639
vn 0.3173 -0.5615 -0.7642
vn 0.3035 -0.6071 -0.7344
vn 0.3105 -0.5802 0.7529
vn 0.3181 -0.5626 0.7630
vn 0.3195 -0.5541 0.7687
s 0
f 62//1 40//1 58//1
f 73//2 74//2 69//2
f 30//3 19//3 7//3
f 35//4 45//4 46//4
f 26//5 38//5 49//5
f 30//6 29//6 44//6
f 10//7 11//7 2//7
f 70//8 66//8 72//8
f 66//9 60//9 57//9
f 18//10 29//10 30//10
f 15//11 10//11 3//11
f 1//12 2//12 9//12
f 49//13 67//13 52//13
f 16//14 39//14 41//14
f 9//15 20//15 12//15
f 69//16 74//16 46//16
f 2//17 11//17 35//17
f 3//18 25//18 37//18
f 54//19 68//19 55//19
f 32//20 33//20 8//20
f 51//21 59//21 58//21
f 27//22 18//22 6//22
f 28//23 18//23 27//23
f 75//24 16//24 2//24
f 60//25 42//25 53//25
f 10//26 2//26 1//26
f 31//27 19//27 30//27
f 22//28 23//28 38//28
f 13//29 3//29 1//29
f 58//30 59//30 62//30
f 51//31 27//31 17//31
f 64//32 70//32 75//32
f 2//33 6//33 7//33
f 40//34 28//34 27//34
f 23//35 20//35 33//35
f 73//36 61//36 66//36
f 34//37 11//37 10//37
f 8//38 9//38 2//38
f 27//39 5//39 4//39
f 71//40 72//40 57//40
f 70//41 72//41 71//41
f 41//42 42//42 43//42
f 7//43 6//43 30//43
f 6//44 18//44 30//44
f 46//45 63//45 35//45
f 63//46 47//46 35//46
f 26//47 25//47 3//47
f 3//48 13//48 26//48
f 26//49 13//49 22//49
f 38//50 26//50 22//50
f 49//51 56//51 26//51
f 56//52 48//52 37//52
f 26//53 56//53 37//53
f 23//54 22//54 12//54
f 22//55 13//55 12//55
f 44//56 54//56 30//56
f 30//57 54//57 31//57
f 70//58 64//58 66//58
f 64//59 47//59 63//59
f 63//60 66//60 64//60
f 14//61 15//61 3//61
f 60//62 53//62 57//62
f 57//63 72//63 66//63
f 10//64 1//64 3//64
f 47//65 64//65 36//65
f 49//66 68//66 67//66
f 67//67 65//67 52//67
f 52//68 43//68 56//68
f 43//69 61//69 73//69
f 56//70 73//70 69//70
f 43//71 73//71 56//71
f 56//72 49//72 52//72
f 31//73 32//73 19//73
f 50//74 39//74 16//74
f 37//75 25//75 26//75
f 65//76 67//76 44//76
f 62//77 65//77 44//77
f 67//78 54//78 44//78
f 65//79 62//79 52//79
f 62//80 59//80 52//80
f 14//81 24//81 15//81
f 24//82 34//82 15//82
f 9//83 8//83 20//83
f 46//84 48//84 56//84
f 69//85 46//85 56//85
f 53//86 42//86 41//86
f 41//87 39//87 53//87
f 45//88 35//88 11//88
f 35//89 36//89 21//89
f 2//90 35//90 21//90
f 35//91 47//91 36//91
f 37//92 24//92 14//92
f 14//93 3//93 37//93
f 54//94 67//94 68//94
f 33//95 20//95 8//95
f 8//96 7//96 32//96
f 7//97 19//97 32//97
f 58//98 40//98 27//98
f 27//99 51//99 58//99
f 6//100 5//100 27//100
f 39//101 57//101 53//101
f 45//102 34//102 46//102
f 34//103 24//103 48//103
f 48//104 46//104 34//104
f 28//105 29//105 18//105
f 5//24 6//24 4//24
f 6//106 2//106 4//106
f 75//107 2//107 21//107
f 50//24 16//24 75//24
f 16//108 4//108 2//108
f 74//109 63//109 46//109
f 38//110 55//110 49//110
f 49//111 55//111 68//111
f 55//112 38//112 23//112
f 33//113 55//113 23//113
f 1//114 9//114 13//114
f 12//115 13//115 9//115
f 50//116 75//116 39//116
f 75//117 71//117 39//117
f 29//118 28//118 44//118
f 28//119 40//119 62//119
f 62//120 44//120 28//120
f 33//121 32//121 55//121
f 31//122 54//122 32//122
f 54//123 55//123 32//123
f 24//124 37//124 48//124
f 70//125 71//125 75//125
f 75//126 21//126 64//126
f 21//127 36//127 64//127
f 7//128 8//128 2//128
f 23//129 12//129 20//129
f 66//130 74//130 73//130
f 60//131 66//131 61//131
f 15//132 34//132 10//132
f 34//133 45//133 11//133
f 4//134 17//134 27//134
f 39//135 71//135 57//135
f 74//136 66//136 63//136
f 43//137 16//137 52//137
f 4//137 17//137 52//137
f 59//138 52//138 51//138
f 52//137 17//137 51//137
f 4//137 52//137 16//137
f 16//139 41//139 43//139
f 42//140 60//140 43//140
f 60//141 61//141 43//141
f 9//142 12//142 1//142
f 12//143 3//143 1//143
f 23//144 12//144 9//144
f 20//145 23//145 9//145
f 13//146 3//146 12//146
f 37//147 24//147 3//147
f 24//148 14//148 3//148
f 13//149 22//149 3//149
f 22//150 25//150 3//150
f 11//151 45//151 2//151
f 45//152 35//152 2//152
f 4//153 5//153 2//153
f 5//154 6//154 2//154
f 32//155 20//155 8//155
f 32//156 33//156 20//156
f 26//157 25//157 22//157
f 46//158 47//158 35//158
f 36//159 71//159 21//159
f 71//160 75//160 21//160
f 71//161 50//161 75//161
f 17//137 16//137 4//137
f 43//137 16//137 17//137
f 27//162 18//162 5//162
f 18//163 6//163 5//163
f 18//164 19//164 6//164
f 19//165 7//165 6//165
f 55//166 68//166 38//166
f 68//167 49//167 38//167
f 32//168 31//168 55//168
f 31//169 54//169 55//169
f 69//170 48//170 56//170
f 69//171 46//171 48//171
f 63//172 47//172 46//172
f 64//173 71//173 36//173
f 64//174 70//174 71//174
f 39//175 50//175 71//175
f 43//137 17//137 52//137
f 52//176 17//176 59//176
f 59//177 17//177 51//177
f 30//178 19//178 18//178
f 61//179 60//179 73//179
f 60//180 66//180 73//180
f 66//181 70//181 63//181
f 70//182 64//182 63//182
f 66//183 53//183 72//183
f 53//184 57//184 72//184
f 66//185 60//185 53//185
f 62//186 44//186 40//186
f 44//187 29//187 40//187
f 29//188 28//188 40//188
