# Blender 4.0.0
# www.blender.org
o decimated_mesh
v -0.044609 0.103447 -0.010466
v -0.043643 0.103330 -0.010466
v -0.031270 0.103447 -0.033856
v -0.048815 0.103267 -0.012679
v -0.048895 0.103378 -0.010467
v -0.031270 0.103331 -0.032396
v -0.031271 0.103305 -0.039027
v -0.043840 0.103237 -0.025165
v -0.049285 0.102276 -0.010466
v -0.048932 0.102040 -0.013018
v -0.043384 0.102599 -0.010466
v -0.035915 0.103200 -0.035373
v -0.039819 0.103257 -0.030386
v -0.031269 0.102400 -0.031822
v -0.035023 0.102234 -0.036486
v -0.036284 0.102317 -0.035262
v -0.048877 0.010333 -0.013392
v -0.049358 0.010333 -0.010466
v -0.031270 0.102152 -0.039377
v -0.042947 0.010333 -0.010466
v -0.043903 0.010341 -0.025395
v -0.031276 0.010334 -0.031406
v -0.035917 0.010333 -0.035776
v -0.031270 0.010333 -0.039420
vn 1.0000 0.0002 -0.0001
vn -0.7625 0.2430 -0.5997
vn 0.1198 0.9905 0.0676
vn -0.6101 -0.0002 -0.7923
vn -0.9868 0.0001 -0.1620
vn -0.9223 0.0010 -0.3865
vn -0.8322 -0.2952 -0.4693
vn -0.9415 0.3331 -0.0506
vn -0.5900 0.2335 -0.7729
vn -0.6771 0.1934 -0.7101
vn -0.9123 0.1876 -0.3639
vn 1.0000 0.0014 -0.0004
vn 1.0000 0.0003 -0.0000
vn 1.0000 -0.0001 0.0008
vn 1.0000 -0.0000 -0.0000
vn -0.6967 0.0012 -0.7174
vn -0.7797 0.1792 -0.5999
vn -0.8006 0.0002 -0.5992
vn -0.7926 0.0020 -0.6098
vn 0.8698 0.0041 0.4934
vn 0.8735 0.0021 0.4868
vn 0.1373 0.9874 0.0783
vn -0.6170 0.0004 -0.7869
vn -0.9906 0.0008 -0.1370
vn -0.9238 0.0016 -0.3829
vn -0.8335 -0.2900 -0.4703
vn -0.5921 0.3104 -0.7436
vn -0.9798 0.1344 -0.1478
vn 0.0003 1.0000 -0.0006
vn 0.0002 -1.0000 -0.0000
vn 0.0008 1.0000 0.0005
vn -0.0000 1.0000 -0.0000
vn -0.0003 1.0000 0.0005
vn -0.0000 -0.0000 1.0000
vn -0.0000 -0.0000 -1.0000
vn -0.0002 0.0009 1.0000
vn -0.0160 0.9986 -0.0506
vn -0.0276 0.9995 -0.0157
vn -0.0441 0.9986 -0.0275
vn -0.0301 0.9994 -0.0193
vn -0.0393 0.9983 -0.0422
vn -0.0342 0.9993 -0.0161
vn -0.9238 0.0010 -0.3829
vn -0.9223 0.0016 -0.3865
vn 0.0001 1.0000 -0.0000
vn -0.0002 1.0000 -0.0001
vn -0.8336 -0.2899 -0.4702
vn -0.8321 -0.2952 -0.4695
vn 0.1386 0.9872 0.0783
vn 0.1198 0.9904 0.0683
vn -0.0160 0.9998 -0.0091
vn -0.0303 0.9993 -0.0199
vn -0.0316 0.9993 -0.0205
vn -0.1301 0.9900 -0.0543
vn 0.0042 1.0000 0.0024
vn -0.8005 0.0020 -0.5993
vn -0.7926 0.0002 -0.6098
vn -0.6170 -0.0001 -0.7869
vn -0.0334 0.9991 -0.0275
vn -0.0816 0.9938 -0.0752
vn -0.6101 0.0004 -0.7923
s 0
f 14//1 19//1 3//1
f 13//2 12//2 16//2
f 2//3 6//3 1//3
f 19//4 23//4 15//4
f 18//5 10//5 17//5
f 17//6 10//6 8//6
f 14//7 11//7 2//7
f 4//8 9//8 5//8
f 15//9 7//9 19//9
f 16//10 12//10 15//10
f 10//11 4//11 8//11
f 7//12 3//12 19//12
f 3//13 6//13 14//13
f 14//14 22//14 24//14
f 19//15 14//15 24//15
f 23//16 16//16 15//16
f 16//17 8//17 13//17
f 8//18 16//18 23//18
f 23//19 21//19 8//19
f 11//20 20//20 14//20
f 20//21 22//21 14//21
f 6//22 3//22 1//22
f 19//23 24//23 23//23
f 18//24 9//24 10//24
f 21//25 17//25 8//25
f 14//26 2//26 6//26
f 15//27 12//27 7//27
f 4//28 10//28 9//28
f 21//29 22//29 23//29
f 23//30 24//30 22//30
f 22//31 21//31 20//31
f 20//32 17//32 18//32
f 17//33 20//33 21//33
f 9//34 18//34 20//34
f 20//34 11//34 9//34
f 9//35 1//35 11//35
f 2//35 11//35 1//35
f 1//36 5//36 9//36
f 5//37 1//37 4//37
f 1//38 3//38 8//38
f 3//39 7//39 12//39
f 8//40 3//40 13//40
f 12//41 13//41 3//41
f 8//42 4//42 1//42
f 11//35 9//35 2//35
f 2//35 9//35 1//35
f 21//43 17//43 10//43
f 8//44 21//44 10//44
f 17//45 18//45 23//45
f 23//32 18//32 20//32
f 23//46 20//46 22//46
f 14//47 11//47 6//47
f 6//48 11//48 2//48
f 6//49 3//49 2//49
f 3//50 1//50 2//50
f 3//51 5//51 1//51
f 3//52 13//52 5//52
f 13//53 8//53 5//53
f 8//54 4//54 5//54
f 23//55 21//55 17//55
f 8//56 16//56 21//56
f 16//57 23//57 21//57
f 15//58 24//58 23//58
f 7//59 13//59 3//59
f 7//60 12//60 13//60
f 15//61 19//61 24//61
