# Blender 4.0.0
# www.blender.org
o decimated_mesh
v 0.045749 0.103455 0.015373
v 0.047707 0.103457 0.002693
v 0.041787 0.103236 0.015370
v 0.047724 0.103439 -0.010743
v 0.043345 0.019355 0.015302
v 0.043588 0.103276 -0.010741
v 0.045963 0.019351 0.000186
v 0.041514 0.019353 0.015370
v 0.045937 0.025981 -0.005727
v 0.044594 0.019353 -0.010741
v 0.043420 0.019353 -0.010741
vn 0.9849 -0.0283 0.1706
vn 0.9866 -0.1064 -0.1236
vn 0.0011 -1.0000 0.0004
vn -0.9976 0.0032 -0.0688
vn 0.9763 -0.0363 -0.2135
vn 0.9880 -0.0250 0.1526
vn 0.9994 -0.0199 -0.0266
vn 0.9997 -0.0230 0.0013
vn 0.0374 -0.0001 0.9993
vn -0.0007 -0.0008 1.0000
vn -0.0004 -1.0000 -0.0000
vn -0.0001 -1.0000 -0.0001
vn 0.0002 -0.0000 -1.0000
vn -0.0005 -0.0000 -1.0000
vn -0.0400 0.9992 -0.0012
vn -0.0553 0.9984 -0.0084
vn -0.0395 0.9992 -0.0014
vn -0.9973 0.0020 -0.0728
vn -0.0096 1.0000 -0.0013
vn -0.0395 0.9992 -0.0036
vn -0.0553 0.9985 -0.0023
vn -0.0007 -0.0000 1.0000
vn 0.0374 -0.0019 0.9993
vn 0.9998 -0.0208 0.0013
vn 0.9992 -0.0251 -0.0325
s 0
f 1//1 5//1 7//1
f 10//2 9//2 7//2
f 7//3 5//3 8//3
f 6//4 8//4 3//4
f 10//5 4//5 9//5
f 7//6 2//6 1//6
f 2//7 7//7 9//7
f 9//8 4//8 2//8
f 3//9 8//9 5//9
f 5//10 1//10 3//10
f 8//11 11//11 7//11
f 10//12 7//12 11//12
f 4//13 10//13 11//13
f 11//14 6//14 4//14
f 6//15 3//15 2//15
f 3//16 1//16 2//16
f 2//17 4//17 6//17
f 6//18 11//18 8//18
f 2//19 4//19 1//19
f 4//20 6//20 1//20
f 6//21 3//21 1//21
f 3//22 8//22 1//22
f 8//23 5//23 1//23
f 7//24 4//24 2//24
f 7//25 9//25 4//25
