# Blender 4.0.0
# www.blender.org
o decimated_mesh
v 0.045715 0.103469 0.015372
v 0.045717 0.103438 0.002765
v 0.043218 0.010747 -0.010760
v 0.043317 0.010736 0.010525
v 0.047710 0.103416 -0.010741
v 0.049348 0.010742 0.010591
v 0.046592 0.019356 0.015370
v 0.047911 0.103244 0.015366
v 0.049140 0.103281 0.010148
v 0.049329 0.010742 -0.010741
v 0.048981 0.103204 -0.010706
v 0.052307 0.030426 0.010495
v 0.048086 0.019356 0.015370
v 0.050521 0.103230 -0.000075
v 0.052288 0.098730 0.006361
v 0.052293 0.030407 -0.010561
v 0.050690 0.010741 0.000002
v 0.052286 0.096802 0.010327
v 0.052286 0.095050 -0.010586
v 0.052287 0.098733 -0.006372
v 0.052285 0.096895 -0.010227
v 0.052286 0.099562 -0.000530
vn 0.0228 -0.0004 -0.9997
vn 0.9813 -0.1469 0.1243
vn 0.7542 0.0016 0.6566
vn 0.9881 -0.0479 0.1459
vn -0.8213 -0.0086 0.5704
vn 0.8760 -0.1294 0.4646
vn 0.8725 0.4409 -0.2107
vn 1.0000 -0.0000 -0.0000
vn -0.0000 -0.4852 0.8744
vn 0.9967 -0.0816 -0.0006
vn 0.8773 0.4318 0.2097
vn 0.9996 -0.0263 -0.0047
vn 0.8517 0.5090 -0.1246
vn 0.9024 0.4278 0.0514
vn 0.8963 0.4390 -0.0621
vn 0.4520 0.1702 -0.8756
vn 0.9813 -0.1467 -0.1243
vn 0.0031 0.0087 -1.0000
vn 0.0315 -0.0013 -0.9995
vn 0.0265 -0.0041 -0.9996
vn 0.7563 0.0019 0.6542
vn 0.0009 1.0000 -0.0000
vn 0.0001 1.0000 0.0005
vn 0.0011 -1.0000 0.0003
vn 0.0027 -0.0000 1.0000
vn -0.0000 0.0001 1.0000
vn 1.0000 0.0001 -0.0007
vn 1.0000 0.0005 -0.0007
vn 1.0000 -0.0018 -0.0005
vn 1.0000 -0.0007 0.0003
vn 1.0000 0.0003 -0.0000
vn -0.0090 -0.4874 0.8732
vn 0.8588 0.4996 0.1135
vn 0.8772 0.4317 0.2102
vn 0.9997 -0.0259 0.0002
vn 0.0203 0.9997 0.0118
vn 0.0438 0.9990 0.0009
vn 0.1650 0.9859 -0.0263
vn 0.0463 0.9989 0.0052
vn 0.1022 0.9948 -0.0025
vn 0.1022 0.9943 0.0311
vn 0.0597 0.9982 0.0031
vn 0.0573 0.9984 0.0023
vn -0.0063 1.0000 -0.0025
vn 0.9996 -0.0270 0.0002
vn 0.9997 -0.0256 -0.0047
vn -0.0000 -0.0000 1.0000
vn 0.0027 0.0001 1.0000
vn 0.8773 0.4315 0.2101
vn 0.8771 0.4321 0.2097
vn 0.0272 0.0005 -0.9996
vn 0.0031 0.0001 -1.0000
vn 0.0009 1.0000 0.0005
vn -0.0004 1.0000 0.0002
vn 1.0000 0.0003 0.0001
vn 1.0000 0.0001 -0.0006
vn 1.0000 0.0003 0.0006
vn 1.0000 0.0018 -0.0000
vn 0.0378 0.0005 -0.9993
vn 0.0632 -0.0004 -0.9980
s 0
f 19//1 16//1 3//1
f 12//2 6//2 17//2
f 12//3 8//3 13//3
f 3//4 5//4 2//4
f 4//5 7//5 1//5
f 12//6 13//6 6//6
f 20//7 21//7 11//7
f 22//8 18//8 19//8
f 7//9 6//9 13//9
f 12//10 17//10 16//10
f 18//11 9//11 8//11
f 2//12 4//12 3//12
f 20//13 11//13 14//13
f 22//14 14//14 15//14
f 14//15 22//15 20//15
f 19//16 11//16 21//16
f 16//17 17//17 10//17
f 16//18 10//18 3//18
f 3//19 5//19 19//19
f 11//20 19//20 5//20
f 12//21 18//21 8//21
f 10//22 3//22 17//22
f 3//23 4//23 17//23
f 17//24 6//24 4//24
f 1//25 7//25 8//25
f 7//26 13//26 8//26
f 16//27 19//27 12//27
f 19//28 21//28 20//28
f 18//29 22//29 15//29
f 20//30 22//30 19//30
f 18//31 12//31 19//31
f 7//32 4//32 6//32
f 15//33 14//33 9//33
f 18//34 15//34 9//34
f 4//35 2//35 1//35
f 8//36 9//36 2//36
f 9//37 14//37 2//37
f 14//38 11//38 5//38
f 5//39 2//39 14//39
f 2//40 1//40 8//40
f 8//41 9//41 1//41
f 9//42 14//42 1//42
f 14//43 5//43 1//43
f 5//44 2//44 1//44
f 2//45 1//45 3//45
f 3//46 1//46 4//46
f 7//47 13//47 1//47
f 13//48 8//48 1//48
f 18//49 15//49 8//49
f 15//50 9//50 8//50
f 11//51 10//51 5//51
f 10//52 3//52 5//52
f 10//53 3//53 4//53
f 10//54 4//54 17//54
f 19//55 21//55 12//55
f 21//56 20//56 12//56
f 20//31 15//31 12//31
f 15//57 18//57 12//57
f 20//58 22//58 15//58
f 19//59 10//59 11//59
f 19//60 16//60 10//60
