# Blender 4.0.0
# www.blender.org
o decimated_mesh
v 0.031447 0.019361 0.039263
v 0.031449 0.103029 0.039066
v 0.031447 0.019361 0.031537
v 0.035857 0.101181 0.035829
v 0.032984 0.103259 0.037761
v 0.031447 0.103359 0.038237
v 0.041512 0.019353 0.015371
v 0.043949 0.019360 0.025266
v 0.035758 0.019361 0.035888
v 0.048084 0.019353 0.015371
v 0.044076 0.101341 0.024931
v 0.035697 0.102489 0.035734
v 0.042775 0.103220 0.026628
v 0.044295 0.103246 0.023973
v 0.037416 0.103271 0.033431
v 0.031447 0.102568 0.031649
v 0.047991 0.102810 0.015371
v 0.031447 0.103418 0.032521
v 0.042356 0.103419 0.015376
v 0.041664 0.102869 0.015369
v 0.047648 0.103313 0.015375
vn 1.0000 0.0006 -0.0003
vn 0.0262 0.9995 0.0167
vn -0.0003 -0.0118 0.9999
vn 0.7984 0.0012 0.6021
vn 0.9254 0.0001 0.3790
vn 0.6054 0.4981 0.6208
vn 0.5923 0.0019 0.8057
vn -0.1716 -0.9156 -0.3637
vn 0.7801 0.1224 0.6136
vn -0.7500 0.4734 -0.4619
vn 0.7865 0.5337 0.3109
vn 0.8470 -0.0007 0.5316
vn 1.0000 0.0062 -0.0000
vn 1.0000 -0.0000 -0.0003
vn 1.0000 -0.0000 -0.0000
vn 0.0210 0.9995 0.0242
vn 0.0678 0.9976 0.0104
vn 0.0230 0.9997 0.0106
vn 0.0132 0.9998 0.0172
vn 0.0200 0.9997 0.0157
vn -0.0000 -0.0089 1.0000
vn -0.0000 -0.0000 1.0000
vn -0.0002 -0.0000 1.0000
vn 0.8575 0.1492 0.4925
vn 0.0001 1.0000 -0.0001
vn -0.0000 1.0000 -0.0000
vn -0.0002 1.0000 -0.0006
vn -0.0000 1.0000 -0.0007
vn 0.7983 0.0091 0.6022
vn 0.7919 -0.0005 0.6107
vn 0.9227 0.0010 0.3856
vn 0.9167 0.0904 0.3893
vn 0.6165 -0.0002 0.7874
vn 0.7704 0.1394 0.6221
vn 0.6261 0.1550 0.7642
vn 0.6171 0.1318 0.7758
vn 0.8489 -0.0015 0.5286
vn -0.5761 0.7306 -0.3666
vn 0.0008 1.0000 -0.0000
vn -0.0005 1.0000 -0.0006
vn -0.0003 1.0000 -0.0003
vn 1.0000 -0.0000 -0.0025
vn 1.0000 -0.0000 -0.0001
vn 1.0000 -0.0000 0.0003
vn 0.8489 -0.0007 0.5286
vn 0.8470 -0.0015 0.5315
vn 0.9227 0.0001 0.3856
vn 0.6220 0.1321 0.7718
vn 0.6211 0.1801 0.7628
vn 0.0305 0.9993 0.0196
vn 0.0200 0.9997 0.0122
vn 0.0163 0.9998 0.0104
vn 0.0949 0.9905 0.0998
vn 0.9254 0.0010 0.3791
vn -0.0001 -0.0121 0.9999
vn -0.0003 -0.0091 1.0000
vn 0.0793 0.9953 0.0550
vn 0.0313 0.9993 0.0201
s 0
f 16//1 18//1 2//1
f 19//2 18//2 13//2
f 20//3 17//3 19//3
f 4//4 8//4 11//4
f 11//5 8//5 17//5
f 12//6 15//6 5//6
f 2//7 1//7 4//7
f 6//8 5//8 2//8
f 15//9 4//9 13//9
f 16//10 18//10 20//10
f 17//11 21//11 14//11
f 20//12 16//12 3//12
f 6//13 2//13 18//13
f 16//14 2//14 3//14
f 3//15 2//15 1//15
f 5//16 15//16 18//16
f 6//17 5//17 18//17
f 15//18 13//18 18//18
f 13//19 14//19 19//19
f 14//20 21//20 19//20
f 19//21 17//21 21//21
f 17//22 7//22 10//22
f 20//23 7//23 17//23
f 13//24 11//24 14//24
f 8//25 3//25 9//25
f 9//26 3//26 1//26
f 3//27 8//27 7//27
f 7//28 8//28 10//28
f 11//29 13//29 4//29
f 4//30 9//30 8//30
f 10//31 17//31 8//31
f 11//32 17//32 14//32
f 1//33 9//33 4//33
f 15//34 12//34 4//34
f 2//35 4//35 5//35
f 4//36 12//36 5//36
f 20//37 3//37 7//37
f 19//38 20//38 18//38
f 3//39 1//39 7//39
f 7//40 1//40 8//40
f 8//41 1//41 9//41
f 2//42 1//42 6//42
f 6//43 1//43 18//43
f 18//15 1//15 3//15
f 18//44 3//44 16//44
f 16//45 3//45 7//45
f 16//46 7//46 20//46
f 20//22 7//22 10//22
f 10//47 11//47 8//47
f 12//48 2//48 4//48
f 12//49 5//49 2//49
f 15//50 21//50 6//50
f 21//51 19//51 6//51
f 19//52 18//52 6//52
f 5//53 15//53 6//53
f 17//54 11//54 10//54
f 20//23 10//23 17//23
f 19//55 20//55 21//55
f 21//56 20//56 17//56
f 14//57 15//57 13//57
f 14//58 21//58 15//58
