# Blender 4.0.0
# www.blender.org
o Mug_1_mug_1_0_collision_6
v 0.022689 0.010733 0.038192
v 0.022689 0.019352 0.038265
v 0.022689 0.010733 0.044969
v 0.022689 0.019352 0.044969
v 0.003258 0.019352 0.044432
v 0.021913 0.010733 0.045377
v 0.003258 0.010733 0.044333
v 0.021913 0.019352 0.045377
v 0.003258 0.019352 0.050298
v 0.019140 0.010733 0.046527
v 0.003258 0.010733 0.050298
v 0.019140 0.019352 0.046527
v 0.009651 0.019352 0.049473
v 0.015737 0.010733 0.047936
v 0.009651 0.010733 0.049473
v 0.015737 0.019352 0.047936
v 0.010598 0.019352 0.049348
v 0.012163 0.010733 0.049142
v 0.012865 0.019352 0.049035
v 0.012163 0.019352 0.049142
v 0.012791 0.010733 0.049047
vn 1.0000 -0.0000 -0.0000
vn -0.0000 1.0000 -0.0000
vn -0.3014 0.0081 -0.9535
vn -0.3025 0.0110 -0.9531
vn 0.4651 -0.0000 0.8853
vn -1.0000 -0.0000 -0.0000
vn 0.3829 -0.0000 0.9238
vn 0.1280 -0.0000 0.9918
vn 0.3826 -0.0000 0.9239
vn 0.1303 -0.0000 0.9915
vn 0.3576 -0.0000 0.9339
vn 0.3530 -0.0018 0.9356
vn 0.1305 -0.0000 0.9915
vn 0.1306 -0.0000 0.9914
vn 0.1494 -0.0000 0.9888
vn 0.1503 0.0001 0.9886
s 0
f 1//1 2//1 4//1
f 1//1 4//1 3//1
f 1//2 6//2 3//2
f 1//2 10//2 6//2
f 1//2 14//2 10//2
f 1//2 21//2 14//2
f 1//2 18//2 21//2
f 1//2 15//2 18//2
f 1//2 11//2 15//2
f 1//2 7//2 11//2
f 1//3 7//3 2//3
f 2//4 7//4 5//4
f 2//2 5//2 9//2
f 2//2 9//2 13//2
f 2//2 13//2 17//2
f 2//2 17//2 20//2
f 2//2 20//2 19//2
f 2//2 19//2 16//2
f 2//2 16//2 12//2
f 2//2 12//2 8//2
f 2//2 8//2 4//2
f 3//5 4//5 8//5
f 3//5 8//5 6//5
f 5//6 7//6 11//6
f 5//6 11//6 9//6
f 6//7 8//7 12//7
f 6//7 12//7 10//7
f 9//8 11//8 15//8
f 9//8 15//8 13//8
f 10//9 12//9 16//9
f 10//9 16//9 14//9
f 13//10 15//10 17//10
f 14//11 16//11 19//11
f 14//12 19//12 21//12
f 15//13 18//13 17//13
f 17//14 18//14 20//14
f 18//15 21//15 20//15
f 19//16 20//16 21//16
f 2//1 4//1 3//1
f 2//1 3//1 1//1
f 3//2 10//2 6//2
f 3//2 14//2 10//2
f 3//2 21//2 14//2
f 3//2 18//2 21//2
f 3//2 15//2 18//2
f 3//2 11//2 15//2
f 3//2 7//2 11//2
f 3//2 1//2 7//2
f 5//2 9//2 13//2
f 5//2 13//2 20//2
f 5//2 20//2 19//2
f 5//2 19//2 16//2
f 5//2 16//2 12//2
f 5//2 12//2 8//2
f 5//2 8//2 4//2
f 5//2 4//2 2//2
f 4//5 8//5 6//5
f 4//5 6//5 3//5
f 8//7 12//7 10//7
f 8//7 10//7 6//7
f 12//9 16//9 14//9
f 12//9 14//9 10//9
f 18//13 20//13 13//13
f 18//13 13//13 15//13
