# Blender 4.0.0
# www.blender.org
o decimated_mesh
v 0.003258 0.010742 0.050290
v 0.003158 0.010742 0.050318
v 0.000841 0.010742 0.050614
v 0.003258 0.006455 0.050244
v 0.003016 0.006176 0.050299
v 0.003253 0.009623 -0.042385
v -0.025751 0.010742 0.043586
v -0.025028 0.010742 0.044050
v -0.012584 0.010742 0.049047
v -0.000415 0.010742 0.050651
v 0.000841 0.007096 0.050624
v 0.003258 0.006023 0.049947
v 0.001723 0.005186 0.050290
v 0.000841 0.005839 0.050512
v 0.003253 0.008264 -0.042385
v -0.025023 0.010333 -0.044063
v -0.050407 0.010744 0.002501
v -0.000415 0.007096 0.050661
v 0.003258 0.005868 0.049613
v 0.003253 0.005028 0.028269
v -0.000415 0.005839 0.050531
v 0.003253 0.005080 -0.029515
v 0.003253 0.005171 -0.030304
v -0.025799 0.005147 -0.042812
v -0.025023 0.006162 -0.044008
v -0.048935 0.010333 -0.013085
v -0.049167 0.010333 -0.011945
v -0.050655 0.010333 -0.000633
v -0.050655 0.010333 0.000628
v -0.035045 0.010333 -0.036507
v -0.036311 0.010333 -0.035292
v -0.043900 0.010333 -0.025343
v -0.035018 0.006182 0.036484
v -0.035045 0.010744 0.036502
v -0.024991 0.006121 0.044031
v -0.025667 0.007096 0.043651
v -0.018669 0.005200 0.046507
v -0.012505 0.006194 0.049038
v 0.003258 0.005028 0.026868
v -0.000415 0.005139 0.050336
v -0.001449 0.005173 0.050299
v -0.026300 0.005147 -0.042812
v -0.050655 0.007097 -0.000633
v -0.050655 0.007097 0.000628
v -0.036280 0.006096 0.035250
v -0.036121 0.005259 0.035139
v -0.029931 0.005210 0.040211
v -0.026295 0.005149 0.042817
v -0.024369 0.005757 0.044207
v -0.021339 0.005157 0.045301
v -0.015128 0.005146 0.047833
v -0.011323 0.005188 0.049029
v -0.010473 0.005151 0.049075
v -0.032649 0.005135 -0.037833
v -0.031293 0.005158 -0.039019
v -0.029931 0.005210 -0.040206
v -0.035018 0.006182 -0.036479
v -0.048887 0.005838 -0.012928
v -0.050492 0.005838 -0.000633
v -0.050492 0.005838 0.000628
v -0.036280 0.006096 -0.035255
v -0.043847 0.005839 -0.025269
v -0.040006 0.005199 0.030179
v -0.038818 0.005152 0.031532
v -0.037625 0.005135 0.032886
v -0.034032 0.005145 0.036623
v -0.032649 0.005135 0.037828
v -0.031293 0.005158 0.039033
v -0.036311 0.010744 0.035288
v -0.024015 0.005136 0.044087
v -0.036127 0.005258 -0.035134
v -0.037625 0.005134 -0.032881
v -0.043784 0.005189 -0.025158
v -0.046323 0.005171 -0.018973
v -0.048819 0.005181 -0.012696
v -0.050048 0.005205 -0.003822
v -0.050085 0.005172 -0.003145
v -0.050143 0.005127 -0.001884
v -0.050186 0.005103 -0.000633
v -0.050186 0.005103 0.000628
v -0.050143 0.005127 0.001880
v -0.050080 0.005172 0.003150
v -0.050043 0.005204 0.003827
v -0.040006 0.005199 -0.030174
v -0.042613 0.005143 0.026544
v -0.043784 0.005188 0.025172
v -0.038823 0.005151 -0.031528
v -0.042613 0.005143 -0.026530
v -0.043874 0.005138 -0.024499
v -0.047642 0.005136 -0.015450
v -0.048861 0.005142 -0.011945
v -0.048882 0.005838 0.012932
v -0.048935 0.007095 0.013090
v -0.048930 0.010744 0.013090
v -0.048861 0.005142 0.011931
v -0.048813 0.005180 0.012691
v -0.043847 0.005838 0.025274
v -0.043874 0.005137 0.024504
v -0.046317 0.005170 0.018978
v -0.047637 0.005135 0.015454
v -0.043895 0.010744 0.025357
vn -0.1152 0.1192 -0.9862
vn -0.9252 -0.0201 -0.3789
vn 0.6427 -0.4337 0.6316
vn 0.4807 -0.6330 0.6068
vn 0.9906 0.0008 -0.1370
vn -0.0295 -0.0025 -0.9996
vn 0.1363 -0.0035 0.9907
vn -1.0000 -0.0001 0.0001
vn -0.3726 -0.0152 0.9279
vn -0.3983 -0.9158 0.0521
vn -0.5071 -0.6056 0.6132
vn 0.5073 -0.7816 0.3631
vn -0.1730 -0.9703 0.1690
vn -0.9145 -0.1616 0.3708
vn 0.4188 -0.9074 0.0356
vn 0.0935 -0.7884 -0.6080
vn -0.6072 -0.0037 0.7946
vn -0.2345 0.9709 -0.0477
vn -0.8561 0.5168 -0.0000
vn -0.1318 -0.0013 0.9913
vn 0.0585 -0.0100 -0.9982
vn 0.9948 -0.1014 0.0037
vn -0.7825 -0.1669 -0.5999
vn -0.9901 -0.0185 -0.1391
vn -0.5972 -0.3406 -0.7262
vn -0.0000 -0.7627 -0.6468
vn -0.5180 -0.0028 0.8554
vn -0.0830 0.9960 -0.0341
vn -0.0424 -0.9433 0.3293
vn -0.9145 -0.1601 -0.3715
vn -0.9917 -0.1289 -0.0000
vn -0.6740 -0.2212 0.7048
vn -0.5703 -0.2231 0.7906
vn -0.1526 -0.9163 0.3704
vn -0.2790 -0.3362 0.8995
vn -0.0096 -0.9999 0.0074
vn -0.0638 -0.8717 0.4858
vn -0.1240 -0.9792 -0.1607
vn -0.2504 -0.9111 -0.3273
vn 0.4497 0.4008 -0.7982
vn 0.2448 -0.0110 0.9695
vn -0.4771 -0.6635 -0.5764
vn -0.5990 -0.0958 0.7950
vn -0.3103 -0.9209 -0.2361
vn -0.7827 -0.1629 0.6008
vn -0.5417 -0.8374 0.0726
vn -0.4190 -0.8427 0.3382
vn -0.2940 -0.9233 0.2472
vn -0.2455 -0.9298 0.2743
vn -0.3350 -0.8562 0.3933
vn -0.2568 -0.9058 0.3370
vn -0.1082 -0.9841 0.1405
vn -0.0835 -0.9761 0.2006
vn -0.0529 -0.9778 0.2027
vn -0.0220 0.0955 -0.9952
vn 1.0000 -0.0000 -0.0000
vn -0.9301 -0.3674 0.0005
vn -0.3668 -0.8223 -0.4351
vn -0.5365 -0.8408 -0.0719
vn -0.5969 -0.3431 0.7252
vn -0.6707 -0.2244 -0.7070
vn 0.1255 0.1297 -0.9836
vn -0.7956 -0.0142 0.6057
vn -0.1906 -0.9813 0.0257
vn -0.1578 -0.9746 -0.1587
vn -0.3469 -0.1886 0.9188
vn -0.3796 -0.3696 0.8481
vn -0.1200 -0.9884 0.0931
vn -0.6018 -0.0179 -0.7985
vn 0.9868 0.0929 -0.1326
vn -0.9242 -0.0183 0.3815
vn -0.1908 -0.9813 -0.0257
vn -0.2867 -0.9270 -0.2419
vn -0.4301 -0.8337 -0.3463
vn -0.1132 -0.9897 -0.0875
vn -0.2429 -0.9647 -0.1019
vn -0.5720 -0.2137 -0.7919
vn 0.1536 0.9833 0.0978
vn -0.4408 -0.8806 -0.1739
vn -0.1815 -0.9815 -0.0614
vn 0.9854 0.1097 0.1301
vn -0.3854 -0.9214 -0.0505
vn -0.0014 -1.0000 0.0002
vn 0.1069 -0.9632 -0.2466
vn 0.0067 -0.2781 0.9605
vn -0.1496 -0.9842 0.0952
vn -0.6941 -0.0104 -0.7198
vn -0.2398 -0.9656 0.1003
vn -0.6955 -0.0087 0.7185
vn -0.7959 -0.0154 -0.6053
vn 0.0503 -0.9921 -0.1149
vn -0.3070 -0.9224 0.2344
vn -0.1791 -0.9820 0.0604
vn -0.4447 -0.8784 0.1752
vn -0.5270 0.8470 -0.0693
vn -0.0000 1.0000 0.0001
vn 0.2673 -0.0104 0.9636
vn 1.0000 0.0002 -0.0001
vn 0.0258 0.9996 -0.0121
vn 0.0053 1.0000 -0.0059
vn 0.0001 1.0000 -0.0000
vn -0.6921 -0.0069 0.7217
vn -0.6079 -0.0067 0.7940
vn -0.6062 0.0001 0.7953
vn -0.0010 1.0000 0.0015
vn -0.0002 1.0000 0.0005
vn -0.0000 1.0000 0.0002
vn -0.0000 1.0000 -0.0000
vn 0.2357 -0.0113 0.9718
vn 0.1270 0.0025 0.9919
vn 0.1441 -0.0085 0.9895
vn 0.0014 1.0000 -0.0000
vn 0.0009 1.0000 0.0009
vn 1.0000 -0.0008 -0.0001
vn 1.0000 -0.0004 -0.0001
vn 1.0000 -0.0000 -0.0001
vn 0.0592 -0.0000 -0.9982
vn 0.0583 -0.0133 -0.9982
vn -0.6016 -0.0107 -0.7987
vn -0.6020 -0.0092 -0.7984
vn -0.0113 0.9998 -0.0150
vn -0.9913 -0.0000 0.1313
vn -0.9906 -0.0029 0.1368
vn -0.9904 0.0014 0.1382
vn -0.0162 0.9997 -0.0169
vn -0.0278 0.9994 -0.0212
vn -0.6987 -0.0105 0.7153
vn -0.7947 -0.0103 0.6069
vn -0.5999 -0.0929 0.7946
vn -0.5966 -0.1030 0.7959
vn -0.4986 -0.0075 0.8668
vn -0.5398 0.0025 0.8418
vn -0.3727 -0.0067 0.9279
vn -0.1307 0.0025 0.9914
vn -0.3721 -0.0084 0.9281
vn -0.1327 -0.0043 0.9911
vn 0.0295 0.0025 0.9996
vn 0.1107 -0.0876 0.9900
vn 0.1220 -0.1684 0.9781
vn 0.0294 -0.0882 0.9957
vn -0.0219 0.9997 -0.0087
vn 0.0012 1.0000 -0.0049
vn 0.0022 1.0000 -0.0032
vn 0.0023 1.0000 -0.0025
vn 0.0024 1.0000 -0.0019
vn -0.9226 -0.3839 -0.0387
vn 0.0226 0.9997 0.0061
vn 0.0081 1.0000 0.0036
vn 0.0040 1.0000 0.0025
vn 0.0014 1.0000 0.0015
vn 0.0012 1.0000 0.0014
vn -0.9232 -0.3842 -0.0000
vn 0.0007 1.0000 0.0035
vn -0.0000 1.0000 0.0051
vn -0.5995 -0.0866 -0.7957
vn -0.6959 -0.0115 -0.7180
vn -0.6921 -0.0092 -0.7217
vn -1.0000 -0.0000 -0.0000
vn -0.9853 -0.1281 0.1128
vn -0.9866 -0.0953 0.1324
vn -0.9889 -0.0587 0.1365
vn -0.9251 0.0013 0.3797
vn -0.9225 -0.0859 0.3763
vn -0.9232 -0.0155 0.3839
vn -0.7950 -0.0113 -0.6064
vn -0.7966 -0.0193 -0.6042
vn -0.9249 -0.0171 -0.3799
vn -0.9797 -0.0173 -0.1995
vn -0.9255 -0.0230 -0.3780
vn -0.9898 -0.0312 -0.1391
vn -0.9915 -0.0000 -0.1304
vn -0.7964 -0.0180 0.6045
vn -0.7889 -0.1250 0.6016
vn -0.7658 -0.2250 0.6024
vn -0.4546 -0.3905 0.8005
vn -0.3834 -0.2222 0.8965
vn -0.3713 -0.0576 0.9267
vn 0.0147 -0.1027 0.9946
vn -0.1248 -0.1020 0.9869
vn -0.1262 -0.1574 0.9794
vn -0.1254 -0.1465 0.9812
vn 0.0142 -0.2679 0.9634
vn 0.0270 -0.2892 0.9569
vn 0.0034 0.9998 -0.0172
vn 0.0015 1.0000 -0.0061
vn -0.0432 -0.2676 0.9626
vn -0.3799 -0.3801 0.8433
vn -0.4459 -0.4086 0.7964
vn 0.0237 0.9992 -0.0329
vn 0.0569 0.9967 -0.0575
vn 0.0242 0.9996 -0.0177
vn 0.0037 1.0000 -0.0024
vn -0.9226 -0.3839 0.0387
vn 0.0080 1.0000 -0.0036
vn 0.0233 0.9997 -0.0062
vn -0.9855 -0.1281 -0.1115
vn -0.9440 -0.3231 -0.0670
vn -0.9318 -0.3586 -0.0556
vn -0.5182 -0.8525 -0.0692
vn -0.5526 -0.8301 -0.0744
vn -0.2258 -0.9696 -0.0943
vn -0.2630 -0.9584 -0.1108
vn 0.0237 0.9996 0.0172
vn -0.7660 -0.2266 -0.6016
vn -0.7888 -0.1285 -0.6011
vn -0.9868 -0.0934 -0.1323
vn -0.9336 -0.3535 0.0590
vn -0.9420 -0.3288 0.0669
vn -0.5135 -0.8554 0.0683
vn -0.5676 -0.8198 0.0765
vn -0.9791 -0.1516 0.1354
vn -0.9055 -0.2259 0.3592
vn -0.9174 -0.1353 0.3743
vn -0.9152 -0.1480 0.3748
vn -0.7864 -0.1698 0.5939
vn -0.7858 -0.1780 -0.5923
vn -0.9140 -0.1534 -0.3756
vn -0.9177 -0.1319 -0.3748
vn -0.9062 -0.2216 -0.3600
vn -0.9794 -0.1500 -0.1353
vn -0.3242 -0.9133 0.2466
vn -0.2916 -0.9301 0.2235
vn -0.3792 -0.3594 0.8527
vn -0.2564 -0.9605 0.1077
vn -0.2252 -0.9698 0.0939
vn -0.3249 -0.9130 -0.2465
vn -0.2969 -0.9276 -0.2267
s 0
f 14//1 11//1 5//1 13//1
f 62//2 58//2 26//2 32//2
f 4//3 5//3 12//3
f 5//4 13//4 12//4
f 94//5 93//5 44//5 29//5 17//5
f 3//6 11//6 18//6 10//6
f 2//7 3//7 11//7 5//7
f 39//8 19//8 12//8 4//8 1//8 6//8 15//8 23//8 22//8
f 38//9 9//9 8//9 35//9 49//9 37//9
f 82//10 81//10 95//10
f 68//11 47//11 46//11
f 12//12 13//12 19//12
f 66//13 46//13 65//13
f 97//14 92//14 96//14 99//14 86//14
f 13//15 20//15 19//15
f 15//16 24//16 25//16
f 33//17 36//17 7//17 34//17
f 17//18 26//18 27//18
f 17//19 28//19 29//19
f 18//20 10//20 9//20 38//20
f 25//21 16//21 6//21 15//21
f 19//22 20//22 39//22
f 61//23 71//23 84//23 73//23 62//23
f 27//24 26//24 58//24 43//24 28//24
f 56//25 71//25 57//25
f 24//26 42//26 25//26
f 35//27 8//27 7//27 36//27
f 32//28 26//28 17//28
f 41//29 53//29 40//29
f 74//30 75//30 58//30 62//30 73//30
f 60//31 44//31 43//31 59//31
f 33//32 45//32 46//32
f 48//33 35//33 47//33
f 37//34 50//34 51//34
f 38//35 51//35 52//35
f 17//36 32//36 31//36 30//36 16//36 6//36 1//36 2//36 3//36 10//36 9//36 8//36 7//36 34//36 69//36 101//36 94//36
f 41//37 52//37 53//37
f 42//38 54//38 55//38
f 42//39 55//39 56//39
f 48//40 35//40 49//40 70//40
f 5//41 4//41 1//41 2//41
f 71//42 56//42 55//42
f 35//43 36//43 33//43 47//43
f 84//44 87//44 88//44 73//44
f 97//45 86//45 63//45 46//45 45//45
f 95//46 96//46 83//46 82//46
f 46//47 63//47 64//47
f 46//48 64//48 65//48
f 46//49 66//49 67//49
f 46//50 67//50 68//50
f 47//51 68//51 48//51
f 48//52 68//52 67//52
f 50//53 70//53 51//53
f 51//54 53//54 52//54
f 18//55 11//55 14//55 21//55
f 44//56 43//56 28//56 29//56
f 60//57 59//57 76//57 77//57 78//57 79//57 80//57 81//57 82//57 83//57
f 54//58 71//58 55//58
f 91//59 77//59 76//59 75//59
f 46//60 47//60 33//60
f 57//61 71//61 61//61
f 52//62 38//62 18//62 21//62 41//62
f 97//63 45//63 69//63 101//63
f 95//64 81//64 80//64
f 72//65 71//65 54//65
f 51//66 38//66 37//66
f 49//67 70//67 50//67 37//67
f 64//68 85//68 65//68
f 25//69 56//69 57//69 30//69 16//69
f 92//70 96//70 83//70 60//70 44//70 93//70
f 97//71 101//71 94//71 93//71 92//71
f 91//72 79//72 78//72
f 71//73 72//73 87//73
f 71//74 87//74 84//74
f 72//75 88//75 87//75
f 74//76 73//76 89//76 90//76
f 42//77 56//77 25//77
f 73//78 89//78 88//78
f 74//79 90//79 75//79
f 75//80 90//80 91//80
f 59//81 76//81 75//81 58//81 43//81
f 77//82 91//82 78//82
f 91//83 90//83 89//83 88//83 72//83 54//83 42//83 24//83 22//83 39//83 20//83 13//83 40//83 53//83 51//83 70//83 48//83 67//83 66//83 65//83 85//83 98//83 100//83 95//83 80//83 79//83
f 15//84 23//84 24//84
f 40//85 13//85 14//85 21//85 41//85
f 85//86 86//86 98//86
f 61//87 31//87 30//87 57//87
f 99//88 100//88 98//88 86//88
f 34//89 69//89 45//89 33//89
f 31//90 61//90 62//90 32//90
f 24//91 23//91 22//91
f 63//92 86//92 85//92 64//92
f 95//93 100//93 96//93
f 96//94 100//94 99//94
f 27//95 28//95 17//95
f 34//96 2//96 1//96
f 2//97 4//97 1//97
f 4//56 12//56 19//56
f 4//56 19//56 39//56
f 4//56 39//56 1//56
f 39//98 6//98 1//98
f 6//99 16//99 1//99
f 16//100 17//100 1//100
f 17//101 34//101 1//101
f 69//102 33//102 34//102
f 33//103 36//103 34//103
f 36//104 7//104 34//104
f 7//105 8//105 34//105
f 8//106 9//106 34//106
f 9//107 10//107 34//107
f 10//96 3//96 34//96
f 3//96 2//96 34//96
f 17//108 94//108 101//108
f 17//108 101//108 69//108
f 17//108 69//108 34//108
f 5//109 4//109 2//109
f 3//110 11//110 2//110
f 11//111 5//111 2//111
f 20//112 39//112 79//112
f 79//113 39//113 22//113
f 22//114 23//114 39//114
f 23//115 15//115 39//115
f 15//116 6//116 39//116
f 15//117 16//117 6//117
f 15//118 25//118 16//118
f 25//119 57//119 16//119
f 57//120 30//120 16//120
f 30//121 17//121 16//121
f 29//122 44//122 17//122
f 44//123 93//123 17//123
f 93//124 94//124 17//124
f 30//125 31//125 17//125
f 31//126 32//126 17//126
f 45//127 33//127 69//127
f 101//128 45//128 69//128
f 47//129 36//129 33//129
f 47//130 35//130 36//130
f 35//131 8//131 36//131
f 8//132 7//132 36//132
f 35//133 9//133 8//133
f 18//134 10//134 9//134
f 35//135 38//135 9//135
f 38//136 18//136 9//136
f 18//137 3//137 10//137
f 18//137 11//137 3//137
f 11//138 14//138 5//138
f 14//139 13//139 5//139
f 18//140 14//140 11//140
f 13//141 20//141 40//141
f 40//142 20//142 70//142
f 70//143 20//143 67//143
f 67//144 20//144 65//144
f 65//145 20//145 80//145
f 80//112 20//112 79//112
f 59//146 78//146 79//146
f 91//147 79//147 90//147
f 90//148 79//148 89//148
f 89//149 79//149 72//149
f 72//150 79//150 54//150
f 54//151 79//151 22//151
f 80//152 60//152 59//152
f 80//152 59//152 79//152
f 54//153 22//153 42//153
f 42//154 22//154 24//154
f 56//155 57//155 25//155
f 61//156 31//156 57//156
f 31//157 30//157 57//157
f 28//158 43//158 44//158
f 28//158 44//158 29//158
f 43//31 59//31 60//31
f 43//31 60//31 44//31
f 60//159 83//159 44//159
f 83//160 92//160 44//160
f 92//161 93//161 44//161
f 101//162 94//162 93//162
f 92//163 97//163 93//163
f 97//164 101//164 93//164
f 61//165 32//165 31//165
f 61//166 62//166 32//166
f 62//167 26//167 32//167
f 58//168 27//168 26//168
f 62//169 58//169 26//169
f 58//170 43//170 27//170
f 43//171 28//171 27//171
f 101//172 97//172 45//172
f 97//173 63//173 45//173
f 63//174 46//174 45//174
f 48//175 49//175 35//175
f 49//176 37//176 35//176
f 37//177 38//177 35//177
f 21//178 14//178 18//178
f 38//179 21//179 18//179
f 52//180 41//180 38//180
f 41//181 21//181 38//181
f 21//182 40//182 14//182
f 40//183 13//183 14//183
f 53//184 40//184 51//184
f 51//185 40//185 70//185
f 21//186 41//186 40//186
f 50//187 49//187 70//187
f 49//188 48//188 70//188
f 48//189 70//189 67//189
f 66//190 67//190 65//190
f 85//191 65//191 98//191
f 98//192 65//192 80//192
f 81//193 60//193 80//193
f 98//194 80//194 100//194
f 100//195 80//195 95//195
f 43//196 76//196 59//196
f 76//197 77//197 59//197
f 77//198 78//198 59//198
f 77//199 76//199 91//199
f 76//200 75//200 91//200
f 74//201 89//201 90//201
f 74//202 73//202 89//202
f 88//203 89//203 72//203
f 71//204 84//204 61//204
f 84//205 62//205 61//205
f 58//206 76//206 43//206
f 81//207 82//207 60//207
f 82//208 83//208 60//208
f 82//209 95//209 83//209
f 95//210 96//210 83//210
f 96//211 92//211 83//211
f 96//212 99//212 92//212
f 99//213 97//213 92//213
f 99//214 86//214 97//214
f 86//215 63//215 97//215
f 84//216 73//216 62//216
f 73//217 74//217 62//217
f 74//218 58//218 62//218
f 74//219 75//219 58//219
f 75//220 76//220 58//220
f 86//221 85//221 63//221
f 85//222 64//222 63//222
f 50//223 37//223 49//223
f 86//224 99//224 98//224
f 99//225 100//225 98//225
f 84//226 88//226 73//226
f 84//227 87//227 88//227
