# Blender 4.0.0
# www.blender.org
o decimated_mesh
v 0.030962 0.011893 0.030360
v 0.040421 0.011883 0.030817
v 0.003637 0.009501 0.042160
v 0.003637 0.014270 0.044184
v 0.003832 0.011967 0.050729
v 0.020667 0.009464 0.046747
v 0.025286 0.014270 0.043920
vn 0.6314 -0.1607 0.7586
vn -0.3964 0.3587 -0.8451
vn -0.0059 0.9897 0.1430
vn -0.0768 -0.9577 0.2774
vn -0.0320 0.9914 0.1268
vn -0.9996 -0.0110 0.0259
vn -0.0021 0.9848 -0.1735
vn 0.0040 0.9433 0.3318
vn 0.0091 0.9856 -0.1689
vn 0.2609 0.2906 0.9206
vn -0.0078 0.9834 0.1814
vn -0.0289 0.9929 0.1150
s 0
f 2//1 7//1 6//1
f 1//2 3//2 4//2
f 2//3 1//3 6//3
f 6//4 5//4 3//4
f 3//5 6//5 1//5
f 4//6 3//6 5//6
f 1//7 4//7 7//7
f 7//8 4//8 5//8
f 7//9 2//9 1//9
f 7//10 5//10 6//10
f 2//11 1//11 3//11
f 6//12 2//12 3//12
