# Blender 4.0.0
# www.blender.org
o decimated_mesh
v 0.003637 0.006369 -0.028339
v -0.020487 0.006369 -0.020722
v 0.003502 0.006368 -0.050580
v 0.003637 0.009886 -0.043021
v -0.020487 0.009886 -0.038252
v -0.020297 0.006367 -0.046545
v 0.003474 0.009885 -0.050474
v -0.020487 0.009886 -0.045918
v -0.012818 0.009886 -0.048985
vn 0.9997 0.0087 -0.0220
vn -0.0460 -0.9714 -0.2327
vn -0.9986 -0.0537 -0.0000
vn -0.0910 0.0292 -0.9954
vn 0.9997 -0.0254 -0.0061
vn -0.3675 0.1441 -0.9188
vn 0.0001 -1.0000 -0.0000
vn -0.0000 -1.0000 0.0001
vn -0.0620 -0.9786 -0.1964
vn -0.9993 -0.0365 -0.0073
vn -0.1588 -0.3118 -0.9368
vn 0.0001 1.0000 -0.0002
vn -0.0000 1.0000 -0.0000
vn -0.0001 1.0000 -0.0001
vn 0.0734 0.9699 0.2324
vn 0.0389 0.9797 0.1966
vn -1.0000 -0.0000 -0.0000
vn -0.9986 -0.0524 -0.0073
s 0
f 4//1 3//1 7//1
f 5//2 4//2 1//2
f 6//3 5//3 8//3
f 9//4 7//4 3//4
f 4//5 1//5 3//5
f 8//6 9//6 6//6
f 6//7 3//7 1//7
f 1//8 2//8 6//8
f 5//9 1//9 2//9
f 6//10 2//10 5//10
f 3//11 6//11 9//11
f 7//12 9//12 4//12
f 4//13 9//13 5//13
f 9//14 8//14 5//14
f 4//15 2//15 1//15
f 5//16 2//16 4//16
f 5//17 8//17 2//17
f 8//18 6//18 2//18
