# Blender 4.0.0
# www.blender.org
o decimated_mesh
v -0.037516 0.009887 -0.022305
v -0.038716 0.102932 -0.022355
v -0.040406 0.103433 -0.022355
v -0.045167 0.009887 -0.022305
v -0.045103 0.102907 -0.022357
v -0.030150 0.102227 -0.032705
v -0.030150 0.103167 -0.033364
v -0.030150 0.103425 -0.034758
v -0.043871 0.103407 -0.022363
v -0.043805 0.102969 -0.025316
v -0.028775 0.009887 -0.032593
v -0.043859 0.009887 -0.025340
v -0.035249 0.103317 -0.035050
v -0.028775 0.009887 -0.041271
v -0.035767 0.102903 -0.035784
v -0.030155 0.102977 -0.040109
v -0.030150 0.103372 -0.038684
v -0.036118 0.009886 -0.035492
vn -0.0001 1.0000 -0.0001
vn -0.9184 0.0004 -0.3958
vn -0.7620 -0.0121 -0.6474
vn 0.7197 0.3985 0.5685
vn -0.1963 0.9451 -0.2613
vn -0.2077 0.9669 -0.1480
vn 0.0003 -0.0121 -0.9999
vn -0.9999 -0.0148 -0.0000
vn 0.2156 0.9602 0.1776
vn -0.6185 0.0006 -0.7858
vn -0.0202 0.9996 -0.0173
vn -0.0000 1.0000 -0.0000
vn -0.0000 1.0000 -0.0001
vn -0.0001 1.0000 -0.0000
vn -0.9157 0.0006 -0.4019
vn -0.7932 0.0011 -0.6090
vn -0.7952 0.0006 -0.6063
vn -0.3727 0.9167 -0.1443
vn -0.7707 -0.0103 -0.6371
vn -0.2633 0.9079 -0.3262
vn -0.3410 0.9012 -0.2675
vn 0.0003 -0.0006 -1.0000
vn -0.0000 -0.0005 -1.0000
vn 0.0021 0.0074 -1.0000
vn -0.9999 0.0125 -0.0002
vn -1.0000 0.0014 0.0008
vn -1.0000 -0.0000 -0.0000
vn -0.9999 -0.0149 -0.0009
vn 0.2766 0.9318 0.2352
vn -0.6104 -0.0002 -0.7921
vn -0.0204 0.9997 -0.0136
vn -0.0077 0.9999 -0.0123
vn -0.7620 -0.0102 -0.6475
vn -0.0002 -0.0005 -1.0000
vn 0.0003 1.0000 0.0001
vn 0.0005 -0.0006 -1.0000
vn -0.6185 -0.0001 -0.7858
vn -0.9999 -0.0147 -0.0000
vn -0.9999 -0.0148 -0.0027
vn -0.9997 -0.0149 -0.0213
vn -0.7707 -0.0122 -0.6371
vn -0.0077 0.9999 -0.0070
vn 0.0023 -0.0170 -0.9999
vn -0.9999 -0.0149 0.0075
vn -0.9999 -0.0147 0.0002
vn -0.6104 0.0008 -0.7921
vn -0.0137 0.9998 -0.0136
vn -0.0304 0.9992 -0.0277
s 0
f 11//1 18//1 1//1
f 12//2 4//2 5//2
f 6//3 11//3 1//3
f 6//4 7//4 2//4
f 13//5 17//5 16//5
f 10//6 9//6 13//6
f 5//7 9//7 2//7
f 11//8 16//8 14//8
f 3//9 7//9 8//9
f 18//10 16//10 14//10
f 3//11 8//11 13//11
f 4//12 1//12 12//12
f 12//13 1//13 18//13
f 18//14 11//14 14//14
f 10//15 12//15 5//15
f 10//16 15//16 18//16
f 18//17 12//17 10//17
f 10//18 5//18 9//18
f 6//19 1//19 2//19
f 16//20 15//20 13//20
f 15//21 10//21 13//21
f 5//22 2//22 4//22
f 4//23 2//23 1//23
f 3//24 2//24 9//24
f 17//25 16//25 8//25
f 16//26 6//26 8//26
f 8//27 6//27 7//27
f 6//28 16//28 11//28
f 3//29 2//29 7//29
f 18//30 15//30 16//30
f 17//31 13//31 8//31
f 13//32 9//32 3//32
f 4//13 1//13 18//13
f 11//33 1//33 2//33
f 2//34 1//34 3//34
f 3//23 1//23 4//23
f 12//35 4//35 18//35
f 3//36 4//36 5//36
f 15//37 14//37 18//37
f 14//38 11//38 8//38
f 8//39 11//39 7//39
f 7//40 11//40 6//40
f 6//41 11//41 2//41
f 8//42 9//42 3//42
f 9//43 3//43 5//43
f 16//44 14//44 17//44
f 17//45 14//45 8//45
f 15//46 16//46 14//46
f 17//47 9//47 8//47
f 17//48 13//48 9//48
