# Blender 4.0.0
# www.blender.org
o decimated_mesh
v -0.012471 0.009863 0.041623
v 0.003636 0.009863 0.043016
v -0.012471 0.009863 0.049035
v 0.003636 0.009863 0.050217
v -0.012482 0.102218 0.042786
v 0.003636 0.102227 0.044245
v -0.012481 0.103303 0.043485
v -0.012478 0.102958 0.048974
v 0.003557 0.102694 0.050171
v 0.003635 0.103310 0.044964
v -0.000113 0.102984 0.050550
v 0.000197 0.009863 0.050639
v 0.003643 0.103248 0.049443
v -0.012482 0.103436 0.047092
v 0.000213 0.103347 0.049658
vn -0.0000 1.0000 -0.0000
vn -0.9999 -0.0009 -0.0132
vn -0.0429 0.9684 0.2458
vn -1.0000 -0.0038 0.0011
vn 0.1249 0.7822 0.6104
vn 0.0003 1.0000 -0.0076
vn 0.1219 0.0006 0.9925
vn 0.0756 0.5399 -0.8383
vn 0.0901 0.0133 -0.9958
vn -0.1265 0.0006 0.9920
vn -1.0000 -0.0000 -0.0000
vn -0.9921 0.1233 -0.0229
vn 1.0000 0.0021 -0.0018
vn -1.0000 -0.0001 -0.0000
vn -1.0000 -0.0001 0.0006
vn -1.0000 0.0006 -0.0002
vn 0.0144 0.9992 -0.0368
vn 0.0295 0.9995 0.0137
vn 0.1028 0.0013 0.9947
vn 0.0510 0.9185 0.3922
vn 0.0760 0.5516 -0.8306
vn 0.0861 0.0126 -0.9962
vn -0.1256 0.0005 0.9921
vn -0.0480 0.9312 0.3612
vn 1.0000 -0.0000 -0.0014
vn 1.0000 -0.0001 -0.0000
vn -1.0000 -0.0001 0.0020
vn 0.0075 1.0000 -0.0023
vn 0.0029 0.9993 -0.0368
vn 0.9931 0.0009 0.1176
s 0
f 2//1 1//1 12//1
f 9//2 6//2 4//2
f 8//3 15//3 14//3
f 5//4 8//4 14//4
f 13//5 11//5 9//5
f 10//6 7//6 15//6
f 12//7 4//7 9//7
f 7//8 6//8 5//8
f 2//9 5//9 6//9
f 8//10 3//10 11//10
f 2//1 12//1 4//1
f 12//1 1//1 3//1
f 2//11 4//11 6//11
f 9//12 13//12 6//12
f 10//13 13//13 6//13
f 5//14 1//14 3//14
f 8//15 5//15 3//15
f 14//16 7//16 5//16
f 14//17 15//17 7//17
f 15//18 13//18 10//18
f 11//19 12//19 9//19
f 11//20 13//20 15//20
f 7//21 10//21 6//21
f 2//22 1//22 5//22
f 12//23 11//23 3//23
f 11//24 15//24 8//24
f 3//14 14//14 5//14
f 13//25 2//25 6//25
f 4//1 3//1 12//1
f 4//1 1//1 3//1
f 4//1 2//1 1//1
f 13//26 4//26 2//26
f 8//27 14//27 3//27
f 15//28 10//28 14//28
f 10//29 7//29 14//29
f 9//30 4//30 13//30
