# Blender 4.0.0
# www.blender.org
o decimated_mesh
v 0.003637 0.014270 -0.050216
v 0.003637 0.014270 -0.044183
v 0.030291 0.014273 -0.032570
v 0.012849 0.014270 -0.048995
v 0.038361 0.014270 -0.032568
v 0.003637 0.102231 -0.044244
v 0.030561 0.103049 -0.032568
v 0.003637 0.102319 -0.050194
v 0.025047 0.102857 -0.043975
v 0.003637 0.103148 -0.044755
v 0.003638 0.103254 -0.049495
v 0.012743 0.102970 -0.048970
v 0.014675 0.103383 -0.047093
v 0.003637 0.103436 -0.045837
v 0.023687 0.103385 -0.043345
v 0.027598 0.102966 -0.042140
v 0.035862 0.014270 -0.035742
v 0.033510 0.103436 -0.032568
v 0.025284 0.014270 -0.043922
v 0.035700 0.102170 -0.035894
v 0.038271 0.102935 -0.032570
v 0.037050 0.103426 -0.032599
v 0.035362 0.103080 -0.035820
vn 0.0002 1.0000 -0.0003
vn 0.6117 -0.0002 -0.7911
vn -0.3662 0.4534 0.8126
vn 0.3636 0.8866 -0.2859
vn -0.1122 0.9602 0.2557
vn 0.1331 0.0004 -0.9911
vn 0.7909 0.0004 -0.6119
vn -0.3979 0.0012 0.9174
vn 0.2019 0.9204 -0.3348
vn 0.0450 0.9649 -0.2586
vn 0.1474 0.9233 -0.3548
vn 0.7139 0.3161 -0.6249
vn 0.6027 0.2846 -0.7455
vn 0.0647 0.5971 -0.7996
vn 0.0027 1.0000 -0.0072
vn 0.0003 1.0000 -0.0002
vn -0.0000 1.0000 -0.0002
vn -0.0000 1.0000 -0.0000
vn -0.0002 -0.0000 -1.0000
vn 0.0002 -0.0000 -1.0000
vn 0.0088 0.0804 0.9967
vn 0.0002 -0.0012 1.0000
vn 1.0000 -0.0000 -0.0000
vn 1.0000 -0.0001 -0.0000
vn 0.3777 0.0005 -0.9259
vn 0.3761 0.0007 -0.9266
vn 0.6044 0.0011 -0.7967
vn 0.5683 -0.2816 -0.7731
vn -0.1248 0.9516 0.2809
vn 0.1314 0.0003 -0.9913
vn 0.7857 0.0008 -0.6186
vn -0.3994 0.0006 0.9168
vn 0.1241 0.9776 -0.1701
vn 0.1691 0.9621 -0.2140
vn 0.1681 0.9037 -0.3938
vn -0.0009 0.9988 -0.0496
vn 0.0035 1.0000 -0.0079
vn 0.0037 1.0000 -0.0093
vn 1.0000 -0.0000 -0.0001
vn 0.7857 0.0004 -0.6186
vn 0.0001 1.0000 -0.0005
vn 0.5841 0.0011 -0.8117
vn 0.6105 -0.0000 -0.7920
vn 0.7909 0.0008 -0.6120
vn 0.1738 0.9573 -0.2308
vn 0.1403 0.9739 -0.1782
vn -0.1247 0.9509 0.2832
vn -0.1136 0.9601 0.2557
s 0
f 19//1 3//1 17//1
f 20//2 17//2 19//2
f 6//3 7//3 10//3
f 21//4 23//4 22//4
f 7//5 14//5 10//5
f 4//6 8//6 12//6
f 21//7 17//7 20//7
f 6//8 3//8 7//8
f 9//9 15//9 16//9
f 11//10 13//10 12//10
f 13//11 15//11 12//11
f 20//12 23//12 21//12
f 20//13 16//13 23//13
f 12//14 8//14 11//14
f 22//15 15//15 18//15
f 17//16 3//16 5//16
f 3//17 19//17 2//17
f 2//18 4//18 1//18
f 19//18 4//18 2//18
f 7//19 21//19 3//19
f 3//20 21//20 5//20
f 22//21 18//21 21//21
f 18//22 7//22 21//22
f 8//23 6//23 1//23
f 1//23 6//23 2//23
f 6//23 14//23 10//23
f 8//24 11//24 6//24
f 14//23 6//23 11//23
f 9//25 19//25 4//25
f 4//26 12//26 9//26
f 19//27 9//27 20//27
f 20//28 9//28 16//28
f 7//29 18//29 14//29
f 4//30 1//30 8//30
f 21//31 5//31 17//31
f 6//32 2//32 3//32
f 23//33 16//33 22//33
f 22//34 16//34 15//34
f 9//35 12//35 15//35
f 13//36 11//36 14//36
f 14//37 18//37 15//37
f 14//38 15//38 13//38
f 17//18 1//18 2//18
f 2//23 10//23 6//23
f 2//23 14//23 10//23
f 2//23 11//23 14//23
f 2//39 8//39 11//39
f 2//23 1//23 8//23
f 4//18 1//18 17//18
f 4//18 17//18 19//18
f 20//40 5//40 17//40
f 3//41 17//41 2//41
f 9//42 16//42 19//42
f 16//43 20//43 19//43
f 21//44 5//44 20//44
f 21//19 5//19 7//19
f 7//20 5//20 3//20
f 15//45 23//45 16//45
f 15//46 22//46 23//46
f 18//47 10//47 7//47
f 18//48 14//48 10//48
