mtllib material.mtl
usemtl material_0
v 0.06845880 0.04344049 -0.00610515
v 0.06663232 0.04487017 -0.00989497
v 0.06100408 0.03599965 -0.00989460
v 0.06237762 0.03436089 -0.00610447
v 0.05424485 0.03069546 -0.00989429
v 0.05499132 0.02875946 -0.00610401
v 0.06290907 0.03384968 0.00000001
v 0.05015752 0.02944221 -0.00989483
v 0.05527410 0.02804189 0.00000001
v 0.06237762 0.03436090 0.00610450
v 0.05049440 0.02745291 -0.00610371
v 0.04681118 0.02872032 -0.00989240
v 0.04681406 0.02674764 -0.00610327
v 0.05062151 0.02671950 0.00000002
v 0.04681419 0.02602342 0.00000002
v 0.05499132 0.02875946 0.00610404
v 0.06100408 0.03599965 0.00989462
v 0.05424485 0.03069546 0.00989432
v 0.05049440 0.02745292 0.00610375
v 0.04681406 0.02674764 0.00610330
v 0.05015752 0.02944221 0.00989486
v 0.04681118 0.02872032 0.00989243
v 0.06663232 0.04487018 0.00989499
v 0.06845880 0.04344049 0.00610517
v 0.07064058 0.05732112 0.00989521
v 0.07276562 0.05633744 0.00610547
v 0.07254250 0.07132080 0.00989522
v 0.06915918 0.04291405 0.00000001
v 0.07358053 0.05588015 0.00000001
v 0.07479948 0.07103143 0.00610538
v 0.07199021 0.08316143 0.00989512
v 0.07276562 0.05633744 -0.00610546
v 0.07064058 0.05732111 -0.00989519
v 0.07562824 0.07060137 0.00000000
v 0.07422319 0.08380219 0.00610567
v 0.06883909 0.09140205 0.00989485
v 0.07479948 0.07103143 -0.00610537
v 0.07254250 0.07132080 -0.00989521
v 0.07078756 0.09285042 0.00610608
v 0.06331432 0.09578105 0.00989439
v 0.06468756 0.09756585 0.00610474
v 0.07507096 0.08401303 -0.00000000
v 0.07422319 0.08380219 -0.00610566
v 0.07199021 0.08316143 -0.00989512
v 0.07152787 0.09340080 0.00000000
v 0.06521032 0.09823637 -0.00000000
v 0.07078756 0.09285042 -0.00610608
v 0.06883909 0.09140205 -0.00989485
v 0.06468756 0.09756586 -0.00610475
v 0.04680063 0.03132364 -0.00989683
v 0.04973928 0.03204358 -0.00989521
v 0.05332184 0.03321521 -0.00989600
v 0.05934697 0.03832793 -0.00989586
v 0.06439234 0.04674310 -0.00989574
v 0.06798791 0.05841646 -0.00989562
v 0.06970215 0.07140042 -0.00989576
v 0.06919362 0.08219522 -0.00989632
v 0.06641197 0.08957335 -0.00989695
v 0.06331432 0.09578105 -0.00989439
v 0.06159669 0.09351502 -0.00989643
v 0.05624062 0.09705511 -0.00989382
v 0.05540754 0.09470113 -0.00989550
v 0.05004231 0.09599812 -0.00989440
v 0.04994953 0.09362084 -0.00989436
v 0.04834966 0.09570824 -0.00989528
v 0.04845693 0.09331637 -0.00989317
v 0.04680033 0.03352942 -0.00610516
v 0.04943514 0.03425682 -0.00610499
v 0.04681622 0.03440231 0.00000001
v 0.05264223 0.03538851 -0.00610529
v 0.04933637 0.03513496 0.00000001
v 0.04680033 0.03352942 0.00610518
v 0.05807198 0.04026141 -0.00610499
v 0.04943514 0.03425683 0.00610502
v 0.04680063 0.03132364 0.00989686
v 0.04973928 0.03204358 0.00989524
v 0.05240311 0.03625469 0.00000001
v 0.05264223 0.03538851 0.00610532
v 0.05332184 0.03321522 0.00989603
v 0.06263070 0.04833465 -0.00610489
v 0.05760289 0.04100900 0.00000001
v 0.05807198 0.04026141 0.00610501
v 0.05934697 0.03832793 0.00989588
v 0.06587121 0.05926635 -0.00610496
v 0.06197181 0.04886902 0.00000001
v 0.06263070 0.04833465 0.00610490
v 0.06439234 0.04674311 0.00989576
v 0.06739303 0.07114153 -0.00610533
v 0.06507764 0.05947025 0.00000001
v 0.06587121 0.05926635 0.00610497
v 0.06798791 0.05841646 0.00989563
v 0.06694439 0.08122345 -0.00610620
v 0.06446031 0.08793780 -0.00610706
v 0.06653498 0.07099700 0.00000000
v 0.06739303 0.07114153 0.00610533
v 0.06970215 0.07140042 0.00989577
v 0.06608951 0.08073708 0.00000000
v 0.06371937 0.08724764 -0.00000000
v 0.06694439 0.08122345 0.00610621
v 0.06919362 0.08219522 0.00989633
v 0.06446031 0.08793780 0.00610706
v 0.05968706 0.09084705 -0.00000000
v 0.06641197 0.08957335 0.00989695
v 0.06021396 0.09162938 0.00610602
v 0.06159669 0.09351502 0.00989643
v 0.05540754 0.09470113 0.00989550
v 0.05624062 0.09705511 0.00989381
v 0.04994953 0.09362084 0.00989436
v 0.05004231 0.09599812 0.00989439
v 0.04845693 0.09331637 0.00989317
v 0.04834966 0.09570824 0.00989528
v 0.05471782 0.09263892 -0.00610403
v 0.04987835 0.09156328 -0.00610350
v 0.05447097 0.09186322 -0.00000000
v 0.04855369 0.09126872 -0.00610360
v 0.04985929 0.09077390 -0.00000000
v 0.05471782 0.09263892 0.00610403
v 0.04859689 0.09047771 0.00000000
v 0.04987835 0.09156328 0.00610350
v 0.04855369 0.09126872 0.00610360
v 0.05690164 0.09886447 0.00610246
v 0.05011635 0.09783418 0.00610192
v 0.05714370 0.09938823 -0.00000000
v 0.04826443 0.09755267 0.00610231
v 0.05015045 0.09850969 -0.00000000
v 0.05690164 0.09886449 -0.00610246
v 0.04824145 0.09826977 -0.00000000
v 0.05011635 0.09783418 -0.00610192
v 0.04826443 0.09755267 -0.00610231
v 0.06021396 0.09162938 -0.00610602
v -0.00000000 0.10016230 -0.05004628
v 0.01295052 0.10277300 -0.04833220
v -0.00000000 0.10277300 -0.05003719
v 0.01295288 0.10016230 -0.04834100
v 0.02501859 0.10277300 -0.04333348
v 0.01295289 0.00567090 -0.04834104
v -0.00000000 0.00567090 -0.05004632
v 0.02502316 0.00567090 -0.04334139
v 0.02502313 0.10016230 -0.04334135
v 0.03538166 0.10277300 -0.03538164
v 0.03538813 0.00567090 -0.03538809
v 0.03538809 0.10016230 -0.03538807
v 0.04333350 0.10277300 -0.02501861
v 0.04334144 0.00567090 -0.02502316
v 0.04334138 0.10016230 -0.02502315
v 0.04833218 0.10277300 -0.01295059
v 0.04834103 0.00567090 -0.01295295
v 0.04834097 0.10016230 -0.01295294
v 0.05004632 0.00567091 -0.00000000
v 0.05003717 0.10277300 -0.00000002
v 0.05004627 0.10016230 -0.00000002
v 0.04833217 0.10277300 0.01295055
v 0.04834097 0.10016230 0.01295290
v 0.04333350 0.10277300 0.02501857
v 0.04334138 0.10016230 0.02502311
v 0.03538166 0.10277300 0.03538160
v 0.03538809 0.10016230 0.03538803
v 0.02501859 0.10277300 0.04333344
v 0.02502314 0.10016240 0.04334131
v 0.02502316 0.00567091 0.04334138
v 0.03538813 0.00567091 0.03538808
v 0.04334144 0.00567091 0.02502315
v 0.04834102 0.00567091 0.01295293
v 0.01295052 0.10277300 0.04833217
v 0.01295288 0.10016230 0.04834097
v 0.00000000 0.10277300 0.05003715
v 0.01295289 0.00567091 0.04834104
v 0.00000000 0.10016230 0.05004625
v -0.00000000 0.00567091 0.05004632
v -0.01295060 0.10277300 0.04833219
v -0.01295297 0.00567091 0.04834104
v -0.01295295 0.10016230 0.04834097
v -0.02501858 0.10277300 0.04333346
v -0.02502317 0.00567091 0.04334140
v -0.02502313 0.10016230 0.04334133
v -0.03538159 0.10277300 0.03538163
v -0.03538806 0.00567091 0.03538812
v -0.03538802 0.10016230 0.03538806
v -0.04334144 0.00567091 0.02502318
v -0.04334138 0.10016230 0.02502313
v -0.04834103 0.00567091 0.01295296
v -0.04834097 0.10016230 0.01295293
v -0.04333350 0.10277300 0.02501859
v -0.04833218 0.10277300 0.01295058
v -0.05003717 0.10277300 0.00000001
v -0.05004627 0.10016230 0.00000001
v -0.04833218 0.10277300 -0.01295056
v -0.05004632 0.00567091 0.00000002
v -0.04834102 0.00567090 -0.01295292
v -0.04834097 0.10016230 -0.01295292
v -0.04333350 0.10277300 -0.02501858
v -0.04334144 0.00567090 -0.02502314
v -0.04334139 0.10016230 -0.02502312
v -0.03538166 0.10277300 -0.03538162
v -0.03538813 0.00567090 -0.03538808
v -0.03538809 0.10016230 -0.03538804
v -0.02501859 0.10277300 -0.04333346
v -0.02502316 0.00567090 -0.04334137
v -0.02502313 0.10016230 -0.04334133
v -0.01295297 0.00567090 -0.04834104
v -0.01295295 0.10016230 -0.04834099
v -0.00000000 0.00567090 -0.05004632
v -0.01295060 0.10277300 -0.04833220
v -0.00000000 0.10277300 -0.05003719
v -0.00000000 0.10016230 -0.05004628
v 0.00000000 0.10016110 -0.04531408
v -0.00000000 0.10277420 -0.04532376
v 0.01173072 0.10277420 -0.04377939
v 0.01172822 0.10016110 -0.04377005
v 0.00000000 0.07687129 -0.04531400
v 0.02266192 0.10277420 -0.03925153
v 0.01172820 0.07687128 -0.04376995
v 0.00000000 0.01207084 -0.04531399
v 0.01172820 0.01207084 -0.04376994
v 0.02265709 0.10016110 -0.03924316
v 0.03204880 0.10277420 -0.03204874
v 0.02265704 0.07687129 -0.03924307
v 0.02265704 0.01207084 -0.03924306
v 0.03204197 0.10016110 -0.03204190
v 0.03925148 0.10277420 -0.02266189
v 0.03204191 0.07687128 -0.03204183
v 0.03204190 0.01207084 -0.03204182
v 0.03924311 0.10016110 -0.02265705
v 0.04377937 0.10277420 -0.01173066
v 0.03924302 0.07687129 -0.02265700
v 0.03924302 0.01207085 -0.02265699
v 0.04377003 0.10016110 -0.01172816
v 0.04532377 0.10277420 -0.00000002
v 0.04376994 0.07687129 -0.01172813
v 0.04376994 0.01207085 -0.01172812
v 0.04531409 0.10016110 -0.00000002
v 0.04377938 0.10277420 0.01173063
v 0.04531401 0.07687129 -0.00000002
v 0.04377004 0.10016110 0.01172812
v 0.03925147 0.10277420 0.02266184
v 0.03924309 0.10016120 0.02265701
v 0.03204880 0.10277420 0.03204870
v 0.04376994 0.07687129 0.01172810
v 0.03204197 0.10016110 0.03204186
v 0.02266192 0.10277420 0.03925148
v 0.03924302 0.07687130 0.02265697
v 0.02265709 0.10016110 0.03924312
v 0.01173072 0.10277420 0.04377935
v 0.03204190 0.07687129 0.03204180
v 0.01172822 0.10016110 0.04377003
v -0.00000000 0.10277420 0.04532372
v 0.02265705 0.07687130 0.03924304
v 0.00000000 0.10016110 0.04531404
v -0.01173065 0.10277420 0.04377936
v 0.01172820 0.07687131 0.04376993
v -0.01172814 0.10016110 0.04377003
v -0.02266184 0.10277420 0.03925151
v -0.02265701 0.10016120 0.03924313
v -0.01172812 0.07687130 0.04376993
v -0.02265696 0.07687130 0.03924305
v 0.00000000 0.07687131 0.04531397
v 0.01172820 0.01207086 0.04376994
v -0.00000000 0.01207086 0.04531398
v 0.02265705 0.01207086 0.03924304
v 0.03204190 0.01207085 0.03204181
v 0.03924302 0.01207085 0.02265698
v 0.04376994 0.01207085 0.01172811
v 0.04531401 0.01207085 -0.00000001
v -0.03204873 0.10277420 0.03204872
v -0.03204189 0.10016120 0.03204189
v -0.03925147 0.10277420 0.02266186
v -0.03924311 0.10016110 0.02265703
v -0.04377937 0.10277420 0.01173065
v -0.04377005 0.10016120 0.01172815
v -0.03204183 0.07687130 0.03204182
v -0.03924302 0.07687129 0.02265699
v -0.04376994 0.07687129 0.01172813
v -0.04531401 0.10016110 0.00000000
v -0.04531394 0.07687129 0.00000001
v -0.04376995 0.01207085 0.01172813
v -0.04531394 0.01207085 0.00000002
v -0.03924301 0.01207085 0.02265700
v -0.03204183 0.01207085 0.03204183
v -0.02265696 0.01207085 0.03924306
v -0.01172812 0.01207086 0.04376994
v -0.04532370 0.10277420 0.00000000
v -0.04377938 0.10277420 -0.01173064
v -0.04377003 0.10016110 -0.01172814
v -0.03925155 0.10277420 -0.02266186
v -0.04376994 0.07687129 -0.01172811
v -0.04376994 0.01207085 -0.01172810
v -0.03924317 0.10016110 -0.02265703
v -0.03204880 0.10277420 -0.03204872
v -0.03924309 0.07687129 -0.02265697
v -0.03924310 0.01207085 -0.02265696
v -0.03204197 0.10016110 -0.03204189
v -0.02266192 0.10277420 -0.03925151
v -0.03204190 0.07687128 -0.03204182
v -0.03204190 0.01207084 -0.03204180
v -0.02265709 0.10016110 -0.03924314
v -0.01173065 0.10277420 -0.04377937
v -0.02265704 0.07687128 -0.03924305
v -0.02265704 0.01207084 -0.03924305
v -0.01172814 0.10016110 -0.04377004
v -0.00000000 0.10277420 -0.04532376
v 0.00000000 0.10016110 -0.04531408
v -0.01172812 0.07687128 -0.04376994
v -0.01172812 0.01207084 -0.04376994
v 0.00000000 0.07687129 -0.04531400
v 0.00000000 0.01207084 -0.04531399
v 0.01112686 0.00891240 -0.04152562
v 0.01178457 0.00962276 -0.04398031
v 0.02276594 0.00962276 -0.03943167
v 0.00000000 0.00891240 -0.04299049
v -0.00000000 0.00962276 -0.04553176
v 0.02149533 0.00891241 -0.03723085
v 0.03219590 0.00962276 -0.03219582
v -0.01112679 0.00891240 -0.04152561
v -0.01178449 0.00962276 -0.04398030
v 0.03039880 0.00891241 -0.03039887
v 0.03943163 0.00962276 -0.02276588
v -0.02149526 0.00891241 -0.03723084
v -0.02276594 0.00962276 -0.03943165
v 0.03723088 0.00891241 -0.02149524
v 0.04398031 0.00962277 -0.01178449
v -0.03039888 0.00891241 -0.03039885
v -0.03219590 0.00962276 -0.03219580
v 0.04152559 0.00891241 -0.01112676
v 0.04553180 0.00962277 -0.00000000
v -0.03723088 0.00891241 -0.02149522
v -0.03943171 0.00962276 -0.02276586
v 0.04299051 0.00891241 -0.00000000
v 0.04398031 0.00962277 0.01178448
v -0.04152559 0.00891241 -0.01112674
v -0.04398031 0.00962277 -0.01178447
v 0.04152559 0.00891241 0.01112675
v 0.03943163 0.00962277 0.02276587
v -0.04299051 0.00891241 0.00000002
v -0.04553172 0.00962277 0.00000002
v 0.03723088 0.00891241 0.02149523
v 0.03219590 0.00962277 0.03219581
v -0.04152559 0.00891241 0.01112677
v -0.04398031 0.00962277 0.01178450
v 0.03039880 0.00891242 0.03039885
v 0.02276593 0.00962277 0.03943166
v -0.03723089 0.00891241 0.02149526
v -0.03943163 0.00962277 0.02276589
v 0.02149533 0.00891242 0.03723084
v 0.01178457 0.00962277 0.04398030
v -0.03039888 0.00891241 0.03039888
v -0.03219582 0.00962277 0.03219584
v 0.01112686 0.00891242 0.04152562
v -0.00000000 0.00962277 0.04553176
v -0.02149526 0.00891242 0.03723086
v -0.02276586 0.00962277 0.03943167
v 0.00000000 0.00891242 0.04299049
v -0.01178449 0.00962277 0.04398031
v -0.01112679 0.00891242 0.04152562
v 0.02126655 0.00571708 0.02126647
v 0.01503756 0.00571708 0.02604601
v -0.00000000 0.00571748 0.00000001
v 0.02604601 0.00571708 0.01503767
v 0.00778408 0.00571708 0.02905054
v 0.02905055 0.00571708 0.00778407
v 0.00000000 0.00571708 0.03007534
v 0.03007543 0.00571707 -0.00000000
v -0.00778408 0.00571708 0.02905055
v 0.02905055 0.00571707 -0.00778407
v -0.01503764 0.00571708 0.02604601
v 0.02604601 0.00571707 -0.01503767
v -0.02126647 0.00571708 0.02126649
v 0.02126655 0.00571707 -0.02126647
v -0.02604601 0.00571708 0.01503768
v 0.01503756 0.00571707 -0.02604601
v -0.02905055 0.00571708 0.00778408
v 0.00778408 0.00571707 -0.02905055
v -0.03007535 0.00571707 0.00000002
v 0.00000000 0.00571707 -0.03007534
v -0.02905055 0.00571707 -0.00778405
v -0.00778415 0.00571707 -0.02905054
v -0.02604601 0.00571707 -0.01503765
v -0.01503764 0.00571707 -0.02604599
v -0.02126647 0.00571707 -0.02126646
vn 0.84864620 -0.41869240 -0.32325880
vn 0.47546730 -0.22306900 -0.85098240
vn 0.40001630 -0.36543810 -0.84050100
vn 0.69149570 -0.65276750 -0.30939990
vn 0.25385650 -0.48882190 -0.83463170
vn 0.42885660 -0.85163980 -0.30131650
vn 0.72537410 -0.68835480 0.00000011
vn 0.12805820 -0.51049320 -0.85029270
vn 0.44692060 -0.89457370 0.00000015
vn 0.69149580 -0.65276740 0.30940010
vn 0.22486640 -0.92794010 -0.29725800
vn 0.11331640 -0.55941020 -0.82110880
vn 0.18247100 -0.93994370 -0.28846200
vn 0.22999190 -0.97319260 0.00000016
vn 0.18391080 -0.98294290 0.00000016
vn 0.42885660 -0.85163970 0.30131670
vn 0.40001630 -0.36543780 0.84050110
vn 0.25385650 -0.48882160 0.83463190
vn 0.22486640 -0.92794000 0.29725840
vn 0.18247100 -0.93994360 0.28846240
vn 0.12805820 -0.51049290 0.85029300
vn 0.11331640 -0.55940990 0.82110900
vn 0.47546730 -0.22306880 0.85098240
vn 0.84864620 -0.41869230 0.32325900
vn 0.50185230 -0.11246190 0.85761090
vn 0.91886060 -0.21604260 0.33018310
vn 0.51452370 -0.02200423 0.85719380
vn 0.89449430 -0.44707930 0.00000000
vn 0.97270690 -0.23203720 0.00000000
vn 0.94354620 -0.04297026 0.32844210
vn 0.51485690 0.10458910 0.85087220
vn 0.91886060 -0.21604270 -0.33018300
vn 0.50185230 -0.11246220 -0.85761090
vn 0.99870350 -0.05090568 0.00000000
vn 0.92376480 0.19184580 0.33144190
vn 0.43507900 0.32084650 0.84128700
vn 0.94354620 -0.04297037 -0.32844210
vn 0.51452370 -0.02200451 -0.85719380
vn 0.75660030 0.56033160 0.33702300
vn 0.21421650 0.51324690 0.83107690
vn 0.38234240 0.87000600 0.31129400
vn 0.97945930 0.20164170 0.00000000
vn 0.92376480 0.19184570 -0.33144200
vn 0.51485710 0.10458880 -0.85087220
vn 0.80298210 0.59600310 0.00000000
vn 0.39830540 0.91725290 -0.00000015
vn 0.75660020 0.56033160 -0.33702300
vn 0.43507900 0.32084620 -0.84128710
vn 0.38234240 0.87000580 -0.31129430
vn -0.11170010 0.43102170 -0.89540130
vn -0.13938370 0.46939360 -0.87191860
vn -0.21717520 0.38960890 -0.89500830
vn -0.34718540 0.29658460 -0.88966270
vn -0.42666040 0.19236320 -0.88371790
vn -0.46547660 0.10226920 -0.87913170
vn -0.47061010 0.01764010 -0.88216500
vn -0.43422930 -0.09360299 -0.89592600
vn -0.33195870 -0.23789830 -0.91280230
vn 0.21421650 0.51324670 -0.83107710
vn -0.18659320 -0.37959570 -0.90614010
vn -0.00643943 0.56920280 -0.82217190
vn -0.00421164 -0.46050300 -0.88764820
vn -0.08517858 0.52987100 -0.84378990
vn 0.10681680 -0.50762430 -0.85493140
vn -0.07983910 0.49673590 -0.86422180
vn 0.11496630 -0.54223700 -0.83232310
vn -0.24684150 0.90987710 -0.33345590
vn -0.28053080 0.90174540 -0.32887310
vn -0.27250740 0.96215370 -0.00000016
vn -0.48037580 0.80845950 -0.34004760
vn -0.30604670 0.95201650 -0.00000016
vn -0.24684150 0.90987720 0.33345560
vn -0.73546670 0.59022890 -0.33274400
vn -0.28053080 0.90174560 0.32887280
vn -0.11170010 0.43102200 0.89540110
vn -0.13938370 0.46939380 0.87191840
vn -0.51869930 0.85495670 -0.00000014
vn -0.48037580 0.80845960 0.34004730
vn -0.21717520 0.38960920 0.89500810
vn -0.86999060 0.36760810 -0.32860420
vn -0.78513500 0.61932470 -0.00000010
vn -0.73546680 0.59022900 0.33274380
vn -0.34718550 0.29658500 0.88966270
vn -0.92427570 0.19410250 -0.32869240
vn -0.92263470 0.38567490 0.00000000
vn -0.86999060 0.36760820 0.32860400
vn -0.42666030 0.19236350 0.88371780
vn -0.94101370 0.04013204 -0.33598040
vn -0.97879520 0.20484140 0.00000000
vn -0.92427570 0.19410260 0.32869230
vn -0.46547660 0.10226950 0.87913170
vn -0.91680440 -0.18293370 -0.35497170
vn -0.76231770 -0.52740870 -0.37511590
vn -0.99910360 0.04232997 0.00000000
vn -0.94101370 0.04013215 0.33598040
vn -0.47061010 0.01764039 0.88216500
vn -0.98132470 -0.19235860 0.00000000
vn -0.82735370 -0.56168130 0.00000000
vn -0.91680440 -0.18293360 0.35497180
vn -0.43422930 -0.09360268 0.89592600
vn -0.76231770 -0.52740850 0.37511610
vn -0.43568930 -0.90009710 0.00000015
vn -0.33195870 -0.23789790 0.91280230
vn -0.39897370 -0.84476320 0.35664410
vn -0.18659330 -0.37959550 0.90614030
vn -0.00421164 -0.46050280 0.88764830
vn -0.00643943 0.56920300 0.82217180
vn 0.10681690 -0.50762400 0.85493150
vn -0.08517858 0.52987130 0.84378970
vn 0.11496630 -0.54223670 0.83232330
vn -0.07983910 0.49673610 0.86422160
vn 0.02139360 -0.94852110 -0.31599040
vn 0.20527180 -0.93266530 -0.29664600
vn 0.02462848 -0.99969670 0.00000016
vn 0.20606620 -0.93276110 -0.29579280
vn 0.22285300 -0.97485210 0.00000016
vn 0.02139360 -0.94852100 0.31599070
vn 0.22263670 -0.97490150 0.00000016
vn 0.20527180 -0.93266530 0.29664630
vn 0.20606630 -0.93276100 0.29579310
vn 0.01144475 0.96239630 0.27140820
vn -0.14215780 0.95320190 0.26682800
vn 0.01126165 0.99993660 -0.00000016
vn -0.14185100 0.94992600 0.27842220
vn -0.13730550 0.99052860 -0.00000016
vn 0.01144474 0.96239620 -0.27140840
vn -0.13730550 0.99052860 -0.00000016
vn -0.14215780 0.95320180 -0.26682830
vn -0.14185100 0.94992580 -0.27842250
vn -0.39898400 -0.84475460 -0.35665300
vn 0.00000000 -0.00000016 -1.00000000
vn 0.19001410 0.67887470 -0.70924160
vn 0.00000000 0.67886800 -0.73426040
vn 0.25880220 -0.00000016 -0.96593030
vn 0.36712200 0.67888100 -0.63587890
vn 0.25880220 -0.00000016 -0.96593030
vn -0.25880220 -0.00000016 -0.96593030
vn 0.49998930 -0.00000014 -0.86603160
vn 0.49998930 -0.00000014 -0.86603160
vn 0.51919650 0.67887400 -0.51919660
vn 0.70710680 -0.00000012 -0.70710680
vn 0.70710680 -0.00000012 -0.70710680
vn 0.63587880 0.67888100 -0.36712210
vn 0.86603160 0.00000000 -0.49998930
vn 0.86603160 0.00000000 -0.49998930
vn 0.70923760 0.67887090 -0.19004370
vn 0.96593030 0.00000000 -0.25880220
vn 0.96593030 0.00000000 -0.25880220
vn 1.00000000 0.00000000 0.00000000
vn 0.73426020 0.67886810 -0.00000011
vn 1.00000000 0.00000000 0.00000000
vn 0.70923760 0.67887090 0.19004340
vn 0.96593030 0.00000000 0.25880220
vn 0.63587880 0.67888120 0.36712190
vn 0.86603160 0.00000000 0.49998930
vn 0.51919650 0.67887430 0.51919630
vn 0.70710680 0.00000012 0.70710680
vn 0.36712200 0.67888120 0.63587870
vn 0.49998930 0.00000014 0.86603160
vn 0.49998930 0.00000014 0.86603160
vn 0.70710680 0.00000012 0.70710680
vn 0.86603160 0.00000000 0.49998930
vn 0.96593030 0.00000000 0.25880220
vn 0.19004360 0.67887100 0.70923730
vn 0.25880220 0.00000016 0.96593030
vn 0.00000000 0.67886810 0.73426010
vn 0.00000000 0.00000016 1.00000000
vn 0.00000000 0.00000016 1.00000000
vn 0.00000000 0.00000016 1.00000000
vn -0.19001410 0.67887490 0.70924150
vn -0.25880220 0.00000016 0.96593030
vn -0.25880220 0.00000016 0.96593030
vn -0.36712200 0.67888120 0.63587870
vn -0.49998930 0.00000014 0.86603160
vn -0.49998930 0.00000014 0.86603160
vn -0.51919650 0.67887430 0.51919630
vn -0.70710680 0.00000012 0.70710680
vn -0.70710680 0.00000012 0.70710680
vn -0.86603160 0.00000000 0.49998930
vn -0.86603160 0.00000000 0.49998930
vn -0.96593030 0.00000000 0.25880220
vn -0.96593030 0.00000000 0.25880220
vn -0.63587880 0.67888120 0.36712190
vn -0.70923760 0.67887090 0.19004340
vn -0.73426020 0.67886810 -0.00000011
vn -1.00000000 0.00000000 0.00000000
vn -0.70923760 0.67887090 -0.19004370
vn -1.00000000 0.00000000 0.00000000
vn -0.96593030 0.00000000 -0.25880220
vn -0.96593030 0.00000000 -0.25880220
vn -0.63587880 0.67888100 -0.36712210
vn -0.86603160 0.00000000 -0.49998930
vn -0.86603160 0.00000000 -0.49998930
vn -0.51919650 0.67887400 -0.51919660
vn -0.70710680 -0.00000012 -0.70710680
vn -0.70710680 -0.00000012 -0.70710680
vn -0.36712200 0.67888100 -0.63587890
vn -0.49998930 -0.00000014 -0.86603160
vn -0.49998930 -0.00000014 -0.86603160
vn -0.25880220 -0.00000016 -0.96593030
vn -0.25880220 -0.00000016 -0.96593030
vn -0.25880220 -0.00000016 -0.96593030
vn -0.19004360 0.67887070 -0.70923760
vn 0.00000000 0.67886800 -0.73426040
vn 0.00000000 -0.00000016 -1.00000000
vn 0.00000000 0.00000016 1.00000000
vn 0.00000000 0.73771140 0.67511630
vn -0.17472040 0.73770160 0.65212660
vn -0.25880220 0.00000016 0.96593030
vn 0.00000000 0.00000016 1.00000000
vn -0.33754070 0.73770660 0.58468380
vn -0.25880220 0.00000016 0.96593030
vn 0.00000000 0.00000016 1.00000000
vn -0.25880220 0.00000016 0.96593030
vn -0.49998930 0.00000014 0.86603160
vn -0.47738080 0.73770940 0.47738080
vn -0.49998930 0.00000014 0.86603160
vn -0.49998930 0.00000014 0.86603160
vn -0.70710680 0.00000012 0.70710680
vn -0.58468400 0.73770660 0.33754060
vn -0.70710680 0.00000012 0.70710680
vn -0.70710680 0.00000012 0.70710680
vn -0.86603160 0.00000000 0.49998930
vn -0.65212670 0.73770150 0.17472030
vn -0.86603160 0.00000000 0.49998930
vn -0.86603160 0.00000000 0.49998930
vn -0.96593030 0.00000000 0.25880220
vn -0.67511630 0.73771140 -0.00000012
vn -0.96593030 0.00000000 0.25880220
vn -0.96593030 0.00000000 0.25880220
vn -1.00000000 0.00000000 0.00000000
vn -0.65212660 0.73770150 -0.17472050
vn -1.00000000 0.00000000 0.00000000
vn -0.96593030 0.00000000 -0.25880220
vn -0.58468400 0.73770650 -0.33754080
vn -0.86603160 0.00000000 -0.49998930
vn -0.47738080 0.73770930 -0.47738090
vn -0.96593030 0.00000000 -0.25880220
vn -0.70710680 -0.00000012 -0.70710680
vn -0.33754070 0.73770640 -0.58468410
vn -0.86603160 0.00000000 -0.49998930
vn -0.49998930 -0.00000014 -0.86603160
vn -0.17472040 0.73770150 -0.65212670
vn -0.70710680 -0.00000012 -0.70710680
vn -0.25880220 -0.00000016 -0.96593030
vn 0.00000000 0.73771110 -0.67511650
vn -0.49998930 -0.00000014 -0.86603160
vn 0.00000000 -0.00000016 -1.00000000
vn 0.17472040 0.73770150 -0.65212670
vn -0.25880220 -0.00000016 -0.96593030
vn 0.25880220 -0.00000016 -0.96593030
vn 0.33754070 0.73770640 -0.58468410
vn 0.49998930 -0.00000014 -0.86603160
vn 0.25880220 -0.00000016 -0.96593030
vn 0.49998930 -0.00000014 -0.86603160
vn 0.00000000 -0.00000016 -1.00000000
vn -0.25880220 -0.00000016 -0.96593030
vn 0.00000000 -0.00000016 -1.00000000
vn -0.49998930 -0.00000014 -0.86603160
vn -0.70710680 -0.00000012 -0.70710680
vn -0.86603160 0.00000000 -0.49998930
vn -0.96593030 0.00000000 -0.25880220
vn -1.00000000 0.00000000 0.00000000
vn 0.47738080 0.73770930 -0.47738090
vn 0.70710680 -0.00000012 -0.70710680
vn 0.58468400 0.73770650 -0.33754080
vn 0.86603160 0.00000000 -0.49998930
vn 0.65212660 0.73770150 -0.17472050
vn 0.96593030 0.00000000 -0.25880220
vn 0.70710680 -0.00000012 -0.70710680
vn 0.86603160 0.00000000 -0.49998930
vn 0.96593030 0.00000000 -0.25880220
vn 1.00000000 0.00000000 0.00000000
vn 1.00000000 0.00000000 0.00000000
vn 0.96593030 0.00000000 -0.25880220
vn 1.00000000 0.00000000 0.00000000
vn 0.86603160 0.00000000 -0.49998930
vn 0.70710680 -0.00000012 -0.70710680
vn 0.49998930 -0.00000014 -0.86603160
vn 0.25880220 -0.00000016 -0.96593030
vn 0.67511630 0.73771140 -0.00000012
vn 0.65212670 0.73770150 0.17472030
vn 0.96593030 0.00000000 0.25880220
vn 0.58468400 0.73770660 0.33754060
vn 0.96593030 0.00000000 0.25880220
vn 0.96593030 0.00000000 0.25880220
vn 0.86603160 0.00000000 0.49998930
vn 0.47738080 0.73770940 0.47738080
vn 0.86603160 0.00000000 0.49998930
vn 0.86603160 0.00000000 0.49998930
vn 0.70710680 0.00000012 0.70710680
vn 0.33754070 0.73770660 0.58468380
vn 0.70710680 0.00000012 0.70710680
vn 0.70710680 0.00000012 0.70710680
vn 0.49998930 0.00000014 0.86603160
vn 0.17472040 0.73770160 0.65212660
vn 0.49998930 0.00000014 0.86603160
vn 0.49998930 0.00000014 0.86603160
vn 0.25880220 0.00000016 0.96593030
vn 0.00000000 0.73771140 0.67511630
vn 0.00000000 0.00000016 1.00000000
vn 0.25880220 0.00000016 0.96593030
vn 0.25880220 0.00000016 0.96593030
vn 0.00000000 0.00000016 1.00000000
vn 0.00000000 0.00000016 1.00000000
vn -0.06213632 0.97074280 0.23194290
vn -0.20847800 0.59262560 0.77803070
vn -0.40272990 0.59261980 0.69757470
vn 0.00000000 0.97073560 0.24015070
vn 0.00000000 0.59261610 0.80548510
vn -0.12006100 0.97074200 0.20795500
vn -0.56955700 0.59262970 0.56955680
vn 0.06213632 0.97074280 0.23194290
vn 0.20847800 0.59262560 0.77803070
vn -0.16980590 0.97073790 0.16980580
vn -0.69757470 0.59261980 0.40272980
vn 0.12006100 0.97074200 0.20795500
vn 0.40272990 0.59261980 0.69757470
vn -0.20795510 0.97074200 0.12006080
vn -0.77803080 0.59262560 0.20847790
vn 0.16980590 0.97073790 0.16980580
vn 0.56955700 0.59262970 0.56955680
vn -0.23194310 0.97074270 0.06213617
vn -0.80548520 0.59261580 0.00000000
vn 0.20795510 0.97074200 0.12006080
vn 0.69757470 0.59261980 0.40272980
vn -0.24015080 0.97073560 -0.00000016
vn -0.77803080 0.59262560 -0.20847800
vn 0.23194310 0.97074270 0.06213617
vn 0.77803080 0.59262560 0.20847790
vn -0.23194310 0.97074270 -0.06213648
vn -0.69757470 0.59261970 -0.40273000
vn 0.24015080 0.97073560 -0.00000016
vn 0.80548520 0.59261580 0.00000000
vn -0.20795520 0.97074200 -0.12006110
vn -0.56955700 0.59262960 -0.56955700
vn 0.23194310 0.97074270 -0.06213648
vn 0.77803080 0.59262560 -0.20847800
vn -0.16980590 0.97073780 -0.16980600
vn -0.40273000 0.59261950 -0.69757490
vn 0.20795520 0.97074200 -0.12006110
vn 0.69757470 0.59261970 -0.40273000
vn -0.12006100 0.97074200 -0.20795530
vn -0.20847790 0.59262540 -0.77803090
vn 0.16980590 0.97073780 -0.16980600
vn 0.56955700 0.59262960 -0.56955700
vn -0.06213632 0.97074270 -0.23194320
vn 0.00000000 0.59261580 -0.80548520
vn 0.12006100 0.97074200 -0.20795530
vn 0.40273000 0.59261950 -0.69757490
vn 0.00000000 0.97073550 -0.24015090
vn 0.20847790 0.59262540 -0.77803090
vn 0.06213632 0.97074270 -0.23194320
vn -0.09253276 0.99140070 -0.09253292
vn -0.06543222 0.99140200 -0.11331630
vn 0.00000000 1.00000000 -0.00000016
vn -0.11331620 0.99140210 -0.06543240
vn -0.03384526 0.99140070 -0.12640870
vn -0.12640850 0.99140070 -0.03384542
vn 0.00000000 0.99140040 -0.13086440
vn -0.13086420 0.99140040 -0.00000016
vn 0.03384526 0.99140070 -0.12640870
vn -0.12640850 0.99140080 0.03384510
vn 0.06543222 0.99140200 -0.11331630
vn -0.11331620 0.99140210 0.06543207
vn 0.09253276 0.99140070 -0.09253292
vn -0.09253277 0.99140080 0.09253260
vn 0.11331620 0.99140210 -0.06543240
vn -0.06543223 0.99140210 0.11331600
vn 0.12640850 0.99140070 -0.03384542
vn -0.03384526 0.99140080 0.12640840
vn 0.13086420 0.99140040 -0.00000016
vn 0.00000000 0.99140040 0.13086410
vn 0.12640850 0.99140080 0.03384510
vn 0.03384526 0.99140080 0.12640840
vn 0.11331620 0.99140210 0.06543207
vn 0.06543223 0.99140210 0.11331600
vn 0.09253277 0.99140080 0.09253260
vt 1.08980600 2.59265500
vt 1.09895000 2.60072000
vt 1.10156500 2.55040200
vt 1.09148500 2.54117700
vt 1.10559800 2.52032500
vt 1.09416300 2.50943200
vt 1.07595900 2.53828200
vt 1.10870000 2.51321800
vt 1.07595900 2.50536900
vt 1.06043300 2.54117700
vt 1.09629800 2.50203500
vt 1.11176000 2.50914300
vt 1.09845800 2.49803500
vt 1.07595900 2.49788100
vt 1.07595900 2.49393400
vt 1.05775000 2.50943100
vt 1.05035300 2.55040200
vt 1.04631400 2.52032500
vt 1.05562100 2.50203500
vt 1.05346600 2.49803400
vt 1.04321300 2.51322100
vt 1.04015800 2.50914300
vt 1.05296300 2.60071800
vt 1.06211800 2.59265500
vt 1.05452700 2.67136800
vt 1.06309600 2.66581300
vt 1.05519700 2.75081800
vt 1.07595900 2.58967300
vt 1.07595900 2.66322100
vt 1.06351900 2.74918000
vt 1.05500900 2.81799900
vt 1.08881200 2.66581300
vt 1.09738500 2.67137000
vt 1.07595900 2.74674100
vt 1.06341000 2.82161500
vt 1.05385300 2.86472200
vt 1.08839800 2.74918000
vt 1.09672100 2.75081800
vt 1.06266700 2.87288100
vt 1.05149800 2.88952900
vt 1.06112400 2.89956500
vt 1.07595900 2.82280800
vt 1.08851400 2.82161500
vt 1.09691500 2.81799900
vt 1.07595900 2.87599400
vt 1.07595900 2.90336000
vt 1.08925100 2.87287800
vt 1.09806000 2.86472200
vt 1.09080000 2.89956500
vt 1.11176000 2.52364400
vt 1.10904000 2.52771400
vt 1.10623100 2.53438500
vt 1.10243400 2.56343600
vt 1.09990200 2.61123700
vt 1.09837400 2.67752700
vt 1.09771500 2.75125900
vt 1.09790900 2.81257000
vt 1.09903300 2.85449700
vt 1.10042500 2.88952900
vt 1.10124600 2.87691600
vt 1.10427500 2.89674400
vt 1.10480800 2.88367100
vt 1.10878900 2.89075000
vt 1.10887800 2.87754500
vt 1.11028000 2.88911500
vt 1.11019100 2.87582600
vt 1.09844800 2.53604100
vt 1.09686200 2.54017300
vt 1.07595900 2.54098600
vt 1.09520400 2.54662300
vt 1.07595900 2.54514600
vt 1.05346600 2.53604100
vt 1.09292300 2.57434100
vt 1.05505100 2.54017200
vt 1.04015800 2.52364400
vt 1.04286700 2.52771700
vt 1.07595900 2.55153000
vt 1.05671900 2.54662300
vt 1.04568700 2.53438500
vt 1.09138500 2.62022900
vt 1.07595900 2.57858000
vt 1.05900000 2.57434100
vt 1.04947900 2.56343600
vt 1.09045400 2.68233100
vt 1.07595900 2.62326000
vt 1.06053300 2.62022900
vt 1.05200600 2.61123600
vt 1.09004600 2.74978400
vt 1.07595900 2.68348500
vt 1.06146900 2.68232900
vt 1.05353900 2.67752700
vt 1.09016200 2.80707500
vt 1.09084700 2.84528100
vt 1.07595900 2.74896100
vt 1.06186600 2.74978200
vt 1.05419800 2.75125900
vt 1.07595900 2.80431600
vt 1.07595900 2.84137100
vt 1.06174600 2.80707500
vt 1.05400400 2.81257000
vt 1.06107100 2.84528100
vt 1.07595900 2.86189200
vt 1.05289000 2.85449700
vt 1.05974800 2.86632300
vt 1.05066200 2.87691600
vt 1.04710500 2.88367100
vt 1.04764300 2.89674400
vt 1.04304000 2.87754500
vt 1.04312900 2.89075000
vt 1.04173200 2.87582600
vt 1.04163800 2.88911500
vt 1.09427300 2.87207900
vt 1.09662700 2.86596900
vt 1.07595900 2.86768600
vt 1.09737500 2.86429600
vt 1.07595900 2.86149700
vt 1.05764500 2.87207900
vt 1.07595900 2.85981500
vt 1.05528600 2.86596900
vt 1.05453300 2.86429600
vt 1.05854000 2.90691300
vt 1.05542700 2.90106500
vt 1.07595900 2.90987700
vt 1.05437600 2.89946700
vt 1.07595900 2.90489200
vt 1.09337900 2.90691300
vt 1.07595900 2.90353100
vt 1.09649100 2.90106500
vt 1.09754300 2.89946700
vt 1.09217000 2.86632300
vt 1.34960300 2.98722400
vt 1.30948100 2.99913100
vt 1.34960300 2.99913100
vt 1.30948100 2.98722400
vt 1.26648400 2.99913100
vt 1.30948100 2.52467300
vt 1.34960300 2.52467300
vt 1.26648400 2.52467300
vt 1.26648400 2.98722400
vt 1.22008400 2.99913100
vt 1.22008400 2.52467300
vt 1.22008400 2.98722400
vt 1.17003300 2.99913100
vt 1.17003300 2.52467300
vt 1.17003300 2.98722400
vt 1.11671600 2.99913100
vt 1.11671600 2.52467300
vt 1.11671600 2.98722400
vt 1.06140800 2.52467300
vt 1.06140800 2.99913100
vt 1.06140800 2.98722400
vt 1.00610100 2.99913100
vt 1.00610100 2.98722500
vt 0.95278310 2.99913100
vt 0.95278310 2.98722400
vt 0.90273240 2.99913100
vt 0.90273240 2.98722500
vt 0.85633210 2.99913100
vt 0.85633210 2.98722500
vt 0.85633210 2.52467300
vt 0.90273240 2.52467300
vt 0.95278310 2.52467300
vt 1.00610100 2.52467300
vt 0.81333550 2.99913100
vt 0.81333550 2.98722400
vt 0.77321310 2.99913100
vt 0.81333550 2.52467300
vt 0.77321310 2.98722400
vt 0.77321310 2.52467300
vt 0.73537960 2.99913100
vt 0.73537960 2.52467300
vt 0.73537960 2.98722500
vt 0.69929840 2.99913100
vt 0.69929840 2.52467300
vt 0.69929840 2.98722500
vt 0.66450980 2.99913100
vt 0.66450980 2.52467300
vt 0.66450980 2.98722400
vt 0.63062560 2.52467300
vt 0.63062550 2.98722500
vt 0.59731440 2.52467300
vt 0.59731440 2.98722400
vt 0.63062550 2.99913100
vt 0.59731440 2.99913100
vt 0.56428060 2.99913100
vt 0.56428060 2.98722400
vt 0.53124660 2.99913100
vt 0.56428060 2.52467300
vt 0.53124670 2.52467300
vt 0.53124660 2.98722400
vt 0.49793540 2.99913100
vt 0.49793540 2.52467300
vt 0.49793540 2.98722400
vt 0.46405130 2.99913100
vt 0.46405130 2.52467300
vt 0.46405130 2.98722400
vt 0.42926240 2.99913100
vt 0.42926240 2.52467300
vt 0.42926240 2.98722400
vt 0.39318130 2.52467300
vt 0.39318120 2.98722400
vt 0.35534770 2.52467300
vt 0.39318120 2.99913100
vt 0.35534770 2.99913100
vt 0.35534770 2.98722400
vt 1.35346400 2.98722400
vt 1.35346400 2.99913100
vt 1.31376600 2.99913100
vt 1.31376600 2.98722400
vt 1.35346400 2.87960000
vt 1.27094700 2.99913100
vt 1.31376600 2.87960000
vt 1.35346400 2.55424400
vt 1.31376600 2.55424400
vt 1.27094700 2.98722400
vt 1.22431400 2.99913100
vt 1.27094700 2.87960000
vt 1.27094700 2.55424400
vt 1.22431400 2.98722400
vt 1.17344700 2.99913100
vt 1.22431400 2.87960000
vt 1.22431400 2.55424400
vt 1.17344700 2.98722400
vt 1.11865500 2.99913100
vt 1.17344700 2.87960000
vt 1.17344700 2.55424400
vt 1.11865500 2.98722400
vt 1.06140800 2.99913100
vt 1.11865500 2.87960000
vt 1.11865500 2.55424400
vt 1.06140800 2.98722400
vt 1.00416200 2.99913100
vt 1.06140800 2.87960000
vt 1.00416200 2.98722400
vt 0.94936910 2.99913100
vt 0.94936910 2.98722500
vt 0.89850180 2.99913100
vt 1.00416200 2.87960000
vt 0.89850180 2.98722400
vt 0.85186930 2.99913100
vt 0.94936910 2.87960000
vt 0.85186930 2.98722400
vt 0.80905000 2.99913100
vt 0.89850180 2.87960000
vt 0.80905000 2.98722400
vt 0.76935190 2.99913100
vt 0.85186930 2.87960000
vt 0.76935190 2.98722400
vt 0.73207840 2.99913100
vt 0.80905000 2.87960000
vt 0.73207840 2.98722400
vt 0.69662480 2.99913100
vt 0.69662480 2.98722500
vt 0.73207840 2.87960000
vt 0.69662480 2.87960000
vt 0.76935190 2.87960000
vt 0.80905000 2.55424400
vt 0.76935190 2.55424400
vt 0.85186920 2.55424400
vt 0.89850180 2.55424400
vt 0.94936910 2.55424400
vt 1.00416200 2.55424400
vt 1.06140800 2.55424400
vt 0.66249390 2.99913100
vt 0.66249390 2.98722500
vt 0.62927950 2.99913100
vt 0.62927950 2.98722400
vt 0.59664110 2.99913100
vt 0.59664110 2.98722500
vt 0.66249390 2.87960000
vt 0.62927950 2.87960000
vt 0.59664110 2.87960000
vt 0.56428060 2.98722400
vt 0.56428060 2.87960000
vt 0.59664110 2.55424400
vt 0.56428060 2.55424400
vt 0.62927960 2.55424400
vt 0.66249390 2.55424400
vt 0.69662490 2.55424400
vt 0.73207840 2.55424400
vt 0.56428060 2.99913100
vt 0.53192000 2.99913100
vt 0.53191980 2.98722400
vt 0.49928150 2.99913100
vt 0.53192000 2.87960000
vt 0.53192000 2.55424400
vt 0.49928150 2.98722400
vt 0.46606720 2.99913100
vt 0.49928150 2.87960000
vt 0.49928150 2.55424400
vt 0.46606720 2.98722400
vt 0.43193620 2.99913100
vt 0.46606720 2.87960000
vt 0.46606720 2.55424400
vt 0.43193620 2.98722400
vt 0.39648250 2.99913100
vt 0.43193620 2.87960000
vt 0.43193620 2.55424400
vt 0.39648250 2.98722400
vt 0.35920900 2.99913100
vt 0.35920900 2.98722400
vt 0.39648250 2.87960000
vt 0.39648250 2.55424400
vt 0.35920900 2.87960000
vt 0.35920900 2.55424400
vt 0.29197450 2.44490600
vt 0.29489730 2.45581400
vt 0.34737720 2.43407600
vt 0.23857890 2.45193500
vt 0.23857890 2.46322800
vt 0.34173070 2.42429600
vt 0.39244300 2.39949600
vt 0.18518360 2.44490500
vt 0.18226090 2.45581400
vt 0.38445690 2.39151000
vt 0.42702260 2.35443000
vt 0.13542730 2.42429600
vt 0.12978050 2.43407600
vt 0.41724260 2.34878300
vt 0.44876070 2.30195000
vt 0.09270057 2.39151000
vt 0.08471477 2.39949600
vt 0.43785210 2.29902700
vt 0.45617510 2.24563200
vt 0.05991507 2.34878300
vt 0.05013487 2.35443000
vt 0.44488190 2.24563200
vt 0.44876070 2.18931400
vt 0.03930561 2.29902700
vt 0.02839696 2.30195000
vt 0.43785210 2.19223700
vt 0.42702260 2.13683400
vt 0.03227578 2.24563200
vt 0.02098294 2.24563200
vt 0.41724260 2.14248100
vt 0.39244300 2.09176900
vt 0.03930561 2.19223700
vt 0.02839696 2.18931400
vt 0.38445690 2.09975400
vt 0.34737720 2.05718900
vt 0.05991507 2.14248100
vt 0.05013520 2.13683400
vt 0.34173070 2.06696900
vt 0.29489730 2.03545000
vt 0.09270057 2.09975400
vt 0.08471520 2.09176800
vt 0.29197450 2.04635900
vt 0.23857890 2.02803600
vt 0.13542730 2.06696800
vt 0.12978090 2.05718900
vt 0.23857890 2.03932900
vt 0.18226090 2.03545000
vt 0.18518360 2.04635900
vt 0.34061640 2.14359500
vt 0.31072950 2.12066300
vt 0.23857890 2.24563200
vt 0.36354820 2.17348100
vt 0.27592700 2.10624700
vt 0.37796410 2.20828400
vt 0.23857890 2.10133000
vt 0.38288160 2.24563200
vt 0.20123070 2.10624700
vt 0.37796410 2.28298000
vt 0.16642790 2.12066300
vt 0.36354820 2.31778300
vt 0.13654170 2.14359500
vt 0.34061640 2.34766900
vt 0.11360940 2.17348100
vt 0.31072950 2.37060200
vt 0.09919347 2.20828400
vt 0.27592700 2.38501700
vt 0.09427652 2.24563200
vt 0.23857890 2.38993500
vt 0.09919347 2.28298000
vt 0.20123030 2.38501700
vt 0.11360940 2.31778300
vt 0.16642790 2.37060200
vt 0.13654170 2.34766900
f 3/3/3 2/2/2 1/1/1
f 4/4/4 3/3/3 1/1/1
f 5/5/5 3/3/3 4/4/4
f 6/6/6 5/5/5 4/4/4
f 6/6/6 4/4/4 7/7/7
f 8/8/8 5/5/5 6/6/6
f 9/9/9 6/6/6 7/7/7
f 9/9/9 7/7/7 10/10/10
f 11/11/11 8/8/8 6/6/6
f 11/11/11 6/6/6 9/9/9
f 12/12/12 8/8/8 11/11/11
f 13/13/13 12/12/12 11/11/11
f 13/13/13 11/11/11 14/14/14
f 14/14/14 11/11/11 9/9/9
f 15/15/15 13/13/13 14/14/14
f 16/16/16 9/9/9 10/10/10
f 14/14/14 9/9/9 16/16/16
f 16/16/16 10/10/10 17/17/17
f 18/18/18 16/16/16 17/17/17
f 15/15/15 14/14/14 19/19/19
f 19/19/19 14/14/14 16/16/16
f 19/19/19 16/16/16 18/18/18
f 20/20/20 15/15/15 19/19/19
f 21/21/21 19/19/19 18/18/18
f 20/20/20 19/19/19 21/21/21
f 22/22/22 20/20/20 21/21/21
f 17/17/17 10/10/10 23/23/23
f 10/10/10 24/24/24 23/23/23
f 23/23/23 24/24/24 25/25/25
f 10/10/10 7/7/7 24/24/24
f 24/24/24 26/26/26 25/25/25
f 25/25/25 26/26/26 27/27/27
f 7/7/7 28/28/28 24/24/24
f 24/24/24 28/28/28 26/26/26
f 7/7/7 4/4/4 28/28/28
f 4/4/4 1/1/1 28/28/28
f 28/28/28 1/1/1 29/29/29
f 28/28/28 29/29/29 26/26/26
f 26/26/26 30/30/30 27/27/27
f 27/27/27 30/30/30 31/31/31
f 1/1/1 32/32/32 29/29/29
f 1/1/1 2/2/2 32/32/32
f 2/2/2 33/33/33 32/32/32
f 26/26/26 29/29/29 34/34/34
f 30/30/30 26/26/26 34/34/34
f 29/29/29 32/32/32 34/34/34
f 30/30/30 35/35/35 31/31/31
f 30/30/30 34/34/34 35/35/35
f 31/31/31 35/35/35 36/36/36
f 32/32/32 33/33/33 37/37/37
f 32/32/32 37/37/37 34/34/34
f 33/33/33 38/38/38 37/37/37
f 35/35/35 39/39/39 36/36/36
f 36/36/36 39/39/39 40/40/40
f 39/39/39 41/41/41 40/40/40
f 34/34/34 42/42/42 35/35/35
f 34/34/34 37/37/37 42/42/42
f 35/35/35 42/42/42 39/39/39
f 37/37/37 38/38/38 43/43/43
f 37/37/37 43/43/43 42/42/42
f 38/38/38 44/44/44 43/43/43
f 39/39/39 45/45/45 41/41/41
f 42/42/42 45/45/45 39/39/39
f 42/42/42 43/43/43 45/45/45
f 45/45/45 46/46/46 41/41/41
f 43/43/43 44/44/44 47/47/47
f 43/43/43 47/47/47 45/45/45
f 45/45/45 47/47/47 46/46/46
f 44/44/44 48/48/48 47/47/47
f 47/47/47 49/49/49 46/46/46
f 12/12/12 50/50/50 8/8/8
f 50/50/50 51/51/51 8/8/8
f 8/8/8 51/51/51 5/5/5
f 51/51/51 52/52/52 5/5/5
f 5/5/5 52/52/52 3/3/3
f 52/52/52 53/53/53 3/3/3
f 3/3/3 53/53/53 2/2/2
f 53/53/53 54/54/54 2/2/2
f 2/2/2 54/54/54 33/33/33
f 54/54/54 55/55/55 33/33/33
f 33/33/33 55/55/55 38/38/38
f 55/55/55 56/56/56 38/38/38
f 38/38/38 56/56/56 44/44/44
f 56/56/56 57/57/57 44/44/44
f 44/44/44 57/57/57 48/48/48
f 57/57/57 58/58/58 48/48/48
f 48/48/48 58/58/58 59/59/59
f 58/58/58 60/60/60 59/59/59
f 59/59/59 60/60/60 61/61/61
f 60/60/60 62/62/62 61/61/61
f 61/61/61 62/62/62 63/63/63
f 62/62/62 64/64/64 63/63/63
f 63/63/63 64/64/64 65/65/65
f 64/64/64 66/66/66 65/65/65
f 50/50/50 67/67/67 51/51/51
f 67/67/67 68/68/68 51/51/51
f 51/51/51 68/68/68 52/52/52
f 67/67/67 69/69/69 68/68/68
f 68/68/68 70/70/70 52/52/52
f 52/52/52 70/70/70 53/53/53
f 69/69/69 71/71/71 68/68/68
f 68/68/68 71/71/71 70/70/70
f 69/69/69 72/72/72 71/71/71
f 70/70/70 73/73/73 53/53/53
f 53/53/53 73/73/73 54/54/54
f 72/72/72 74/74/74 71/71/71
f 72/72/72 75/75/75 74/74/74
f 75/75/75 76/76/76 74/74/74
f 71/71/71 77/77/77 70/70/70
f 71/71/71 74/74/74 77/77/77
f 70/70/70 77/77/77 73/73/73
f 74/74/74 76/76/76 78/78/78
f 74/74/74 78/78/78 77/77/77
f 76/76/76 79/79/79 78/78/78
f 73/73/73 80/80/80 54/54/54
f 54/54/54 80/80/80 55/55/55
f 77/77/77 81/81/81 73/73/73
f 77/77/77 78/78/78 81/81/81
f 73/73/73 81/81/81 80/80/80
f 78/78/78 79/79/79 82/82/82
f 78/78/78 82/82/82 81/81/81
f 79/79/79 83/83/83 82/82/82
f 80/80/80 84/84/84 55/55/55
f 55/55/55 84/84/84 56/56/56
f 81/81/81 85/85/85 80/80/80
f 81/81/81 82/82/82 85/85/85
f 80/80/80 85/85/85 84/84/84
f 82/82/82 83/83/83 86/86/86
f 82/82/82 86/86/86 85/85/85
f 83/83/83 87/87/87 86/86/86
f 84/84/84 88/88/88 56/56/56
f 56/56/56 88/88/88 57/57/57
f 85/85/85 89/89/89 84/84/84
f 85/85/85 86/86/86 89/89/89
f 84/84/84 89/89/89 88/88/88
f 86/86/86 87/87/87 90/90/90
f 86/86/86 90/90/90 89/89/89
f 87/87/87 91/91/91 90/90/90
f 88/88/88 92/92/92 57/57/57
f 57/57/57 92/92/92 58/58/58
f 92/92/92 93/93/93 58/58/58
f 89/89/89 94/94/94 88/88/88
f 89/89/89 90/90/90 94/94/94
f 88/88/88 94/94/94 92/92/92
f 90/90/90 91/91/91 95/95/95
f 90/90/90 95/95/95 94/94/94
f 91/91/91 96/96/96 95/95/95
f 92/92/92 97/97/97 93/93/93
f 94/94/94 97/97/97 92/92/92
f 94/94/94 95/95/95 97/97/97
f 97/97/97 98/98/98 93/93/93
f 95/95/95 96/96/96 99/99/99
f 95/95/95 99/99/99 97/97/97
f 97/97/97 99/99/99 98/98/98
f 96/96/96 100/100/100 99/99/99
f 99/99/99 101/101/101 98/98/98
f 99/99/99 100/100/100 101/101/101
f 98/98/98 101/101/101 102/102/102
f 100/100/100 103/103/103 101/101/101
f 101/101/101 104/104/104 102/102/102
f 101/101/101 103/103/103 104/104/104
f 103/103/103 105/105/105 104/104/104
f 75/75/75 22/22/22 76/76/76
f 22/22/22 21/21/21 76/76/76
f 76/76/76 21/21/21 79/79/79
f 21/21/21 18/18/18 79/79/79
f 79/79/79 18/18/18 83/83/83
f 18/18/18 17/17/17 83/83/83
f 83/83/83 17/17/17 87/87/87
f 17/17/17 23/23/23 87/87/87
f 87/87/87 23/23/23 91/91/91
f 23/23/23 25/25/25 91/91/91
f 91/91/91 25/25/25 96/96/96
f 25/25/25 27/27/27 96/96/96
f 96/96/96 27/27/27 100/100/100
f 27/27/27 31/31/31 100/100/100
f 100/100/100 31/31/31 103/103/103
f 31/31/31 36/36/36 103/103/103
f 103/103/103 36/36/36 105/105/105
f 36/36/36 40/40/40 105/105/105
f 105/105/105 40/40/40 106/106/106
f 40/40/40 107/107/107 106/106/106
f 106/106/106 107/107/107 108/108/108
f 107/107/107 109/109/109 108/108/108
f 108/108/108 109/109/109 110/110/110
f 109/109/109 111/111/111 110/110/110
f 62/62/62 112/112/112 64/64/64
f 112/112/112 113/113/113 64/64/64
f 64/64/64 113/113/113 66/66/66
f 112/112/112 114/114/114 113/113/113
f 113/113/113 115/115/115 66/66/66
f 114/114/114 116/116/116 113/113/113
f 113/113/113 116/116/116 115/115/115
f 114/114/114 117/117/117 116/116/116
f 116/116/116 118/118/118 115/115/115
f 117/117/117 119/119/119 116/116/116
f 116/116/116 119/119/119 118/118/118
f 117/117/117 106/106/106 119/119/119
f 119/119/119 120/120/120 118/118/118
f 106/106/106 108/108/108 119/119/119
f 119/119/119 108/108/108 120/120/120
f 108/108/108 110/110/110 120/120/120
f 107/107/107 121/121/121 109/109/109
f 121/121/121 122/122/122 109/109/109
f 109/109/109 122/122/122 111/111/111
f 121/121/121 123/123/123 122/122/122
f 122/122/122 124/124/124 111/111/111
f 123/123/123 125/125/125 122/122/122
f 122/122/122 125/125/125 124/124/124
f 123/123/123 126/126/126 125/125/125
f 125/125/125 127/127/127 124/124/124
f 126/126/126 128/128/128 125/125/125
f 125/125/125 128/128/128 127/127/127
f 126/126/126 61/61/61 128/128/128
f 128/128/128 129/129/129 127/127/127
f 61/61/61 63/63/63 128/128/128
f 128/128/128 63/63/63 129/129/129
f 63/63/63 65/65/65 129/129/129
f 59/59/59 61/61/61 126/126/126
f 49/49/49 59/59/59 126/126/126
f 48/48/48 59/59/59 49/49/49
f 47/47/47 48/48/48 49/49/49
f 49/49/49 126/126/126 123/123/123
f 46/46/46 49/49/49 123/123/123
f 46/46/46 123/123/123 121/121/121
f 41/41/41 46/46/46 121/121/121
f 41/41/41 121/121/121 107/107/107
f 40/40/40 41/41/41 107/107/107
f 105/105/105 106/106/106 117/117/117
f 104/104/104 105/105/105 117/117/117
f 104/104/104 117/117/117 114/114/114
f 102/102/102 104/104/104 114/114/114
f 102/102/102 114/114/114 112/112/112
f 130/130/130 102/102/102 112/112/112
f 130/130/130 112/112/112 62/62/62
f 98/98/98 102/102/102 130/130/130
f 60/60/60 130/130/130 62/62/62
f 93/93/93 98/98/98 130/130/130
f 93/93/93 130/130/130 60/60/60
f 58/58/58 93/93/93 60/60/60
f 133/133/133 132/132/132 131/131/131
f 132/132/132 134/134/134 131/131/131
f 132/132/132 135/135/135 134/134/134
f 131/131/131 134/134/134 136/136/136
f 137/137/137 131/131/131 136/136/136
f 136/136/136 134/134/134 138/138/138
f 135/135/135 139/139/139 134/134/134
f 134/134/134 139/139/139 138/138/138
f 135/135/135 140/140/140 139/139/139
f 138/138/138 139/139/139 141/141/141
f 140/140/140 142/142/142 139/139/139
f 139/139/139 142/142/142 141/141/141
f 140/140/140 143/143/143 142/142/142
f 141/141/141 142/142/142 144/144/144
f 143/143/143 145/145/145 142/142/142
f 142/142/142 145/145/145 144/144/144
f 143/143/143 146/146/146 145/145/145
f 144/144/144 145/145/145 147/147/147
f 146/146/146 148/148/148 145/145/145
f 145/145/145 148/148/148 147/147/147
f 147/147/147 148/148/148 149/149/149
f 146/146/146 150/150/150 148/148/148
f 150/150/150 151/151/151 148/148/148
f 150/150/150 152/152/152 151/151/151
f 152/152/152 153/153/153 151/151/151
f 152/152/152 154/154/154 153/153/153
f 154/154/154 155/155/155 153/153/153
f 154/154/154 156/156/156 155/155/155
f 156/156/156 157/157/157 155/155/155
f 156/156/156 158/158/158 157/157/157
f 158/158/158 159/159/159 157/157/157
f 157/157/157 159/159/159 160/160/160
f 161/161/161 157/157/157 160/160/160
f 155/155/155 157/157/157 161/161/161
f 162/162/162 155/155/155 161/161/161
f 153/153/153 155/155/155 162/162/162
f 163/163/163 153/153/153 162/162/162
f 151/151/151 153/153/153 163/163/163
f 149/149/149 151/151/151 163/163/163
f 148/148/148 151/151/151 149/149/149
f 158/158/158 164/164/164 159/159/159
f 164/164/164 165/165/165 159/159/159
f 164/164/164 166/166/166 165/165/165
f 159/159/159 165/165/165 167/167/167
f 160/160/160 159/159/159 167/167/167
f 166/166/166 168/168/168 165/165/165
f 167/167/167 165/165/165 168/168/168
f 169/169/169 167/167/167 168/168/168
f 166/166/166 170/170/170 168/168/168
f 169/169/169 168/168/168 171/171/171
f 170/170/170 172/172/172 168/168/168
f 168/168/168 172/172/172 171/171/171
f 170/170/170 173/173/173 172/172/172
f 171/171/171 172/172/172 174/174/174
f 173/173/173 175/175/175 172/172/172
f 172/172/172 175/175/175 174/174/174
f 173/173/173 176/176/176 175/175/175
f 174/174/174 175/175/175 177/177/177
f 176/176/176 178/178/178 175/175/175
f 175/175/175 178/178/178 177/177/177
f 177/177/177 178/178/178 179/179/179
f 178/178/178 180/180/180 179/179/179
f 179/179/179 180/180/180 181/181/181
f 180/180/180 182/182/182 181/181/181
f 176/176/176 183/183/183 178/178/178
f 183/183/183 180/180/180 178/178/178
f 183/183/183 184/184/184 180/180/180
f 184/184/184 182/182/182 180/180/180
f 184/184/184 185/185/185 182/182/182
f 185/185/185 186/186/186 182/182/182
f 185/185/185 187/187/187 186/186/186
f 182/182/182 186/186/186 188/188/188
f 181/181/181 182/182/182 188/188/188
f 188/188/188 186/186/186 189/189/189
f 187/187/187 190/190/190 186/186/186
f 186/186/186 190/190/190 189/189/189
f 187/187/187 191/191/191 190/190/190
f 189/189/189 190/190/190 192/192/192
f 191/191/191 193/193/193 190/190/190
f 190/190/190 193/193/193 192/192/192
f 191/191/191 194/194/194 193/193/193
f 192/192/192 193/193/193 195/195/195
f 194/194/194 196/196/196 193/193/193
f 193/193/193 196/196/196 195/195/195
f 194/194/194 197/197/197 196/196/196
f 195/195/195 196/196/196 198/198/198
f 197/197/197 199/199/199 196/196/196
f 196/196/196 199/199/199 198/198/198
f 198/198/198 199/199/199 200/200/200
f 199/199/199 201/201/201 200/200/200
f 200/200/200 201/201/201 202/202/202
f 197/197/197 203/203/203 199/199/199
f 203/203/203 201/201/201 199/199/199
f 203/203/203 204/204/204 201/201/201
f 204/204/204 205/205/205 201/201/201
f 201/201/201 205/205/205 202/202/202
f 208/208/208 207/207/207 206/206/206
f 209/209/209 208/208/208 206/206/206
f 209/209/209 206/206/206 210/210/210
f 211/211/211 208/208/208 209/209/209
f 212/212/212 209/209/209 210/210/210
f 212/212/212 210/210/210 213/213/213
f 214/214/214 212/212/212 213/213/213
f 215/215/215 211/211/211 209/209/209
f 215/215/215 209/209/209 212/212/212
f 216/216/216 211/211/211 215/215/215
f 217/217/217 212/212/212 214/214/214
f 217/217/217 215/215/215 212/212/212
f 218/218/218 217/217/217 214/214/214
f 219/219/219 216/216/216 215/215/215
f 219/219/219 215/215/215 217/217/217
f 220/220/220 216/216/216 219/219/219
f 221/221/221 217/217/217 218/218/218
f 221/221/221 219/219/219 217/217/217
f 222/222/222 221/221/221 218/218/218
f 223/223/223 220/220/220 219/219/219
f 223/223/223 219/219/219 221/221/221
f 224/224/224 220/220/220 223/223/223
f 225/225/225 221/221/221 222/222/222
f 225/225/225 223/223/223 221/221/221
f 226/226/226 225/225/225 222/222/222
f 227/227/227 224/224/224 223/223/223
f 227/227/227 223/223/223 225/225/225
f 228/228/228 224/224/224 227/227/227
f 229/229/229 225/225/225 226/226/226
f 229/229/229 227/227/227 225/225/225
f 230/230/230 229/229/229 226/226/226
f 231/231/231 228/228/228 227/227/227
f 231/231/231 227/227/227 229/229/229
f 232/232/232 228/228/228 231/231/231
f 233/233/233 231/231/231 229/229/229
f 234/234/234 232/232/232 231/231/231
f 234/234/234 231/231/231 233/233/233
f 235/235/235 232/232/232 234/234/234
f 236/236/236 235/235/235 234/234/234
f 237/237/237 235/235/235 236/236/236
f 236/236/236 234/234/234 238/238/238
f 238/238/238 234/234/234 233/233/233
f 239/239/239 237/237/237 236/236/236
f 240/240/240 237/237/237 239/239/239
f 241/241/241 236/236/236 238/238/238
f 239/239/239 236/236/236 241/241/241
f 242/242/242 240/240/240 239/239/239
f 243/243/243 240/240/240 242/242/242
f 244/244/244 239/239/239 241/241/241
f 242/242/242 239/239/239 244/244/244
f 245/245/245 243/243/243 242/242/242
f 246/246/246 243/243/243 245/245/245
f 247/247/247 242/242/242 244/244/244
f 245/245/245 242/242/242 247/247/247
f 248/248/248 246/246/246 245/245/245
f 249/249/249 246/246/246 248/248/248
f 248/248/248 245/245/245 250/250/250
f 250/250/250 245/245/245 247/247/247
f 251/251/251 249/249/249 248/248/248
f 252/252/252 249/249/249 251/251/251
f 253/253/253 252/252/252 251/251/251
f 253/253/253 251/251/251 254/254/254
f 255/255/255 253/253/253 254/254/254
f 256/256/256 248/248/248 250/250/250
f 256/256/256 250/250/250 257/257/257
f 258/258/258 256/256/256 257/257/257
f 257/257/257 250/250/250 259/259/259
f 250/250/250 247/247/247 259/259/259
f 259/259/259 247/247/247 260/260/260
f 247/247/247 244/244/244 260/260/260
f 260/260/260 244/244/244 261/261/261
f 244/244/244 241/241/241 261/261/261
f 261/261/261 241/241/241 262/262/262
f 241/241/241 238/238/238 262/262/262
f 262/262/262 238/238/238 263/263/263
f 238/238/238 233/233/233 263/263/263
f 263/263/263 233/233/233 230/230/230
f 233/233/233 229/229/229 230/230/230
f 264/264/264 252/252/252 253/253/253
f 265/265/265 264/264/264 253/253/253
f 266/266/266 264/264/264 265/265/265
f 265/265/265 253/253/253 255/255/255
f 267/267/267 266/266/266 265/265/265
f 268/268/268 266/266/266 267/267/267
f 269/269/269 268/268/268 267/267/267
f 267/267/267 265/265/265 270/270/270
f 270/270/270 265/265/265 255/255/255
f 269/269/269 267/267/267 271/271/271
f 271/271/271 267/267/267 270/270/270
f 272/272/272 269/269/269 271/271/271
f 273/273/273 269/269/269 272/272/272
f 274/274/274 273/273/273 272/272/272
f 274/274/274 272/272/272 275/275/275
f 276/276/276 274/274/274 275/275/275
f 275/275/275 272/272/272 277/277/277
f 272/272/272 271/271/271 277/277/277
f 277/277/277 271/271/271 278/278/278
f 271/271/271 270/270/270 278/278/278
f 278/278/278 270/270/270 279/279/279
f 270/270/270 255/255/255 279/279/279
f 279/279/279 255/255/255 280/280/280
f 255/255/255 254/254/254 280/280/280
f 280/280/280 254/254/254 258/258/258
f 254/254/254 256/256/256 258/258/258
f 254/254/254 251/251/251 256/256/256
f 251/251/251 248/248/248 256/256/256
f 281/281/281 268/268/268 269/269/269
f 273/273/273 281/281/281 269/269/269
f 282/282/282 281/281/281 273/273/273
f 283/283/283 282/282/282 273/273/273
f 283/283/283 273/273/273 274/274/274
f 284/284/284 282/282/282 283/283/283
f 285/285/285 283/283/283 274/274/274
f 285/285/285 274/274/274 276/276/276
f 286/286/286 285/285/285 276/276/276
f 287/287/287 284/284/284 283/283/283
f 287/287/287 283/283/283 285/285/285
f 288/288/288 284/284/284 287/287/287
f 289/289/289 285/285/285 286/286/286
f 289/289/289 287/287/287 285/285/285
f 290/290/290 289/289/289 286/286/286
f 291/291/291 288/288/288 287/287/287
f 291/291/291 287/287/287 289/289/289
f 292/292/292 288/288/288 291/291/291
f 293/293/293 289/289/289 290/290/290
f 293/293/293 291/291/291 289/289/289
f 294/294/294 293/293/293 290/290/290
f 295/295/295 292/292/292 291/291/291
f 295/295/295 291/291/291 293/293/293
f 296/296/296 292/292/292 295/295/295
f 297/297/297 293/293/293 294/294/294
f 297/297/297 295/295/295 293/293/293
f 298/298/298 297/297/297 294/294/294
f 299/299/299 296/296/296 295/295/295
f 299/299/299 295/295/295 297/297/297
f 300/300/300 296/296/296 299/299/299
f 301/301/301 300/300/300 299/299/299
f 302/302/302 297/297/297 298/298/298
f 302/302/302 299/299/299 297/297/297
f 301/301/301 299/299/299 302/302/302
f 303/303/303 302/302/302 298/298/298
f 304/304/304 301/301/301 302/302/302
f 304/304/304 302/302/302 303/303/303
f 305/305/305 304/304/304 303/303/303
f 252/252/252 264/264/264 176/176/176
f 173/173/173 252/252/252 176/176/176
f 249/249/249 252/252/252 173/173/173
f 170/170/170 249/249/249 173/173/173
f 246/246/246 249/249/249 170/170/170
f 166/166/166 246/246/246 170/170/170
f 243/243/243 246/246/246 166/166/166
f 164/164/164 243/243/243 166/166/166
f 240/240/240 243/243/243 164/164/164
f 158/158/158 240/240/240 164/164/164
f 237/237/237 240/240/240 158/158/158
f 156/156/156 237/237/237 158/158/158
f 235/235/235 237/237/237 156/156/156
f 154/154/154 235/235/235 156/156/156
f 187/187/187 282/282/282 191/191/191
f 282/282/282 284/284/284 191/191/191
f 191/191/191 284/284/284 194/194/194
f 284/284/284 288/288/288 194/194/194
f 194/194/194 288/288/288 197/197/197
f 288/288/288 292/292/292 197/197/197
f 197/197/197 292/292/292 203/203/203
f 292/292/292 296/296/296 203/203/203
f 203/203/203 296/296/296 204/204/204
f 296/296/296 300/300/300 204/204/204
f 232/232/232 235/235/235 154/154/154
f 152/152/152 232/232/232 154/154/154
f 228/228/228 232/232/232 152/152/152
f 150/150/150 228/228/228 152/152/152
f 224/224/224 228/228/228 150/150/150
f 146/146/146 224/224/224 150/150/150
f 220/220/220 224/224/224 146/146/146
f 143/143/143 220/220/220 146/146/146
f 216/216/216 220/220/220 143/143/143
f 140/140/140 216/216/216 143/143/143
f 211/211/211 216/216/216 140/140/140
f 135/135/135 211/211/211 140/140/140
f 208/208/208 211/211/211 135/135/135
f 132/132/132 208/208/208 135/135/135
f 207/207/207 208/208/208 132/132/132
f 133/133/133 207/207/207 132/132/132
f 264/264/264 266/266/266 183/183/183
f 176/176/176 264/264/264 183/183/183
f 281/281/281 282/282/282 187/187/187
f 185/185/185 281/281/281 187/187/187
f 268/268/268 281/281/281 185/185/185
f 184/184/184 268/268/268 185/185/185
f 266/266/266 268/268/268 184/184/184
f 183/183/183 266/266/266 184/184/184
f 308/308/308 307/307/307 306/306/306
f 306/306/306 307/307/307 309/309/309
f 307/307/307 310/310/310 309/309/309
f 311/311/311 308/308/308 306/306/306
f 312/312/312 308/308/308 311/311/311
f 309/309/309 310/310/310 313/313/313
f 310/310/310 314/314/314 313/313/313
f 315/315/315 312/312/312 311/311/311
f 316/316/316 312/312/312 315/315/315
f 313/313/313 314/314/314 317/317/317
f 314/314/314 318/318/318 317/317/317
f 319/319/319 316/316/316 315/315/315
f 320/320/320 316/316/316 319/319/319
f 317/317/317 318/318/318 321/321/321
f 318/318/318 322/322/322 321/321/321
f 323/323/323 320/320/320 319/319/319
f 324/324/324 320/320/320 323/323/323
f 321/321/321 322/322/322 325/325/325
f 322/322/322 326/326/326 325/325/325
f 327/327/327 324/324/324 323/323/323
f 328/328/328 324/324/324 327/327/327
f 325/325/325 326/326/326 329/329/329
f 326/326/326 330/330/330 329/329/329
f 331/331/331 328/328/328 327/327/327
f 332/332/332 328/328/328 331/331/331
f 329/329/329 330/330/330 333/333/333
f 330/330/330 334/334/334 333/333/333
f 335/335/335 332/332/332 331/331/331
f 336/336/336 332/332/332 335/335/335
f 333/333/333 334/334/334 337/337/337
f 334/334/334 338/338/338 337/337/337
f 339/339/339 336/336/336 335/335/335
f 340/340/340 336/336/336 339/339/339
f 337/337/337 338/338/338 341/341/341
f 338/338/338 342/342/342 341/341/341
f 343/343/343 340/340/340 339/339/339
f 344/344/344 340/340/340 343/343/343
f 341/341/341 342/342/342 345/345/345
f 342/342/342 346/346/346 345/345/345
f 347/347/347 344/344/344 343/343/343
f 348/348/348 344/344/344 347/347/347
f 345/345/345 346/346/346 349/349/349
f 346/346/346 350/350/350 349/349/349
f 351/351/351 348/348/348 347/347/347
f 352/352/352 348/348/348 351/351/351
f 350/350/350 352/352/352 353/353/353
f 349/349/349 350/350/350 353/353/353
f 353/353/353 352/352/352 351/351/351
f 343/343/343 339/339/339 354/354/354
f 347/347/347 343/343/343 355/355/355
f 355/355/355 343/343/343 354/354/354
f 355/355/355 354/354/354 356/356/356
f 354/354/354 339/339/339 357/357/357
f 354/354/354 357/357/357 356/356/356
f 339/339/339 335/335/335 357/357/357
f 358/358/358 347/347/347 355/355/355
f 351/351/351 347/347/347 358/358/358
f 358/358/358 355/355/355 356/356/356
f 357/357/357 335/335/335 359/359/359
f 356/356/356 357/357/357 359/359/359
f 335/335/335 331/331/331 359/359/359
f 360/360/360 351/351/351 358/358/358
f 353/353/353 351/351/351 360/360/360
f 360/360/360 358/358/358 356/356/356
f 359/359/359 331/331/331 361/361/361
f 361/361/361 356/356/356 359/359/359
f 331/331/331 327/327/327 361/361/361
f 362/362/362 353/353/353 360/360/360
f 362/362/362 360/360/360 356/356/356
f 356/356/356 361/361/361 363/363/363
f 361/361/361 327/327/327 363/363/363
f 364/364/364 362/362/362 356/356/356
f 349/349/349 353/353/353 362/362/362
f 364/364/364 349/349/349 362/362/362
f 327/327/327 323/323/323 363/363/363
f 345/345/345 349/349/349 364/364/364
f 363/363/363 323/323/323 365/365/365
f 365/365/365 356/356/356 363/363/363
f 323/323/323 319/319/319 365/365/365
f 366/366/366 345/345/345 364/364/364
f 364/364/364 356/356/356 366/366/366
f 341/341/341 345/345/345 366/366/366
f 365/365/365 319/319/319 367/367/367
f 365/365/365 367/367/367 356/356/356
f 319/319/319 315/315/315 367/367/367
f 368/368/368 341/341/341 366/366/366
f 356/356/356 368/368/368 366/366/366
f 337/337/337 341/341/341 368/368/368
f 367/367/367 315/315/315 369/369/369
f 367/367/367 369/369/369 356/356/356
f 315/315/315 311/311/311 369/369/369
f 368/368/368 356/356/356 370/370/370
f 370/370/370 337/337/337 368/368/368
f 356/356/356 369/369/369 371/371/371
f 369/369/369 311/311/311 371/371/371
f 356/356/356 372/372/372 370/370/370
f 333/333/333 337/337/337 370/370/370
f 372/372/372 333/333/333 370/370/370
f 311/311/311 306/306/306 371/371/371
f 329/329/329 333/333/333 372/372/372
f 371/371/371 306/306/306 373/373/373
f 373/373/373 356/356/356 371/371/371
f 306/306/306 309/309/309 373/373/373
f 374/374/374 329/329/329 372/372/372
f 372/372/372 356/356/356 374/374/374
f 325/325/325 329/329/329 374/374/374
f 373/373/373 309/309/309 375/375/375
f 373/373/373 375/375/375 356/356/356
f 309/309/309 313/313/313 375/375/375
f 376/376/376 325/325/325 374/374/374
f 356/356/356 376/376/376 374/374/374
f 321/321/321 325/325/325 376/376/376
f 375/375/375 313/313/313 377/377/377
f 375/375/375 377/377/377 356/356/356
f 313/313/313 317/317/317 377/377/377
f 378/378/378 376/376/376 356/356/356
f 378/378/378 321/321/321 376/376/376
f 377/377/377 378/378/378 356/356/356
f 317/317/317 321/321/321 378/378/378
f 377/377/377 317/317/317 378/378/378

