# Blender 4.0.0
# www.blender.org
o decimated_mesh
v 0.003637 0.006368 0.050208
v -0.000121 0.006368 0.050637
v 0.003637 0.006368 -0.050218
v 0.000118 0.003167 0.050587
v 0.003637 0.003023 0.050158
v -0.000099 0.006368 -0.050636
v 0.002756 0.002393 0.050228
v 0.003637 0.003022 -0.050158
v 0.002756 0.002393 -0.050228
v 0.000130 0.003150 -0.050584
v -0.000864 0.002344 0.050426
v -0.013026 0.006368 0.048926
v 0.003637 0.001858 0.049742
v 0.003637 0.001857 -0.049752
v 0.000131 0.002176 -0.050371
v -0.012558 0.002442 0.048941
v 0.003637 -0.000340 0.048163
v 0.003635 -0.000369 -0.048145
v -0.002448 0.002361 -0.050247
v -0.015187 0.002196 0.047849
v -0.012925 0.000402 0.047457
v 0.000001 0.000039 0.048934
v 0.000150 0.000021 -0.048921
v -0.012330 0.002395 -0.048969
v -0.005287 -0.000341 0.048026
v 0.003637 -0.000678 0.047086
v -0.014859 0.002202 -0.047999
v -0.013442 0.003059 -0.048743
v -0.025057 0.002363 0.043890
v -0.013422 -0.000350 0.046663
v -0.003355 -0.000688 0.047062
v -0.005644 -0.000356 -0.047978
v -0.013089 -0.000336 -0.046802
v -0.026482 0.003023 0.042955
v -0.024398 -0.000199 0.042254
v -0.012716 -0.000669 0.045751
v -0.003775 -0.000687 -0.047072
v -0.012786 -0.000674 -0.045734
v 0.003637 -0.000678 -0.047086
v -0.012954 0.006368 -0.048943
v -0.025061 0.002358 -0.043883
v -0.025011 0.006368 0.044015
v -0.035819 0.002363 0.035671
v -0.023278 -0.000656 0.041455
v -0.023838 -0.000661 -0.041069
v -0.024412 -0.000196 -0.042244
v -0.026482 0.003022 -0.042955
v -0.033979 -0.000549 -0.033893
v -0.033862 -0.000560 0.033918
v -0.041505 -0.000653 0.023265
v -0.045604 -0.000661 0.013179
v -0.046857 -0.000676 0.005648
v -0.048133 -0.000456 -0.000569
v -0.035802 0.002380 -0.035685
v -0.035756 0.006368 0.035848
v -0.034478 -0.000132 0.034594
v -0.041599 -0.000646 -0.023197
v -0.046857 -0.000676 -0.005648
v -0.045604 -0.000662 -0.013189
v -0.046597 -0.000374 0.013179
v -0.047795 -0.000367 0.006322
v -0.048849 -0.000148 -0.000007
v -0.035641 0.006367 -0.035984
v -0.025011 0.006368 -0.044015
v -0.043836 0.002393 0.025171
v -0.034532 -0.000140 -0.034543
v -0.047785 -0.000347 -0.006672
v -0.046658 -0.000284 -0.013614
v -0.042356 -0.000249 0.024110
v -0.047389 -0.000075 0.011643
v -0.046806 -0.000081 0.013716
v -0.043806 0.002383 -0.025222
v -0.047499 0.002373 0.016359
v -0.042226 -0.000236 -0.024351
v -0.047391 -0.000079 -0.011611
v -0.048803 0.002412 0.012990
v -0.050027 0.002344 0.004023
v -0.050252 0.001989 -0.000055
v -0.047499 0.002372 -0.016359
v -0.043857 0.006368 0.025327
v -0.050027 0.002343 -0.004023
v -0.048806 0.002409 -0.012987
v -0.050577 0.003043 -0.000002
v -0.043857 0.006368 -0.025327
v -0.048834 0.006368 0.013355
v -0.050662 0.006368 -0.000002
v -0.048811 0.006368 -0.013428
vn -0.4779 -0.8742 -0.0856
vn -0.0000 1.0000 -0.0000
vn -0.1082 -0.5591 -0.8220
vn 0.2956 -0.3146 -0.9020
vn 0.2999 -0.3209 0.8984
vn -0.9906 -0.0207 0.1355
vn -0.3311 -0.2433 -0.9117
vn -0.3844 -0.0254 -0.9228
vn -0.7660 -0.5577 0.3197
vn -0.3462 -0.8985 -0.2698
vn -0.1201 -0.6817 0.7217
vn -0.7915 -0.5698 0.2210
vn 0.0006 -0.9600 -0.2801
vn -0.8310 -0.5478 -0.0962
vn -0.0022 -1.0000 0.0020
vn -0.7940 -0.0260 -0.6074
vn -0.1314 -0.0278 0.9909
vn -0.9232 -0.0197 0.3838
vn -0.1150 -0.9560 -0.2698
vn -0.3260 -0.5754 0.7501
vn -0.2921 -0.9490 -0.1183
vn -0.9229 -0.0208 -0.3846
vn -0.0063 -0.9089 0.4169
vn -0.1283 -0.0136 -0.9916
vn -0.1049 -0.9612 0.2550
vn 0.1008 -0.5627 -0.8205
vn -0.0619 -0.2136 -0.9749
vn -0.7224 -0.6849 -0.0948
vn -0.2821 -0.5308 0.7992
vn 0.1198 -0.0176 -0.9926
vn -0.9904 -0.0198 -0.1365
vn 1.0000 -0.0000 -0.0000
vn -0.3742 -0.0411 0.9265
vn -0.7013 -0.7068 0.0923
vn -0.5519 -0.8035 0.2233
vn -0.7863 -0.5738 -0.2291
vn -0.4916 -0.8666 0.0851
vn -0.0427 -0.9642 0.2616
vn 0.1184 -0.0565 0.9914
vn -0.7923 -0.0146 0.6100
vn -0.3002 -0.9533 -0.0341
vn -0.5969 -0.1812 0.7816
vn 0.0537 -0.5283 0.8474
vn -0.9537 -0.2898 -0.0800
vn -0.5550 -0.0196 0.8316
vn -0.5966 -0.1838 -0.7812
vn -0.0000 1.0000 0.0001
vn 0.0002 1.0000 0.0001
vn -0.0001 1.0000 -0.0000
vn -0.5045 -0.5559 0.6606
vn -0.5065 -0.5527 0.6618
vn -0.1093 -0.5563 0.8238
vn -0.1161 -0.5706 0.8129
vn -0.0997 -0.5667 0.8178
vn -0.2771 -0.9597 0.0475
vn -0.2953 -0.9550 0.0268
vn -0.2807 -0.9586 0.0487
vn -0.0795 -0.5567 -0.8269
vn -0.0959 -0.5692 -0.8166
vn -0.1270 -0.5946 -0.7939
vn -0.2605 -0.9055 0.3350
vn -0.3375 -0.9037 0.2636
vn -0.9911 -0.0253 0.1310
vn -0.9906 -0.0202 0.1353
vn -0.3784 -0.0003 -0.9257
vn -0.7854 -0.5426 0.2977
vn -0.7652 -0.5594 0.3186
vn -0.2646 -0.9019 -0.3413
vn -0.3715 -0.1165 0.9211
vn -0.6028 0.0122 -0.7978
vn -0.5537 -0.0204 -0.8324
vn -0.6132 -0.0344 -0.7892
vn -0.0445 -0.9561 -0.2897
vn -0.0440 -0.9640 -0.2621
vn -0.0073 -0.9438 -0.3303
vn -0.8339 -0.5392 -0.1175
vn -0.8215 -0.5601 -0.1065
vn -0.0353 -0.9988 -0.0343
vn -0.0017 -1.0000 -0.0014
vn 0.0012 -1.0000 -0.0000
vn -0.0018 -1.0000 -0.0016
vn 0.0014 -1.0000 -0.0000
vn -0.0024 -1.0000 0.0030
vn -0.0021 -1.0000 0.0020
vn -0.0003 -1.0000 -0.0000
vn -0.0016 -1.0000 -0.0022
vn 0.0050 1.0000 -0.0029
vn -0.0314 -0.9990 0.0312
vn -0.0036 -1.0000 -0.0028
vn -0.7919 -0.0137 -0.6105
vn -0.3705 -0.1779 -0.9116
vn -0.1970 -0.9441 0.2645
vn -0.1260 -0.0113 0.9920
vn -0.1402 -0.0261 0.9898
vn -0.9320 -0.0405 0.3602
vn -0.9232 -0.0199 0.3838
vn 0.0707 -0.2133 -0.9744
vn -0.8344 -0.5384 0.1179
vn -0.8332 -0.5450 0.0935
vn -0.8214 -0.5603 0.1064
vn -0.9517 -0.2970 0.0785
vn -0.0088 -0.9087 -0.4173
vn -0.6570 -0.5631 -0.5012
vn -0.6583 -0.5597 -0.5034
vn -0.3150 -0.5669 0.7612
vn -0.3129 -0.5706 0.7593
vn -0.3410 -0.9288 -0.1449
vn -0.2609 -0.9456 -0.1945
vn -0.9318 -0.0413 -0.3606
vn -0.9230 -0.0217 -0.3843
vn -0.1305 -0.0196 -0.9912
vn -0.2153 -0.0274 -0.9762
vn -0.1220 -0.0248 -0.9922
vn 0.1142 -0.5815 -0.8055
vn 0.0908 -0.5552 -0.8267
vn -0.1700 -0.9854 -0.0000
vn 0.1182 -0.0563 -0.9914
vn 0.1113 -0.0082 -0.9938
vn -0.6554 -0.5672 0.4988
vn -0.6551 -0.5675 0.4987
vn -0.9907 -0.0162 -0.1350
vn -0.9910 -0.0253 -0.1312
vn 1.0000 -0.0008 0.0008
vn 1.0000 -0.0034 -0.0033
vn -0.3791 -0.0245 0.9250
vn -0.5058 -0.5542 -0.6611
vn -0.5063 -0.5534 -0.6614
vn 0.0564 -0.2558 0.9651
vn -0.2607 -0.5545 -0.7903
vn -0.3118 -0.5744 -0.7569
vn -0.3153 -0.5682 -0.7601
vn -0.6231 -0.7627 0.1732
vn -0.0439 -0.9531 0.2995
vn 0.0003 -0.9541 0.2994
vn -0.0050 -0.9440 0.3299
vn 0.1202 -0.0147 0.9926
vn 0.1135 -0.0073 0.9935
vn -0.1455 -0.9326 0.3302
vn -0.7945 -0.0277 0.6066
vn -0.2034 -0.9403 -0.2728
vn -0.1352 -0.9421 -0.3069
vn -0.3150 -0.9472 -0.0598
vn -0.2850 -0.9573 -0.0492
vn -0.7792 -0.5526 -0.2958
vn -0.7613 -0.5651 -0.3180
vn -0.7601 -0.5677 -0.3163
vn -0.2755 -0.9541 0.1178
vn -0.3171 -0.9395 0.1296
vn -0.2576 -0.9468 0.1931
vn -0.3749 -0.9265 0.0303
vn -0.4214 -0.9060 -0.0402
vn 0.1107 -0.5799 0.8071
vn 0.1035 -0.5692 0.8157
vn -0.6051 0.0137 0.7961
vn -0.6138 -0.0253 0.7891
vn -0.1314 -0.0119 0.9913
vn -0.1273 -0.0252 0.9915
vn -0.1262 -0.0431 0.9911
vn -0.1283 -0.0209 -0.9915
vn -0.1306 -0.0140 -0.9913
vn -0.0002 1.0000 -0.0002
vn -0.9905 -0.0164 -0.1366
vn -0.9906 -0.0213 -0.1350
vn -0.9906 -0.0210 0.1353
vn -0.9906 -0.0202 0.1355
vn -0.5052 -0.5560 0.6600
vn -0.5058 -0.5529 0.6622
vn -0.3155 -0.5649 0.7625
vn -0.3154 -0.5669 0.7610
vn -0.5061 -0.5534 -0.6615
vn -0.5059 -0.5542 -0.6609
vn -0.3091 -0.5858 0.7492
vn -0.3143 -0.9400 0.1327
vn -0.0485 -0.9539 0.2962
vn -0.0394 -0.9627 0.2677
vn -0.0412 -0.9627 -0.2674
vn -0.0482 -0.9562 -0.2887
vn -0.0021 -1.0000 0.0019
vn -0.2757 -0.9546 0.1128
vn -0.2811 -0.9585 0.0481
vn -0.2771 -0.9596 0.0481
vn -0.0031 -1.0000 -0.0024
vn -0.0040 -1.0000 -0.0031
s 0
f 68//1 67//1 75//1
f 3//2 87//2 85//2
f 24//3 19//3 32//3
f 8//4 14//4 9//4
f 7//5 13//5 5//5
f 85//6 86//6 77//6
f 27//7 28//7 24//7
f 28//8 41//8 64//8
f 69//9 65//9 73//9
f 74//10 66//10 48//10
f 21//11 30//11 25//11
f 76//12 70//12 71//12
f 39//13 37//13 18//13
f 62//14 78//14 81//14
f 50//15 52//15 44//15
f 84//16 54//16 72//16
f 2//17 12//17 11//17
f 80//18 85//18 65//18
f 45//19 33//19 38//19
f 20//20 30//20 21//20
f 57//21 59//21 68//21
f 72//22 79//22 87//22
f 17//23 22//23 25//23
f 19//24 24//24 40//24
f 44//25 36//25 30//25
f 23//26 9//26 14//26
f 15//27 19//27 10//27
f 75//28 67//28 62//28
f 21//29 16//29 20//29
f 10//30 3//30 8//30
f 87//31 81//31 86//31
f 1//32 5//32 26//32
f 12//33 29//33 16//33
f 62//34 61//34 70//34
f 60//35 69//35 71//35
f 82//36 68//36 75//36
f 70//37 61//37 60//37
f 31//38 25//38 30//38
f 4//39 7//39 5//39
f 80//40 43//40 55//40
f 58//41 53//41 67//41
f 43//42 29//42 34//42
f 7//43 11//43 22//43
f 78//44 83//44 81//44
f 34//45 29//45 42//45
f 54//46 47//46 41//46
f 6//2 40//2 3//2
f 3//2 40//2 64//2
f 64//47 63//47 3//47
f 84//48 87//48 63//48
f 63//2 87//2 3//2
f 85//49 80//49 55//49
f 55//47 42//47 1//47
f 12//2 2//2 1//2
f 1//2 3//2 85//2
f 12//2 1//2 42//2
f 87//49 86//49 85//49
f 1//2 85//2 55//2
f 29//50 43//50 56//50
f 56//51 35//51 29//51
f 11//52 16//52 25//52
f 21//53 25//53 16//53
f 25//54 22//54 11//54
f 51//55 60//55 61//55
f 61//56 53//56 52//56
f 51//57 61//57 52//57
f 19//58 15//58 23//58
f 23//59 32//59 19//59
f 32//60 33//60 24//60
f 49//61 35//61 56//61
f 56//62 69//62 49//62
f 83//63 77//63 86//63
f 85//64 77//64 76//64
f 64//65 40//65 28//65
f 76//66 71//66 73//66
f 71//67 69//67 73//67
f 66//68 46//68 48//68
f 16//69 29//69 20//69
f 63//70 64//70 47//70
f 64//71 41//71 47//71
f 47//72 54//72 63//72
f 37//73 38//73 33//73
f 33//74 32//74 37//74
f 32//75 18//75 37//75
f 81//76 82//76 75//76
f 75//77 62//77 81//77
f 48//78 45//78 57//78
f 38//79 37//79 45//79
f 37//80 39//80 31//80
f 45//81 37//81 58//81
f 39//82 26//82 31//82
f 31//83 36//83 44//83
f 52//84 31//84 44//84
f 52//85 37//85 31//85
f 59//86 57//86 58//86
f 52//85 58//85 37//85
f 50//87 52//87 51//87
f 49//88 50//88 44//88
f 58//89 57//89 45//89
f 84//90 63//90 54//90
f 41//91 28//91 27//91
f 35//92 49//92 44//92
f 16//93 11//93 12//93
f 11//94 4//94 2//94
f 85//95 76//95 73//95
f 73//96 65//96 85//96
f 9//97 15//97 10//97
f 76//98 77//98 70//98
f 77//99 78//99 62//99
f 70//100 77//100 62//100
f 78//101 77//101 83//101
f 18//102 32//102 23//102
f 66//103 74//103 72//103
f 54//104 66//104 72//104
f 20//105 29//105 35//105
f 35//106 30//106 20//106
f 68//107 74//107 57//107
f 74//108 48//108 57//108
f 82//109 87//109 79//109
f 87//110 84//110 72//110
f 40//111 6//111 19//111
f 28//112 40//112 24//112
f 6//113 10//113 19//113
f 14//114 18//114 23//114
f 23//115 15//115 9//115
f 53//116 58//116 52//116
f 8//117 9//117 10//117
f 10//118 6//118 3//118
f 69//119 56//119 43//119
f 65//120 69//120 43//120
f 87//121 82//121 81//121
f 81//122 83//122 86//122
f 5//32 13//32 26//32
f 13//123 17//123 26//123
f 26//32 39//32 3//32
f 14//124 39//124 18//124
f 14//32 8//32 39//32
f 8//32 3//32 39//32
f 3//32 1//32 26//32
f 42//125 29//125 12//125
f 54//126 41//126 66//126
f 46//127 66//127 41//127
f 11//128 7//128 4//128
f 24//129 33//129 27//129
f 33//130 46//130 27//130
f 27//131 46//131 41//131
f 71//132 70//132 60//132
f 36//133 31//133 30//133
f 31//134 26//134 17//134
f 25//135 31//135 17//135
f 5//136 1//136 4//136
f 1//137 2//137 4//137
f 44//138 30//138 35//138
f 80//139 65//139 43//139
f 48//140 46//140 45//140
f 46//141 33//141 45//141
f 67//142 68//142 59//142
f 58//143 67//143 59//143
f 82//144 79//144 68//144
f 79//145 72//145 74//145
f 68//146 79//146 74//146
f 69//147 60//147 51//147
f 50//148 69//148 51//148
f 69//149 50//149 49//149
f 53//150 61//150 62//150
f 62//151 67//151 53//151
f 22//152 17//152 13//152
f 13//153 7//153 22//153
f 42//154 55//154 34//154
f 55//155 43//155 34//155
f 55//2 2//2 1//2
f 5//32 26//32 39//32
f 5//32 39//32 14//32
f 5//32 14//32 8//32
f 5//32 8//32 3//32
f 5//32 3//32 1//32
f 3//2 55//2 1//2
f 42//47 12//47 55//47
f 12//2 2//2 55//2
f 3//2 6//2 55//2
f 6//2 40//2 55//2
f 40//2 64//2 55//2
f 64//2 84//2 55//2
f 84//2 87//2 55//2
f 87//2 86//2 55//2
f 86//2 85//2 55//2
f 12//156 16//156 2//156
f 16//157 4//157 2//157
f 16//158 11//158 4//158
f 19//159 24//159 6//159
f 24//160 40//160 6//160
f 63//161 84//161 64//161
f 82//162 86//162 87//162
f 82//163 81//163 86//163
f 77//164 76//164 86//164
f 76//165 85//165 86//165
f 56//166 35//166 43//166
f 35//167 29//167 43//167
f 21//168 20//168 29//168
f 35//169 21//169 29//169
f 46//170 54//170 41//170
f 46//171 66//171 54//171
f 30//172 21//172 35//172
f 60//173 50//173 69//173
f 30//174 36//174 25//174
f 36//175 31//175 25//175
f 37//176 38//176 32//176
f 38//177 33//177 32//177
f 50//178 31//178 44//178
f 60//179 51//179 50//179
f 52//15 31//15 50//15
f 61//180 52//180 60//180
f 52//181 51//181 60//181
f 52//85 58//85 31//85
f 58//85 37//85 31//85
f 58//81 38//81 37//81
f 58//81 45//81 38//81
f 58//182 59//182 45//182
f 59//183 57//183 45//183
