# Blender 4.0.0
# www.blender.org
o decimated_mesh
v 0.003258 0.019361 0.044434
v 0.031445 0.019353 0.031540
v 0.003258 0.019361 0.050297
v 0.003258 0.102539 0.044417
v 0.031445 0.019353 0.039267
v 0.031445 0.102491 0.031605
v 0.012865 0.019361 0.049035
v 0.003258 0.102563 0.050210
v 0.031445 0.102909 0.039116
v 0.013129 0.102046 0.048974
v 0.003258 0.103417 0.045057
v 0.015378 0.103284 0.047793
v 0.011534 0.103276 0.049013
v 0.025450 0.103268 0.043558
v 0.025232 0.102049 0.043948
v 0.025309 0.019353 0.043938
v 0.003259 0.103381 0.049433
v 0.031445 0.103422 0.032380
v 0.031443 0.103306 0.038560
vn 1.0000 -0.0004 -0.0000
vn 1.0000 -0.0001 -0.0000
vn 0.4317 0.7347 0.5232
vn 0.6138 0.0014 0.7895
vn -0.3416 0.5540 -0.7592
vn -0.0000 -1.0000 -0.0000
vn 0.1302 0.1379 0.9818
vn 0.0455 0.6882 0.7241
vn 0.1302 0.0010 0.9915
vn 0.4160 -0.0007 0.9094
vn 0.2838 0.3397 0.8967
vn 1.0000 -0.0000 -0.0000
vn 1.0000 -0.0001 -0.0001
vn 0.5946 0.1464 0.7906
vn 1.0000 0.0040 0.0003
vn 0.3820 0.1719 0.9080
vn 0.3739 0.2211 0.9007
vn 0.3790 0.0002 0.9254
vn 0.3835 -0.0005 0.9235
vn 0.6057 0.0005 0.7957
vn -0.3288 0.6045 -0.7256
vn 0.0004 1.0000 -0.0007
vn -0.0000 1.0000 -0.0000
vn -0.0004 -1.0000 -0.0002
vn 0.1243 0.0003 0.9922
vn 0.4138 0.0002 0.9104
vn 0.0094 0.9998 0.0189
vn 0.0072 0.9998 0.0165
vn 0.0131 0.9999 0.0082
vn 0.0095 0.9998 0.0189
vn 0.0055 0.9997 0.0240
vn 1.0000 -0.0005 -0.0001
vn 0.1244 0.0010 0.9922
vn 0.0155 0.9983 0.0554
vn 0.0111 0.9997 0.0227
vn 0.0102 0.9998 0.0193
vn 0.0035 1.0000 0.0082
vn -0.3267 0.6049 -0.7262
vn -0.3439 0.5535 -0.7585
vn 0.4138 -0.0007 0.9104
vn 0.4160 0.0002 0.9094
vn 0.0004 1.0000 -0.0000
vn 0.1302 0.0003 0.9915
vn -0.0003 1.0000 -0.0024
vn 0.3790 -0.0005 0.9254
vn 0.3835 0.0002 0.9235
vn 0.3771 0.1811 0.9083
vn 0.3784 0.2198 0.8992
vn 1.0000 -0.0000 -0.0001
s 0
f 8//1 4//1 17//1
f 6//2 18//2 9//2
f 14//3 9//3 19//3
f 15//4 5//4 9//4
f 18//5 4//5 11//5
f 2//6 5//6 16//6
f 13//7 8//7 10//7
f 8//8 13//8 17//8
f 7//9 8//9 3//9
f 1//10 2//10 6//10
f 13//11 10//11 12//11
f 4//12 8//12 1//12
f 1//12 8//12 3//12
f 17//13 4//13 11//13
f 15//14 9//14 14//14
f 5//12 2//12 6//12
f 18//15 19//15 9//15
f 9//12 5//12 6//12
f 14//16 12//16 10//16
f 15//17 14//17 10//17
f 7//18 16//18 15//18
f 7//19 15//19 10//19
f 15//20 16//20 5//20
f 18//21 6//21 4//21
f 16//22 1//22 7//22
f 7//23 1//23 3//23
f 1//24 2//24 16//24
f 7//25 10//25 8//25
f 1//26 6//26 4//26
f 14//27 19//27 18//27
f 18//28 11//28 12//28
f 11//29 17//29 13//29
f 18//30 12//30 14//30
f 13//31 12//31 11//31
f 17//32 8//32 11//32
f 11//2 8//2 4//2
f 3//33 10//33 8//33
f 12//34 17//34 13//34
f 12//35 14//35 17//35
f 14//36 18//36 17//36
f 18//37 11//37 17//37
f 18//38 6//38 11//38
f 6//39 4//39 11//39
f 6//40 4//40 2//40
f 2//41 4//41 1//41
f 16//42 1//42 3//42
f 7//43 10//43 3//43
f 16//44 3//44 7//44
f 7//45 16//45 10//45
f 16//46 15//46 10//46
f 15//47 12//47 10//47
f 15//48 14//48 12//48
f 2//49 6//49 18//49
f 9//12 5//12 18//12
f 5//12 2//12 18//12
