# Blender 4.0.0
# www.blender.org
o decimated_mesh
v 0.000034 0.006965 -0.050693
v 0.000629 0.010604 -0.050625
v -0.000078 0.005175 -0.050449
v -0.012928 0.005182 -0.048810
v 0.012782 0.005190 -0.048901
v -0.012571 0.010363 -0.049064
v -0.025028 0.010332 -0.044070
v -0.024057 0.005119 -0.044018
v -0.025028 0.010332 -0.042421
v 0.012861 0.010745 -0.049036
v 0.018592 0.005921 -0.046652
v 0.018108 0.005118 -0.046454
v -0.025009 0.005725 -0.043842
v 0.018590 0.010745 -0.045285
v -0.012300 0.010332 -0.042401
v 0.018590 0.010745 -0.046754
v 0.018593 0.005781 -0.045787
v -0.025029 0.006023 -0.042484
v 0.003258 0.009624 -0.042401
v 0.018590 0.007095 -0.045285
v 0.003258 0.008265 -0.042401
vn -0.0228 0.9990 -0.0381
vn 0.3726 -0.4280 -0.8234
vn -0.1256 -0.1260 -0.9840
vn 0.0301 -0.8527 0.5215
vn -0.0355 0.7222 -0.6908
vn -0.1180 0.0378 -0.9923
vn 0.3630 -0.0195 -0.9316
vn 0.0015 0.0147 -0.9999
vn -0.1848 -0.0000 -0.9828
vn -0.3720 -0.0199 -0.9280
vn 0.8435 -0.5302 -0.0865
vn -0.5044 -0.8449 0.1781
vn 0.0385 0.8453 0.5330
vn -0.1469 0.3526 -0.9242
vn -0.0002 0.9902 0.1393
vn 0.1291 -0.0259 -0.9913
vn 0.1386 -0.0042 -0.9903
vn -0.0024 1.0000 -0.0000
vn -0.0092 0.9999 0.0044
vn -0.0000 -1.0000 -0.0000
vn -0.0144 0.9997 0.0220
vn -0.3714 -0.3327 -0.8668
vn 1.0000 0.0004 0.0010
vn 1.0000 -0.0000 -0.0000
vn 1.0000 0.0017 -0.0001
vn -0.0523 0.6868 -0.7249
vn -0.1384 -0.0390 -0.9896
vn -1.0000 0.0003 -0.0000
vn -0.9999 -0.0047 -0.0137
vn 0.3699 -0.0278 -0.9287
vn 0.1185 -0.1412 -0.9829
vn 0.0018 0.0138 -0.9999
vn -0.0000 -0.0000 1.0000
vn -0.3817 -0.0471 -0.9231
vn 0.0015 0.9997 0.0258
vn -0.0003 0.9999 0.0124
vn -0.0003 1.0000 -0.0069
vn 0.1288 -0.0025 -0.9917
vn 0.1356 -0.0260 -0.9904
vn 0.0031 0.9998 0.0202
vn -0.0063 0.9991 0.0429
vn 0.0007 0.9999 0.0111
vn -0.0248 0.9981 -0.0559
vn -0.0112 0.9999 -0.0025
vn -0.0109 0.9999 -0.0000
vn -0.0086 0.9999 0.0131
vn 0.3699 -0.0194 -0.9288
vn 0.3638 -0.0278 -0.9311
vn -0.0479 0.7263 -0.6858
vn 0.0018 0.0147 -0.9999
vn 0.0015 0.0115 -0.9999
vn 1.0000 -0.0000 0.0043
vn 1.0000 0.0004 -0.0000
vn 1.0000 0.0004 -0.0003
vn -0.0517 0.6790 -0.7323
s 0
f 2//1 6//1 9//1
f 11//2 12//2 5//2
f 1//3 3//3 4//3
f 12//4 18//4 8//4
f 21//5 17//5 12//5
f 6//6 2//6 1//6
f 5//7 16//7 11//7
f 15//8 18//8 9//8
f 21//9 19//9 14//9
f 7//10 6//10 4//10
f 12//11 11//11 17//11
f 8//12 18//12 13//12
f 14//13 15//13 19//13
f 20//14 17//14 21//14
f 9//15 15//15 14//15
f 2//16 10//16 5//16
f 5//17 1//17 2//17
f 6//18 7//18 9//18
f 9//19 14//19 2//19
f 14//20 10//20 16//20
f 2//21 14//21 10//21
f 13//22 4//22 8//22
f 11//23 16//23 20//23
f 16//24 14//24 20//24
f 20//25 17//25 11//25
f 21//26 12//26 18//26
f 1//27 4//27 6//27
f 18//28 9//28 7//28
f 13//29 18//29 7//29
f 5//30 10//30 16//30
f 5//31 3//31 1//31
f 18//32 15//32 21//32
f 21//33 19//33 15//33
f 21//9 14//9 20//9
f 4//34 13//34 7//34
f 12//35 5//35 8//35
f 5//36 4//36 8//36
f 4//37 5//37 3//37
f 2//38 10//38 1//38
f 10//39 5//39 1//39
f 8//40 3//40 4//40
f 5//41 3//41 12//41
f 12//42 3//42 8//42
f 7//43 2//43 6//43
f 7//44 10//44 2//44
f 7//45 9//45 10//45
f 9//46 14//46 10//46
f 16//47 11//47 10//47
f 11//48 5//48 10//48
f 17//49 12//49 18//49
f 18//50 9//50 21//50
f 21//51 9//51 15//51
f 19//9 20//9 21//9
f 19//9 14//9 20//9
f 20//52 17//52 14//52
f 17//53 16//53 14//53
f 17//54 11//54 16//54
f 17//55 18//55 21//55
