# Blender 4.0.0
# www.blender.org
o decimated_mesh
v 0.048353 0.103378 -0.010742
v 0.044039 0.103419 -0.010741
v 0.047998 0.103267 -0.015024
v 0.018155 0.103431 -0.041171
v 0.049159 0.102863 -0.010748
v 0.043641 0.103234 -0.025227
v 0.018156 0.102599 -0.040551
v 0.043479 0.102589 -0.010741
v 0.037501 0.103269 -0.033318
v 0.024949 0.103218 -0.043947
v 0.050685 0.095042 -0.010741
v 0.043770 0.101987 -0.025451
v 0.033714 0.103264 -0.037190
v 0.035804 0.102016 -0.035795
v 0.043355 0.010763 -0.010741
v 0.050685 0.030978 -0.010741
v 0.043798 0.010789 -0.025477
v 0.018156 0.013381 -0.040435
v 0.018156 0.010753 -0.040824
v 0.044329 0.009357 -0.010745
v 0.048529 0.005873 -0.010745
v 0.049262 0.005987 -0.010746
v 0.045679 0.005796 -0.020865
v 0.025317 0.010753 -0.043936
v 0.018157 0.103243 -0.046671
v 0.018156 0.010753 -0.046907
v 0.045537 0.005118 -0.020452
v 0.048072 0.005175 -0.012286
v 0.047998 0.005178 -0.015116
v 0.035808 0.010753 -0.035837
vn -0.2636 -0.9606 0.0886
vn 0.5367 0.8412 -0.0662
vn 0.3722 0.0024 -0.9281
vn 0.9050 -0.0000 -0.4254
vn 0.4098 -0.7418 -0.5309
vn 0.1436 -0.9271 -0.3461
vn 0.7658 -0.2563 -0.5898
vn 0.6599 0.3837 -0.6459
vn 0.7856 0.1318 -0.6046
vn -0.6778 0.4571 0.5759
vn 0.9619 -0.0547 -0.2680
vn 0.6006 0.0023 -0.7995
vn -0.7631 -0.0947 0.6393
vn -0.6764 -0.4704 0.5668
vn -0.5624 -0.6779 0.4735
vn 0.6431 -0.4919 -0.5869
vn 0.7923 0.0004 -0.6101
vn 0.7621 -0.0008 -0.6474
vn -0.2016 -0.9795 -0.0000
vn 0.9071 0.1634 -0.3879
vn 0.5773 -0.8164 -0.0160
vn 0.0239 0.9996 -0.0134
vn -0.0002 0.0004 -1.0000
vn -0.0015 0.0088 -1.0000
vn -0.0000 -0.0000 -1.0000
vn 0.0029 0.0045 -1.0000
vn -0.0013 -0.0015 -1.0000
vn 0.0006 -0.0002 1.0000
vn -0.0011 -0.0010 -1.0000
vn 0.3832 0.0014 -0.9237
vn 1.0000 -0.0000 -0.0000
vn -1.0000 -0.0000 -0.0002
vn -1.0000 -0.0010 -0.0003
vn 0.9206 -0.0298 -0.3894
vn 0.9275 0.0041 -0.3738
vn 0.9057 0.0004 -0.4238
vn 0.7829 0.1873 -0.5933
vn -0.6862 0.4339 0.5839
vn 0.6111 0.0004 -0.7915
vn 0.0288 -0.9996 -0.0019
vn -0.5687 -0.6797 0.4633
vn 0.9526 0.1856 -0.2410
vn 0.1430 -0.9169 0.3726
vn 0.6045 0.1354 -0.7850
vn 0.7918 0.0003 -0.6107
vn 0.7624 -0.0010 -0.6471
vn 0.9178 0.0996 -0.3844
vn 0.8320 -0.4049 -0.3792
vn 0.0233 0.9996 -0.0134
vn 0.0149 0.9998 -0.0160
vn 0.0187 0.9993 -0.0311
vn 0.0174 0.9993 -0.0342
vn 0.0125 0.9999 -0.0103
vn 0.0095 0.9996 -0.0266
vn 0.0095 0.9999 -0.0077
vn -0.6775 0.4569 0.5764
vn 0.0004 -0.0000 -1.0000
vn -0.0002 -0.0001 -1.0000
vn -0.0087 -0.0025 -1.0000
vn 0.0656 0.9974 -0.0312
vn 0.0328 0.9993 -0.0205
vn 0.0128 0.9999 -0.0110
vn -0.6867 0.4336 0.5835
vn 0.7621 -0.0010 -0.6474
vn 0.7624 -0.0008 -0.6471
vn 0.0049 0.0059 -1.0000
vn -0.0014 -0.0007 -1.0000
vn 0.9257 -0.0325 -0.3770
vn 0.9171 -0.0223 -0.3981
vn 0.9060 -0.0000 -0.4234
vn 0.9051 0.0004 -0.4253
s 0
f 28//1 19//1 27//1
f 1//2 5//2 3//2
f 10//3 26//3 25//3
f 12//4 11//4 16//4
f 24//5 30//5 27//5
f 26//6 24//6 27//6
f 23//7 30//7 17//7
f 14//8 13//8 9//8
f 14//9 9//9 12//9
f 2//10 7//10 8//10
f 22//11 29//11 16//11
f 14//12 24//12 10//12
f 15//13 18//13 19//13
f 15//14 19//14 20//14
f 20//15 28//15 21//15
f 27//16 30//16 23//16
f 12//17 17//17 14//17
f 18//18 7//18 8//18
f 27//19 19//19 26//19
f 3//20 12//20 6//20
f 22//21 28//21 29//21
f 3//22 6//22 2//22
f 1//23 8//23 2//23
f 5//24 8//24 1//24
f 8//25 16//25 15//25
f 15//26 22//26 20//26
f 20//27 22//27 21//27
f 22//28 16//28 15//28
f 16//25 8//25 11//25
f 11//29 8//29 5//29
f 10//30 24//30 26//30
f 25//31 18//31 26//31
f 26//31 18//31 19//31
f 18//32 7//32 25//32
f 25//33 7//33 4//33
f 16//34 29//34 17//34
f 17//35 29//35 23//35
f 17//36 12//36 16//36
f 9//37 6//37 12//37
f 2//38 4//38 7//38
f 14//39 30//39 24//39
f 28//40 27//40 29//40
f 20//41 19//41 28//41
f 11//42 3//42 5//42
f 28//43 22//43 21//43
f 14//44 10//44 13//44
f 17//45 30//45 14//45
f 18//46 8//46 15//46
f 3//47 11//47 12//47
f 29//48 27//48 23//48
f 6//49 9//49 2//49
f 9//50 13//50 4//50
f 13//51 10//51 4//51
f 4//52 10//52 25//52
f 4//53 2//53 9//53
f 2//54 1//54 3//54
f 1//55 4//55 2//55
f 4//56 8//56 2//56
f 8//57 2//57 15//57
f 15//25 2//25 16//25
f 16//25 2//25 11//25
f 11//58 2//58 1//58
f 11//59 1//59 5//59
f 3//60 6//60 1//60
f 6//61 9//61 1//61
f 9//62 4//62 1//62
f 25//31 19//31 26//31
f 25//31 18//31 19//31
f 7//63 8//63 4//63
f 7//64 8//64 15//64
f 7//65 15//65 18//65
f 20//66 15//66 21//66
f 21//67 15//67 22//67
f 29//68 23//68 16//68
f 23//69 17//69 16//69
f 17//70 11//70 16//70
f 17//71 12//71 11//71
