# Blender 4.0.0
# www.blender.org
o decimated_mesh
v 0.050704 0.007465 -0.000006
v 0.050543 0.005190 -0.000017
v 0.049242 0.006414 0.011353
v 0.049217 0.005163 0.010044
v 0.049245 0.007464 0.011377
v 0.048476 0.007461 0.014468
v 0.048012 0.005178 0.015045
v 0.049247 0.005165 -0.010009
v 0.049254 0.005975 -0.010741
v 0.049329 0.007464 -0.010741
v 0.047050 0.005184 0.017397
v 0.048474 0.005876 -0.010745
v 0.047947 0.007464 -0.010741
v 0.046385 0.007460 0.019351
v 0.046114 0.005838 0.019350
v 0.045687 0.005136 0.019350
v 0.044963 0.007464 0.019350
v 0.045304 0.005155 0.019351
v 0.047996 0.006479 -0.010741
vn 0.7378 -0.4494 0.5037
vn 0.9394 -0.2566 0.2272
vn -0.9848 -0.1455 -0.0945
vn 0.9531 -0.1242 0.2761
vn 0.9901 -0.0706 0.1209
vn 0.9796 -0.1543 0.1287
vn 0.9704 -0.0080 0.2413
vn 0.0039 1.0000 0.0022
vn 0.0198 -0.9998 -0.0001
vn 0.0892 -0.6685 -0.7383
vn 0.8724 -0.1456 0.4665
vn -0.7800 -0.6182 -0.0970
vn 0.9898 -0.0694 -0.1241
vn 0.9216 -0.0923 0.3771
vn 0.9170 -0.0693 0.3928
vn -0.9939 -0.0491 -0.0986
vn 0.9840 -0.1243 -0.1274
vn 0.9919 -0.0055 0.1271
vn -0.0001 1.0000 -0.0000
vn -0.0003 1.0000 -0.0000
vn -0.0002 1.0000 -0.0000
vn 0.0027 1.0000 0.0013
vn -0.6296 -0.7722 -0.0848
vn -0.0361 0.9992 -0.0174
vn 0.0507 0.9969 0.0603
vn -0.0019 1.0000 0.0001
vn -0.0214 0.9997 -0.0081
vn 0.0039 0.0095 -0.9999
vn -0.0000 -0.0000 -1.0000
vn 0.0001 -0.0001 -1.0000
vn 0.0011 -0.0007 1.0000
vn -0.0007 -0.0005 1.0000
vn 0.0003 0.0002 1.0000
vn 0.9907 -0.0499 -0.1269
vn 0.0052 -0.0003 -1.0000
vn -0.0000 0.0024 -1.0000
vn 0.0027 1.0000 0.0015
vn -0.0007 0.0001 1.0000
vn 0.0059 1.0000 0.0027
vn -0.0429 0.9990 -0.0133
vn -0.0077 1.0000 0.0001
vn -0.0946 0.9947 -0.0413
vn 0.0508 0.9987 0.0072
vn -0.0086 -0.0004 -1.0000
vn 0.0011 -0.0008 1.0000
vn 0.0014 -0.0009 1.0000
s 0
f 15//1 16//1 11//1
f 7//2 4//2 3//2
f 17//3 19//3 18//3
f 3//4 6//4 7//4
f 1//5 3//5 2//5
f 4//6 2//6 3//6
f 5//7 6//7 3//7
f 5//8 17//8 6//8
f 2//9 4//9 8//9
f 8//10 12//10 9//10
f 11//11 14//11 15//11
f 12//12 18//12 19//12
f 9//13 1//13 2//13
f 7//14 6//14 11//14
f 6//15 14//15 11//15
f 17//16 13//16 19//16
f 8//17 9//17 2//17
f 1//18 5//18 3//18
f 5//19 1//19 17//19
f 1//20 10//20 13//20
f 13//21 17//21 1//21
f 17//22 14//22 6//22
f 8//23 18//23 12//23
f 7//24 18//24 11//24
f 11//25 18//25 16//25
f 18//26 4//26 8//26
f 7//27 4//27 18//27
f 12//28 19//28 9//28
f 19//29 13//29 10//29
f 10//30 9//30 19//30
f 16//31 15//31 18//31
f 15//32 14//32 17//32
f 18//33 15//33 17//33
f 9//34 10//34 1//34
f 10//21 17//21 1//21
f 12//35 10//35 9//35
f 12//36 13//36 10//36
f 13//20 17//20 10//20
f 14//37 5//37 17//37
f 18//38 14//38 17//38
f 14//39 6//39 5//39
f 7//40 4//40 16//40
f 16//41 4//41 8//41
f 11//42 7//42 16//42
f 16//43 8//43 18//43
f 19//44 13//44 12//44
f 18//45 16//45 14//45
f 16//46 15//46 14//46
