# Blender 4.0.0
# www.blender.org
o decimated_mesh
v -0.012455 0.009887 -0.049038
v -0.012455 0.009887 -0.041669
v 0.003634 0.009887 -0.043023
v 0.003634 0.009887 -0.050216
v -0.012481 0.102227 -0.042785
v -0.012475 0.102955 -0.048985
v 0.003634 0.102227 -0.044245
v 0.003633 0.103310 -0.044964
v 0.000003 0.102962 -0.050570
v 0.000097 0.009887 -0.050634
v -0.012481 0.103301 -0.043484
v -0.012481 0.103436 -0.047092
v 0.003610 0.103002 -0.050006
v 0.000542 0.103342 -0.049655
vn -0.0000 1.0000 -0.0000
vn 0.1172 0.0008 -0.9931
vn 0.0760 0.5516 0.8307
vn -1.0000 -0.0067 -0.0019
vn 0.0001 1.0000 0.0068
vn 0.0838 0.0121 0.9964
vn -0.0414 0.9684 -0.2459
vn -0.0462 0.9319 -0.3599
vn 0.1545 0.0023 -0.9880
vn 1.0000 -0.0019 -0.0045
vn 1.0000 -0.0000 -0.0000
vn 1.0000 0.0003 -0.0042
vn 0.0757 0.5438 0.8358
vn -1.0000 -0.0003 -0.0000
vn -1.0000 -0.0002 -0.0011
vn -1.0000 0.0006 0.0002
vn 0.1029 0.9928 -0.0610
vn 0.0145 0.9992 0.0373
vn -0.1262 0.0006 -0.9920
vn -0.1260 0.0005 -0.9920
vn 0.0902 0.0132 0.9958
vn 0.0540 0.9105 -0.4100
vn -1.0000 -0.0003 -0.0001
vn -1.0000 -0.0002 -0.0036
vn -0.1261 0.0005 -0.9920
vn 1.0000 0.0001 -0.0015
vn 0.0029 0.9993 0.0373
vn 0.0076 1.0000 0.0018
vn -0.1260 0.0006 -0.9920
vn 1.0000 0.0003 -0.0046
s 0
f 2//1 10//1 1//1
f 4//2 10//2 9//2
f 11//3 7//3 8//3
f 6//4 5//4 12//4
f 11//5 8//5 14//5
f 3//6 5//6 2//6
f 6//7 12//7 14//7
f 9//8 6//8 14//8
f 10//1 3//1 4//1
f 3//1 10//1 2//1
f 13//9 4//9 9//9
f 13//10 8//10 7//10
f 7//11 3//11 4//11
f 4//12 13//12 7//12
f 11//13 5//13 7//13
f 2//14 5//14 1//14
f 1//15 5//15 6//15
f 11//16 12//16 5//16
f 8//17 13//17 14//17
f 14//18 12//18 11//18
f 10//19 1//19 9//19
f 1//20 6//20 9//20
f 3//21 7//21 5//21
f 13//22 9//22 14//22
f 12//23 1//23 5//23
f 12//24 6//24 1//24
f 6//25 10//25 1//25
f 10//1 1//1 4//1
f 4//1 2//1 3//1
f 4//1 1//1 2//1
f 4//26 8//26 7//26
f 8//27 12//27 11//27
f 8//28 14//28 12//28
f 9//29 10//29 6//29
f 13//30 8//30 4//30
