mtllib material.mtl
usemtl material_0
v -0.01294098 0.00274503 0.04829630
v -0.01246239 0.00000001 0.04651044
v -0.02407555 0.00000001 0.04170013
v -0.05000000 0.00274502 0.00000002
v -0.04815109 0.00000000 0.00000002
v -0.04651039 -0.00000000 -0.01246241
v 0.00000000 0.10016770 0.04536029
v 0.00000000 0.10274500 0.04536029
v -0.01174011 0.10274500 0.04381468
v 0.06743713 0.07113967 0.00609123
v 0.06972565 0.07139960 0.00985581
v 0.06801109 0.05841131 0.00985582
v 0.06591453 0.05925728 0.00609123
v 0.06658126 0.07099508 0.00000000
v 0.06512298 0.05946075 0.00000001
v 0.06267150 0.04831746 0.00609124
v 0.06613494 0.08074614 0.00000000
v 0.06698738 0.08123214 0.00609123
v 0.06201454 0.04885113 0.00000001
v 0.05810653 0.04023375 0.00609124
v 0.05763923 0.04098028 0.00000001
v 0.06267150 0.04831746 -0.00609122
v 0.05810653 0.04023375 -0.00609121
v 0.06591453 0.05925728 -0.00609122
v 0.06743713 0.07113967 -0.00609122
v 0.06375763 0.08727377 0.00000000
v 0.06449608 0.08796266 0.00609123
v 0.06698738 0.08123214 -0.00609122
v 0.06449608 0.08796266 -0.00609122
v 0.06023270 0.09166912 -0.00609123
v 0.05970734 0.09088871 0.00000000
v 0.06160652 0.09353521 -0.00985581
v 0.06642929 0.08958599 -0.00985581
v 0.06921562 0.08220015 -0.00985581
v 0.06972565 0.07139960 -0.00985580
v 0.06801109 0.05841131 -0.00985580
v 0.06441376 0.04673328 -0.00985580
v 0.05936462 0.03831259 -0.00985580
v 0.05266510 0.03535073 -0.00609121
v 0.05333313 0.03319499 -0.00985580
v 0.07251815 0.07132183 0.00985581
v 0.07272270 0.05634756 0.00609123
v 0.07061676 0.05732640 0.00985582
v 0.07475540 0.07103347 0.00609123
v 0.07196617 0.08315665 0.00985581
v 0.07418007 0.08379333 0.00609123
v 0.07558197 0.07060378 0.00000000
v 0.07502556 0.08400383 0.00000000
v 0.07475540 0.07103346 -0.00609122
v 0.07418007 0.08379333 -0.00609122
v 0.07251815 0.07132183 -0.00985580
v 0.07196617 0.08315665 -0.00985581
v 0.07061676 0.05732639 -0.00985580
v 0.07272270 0.05634756 -0.00609122
v 0.06660987 0.04488058 -0.00985580
v 0.07353546 0.05589089 0.00000001
v 0.06841919 0.04346007 -0.00609121
v 0.06098533 0.03601667 -0.00985580
v 0.06234535 0.03439138 -0.00609121
v 0.06911773 0.04293474 0.00000001
v 0.06841919 0.04346007 0.00609124
v 0.06287544 0.03388155 0.00000001
v 0.06234535 0.03439139 0.00609124
v 0.06591453 0.05925728 0.00609123
v 0.06801109 0.05841131 0.00985582
v 0.06441376 0.04673329 0.00985582
v 0.06267150 0.04831746 0.00609124
v 0.05936462 0.03831259 0.00985582
v 0.05810653 0.04023375 0.00609124
v 0.07061676 0.05732640 0.00985582
v 0.07272270 0.05634756 0.00609123
v 0.06841919 0.04346007 0.00609124
v 0.06660987 0.04488059 0.00985582
v 0.06660987 0.04488059 0.00985582
v 0.06841919 0.04346007 0.00609124
v 0.06234535 0.03439139 0.00609124
v 0.06098533 0.03601667 0.00985583
v 0.05497139 0.02879929 0.00609124
v 0.05423294 0.03071832 0.00985583
v 0.05525352 0.02808340 0.00000001
v 0.06287544 0.03388155 0.00000001
v 0.05048408 0.02749633 0.00609124
v 0.05015152 0.02946644 0.00985583
v 0.04680572 0.02679160 0.00609124
v 0.04680572 0.02874828 0.00985583
v 0.04680572 0.02606896 0.00000002
v 0.05061104 0.02676463 0.00000002
v 0.04680572 0.02679160 -0.00609121
v 0.05048408 0.02749633 -0.00609121
v 0.04680572 0.02874828 -0.00985579
v 0.05015152 0.02946644 -0.00985580
v 0.05497139 0.02879929 -0.00609121
v 0.06234535 0.03439138 -0.00609121
v 0.05423294 0.03071832 -0.00985580
v 0.06098533 0.03601667 -0.00985580
v 0.05810653 0.04023375 0.00609124
v 0.05936462 0.03831259 0.00985582
v 0.05333313 0.03319500 0.00985583
v 0.05266510 0.03535073 0.00609124
v 0.05763923 0.04098028 0.00000001
v 0.04974617 0.03202016 0.00985583
v 0.05242737 0.03621521 0.00000001
v 0.05810653 0.04023375 -0.00609121
v 0.05266510 0.03535073 -0.00609121
v 0.04944847 0.03421463 0.00609124
v 0.04680572 0.03130272 0.00985583
v 0.04681167 0.03348670 0.00609124
v 0.04935081 0.03509094 0.00000001
v 0.04682884 0.03435774 0.00000001
v 0.04944847 0.03421463 -0.00609121
v 0.05333313 0.03319499 -0.00985580
v 0.04681167 0.03348670 -0.00609121
v 0.04974617 0.03202016 -0.00985580
v 0.04680572 0.03130272 -0.00985580
v 0.05015152 0.02946644 -0.00985580
v 0.04680572 0.03130272 -0.00985580
v 0.04680572 0.02874828 -0.00985579
v 0.04974617 0.03202016 -0.00985580
v 0.05423294 0.03071832 -0.00985580
v 0.06098533 0.03601667 -0.00985580
v 0.06660987 0.04488058 -0.00985580
v 0.07061676 0.05732639 -0.00985580
v 0.07251815 0.07132183 -0.00985580
v 0.07196617 0.08315665 -0.00985581
v 0.06881897 0.09138731 -0.00985581
v 0.06330467 0.09575729 -0.00985581
v 0.05624115 0.09702863 -0.00985582
v 0.05540802 0.09472518 -0.00985581
v 0.05004616 0.09597275 -0.00985582
v 0.04994453 0.09364612 -0.00985581
v 0.04835320 0.09568422 -0.00985582
v 0.04845161 0.09334332 -0.00985581
v 0.04974617 0.03202016 0.00985583
v 0.04680572 0.02874828 0.00985583
v 0.04680572 0.03130272 0.00985583
v 0.05015152 0.02946644 0.00985583
v 0.05333313 0.03319500 0.00985583
v 0.05423294 0.03071832 0.00985583
v 0.06098533 0.03601667 0.00985583
v 0.06972565 0.07139960 0.00985581
v 0.07251815 0.07132183 0.00985581
v 0.06921562 0.08220015 0.00985581
v 0.07196617 0.08315665 0.00985581
v 0.06642929 0.08958599 0.00985581
v 0.06881897 0.09138731 0.00985581
v 0.06160652 0.09353521 0.00985581
v 0.06330467 0.09575729 0.00985581
v 0.05540802 0.09472518 0.00985581
v 0.05624115 0.09702863 0.00985581
v 0.04994453 0.09364612 0.00985581
v 0.05004616 0.09597275 0.00985581
v 0.04845161 0.09334332 0.00985581
v 0.04835320 0.09568422 0.00985581
v 0.05540802 0.09472518 -0.00985581
v 0.06023270 0.09166912 -0.00609123
v 0.06160652 0.09353521 -0.00985581
v 0.05471702 0.09268347 -0.00609123
v 0.04994453 0.09364612 -0.00985581
v 0.05970734 0.09088871 0.00000000
v 0.04986915 0.09160703 -0.00609123
v 0.04845161 0.09334332 -0.00985581
v 0.04854439 0.09131239 -0.00609122
v 0.05447014 0.09190954 0.00000000
v 0.06023270 0.09166912 0.00609122
v 0.04984917 0.09081912 0.00000000
v 0.04858658 0.09052288 0.00000000
v 0.05471702 0.09268347 0.00609122
v 0.06160652 0.09353521 0.00985581
v 0.05540802 0.09472518 0.00985581
v 0.04986915 0.09160703 0.00609122
v 0.04854439 0.09131239 0.00609123
v 0.04994453 0.09364612 0.00985581
v 0.04845161 0.09334332 0.00985581
v 0.06466980 0.09752525 -0.00609123
v 0.06330467 0.09575729 -0.00985581
v 0.06881897 0.09138731 -0.00985581
v 0.07075226 0.09282435 -0.00609122
v 0.07149063 0.09337324 0.00000000
v 0.07075226 0.09282434 0.00609122
v 0.06449608 0.08796266 0.00609123
v 0.06375763 0.08727377 0.00000000
v 0.06642929 0.08958599 0.00985581
v 0.06330467 0.09575729 0.00985581
v 0.07075226 0.09282434 0.00609122
v 0.06881897 0.09138731 0.00985581
v 0.06466980 0.09752524 0.00609122
v 0.05624115 0.09702863 0.00985581
v 0.07149063 0.09337324 0.00000000
v 0.05690117 0.09881952 0.00609122
v 0.05004616 0.09597275 0.00985581
v 0.06519203 0.09819379 -0.00000000
v 0.07075226 0.09282435 -0.00609122
v 0.06466980 0.09752525 -0.00609123
v 0.05012291 0.09778956 0.00609122
v 0.04835320 0.09568422 0.00985581
v 0.04827080 0.09750810 0.00609122
v 0.05714340 0.09934191 -0.00000000
v 0.05015686 0.09846381 -0.00000000
v 0.04824775 0.09822387 -0.00000000
v 0.05690117 0.09881953 -0.00609123
v 0.06330467 0.09575729 -0.00985581
v 0.05624115 0.09702863 -0.00985582
v 0.05012291 0.09778956 -0.00609123
v 0.04827080 0.09750810 -0.00609122
v 0.05004616 0.09597275 -0.00985582
v 0.04835320 0.09568422 -0.00985582
v 0.06449608 0.08796266 0.00609123
v 0.06698738 0.08123214 0.00609123
v 0.06743713 0.07113967 0.00609123
v 0.07075226 0.09282434 0.00609122
v 0.07418007 0.08379333 0.00609123
v 0.00000000 0.10016770 -0.05000001
v 0.01294090 0.10274500 -0.04829630
v 0.00000000 0.10274500 -0.05000002
v 0.01294090 0.10016770 -0.04829630
v 0.00000000 0.00567113 -0.05000000
v 0.02500000 0.10274500 -0.04330128
v 0.01294090 0.00567113 -0.04829629
v 0.00000000 0.00274501 -0.05000000
v 0.01294090 0.00274501 -0.04829629
v 0.02500000 0.10016770 -0.04330128
v 0.03535538 0.10274500 -0.03535536
v 0.02500000 0.00567114 -0.04330127
v 0.03535538 0.10016770 -0.03535535
v 0.04330131 0.10274500 -0.02500002
v 0.04330131 0.10016770 -0.02500001
v 0.03535538 0.00567114 -0.03535534
v 0.04330131 0.00567114 -0.02500000
v 0.02500000 0.00274501 -0.04330127
v 0.03535538 0.00274501 -0.03535534
v 0.04330131 0.00274502 -0.02500000
v 0.04169998 -0.00000000 -0.02407558
v 0.03404800 -0.00000001 -0.03404801
v 0.02407570 -0.00000001 -0.04170012
v 0.01246246 -0.00000001 -0.04651044
v 0.04829628 0.10274500 -0.01294097
v 0.04829628 0.10016770 -0.01294097
v 0.05000000 0.10274500 -0.00000002
v 0.04829628 0.00567114 -0.01294096
v 0.05000000 0.10016770 -0.00000002
v 0.04829628 0.10274500 0.01294093
v 0.04829628 0.10016770 0.01294093
v 0.04330131 0.10274500 0.02499998
v 0.04330131 0.10016770 0.02499998
v 0.05000000 0.00567114 -0.00000000
v 0.04829628 0.00567114 0.01294095
v 0.04330131 0.00567115 0.02499999
v 0.04829628 0.00274502 -0.01294095
v 0.05000000 0.00274502 -0.00000000
v 0.04829628 0.00274502 0.01294095
v 0.04330131 0.00274502 0.02499999
v 0.04651039 0.00000000 0.01246243
v 0.04815117 0.00000000 -0.00000000
v 0.04651039 -0.00000000 -0.01246243
v 0.04330131 0.10016770 0.02499998
v 0.03535538 0.10274500 0.03535531
v 0.04330131 0.10274500 0.02499998
v 0.03535538 0.10016770 0.03535531
v 0.02500000 0.10274500 0.04330125
v 0.04330131 0.00567115 0.02499999
v 0.02500000 0.10016770 0.04330125
v 0.03535538 0.00567115 0.03535533
v 0.04330131 0.00274502 0.02499999
v 0.02500000 0.00567115 0.04330126
v 0.03535538 0.00274503 0.03535533
v 0.02500000 0.00274503 0.04330127
v 0.02407570 0.00000001 0.04170011
v 0.03404800 0.00000001 0.03404799
v 0.01294090 0.10274500 0.04829627
v 0.01294090 0.10016770 0.04829627
v 0.00000000 0.10274500 0.04999998
v 0.01294090 0.00567115 0.04829628
v 0.00000000 0.10016770 0.04999998
v -0.01294098 0.10274500 0.04829628
v -0.01294098 0.10016770 0.04829628
v -0.02500000 0.10274500 0.04330127
v 0.00000000 0.00567115 0.05000000
v 0.01294090 0.00274503 0.04829629
v -0.02500000 0.10016770 0.04330127
v -0.03535530 0.10274500 0.03535534
v -0.03535530 0.10016770 0.03535534
v -0.04330131 0.10274500 0.02500000
v -0.01294098 0.00567115 0.04829629
v -0.02500000 0.00567115 0.04330128
v 0.01246246 0.00000001 0.04651043
v 0.00000000 0.00000001 0.04815115
v 0.00000000 0.00274503 0.05000000
v -0.02500000 0.00274503 0.04330128
v -0.03404800 0.00000001 0.03404803
v -0.04330131 0.10016770 0.02500000
v -0.03535530 0.00567115 0.03535536
v -0.04330131 0.00567115 0.02500001
v -0.03535530 0.00274503 0.03535536
v -0.04330131 0.00274502 0.02500001
v -0.04170006 0.00000000 0.02407559
v -0.04330131 0.10016770 0.02500000
v -0.04829628 0.10274500 0.01294095
v -0.04330131 0.10274500 0.02500000
v -0.04829628 0.10016770 0.01294095
v -0.04330131 0.00567115 0.02500001
v -0.05000000 0.10274500 0.00000001
v -0.04829628 0.00567115 0.01294097
v -0.04330131 0.00274502 0.02500001
v -0.05000000 0.10016770 0.00000001
v -0.04829628 0.10274500 -0.01294094
v -0.04829628 0.10016770 -0.01294094
v -0.04330131 0.10274500 -0.02499999
v -0.05000000 0.00567114 0.00000002
v -0.04829628 0.00274502 0.01294097
v -0.04330131 0.10016770 -0.02499999
v -0.03535538 0.10274500 -0.03535534
v -0.04651039 0.00000000 0.01246245
v -0.04170006 0.00000000 0.02407559
v -0.04829628 0.00567114 -0.01294093
v -0.03535538 0.10016770 -0.03535533
v -0.02500000 0.10274500 -0.04330127
v -0.02500000 0.10016770 -0.04330127
v -0.03535538 0.00567114 -0.03535532
v -0.04330131 0.00567114 -0.02499998
v -0.04829628 0.00274502 -0.01294093
v -0.04170013 -0.00000000 -0.02407555
v -0.04330131 0.00274502 -0.02499998
v -0.03535538 0.00274501 -0.03535532
v 0.01246246 -0.00000001 -0.04651044
v 0.00000000 -0.00000001 -0.04815115
v -0.01246246 -0.00000001 -0.04651043
v 0.02407570 -0.00000001 -0.04170012
v -0.02407562 -0.00000001 -0.04170011
v 0.03404800 -0.00000001 -0.03404801
v -0.03404800 -0.00000001 -0.03404798
v 0.04169998 -0.00000000 -0.02407558
v -0.04170013 -0.00000000 -0.02407555
v 0.04651039 -0.00000000 -0.01246243
v -0.04651039 -0.00000000 -0.01246241
v 0.04815117 0.00000000 -0.00000000
v -0.04815109 0.00000000 0.00000002
v 0.04651039 0.00000000 0.01246243
v -0.04651039 0.00000000 0.01246245
v 0.04170013 0.00000000 0.02407557
v -0.04170006 0.00000000 0.02407559
v 0.03404800 0.00000001 0.03404799
v -0.03404800 0.00000001 0.03404803
v 0.02407570 0.00000001 0.04170011
v -0.02407555 0.00000001 0.04170013
v 0.01246246 0.00000001 0.04651043
v -0.01246239 0.00000001 0.04651044
v 0.00000000 0.00000001 0.04815115
v -0.01294098 0.10274500 -0.04829630
v -0.01294098 0.10016770 -0.04829630
v 0.00000000 0.10274500 -0.05000002
v 0.00000000 0.10016770 -0.05000001
v -0.02500000 0.00567114 -0.04330125
v -0.01294098 0.00567114 -0.04829628
v 0.00000000 0.00567113 -0.05000000
v -0.02500000 0.00274501 -0.04330126
v -0.01294098 0.00274501 -0.04829628
v 0.00000000 0.00274501 -0.05000000
v -0.01246246 -0.00000001 -0.04651043
v -0.02407562 -0.00000001 -0.04170011
v -0.03404800 -0.00000001 -0.03404798
v 0.04829628 0.00274502 0.01294095
v 0.04330131 0.00274502 0.02499999
v 0.03535538 0.00274503 0.03535533
v 0.00000000 0.00274501 -0.05000000
v 0.01294090 0.00274501 -0.04829629
v -0.01294098 0.00274501 -0.04829628
v 0.03928314 0.10016770 -0.02268017
v 0.03928314 0.10274500 -0.02268017
v 0.04381470 0.10274500 -0.01174013
v 0.04381470 0.10016770 -0.01174013
v 0.04536033 0.10274500 -0.00000002
v 0.03928314 0.07687129 -0.02268016
v 0.04536033 0.10016770 -0.00000002
v 0.04381470 0.07687129 -0.01174012
v 0.04536033 0.07687129 -0.00000002
v 0.03928314 0.01207204 -0.02268015
v 0.04381470 0.01207204 -0.01174011
v 0.03928314 0.00945100 -0.02268015
v 0.04381470 0.10274500 0.01174009
v 0.04381470 0.10016770 0.01174009
v 0.03928314 0.10274500 0.02268013
v 0.03928314 0.10016770 0.02268013
v 0.03207466 0.10274500 0.03207455
v 0.04381470 0.07687129 0.01174009
v 0.03207466 0.10016770 0.03207455
v 0.02268021 0.10274500 0.03928315
v 0.03928314 0.07687130 0.02268013
v 0.02268021 0.10016770 0.03928316
v 0.01174019 0.10274500 0.04381467
v 0.03207466 0.07687129 0.03207456
v 0.01174019 0.10016770 0.04381467
v 0.00000000 0.10274500 0.04536029
v 0.00000000 0.10016770 0.04536029
v 0.02268021 0.07687130 0.03928316
v 0.01174019 0.07687131 0.04381468
v 0.00000000 0.07687131 0.04536029
v 0.01174019 0.01207205 0.04381469
v 0.00000000 0.01207205 0.04536030
v 0.02268021 0.01207205 0.03928317
v 0.01174019 0.00945101 0.04381469
v 0.00000000 0.00945101 0.04536030
v 0.02268021 0.00945101 0.03928317
v 0.03207466 0.00945101 0.03207457
v 0.03207466 0.01207205 0.03207457
v 0.03928314 0.00945101 0.02268014
v 0.03928314 0.01207205 0.02268014
v 0.04381470 0.00945101 0.01174010
v 0.04381470 0.01207204 0.01174010
v 0.04536033 0.00945101 -0.00000000
v 0.04536033 0.01207204 -0.00000001
v 0.04381470 0.00945100 -0.01174011
v -0.04381470 0.10016770 0.01174011
v -0.04381470 0.10274500 0.01174011
v -0.04536026 0.10274500 0.00000000
v -0.03928314 0.10016770 0.02268015
v -0.03928314 0.10274500 0.02268015
v -0.03928314 0.07687129 0.02268015
v -0.04381470 0.07687129 0.01174012
v -0.03207459 0.10016770 0.03207459
v -0.03207459 0.10274500 0.03207459
v -0.03207459 0.07687130 0.03207459
v -0.03928314 0.01207205 0.02268016
v -0.04381470 0.01207204 0.01174013
v -0.02268013 0.10016770 0.03928317
v -0.02268013 0.10274500 0.03928317
v -0.03928314 0.00945101 0.02268017
v -0.04381470 0.00945101 0.01174013
v -0.03207459 0.00945101 0.03207460
v -0.03207459 0.01207205 0.03207460
v -0.02268013 0.00945101 0.03928318
v -0.02268013 0.01207205 0.03928318
v -0.01174011 0.00945101 0.04381469
v -0.02268013 0.07687130 0.03928318
v -0.01174011 0.01207205 0.04381469
v 0.00000000 0.00945101 0.04536030
v 0.00000000 0.01207205 0.04536030
v -0.01174011 0.07687130 0.04381468
v 0.00000000 0.07687131 0.04536029
v -0.01174011 0.10016770 0.04381468
v -0.03928322 0.10016770 -0.02268015
v -0.03928322 0.10274500 -0.02268015
v -0.03207466 0.10274500 -0.03207458
v -0.03207466 0.10016770 -0.03207458
v -0.02268021 0.10274500 -0.03928318
v -0.03928322 0.07687129 -0.02268014
v -0.02268021 0.10016770 -0.03928318
v -0.03207466 0.07687128 -0.03207457
v -0.03928322 0.01207204 -0.02268013
v -0.02268021 0.07687128 -0.03928318
v -0.03207466 0.01207204 -0.03207456
v -0.03928322 0.00945100 -0.02268013
v -0.02268021 0.01207204 -0.03928316
v -0.03207466 0.00945100 -0.03207456
v -0.02268021 0.00945100 -0.03928316
v -0.01174011 0.10274500 -0.04381470
v -0.01174011 0.10016770 -0.04381470
v 0.00000000 0.10274500 -0.04536033
v -0.01174011 0.07687128 -0.04381469
v 0.00000000 0.10016770 -0.04536032
v 0.01174019 0.10274500 -0.04381471
v -0.01174011 0.01207204 -0.04381469
v -0.01174011 0.00945100 -0.04381468
v 0.01174019 0.10016770 -0.04381471
v 0.02268021 0.10274500 -0.03928319
v 0.00000000 0.07687129 -0.04536032
v 0.00000000 0.01207204 -0.04536031
v 0.00000000 0.00945100 -0.04536031
v 0.02268021 0.10016770 -0.03928319
v 0.03207466 0.10274500 -0.03207460
v 0.01174019 0.07687128 -0.04381470
v 0.01174019 0.01207203 -0.04381469
v 0.01174019 0.00945100 -0.04381469
v 0.03207466 0.10016770 -0.03207459
v 0.03928314 0.10274500 -0.02268017
v 0.03928314 0.10016770 -0.02268017
v 0.02268021 0.07687129 -0.03928319
v 0.02268021 0.01207204 -0.03928318
v 0.02268021 0.00945100 -0.03928318
v 0.03207466 0.07687128 -0.03207459
v 0.03928314 0.07687129 -0.02268016
v 0.03207466 0.01207204 -0.03207458
v 0.03207466 0.00945100 -0.03207458
v 0.03928314 0.01207204 -0.02268015
v 0.03928314 0.00945100 -0.02268015
v -0.04381470 0.00945100 -0.01174009
v -0.03928322 0.01207204 -0.02268013
v -0.03928322 0.00945100 -0.02268013
v -0.04381470 0.01207204 -0.01174009
v -0.04536026 0.00945100 0.00000002
v -0.03928322 0.07687129 -0.02268014
v -0.04536026 0.01207204 0.00000002
v -0.04381470 0.07687129 -0.01174010
v -0.03928322 0.10016770 -0.02268015
v -0.04536026 0.07687129 0.00000001
v -0.04381470 0.10016770 -0.01174011
v -0.03928322 0.10274500 -0.02268015
v -0.04381470 0.10274500 -0.01174010
v -0.04536026 0.10016770 0.00000000
v 0.01113090 0.00886859 -0.04154071
v 0.01174019 0.00945100 -0.04381469
v 0.02268021 0.00945100 -0.03928318
v 0.00000000 0.00886859 -0.04300611
v 0.00000000 0.00945100 -0.04536031
v 0.02150314 0.00886859 -0.03724438
v 0.03207466 0.00945100 -0.03207458
v -0.01113083 0.00886859 -0.04154070
v -0.01174011 0.00945100 -0.04381468
v 0.03040985 0.00886859 -0.03040991
v 0.03928314 0.00945100 -0.02268015
v -0.02150307 0.00886859 -0.03724437
v -0.02268021 0.00945100 -0.03928316
v 0.03724441 0.00886860 -0.02150306
v 0.04381470 0.00945100 -0.01174011
v -0.03040993 0.00886859 -0.03040989
v -0.03207466 0.00945100 -0.03207456
v 0.04154068 0.00886860 -0.01113080
v 0.04536033 0.00945101 -0.00000000
v -0.03724441 0.00886860 -0.02150303
v -0.03928322 0.00945100 -0.02268013
v 0.04300613 0.00886860 -0.00000000
v 0.04381470 0.00945101 0.01174010
v -0.04154068 0.00886860 -0.01113078
v -0.04381470 0.00945100 -0.01174009
v 0.04154068 0.00886860 0.01113079
v 0.03928314 0.00945101 0.02268014
v -0.04300613 0.00886860 0.00000002
v -0.04536026 0.00945100 0.00000002
v 0.03724441 0.00886860 0.02150304
v 0.03207466 0.00945101 0.03207457
v -0.04154068 0.00886860 0.01113082
v -0.04381470 0.00945101 0.01174013
v 0.03040985 0.00886860 0.03040990
v 0.02268021 0.00945101 0.03928317
v -0.03724441 0.00886860 0.02150307
v -0.03928314 0.00945101 0.02268017
v 0.02150314 0.00886860 0.03724437
v 0.01174019 0.00945101 0.04381469
v -0.03040993 0.00886860 0.03040993
v -0.03207459 0.00945101 0.03207460
v 0.01113090 0.00886860 0.04154071
v 0.00000000 0.00945101 0.04536030
v -0.02150307 0.00886860 0.03724439
v -0.02268013 0.00945101 0.03928318
v 0.00000000 0.00886861 0.04300611
v -0.01174011 0.00945101 0.04381469
v -0.01113083 0.00886860 0.04154071
v 0.02127083 0.00567115 0.02127075
v 0.01504059 0.00567115 0.02605125
v 0.00000000 0.00567115 0.00000001
v 0.02605125 0.00567115 0.01504069
v 0.00778564 0.00567115 0.02905639
v 0.02905640 0.00567114 0.00778563
v 0.00000000 0.00567115 0.03008139
v 0.03008148 0.00567114 -0.00000000
v -0.00778564 0.00567115 0.02905640
v 0.02905640 0.00567114 -0.00778564
v -0.01504066 0.00567115 0.02605125
v 0.02605125 0.00567114 -0.01504069
v -0.02127075 0.00567115 0.02127077
v 0.02127083 0.00567114 -0.02127075
v -0.02605125 0.00567115 0.01504070
v 0.01504059 0.00567114 -0.02605125
v -0.02905640 0.00567114 0.00778565
v 0.00778564 0.00567114 -0.02905639
v -0.03008140 0.00567114 0.00000002
v 0.00000000 0.00567114 -0.03008139
v -0.02905640 0.00567114 -0.00778562
v -0.00778572 0.00567114 -0.02905639
v -0.02605125 0.00567114 -0.01504068
v -0.01504066 0.00567114 -0.02605123
v -0.02127075 0.00567114 -0.02127074
v 0.04829628 0.10274500 -0.01294097
v 0.04381470 0.10274500 -0.01174013
v 0.03928314 0.10274500 -0.02268017
v 0.04330131 0.10274500 -0.02500002
v 0.05000000 0.10274500 -0.00000002
v 0.03207466 0.10274500 -0.03207460
v 0.04536033 0.10274500 -0.00000002
v 0.03535538 0.10274500 -0.03535536
v 0.04829628 0.10274500 0.01294093
v 0.02268021 0.10274500 -0.03928319
v 0.04381470 0.10274500 0.01174009
v 0.02500000 0.10274500 -0.04330128
v 0.04330131 0.10274500 0.02499998
v 0.01174019 0.10274500 -0.04381471
v 0.03928314 0.10274500 0.02268013
v 0.01294090 0.10274500 -0.04829630
v 0.03535538 0.10274500 0.03535531
v 0.00000000 0.10274500 -0.04536033
v 0.03207466 0.10274500 0.03207455
v 0.00000000 0.10274500 -0.05000002
v 0.02500000 0.10274500 0.04330125
v -0.01174011 0.10274500 -0.04381470
v 0.02268021 0.10274500 0.03928315
v -0.01294098 0.10274500 -0.04829630
v 0.01294090 0.10274500 0.04829627
v -0.02268021 0.10274500 -0.03928318
v 0.01174019 0.10274500 0.04381467
v -0.02500000 0.10274500 -0.04330127
v 0.00000000 0.10274500 0.04999998
v -0.03207466 0.10274500 -0.03207458
v 0.00000000 0.10274500 0.04536029
v -0.03535538 0.10274500 -0.03535534
v -0.01294098 0.10274500 0.04829628
v -0.03928322 0.10274500 -0.02268015
v -0.01174011 0.10274500 0.04381468
v -0.04330131 0.10274500 -0.02499999
v -0.02500000 0.10274500 0.04330127
v -0.04381470 0.10274500 -0.01174010
v -0.02268013 0.10274500 0.03928317
v -0.04829628 0.10274500 -0.01294094
v -0.03535530 0.10274500 0.03535534
v -0.04536026 0.10274500 0.00000000
v -0.03207459 0.10274500 0.03207459
v -0.05000000 0.10274500 0.00000001
v -0.04330131 0.10274500 0.02500000
v -0.04381470 0.10274500 0.01174011
v -0.03928314 0.10274500 0.02268015
v -0.04829628 0.10274500 0.01294095
vn -0.24802850 -0.28547530 0.92573520
vn -0.12918940 -0.86651200 0.48214860
vn -0.24956010 -0.86651720 0.43228210
vn -0.95838640 -0.28547420 0.00000000
vn -0.49914990 -0.86651560 0.00000014
vn -0.48214830 -0.86651200 -0.12918930
vn 0.00000000 -0.00000016 -1.00000000
vn 0.00000000 0.73771110 -0.67511650
vn 0.17472040 0.73770150 -0.65212670
vn -0.94101370 0.04013215 0.33598040
vn -0.47061010 0.01764039 0.88216500
vn -0.46547660 0.10226950 0.87913170
vn -0.92427570 0.19410260 0.32869240
vn -0.99910360 0.04232998 0.00000000
vn -0.97879520 0.20484140 0.00000000
vn -0.86999060 0.36760820 0.32860400
vn -0.98132470 -0.19235860 0.00000000
vn -0.91680440 -0.18293360 0.35497180
vn -0.92263470 0.38567480 0.00000000
vn -0.73546680 0.59022900 0.33274380
vn -0.78513500 0.61932460 -0.00000010
vn -0.86999060 0.36760810 -0.32860420
vn -0.73546680 0.59022890 -0.33274400
vn -0.92427570 0.19410250 -0.32869250
vn -0.94101370 0.04013203 -0.33598040
vn -0.82735370 -0.56168130 0.00000000
vn -0.76231770 -0.52740850 0.37511610
vn -0.91680440 -0.18293370 -0.35497170
vn -0.76231770 -0.52740870 -0.37511590
vn -0.39898400 -0.84475460 -0.35665300
vn -0.43568930 -0.90009710 0.00000015
vn -0.18659330 -0.37959570 -0.90614010
vn -0.33195870 -0.23789820 -0.91280220
vn -0.43422930 -0.09360299 -0.89592600
vn -0.47061010 0.01764010 -0.88216500
vn -0.46547660 0.10226920 -0.87913170
vn -0.42666040 0.19236320 -0.88371790
vn -0.34718550 0.29658460 -0.88966270
vn -0.48037570 0.80845950 -0.34004760
vn -0.21717520 0.38960890 -0.89500830
vn 0.51452370 -0.02200422 0.85719380
vn 0.91886060 -0.21604260 0.33018310
vn 0.50185230 -0.11246190 0.85761090
vn 0.94354610 -0.04297026 0.32844210
vn 0.51485700 0.10458900 0.85087220
vn 0.92376480 0.19184580 0.33144190
vn 0.99870350 -0.05090569 0.00000000
vn 0.97945930 0.20164170 0.00000000
vn 0.94354610 -0.04297036 -0.32844210
vn 0.92376480 0.19184560 -0.33144200
vn 0.51452370 -0.02200451 -0.85719380
vn 0.51485700 0.10458880 -0.85087220
vn 0.50185230 -0.11246220 -0.85761090
vn 0.91886060 -0.21604280 -0.33018300
vn 0.47546730 -0.22306900 -0.85098240
vn 0.97270690 -0.23203720 0.00000000
vn 0.84864620 -0.41869240 -0.32325880
vn 0.40001630 -0.36543800 -0.84050100
vn 0.69149570 -0.65276750 -0.30939980
vn 0.89449430 -0.44707930 0.00000000
vn 0.84864620 -0.41869230 0.32325900
vn 0.72537420 -0.68835480 0.00000011
vn 0.69149580 -0.65276730 0.30940010
vn -0.92427570 0.19410260 0.32869240
vn -0.46547660 0.10226950 0.87913170
vn -0.42666030 0.19236350 0.88371780
vn -0.86999060 0.36760820 0.32860400
vn -0.34718550 0.29658490 0.88966270
vn -0.73546680 0.59022900 0.33274380
vn 0.50185230 -0.11246190 0.85761090
vn 0.91886060 -0.21604260 0.33018310
vn 0.84864620 -0.41869230 0.32325900
vn 0.47546730 -0.22306880 0.85098240
vn 0.47546730 -0.22306880 0.85098240
vn 0.84864620 -0.41869230 0.32325900
vn 0.69149580 -0.65276730 0.30940010
vn 0.40001630 -0.36543780 0.84050110
vn 0.42885660 -0.85163970 0.30131670
vn 0.25385650 -0.48882160 0.83463190
vn 0.44692060 -0.89457370 0.00000015
vn 0.72537420 -0.68835480 0.00000011
vn 0.22486640 -0.92794000 0.29725840
vn 0.12805820 -0.51049290 0.85029300
vn 0.18247090 -0.93994360 0.28846230
vn 0.11331640 -0.55940990 0.82110900
vn 0.18391080 -0.98294290 0.00000016
vn 0.22999180 -0.97319260 0.00000016
vn 0.18247100 -0.93994370 -0.28846200
vn 0.22486630 -0.92794010 -0.29725800
vn 0.11331640 -0.55941020 -0.82110880
vn 0.12805820 -0.51049320 -0.85029270
vn 0.42885660 -0.85163990 -0.30131650
vn 0.69149570 -0.65276750 -0.30939980
vn 0.25385650 -0.48882190 -0.83463160
vn 0.40001630 -0.36543800 -0.84050100
vn -0.73546680 0.59022900 0.33274380
vn -0.34718550 0.29658490 0.88966270
vn -0.21717520 0.38960920 0.89500810
vn -0.48037580 0.80845960 0.34004730
vn -0.78513500 0.61932460 -0.00000010
vn -0.13938360 0.46939380 0.87191840
vn -0.51869930 0.85495670 -0.00000014
vn -0.73546680 0.59022890 -0.33274400
vn -0.48037570 0.80845950 -0.34004760
vn -0.28053080 0.90174560 0.32887280
vn -0.11170010 0.43102200 0.89540110
vn -0.24684150 0.90987720 0.33345560
vn -0.30604670 0.95201650 -0.00000016
vn -0.27250740 0.96215370 -0.00000016
vn -0.28053080 0.90174540 -0.32887310
vn -0.21717520 0.38960890 -0.89500830
vn -0.24684150 0.90987710 -0.33345590
vn -0.13938370 0.46939350 -0.87191860
vn -0.11170010 0.43102170 -0.89540130
vn 0.12805820 -0.51049320 -0.85029270
vn -0.11170010 0.43102170 -0.89540130
vn 0.11331640 -0.55941020 -0.82110880
vn -0.13938370 0.46939350 -0.87191860
vn 0.25385650 -0.48882190 -0.83463160
vn 0.40001630 -0.36543800 -0.84050100
vn 0.47546730 -0.22306900 -0.85098240
vn 0.50185230 -0.11246220 -0.85761090
vn 0.51452370 -0.02200451 -0.85719380
vn 0.51485700 0.10458880 -0.85087220
vn 0.43507900 0.32084620 -0.84128710
vn 0.21421650 0.51324670 -0.83107710
vn -0.00643943 0.56920280 -0.82217190
vn -0.00421164 -0.46050300 -0.88764820
vn -0.08517857 0.52987100 -0.84378990
vn 0.10681690 -0.50762430 -0.85493140
vn -0.07983910 0.49673590 -0.86422180
vn 0.11496630 -0.54223700 -0.83232310
vn -0.13938360 0.46939380 0.87191840
vn 0.11331640 -0.55940990 0.82110900
vn -0.11170010 0.43102200 0.89540110
vn 0.12805820 -0.51049290 0.85029300
vn -0.21717520 0.38960920 0.89500810
vn 0.25385650 -0.48882160 0.83463190
vn 0.40001630 -0.36543780 0.84050110
vn -0.47061010 0.01764039 0.88216500
vn 0.51452370 -0.02200422 0.85719380
vn -0.43422930 -0.09360269 0.89592600
vn 0.51485700 0.10458900 0.85087220
vn -0.33195860 -0.23789790 0.91280230
vn 0.43507900 0.32084650 0.84128700
vn -0.18659330 -0.37959550 0.90614040
vn 0.21421650 0.51324690 0.83107690
vn -0.00421164 -0.46050270 0.88764830
vn -0.00643943 0.56920300 0.82217180
vn 0.10681690 -0.50762400 0.85493150
vn -0.08517858 0.52987130 0.84378970
vn 0.11496630 -0.54223670 0.83232330
vn -0.07983910 0.49673610 0.86422160
vn -0.00421164 -0.46050300 -0.88764820
vn -0.39898400 -0.84475460 -0.35665300
vn -0.18659330 -0.37959570 -0.90614010
vn 0.02139360 -0.94852110 -0.31599040
vn 0.10681690 -0.50762430 -0.85493140
vn -0.43568930 -0.90009710 0.00000015
vn 0.20527180 -0.93266530 -0.29664600
vn 0.11496630 -0.54223700 -0.83232310
vn 0.20606620 -0.93276110 -0.29579280
vn 0.02462848 -0.99969670 0.00000016
vn -0.39897370 -0.84476320 0.35664410
vn 0.22285300 -0.97485210 0.00000016
vn 0.22263670 -0.97490150 0.00000016
vn 0.02139360 -0.94852100 0.31599070
vn -0.18659330 -0.37959550 0.90614040
vn -0.00421164 -0.46050270 0.88764830
vn 0.20527180 -0.93266530 0.29664630
vn 0.20606630 -0.93276100 0.29579310
vn 0.10681690 -0.50762400 0.85493150
vn 0.11496630 -0.54223670 0.83232330
vn 0.38234240 0.87000580 -0.31129430
vn 0.21421650 0.51324670 -0.83107710
vn 0.43507900 0.32084620 -0.84128710
vn 0.75660030 0.56033160 -0.33702310
vn 0.80298210 0.59600310 0.00000000
vn 0.75660030 0.56033160 0.33702300
vn -0.76231770 -0.52740850 0.37511610
vn -0.82735370 -0.56168130 0.00000000
vn -0.33195860 -0.23789790 0.91280230
vn 0.21421650 0.51324690 0.83107690
vn 0.75660030 0.56033160 0.33702300
vn 0.43507900 0.32084650 0.84128700
vn 0.38234240 0.87000600 0.31129400
vn -0.00643943 0.56920300 0.82217180
vn 0.80298210 0.59600310 0.00000000
vn 0.01144475 0.96239630 0.27140810
vn -0.08517858 0.52987130 0.84378970
vn 0.39830540 0.91725290 -0.00000015
vn 0.75660030 0.56033160 -0.33702310
vn 0.38234240 0.87000580 -0.31129430
vn -0.14215780 0.95320190 0.26682800
vn -0.07983910 0.49673610 0.86422160
vn -0.14185100 0.94992600 0.27842220
vn 0.01126165 0.99993660 -0.00000016
vn -0.13730550 0.99052860 -0.00000016
vn -0.13730550 0.99052860 -0.00000016
vn 0.01144474 0.96239620 -0.27140840
vn 0.21421650 0.51324670 -0.83107710
vn -0.00643943 0.56920280 -0.82217190
vn -0.14215780 0.95320180 -0.26682830
vn -0.14185100 0.94992580 -0.27842250
vn -0.08517857 0.52987100 -0.84378990
vn -0.07983910 0.49673590 -0.86422180
vn -0.76231770 -0.52740850 0.37511610
vn -0.91680440 -0.18293360 0.35497180
vn -0.94101370 0.04013215 0.33598040
vn 0.75660030 0.56033160 0.33702300
vn 0.92376480 0.19184580 0.33144190
vn 0.00000000 -0.00000016 -1.00000000
vn 0.19001410 0.67887470 -0.70924160
vn 0.00000000 0.67886800 -0.73426040
vn 0.25880220 -0.00000016 -0.96593030
vn 0.00000000 -0.00000016 -1.00000000
vn 0.36712190 0.67888100 -0.63587890
vn 0.25880220 -0.00000016 -0.96593030
vn 0.00000000 -0.28547440 -0.95838640
vn 0.24802850 -0.28547560 -0.92573510
vn 0.49998930 -0.00000014 -0.86603160
vn 0.51919650 0.67887400 -0.51919660
vn 0.49998930 -0.00000014 -0.86603160
vn 0.70710680 -0.00000012 -0.70710680
vn 0.63587890 0.67888100 -0.36712210
vn 0.86603160 0.00000000 -0.49998930
vn 0.70710680 -0.00000012 -0.70710680
vn 0.86603160 0.00000000 -0.49998930
vn 0.47917900 -0.28547500 -0.82999500
vn 0.67768090 -0.28547750 -0.67768090
vn 0.82999500 -0.28547490 -0.47917890
vn 0.43228190 -0.86651720 -0.24956000
vn 0.35295840 -0.86651070 -0.35295830
vn 0.24956010 -0.86651720 -0.43228170
vn 0.12918940 -0.86651210 -0.48214820
vn 0.70923750 0.67887090 -0.19004370
vn 0.96593030 0.00000000 -0.25880220
vn 0.73426030 0.67886800 -0.00000011
vn 0.96593030 0.00000000 -0.25880220
vn 1.00000000 0.00000000 0.00000000
vn 0.70923750 0.67887090 0.19004340
vn 0.96593030 0.00000000 0.25880220
vn 0.63587880 0.67888120 0.36712180
vn 0.86603160 0.00000000 0.49998930
vn 1.00000000 0.00000000 0.00000000
vn 0.96593030 0.00000000 0.25880220
vn 0.86603160 0.00000000 0.49998930
vn 0.92573520 -0.28547550 -0.24802850
vn 0.95838640 -0.28547420 0.00000000
vn 0.92573520 -0.28547540 0.24802860
vn 0.82999500 -0.28547470 0.47917900
vn 0.48214830 -0.86651200 0.12918950
vn 0.49914990 -0.86651560 0.00000014
vn 0.48214830 -0.86651200 -0.12918930
vn 0.86603160 0.00000000 0.49998930
vn 0.51919650 0.67887420 0.51919630
vn 0.63587880 0.67888120 0.36712180
vn 0.70710680 0.00000012 0.70710680
vn 0.36712200 0.67888120 0.63587870
vn 0.86603160 0.00000000 0.49998930
vn 0.49998930 0.00000014 0.86603160
vn 0.70710680 0.00000012 0.70710680
vn 0.82999500 -0.28547470 0.47917900
vn 0.49998930 0.00000014 0.86603160
vn 0.67768090 -0.28547730 0.67768090
vn 0.47917890 -0.28547470 0.82999500
vn 0.24958870 -0.86651060 0.43227880
vn 0.35295840 -0.86651060 0.35295860
vn 0.19004360 0.67887100 0.70923740
vn 0.25880220 0.00000016 0.96593030
vn 0.00000000 0.67886810 0.73426010
vn 0.25880220 0.00000016 0.96593030
vn 0.00000000 0.00000016 1.00000000
vn -0.19001410 0.67887490 0.70924150
vn -0.25880220 0.00000016 0.96593030
vn -0.36712200 0.67888120 0.63587870
vn 0.00000000 0.00000016 1.00000000
vn 0.24802850 -0.28547530 0.92573520
vn -0.49998930 0.00000014 0.86603160
vn -0.51919650 0.67887420 0.51919630
vn -0.70710680 0.00000012 0.70710680
vn -0.63587880 0.67888120 0.36712180
vn -0.25880220 0.00000016 0.96593030
vn -0.49998930 0.00000014 0.86603160
vn 0.12918940 -0.86651200 0.48214860
vn 0.00000000 -0.86650240 0.49917290
vn 0.00000000 -0.28547400 0.95838640
vn -0.47917890 -0.28547470 0.82999500
vn -0.35295840 -0.86651060 0.35295860
vn -0.86603160 0.00000000 0.49998930
vn -0.70710680 0.00000012 0.70710680
vn -0.86603160 0.00000000 0.49998930
vn -0.67768090 -0.28547730 0.67768090
vn -0.82999500 -0.28547470 0.47917900
vn -0.43228190 -0.86651720 0.24956030
vn -0.86603160 0.00000000 0.49998930
vn -0.70923750 0.67887090 0.19004340
vn -0.63587880 0.67888120 0.36712180
vn -0.96593030 0.00000000 0.25880220
vn -0.86603160 0.00000000 0.49998930
vn -0.73426030 0.67886800 -0.00000011
vn -0.96593030 0.00000000 0.25880220
vn -0.82999500 -0.28547470 0.47917900
vn -1.00000000 0.00000000 0.00000000
vn -0.70923750 0.67887090 -0.19004370
vn -0.96593030 0.00000000 -0.25880220
vn -0.63587890 0.67888100 -0.36712210
vn -1.00000000 0.00000000 0.00000000
vn -0.92573520 -0.28547540 0.24802860
vn -0.86603160 0.00000000 -0.49998930
vn -0.51919650 0.67887400 -0.51919660
vn -0.48214830 -0.86651200 0.12918950
vn -0.43228190 -0.86651720 0.24956030
vn -0.96593030 0.00000000 -0.25880220
vn -0.70710680 -0.00000012 -0.70710680
vn -0.36712190 0.67888100 -0.63587890
vn -0.49998930 -0.00000014 -0.86603160
vn -0.70710680 -0.00000012 -0.70710680
vn -0.86603160 0.00000000 -0.49998930
vn -0.92573520 -0.28547550 -0.24802850
vn -0.43228190 -0.86651720 -0.24956000
vn -0.82999500 -0.28547490 -0.47917890
vn -0.67768090 -0.28547750 -0.67768090
vn 0.12918940 -0.86651210 -0.48214820
vn 0.00000000 -0.86651580 -0.49914970
vn -0.12918940 -0.86651210 -0.48214820
vn 0.24956010 -0.86651720 -0.43228170
vn -0.24956010 -0.86651720 -0.43228170
vn 0.35295840 -0.86651070 -0.35295830
vn -0.35295840 -0.86651070 -0.35295830
vn 0.43228190 -0.86651720 -0.24956000
vn -0.43228190 -0.86651720 -0.24956000
vn 0.48214830 -0.86651200 -0.12918930
vn -0.48214830 -0.86651200 -0.12918930
vn 0.49914990 -0.86651560 0.00000014
vn -0.49914990 -0.86651560 0.00000014
vn 0.48214830 -0.86651200 0.12918950
vn -0.48214830 -0.86651200 0.12918950
vn 0.43228190 -0.86651720 0.24956030
vn -0.43228190 -0.86651720 0.24956030
vn 0.35295840 -0.86651060 0.35295860
vn -0.35295840 -0.86651060 0.35295860
vn 0.24958870 -0.86651060 0.43227880
vn -0.24956010 -0.86651720 0.43228210
vn 0.12918940 -0.86651200 0.48214860
vn -0.12918940 -0.86651200 0.48214860
vn 0.00000000 -0.86650240 0.49917290
vn -0.19004360 0.67887070 -0.70923760
vn -0.25880220 -0.00000016 -0.96593030
vn 0.00000000 0.67886800 -0.73426040
vn 0.00000000 -0.00000016 -1.00000000
vn -0.49998930 -0.00000014 -0.86603160
vn -0.25880220 -0.00000016 -0.96593030
vn 0.00000000 -0.00000016 -1.00000000
vn -0.47917900 -0.28547500 -0.82999500
vn -0.24802850 -0.28547560 -0.92573510
vn 0.00000000 -0.28547440 -0.95838640
vn -0.12918940 -0.86651210 -0.48214820
vn -0.24956010 -0.86651720 -0.43228170
vn -0.35295840 -0.86651070 -0.35295830
vn 0.92573520 -0.28547540 0.24802860
vn 0.82999500 -0.28547470 0.47917900
vn 0.67768090 -0.28547730 0.67768090
vn 0.00000000 -0.28547440 -0.95838640
vn 0.24802850 -0.28547560 -0.92573510
vn -0.24802850 -0.28547560 -0.92573510
vn -0.86603160 0.00000000 0.49998930
vn -0.58468400 0.73770660 0.33754060
vn -0.65212670 0.73770150 0.17472030
vn -0.96593030 0.00000000 0.25880220
vn -0.67511630 0.73771130 -0.00000012
vn -0.86603160 0.00000000 0.49998930
vn -1.00000000 0.00000000 0.00000000
vn -0.96593030 0.00000000 0.25880220
vn -1.00000000 0.00000000 0.00000000
vn -0.86603160 0.00000000 0.49998930
vn -0.96593030 0.00000000 0.25880220
vn -0.69757480 0.59261970 0.40272980
vn -0.65212660 0.73770150 -0.17472050
vn -0.96593030 0.00000000 -0.25880220
vn -0.58468400 0.73770650 -0.33754080
vn -0.86603160 0.00000000 -0.49998930
vn -0.47738080 0.73770930 -0.47738090
vn -0.96593030 0.00000000 -0.25880220
vn -0.70710680 -0.00000012 -0.70710680
vn -0.33754070 0.73770640 -0.58468410
vn -0.86603160 0.00000000 -0.49998930
vn -0.49998930 -0.00000014 -0.86603160
vn -0.17472040 0.73770150 -0.65212670
vn -0.70710680 -0.00000012 -0.70710680
vn -0.25880220 -0.00000016 -0.96593030
vn 0.00000000 0.73771110 -0.67511650
vn 0.00000000 -0.00000016 -1.00000000
vn -0.49998930 -0.00000014 -0.86603160
vn -0.25880220 -0.00000016 -0.96593030
vn 0.00000000 -0.00000016 -1.00000000
vn -0.25880220 -0.00000016 -0.96593030
vn 0.00000000 -0.00000016 -1.00000000
vn -0.49998930 -0.00000014 -0.86603160
vn -0.20847800 0.59262540 -0.77803090
vn 0.00000000 0.59261570 -0.80548520
vn -0.40272990 0.59261950 -0.69757490
vn -0.56955690 0.59262960 -0.56955700
vn -0.70710680 -0.00000012 -0.70710680
vn -0.69757480 0.59261960 -0.40273000
vn -0.86603160 0.00000000 -0.49998930
vn -0.77803080 0.59262560 -0.20847810
vn -0.96593030 0.00000000 -0.25880220
vn -0.80548520 0.59261580 0.00000000
vn -1.00000000 0.00000000 0.00000000
vn -0.77803080 0.59262560 0.20847790
vn 0.96593030 0.00000000 -0.25880220
vn 0.65212660 0.73770150 -0.17472050
vn 0.67511630 0.73771130 -0.00000012
vn 0.86603160 0.00000000 -0.49998930
vn 0.58468400 0.73770650 -0.33754080
vn 0.86603160 0.00000000 -0.49998930
vn 0.96593030 0.00000000 -0.25880220
vn 0.70710680 -0.00000012 -0.70710680
vn 0.47738080 0.73770930 -0.47738090
vn 0.70710680 -0.00000012 -0.70710680
vn 0.86603160 0.00000000 -0.49998930
vn 0.96593030 0.00000000 -0.25880220
vn 0.49998930 -0.00000014 -0.86603160
vn 0.33754070 0.73770640 -0.58468410
vn 0.69757480 0.59261960 -0.40273000
vn 0.77803080 0.59262560 -0.20847810
vn 0.56955690 0.59262960 -0.56955700
vn 0.70710680 -0.00000012 -0.70710680
vn 0.40272990 0.59261950 -0.69757490
vn 0.49998930 -0.00000014 -0.86603160
vn 0.20847800 0.59262540 -0.77803090
vn 0.49998930 -0.00000014 -0.86603160
vn 0.25880220 -0.00000016 -0.96593030
vn 0.00000000 0.59261570 -0.80548520
vn 0.00000000 -0.00000016 -1.00000000
vn 0.25880220 -0.00000016 -0.96593030
vn 0.00000000 -0.00000016 -1.00000000
vn 0.25880220 -0.00000016 -0.96593030
vn 0.86603160 0.00000000 0.49998930
vn 0.58468400 0.73770660 0.33754060
vn 0.47738080 0.73770930 0.47738080
vn 0.70710680 0.00000012 0.70710680
vn 0.33754070 0.73770660 0.58468380
vn 0.86603160 0.00000000 0.49998930
vn 0.49998930 0.00000014 0.86603160
vn 0.70710680 0.00000012 0.70710680
vn 0.86603160 0.00000000 0.49998930
vn 0.49998930 0.00000014 0.86603160
vn 0.70710680 0.00000012 0.70710680
vn 0.69757480 0.59261970 0.40272980
vn 0.49998930 0.00000014 0.86603160
vn 0.56955700 0.59262980 0.56955680
vn 0.40272990 0.59261980 0.69757470
vn 0.17472040 0.73770170 0.65212660
vn 0.25880220 0.00000016 0.96593030
vn 0.00000000 0.73771140 0.67511620
vn 0.25880220 0.00000016 0.96593030
vn 0.00000000 0.00000016 1.00000000
vn -0.17472040 0.73770170 0.65212660
vn 0.25880220 0.00000016 0.96593030
vn 0.20847800 0.59262560 0.77803070
vn -0.25880220 0.00000016 0.96593030
vn -0.33754070 0.73770660 0.58468380
vn 0.00000000 0.00000016 1.00000000
vn 0.00000000 0.00000016 1.00000000
vn 0.00000000 0.59261600 0.80548510
vn -0.49998930 0.00000014 0.86603160
vn -0.47738080 0.73770930 0.47738080
vn -0.25880220 0.00000016 0.96593030
vn -0.25880220 0.00000016 0.96593030
vn -0.20847800 0.59262560 0.77803070
vn -0.70710680 0.00000012 0.70710680
vn -0.58468400 0.73770660 0.33754060
vn -0.86603160 0.00000000 0.49998930
vn -0.49998930 0.00000014 0.86603160
vn -0.49998930 0.00000014 0.86603160
vn -0.40272990 0.59261980 0.69757470
vn -0.70710680 0.00000012 0.70710680
vn -0.86603160 0.00000000 0.49998930
vn -0.70710680 0.00000012 0.70710680
vn -0.56955700 0.59262980 0.56955680
vn -0.86603160 0.00000000 0.49998930
vn -0.69757480 0.59261970 0.40272980
vn 0.77803080 0.59262560 0.20847790
vn 0.86603160 0.00000000 0.49998930
vn 0.69757480 0.59261970 0.40272980
vn 0.96593030 0.00000000 0.25880220
vn 0.80548520 0.59261580 0.00000000
vn 0.86603160 0.00000000 0.49998930
vn 1.00000000 0.00000000 0.00000000
vn 0.96593030 0.00000000 0.25880220
vn 0.86603160 0.00000000 0.49998930
vn 1.00000000 0.00000000 0.00000000
vn 0.96593030 0.00000000 0.25880220
vn 0.58468400 0.73770660 0.33754060
vn 0.65212670 0.73770150 0.17472030
vn 1.00000000 0.00000000 0.00000000
vn -0.06213632 0.97074280 0.23194290
vn -0.20847800 0.59262560 0.77803070
vn -0.40272990 0.59261980 0.69757470
vn 0.00000000 0.97073560 0.24015070
vn 0.00000000 0.59261600 0.80548510
vn -0.12006100 0.97074200 0.20795500
vn -0.56955700 0.59262980 0.56955680
vn 0.06213632 0.97074280 0.23194290
vn 0.20847800 0.59262560 0.77803070
vn -0.16980590 0.97073790 0.16980580
vn -0.69757480 0.59261970 0.40272980
vn 0.12006100 0.97074200 0.20795500
vn 0.40272990 0.59261980 0.69757470
vn -0.20795510 0.97074200 0.12006080
vn -0.77803080 0.59262560 0.20847790
vn 0.16980590 0.97073790 0.16980580
vn 0.56955700 0.59262980 0.56955680
vn -0.23194300 0.97074270 0.06213617
vn -0.80548520 0.59261580 0.00000000
vn 0.20795510 0.97074200 0.12006080
vn 0.69757480 0.59261970 0.40272980
vn -0.24015090 0.97073560 -0.00000016
vn -0.77803080 0.59262560 -0.20847810
vn 0.23194300 0.97074270 0.06213617
vn 0.77803080 0.59262560 0.20847790
vn -0.23194300 0.97074270 -0.06213648
vn -0.69757480 0.59261960 -0.40273000
vn 0.24015090 0.97073560 -0.00000016
vn 0.80548520 0.59261580 0.00000000
vn -0.20795510 0.97074200 -0.12006110
vn -0.56955690 0.59262960 -0.56955700
vn 0.23194300 0.97074270 -0.06213648
vn 0.77803080 0.59262560 -0.20847810
vn -0.16980590 0.97073780 -0.16980600
vn -0.40272990 0.59261950 -0.69757490
vn 0.20795510 0.97074200 -0.12006110
vn 0.69757480 0.59261960 -0.40273000
vn -0.12006100 0.97074200 -0.20795530
vn -0.20847800 0.59262540 -0.77803090
vn 0.16980590 0.97073780 -0.16980600
vn 0.56955690 0.59262960 -0.56955700
vn -0.06213632 0.97074270 -0.23194320
vn 0.00000000 0.59261570 -0.80548520
vn 0.12006100 0.97074200 -0.20795530
vn 0.40272990 0.59261950 -0.69757490
vn 0.00000000 0.97073550 -0.24015100
vn 0.20847800 0.59262540 -0.77803090
vn 0.06213632 0.97074270 -0.23194320
vn -0.09253276 0.99140070 -0.09253293
vn -0.06543223 0.99140200 -0.11331630
vn 0.00000000 1.00000000 -0.00000016
vn -0.11331620 0.99140210 -0.06543240
vn -0.03384526 0.99140070 -0.12640870
vn -0.12640850 0.99140070 -0.03384542
vn 0.00000000 0.99140040 -0.13086440
vn -0.13086420 0.99140040 -0.00000016
vn 0.03384526 0.99140070 -0.12640870
vn -0.12640850 0.99140080 0.03384510
vn 0.06543223 0.99140200 -0.11331630
vn -0.11331620 0.99140210 0.06543206
vn 0.09253276 0.99140070 -0.09253293
vn -0.09253277 0.99140080 0.09253260
vn 0.11331620 0.99140210 -0.06543240
vn -0.06543224 0.99140210 0.11331600
vn 0.12640850 0.99140070 -0.03384542
vn -0.03384526 0.99140080 0.12640840
vn 0.13086420 0.99140040 -0.00000016
vn 0.00000000 0.99140040 0.13086410
vn 0.12640850 0.99140080 0.03384510
vn 0.03384526 0.99140080 0.12640840
vn 0.11331620 0.99140210 0.06543206
vn 0.06543224 0.99140210 0.11331600
vn 0.09253277 0.99140080 0.09253260
vn 0.70923750 0.67887090 -0.19004370
vn -0.65212670 0.73770150 0.17472030
vn -0.58468400 0.73770660 0.33754060
vn 0.63587890 0.67888100 -0.36712210
vn 0.73426030 0.67886800 -0.00000011
vn -0.47738080 0.73770930 0.47738080
vn -0.67511630 0.73771130 -0.00000012
vn 0.51919650 0.67887400 -0.51919660
vn 0.70923750 0.67887090 0.19004340
vn -0.33754070 0.73770660 0.58468380
vn -0.65212660 0.73770150 -0.17472050
vn 0.36712190 0.67888100 -0.63587890
vn 0.63587880 0.67888120 0.36712180
vn -0.17472040 0.73770170 0.65212660
vn -0.58468400 0.73770650 -0.33754080
vn 0.19001410 0.67887470 -0.70924160
vn 0.51919650 0.67887420 0.51919630
vn 0.00000000 0.73771140 0.67511620
vn -0.47738080 0.73770930 -0.47738090
vn 0.00000000 0.67886800 -0.73426040
vn 0.36712200 0.67888120 0.63587870
vn 0.17472040 0.73770170 0.65212660
vn -0.33754070 0.73770640 -0.58468410
vn -0.19004360 0.67887070 -0.70923760
vn 0.19004360 0.67887100 0.70923740
vn 0.33754070 0.73770660 0.58468380
vn -0.17472040 0.73770150 -0.65212670
vn -0.36712190 0.67888100 -0.63587890
vn 0.00000000 0.67886810 0.73426010
vn 0.47738080 0.73770930 0.47738080
vn 0.00000000 0.73771110 -0.67511650
vn -0.51919650 0.67887400 -0.51919660
vn -0.19001410 0.67887490 0.70924150
vn 0.58468400 0.73770660 0.33754060
vn 0.17472040 0.73770150 -0.65212670
vn -0.63587890 0.67888100 -0.36712210
vn -0.36712200 0.67888120 0.63587870
vn 0.65212670 0.73770150 0.17472030
vn 0.33754070 0.73770640 -0.58468410
vn -0.70923750 0.67887090 -0.19004370
vn -0.51919650 0.67887420 0.51919630
vn 0.67511630 0.73771130 -0.00000012
vn 0.47738080 0.73770930 -0.47738090
vn -0.73426030 0.67886800 -0.00000011
vn -0.63587880 0.67888120 0.36712180
vn 0.65212660 0.73770150 -0.17472050
vn 0.58468400 0.73770650 -0.33754080
vn -0.70923750 0.67887090 0.19004340
vt 0.81582710 0.66686770
vt 0.81421340 0.67615870
vt 0.85337840 0.67615870
vt 0.39804090 0.66715510
vt 0.40097300 0.67653860
vt 0.44066720 0.67628470
vt 0.33425660 0.98585220
vt 0.33425660 0.99457450
vt 0.35742990 0.99404130
vt 0.32032460 0.82499810
vt 0.32792620 0.82517960
vt 0.32788770 0.78122740
vt 0.32021640 0.78479040
vt 0.30356800 0.82577750
vt 0.30343190 0.78674860
vt 0.32303700 0.74768100
vt 0.30634620 0.85868920
vt 0.32318050 0.85906270
vt 0.30610910 0.75076110
vt 0.32856060 0.72015260
vt 0.31137710 0.72396090
vt 0.28687080 0.75030140
vt 0.29239440 0.72277280
vt 0.28405020 0.78741070
vt 0.28415840 0.82761840
vt 0.31150240 0.88061830
vt 0.32856060 0.88167140
vt 0.28701430 0.86168310
vt 0.29239440 0.88429170
vt 0.29994270 0.89659900
vt 0.31869350 0.89262700
vt 0.28698420 0.90377940
vt 0.27849710 0.89068000
vt 0.27251000 0.86587250
vt 0.26940810 0.82941940
vt 0.26936960 0.78546700
vt 0.27259550 0.74584690
vt 0.27881520 0.71715630
vt 0.29998730 0.70601120
vt 0.28729420 0.69957310
vt 0.91821640 0.45611620
vt 0.92818710 0.40535720
vt 0.92036280 0.40861280
vt 0.92587550 0.45520710
vt 0.91981510 0.49611820
vt 0.92756780 0.49833730
vt 0.94268520 0.45364400
vt 0.94438710 0.49894180
vt 0.96216110 0.45486020
vt 0.96385340 0.49799040
vt 0.97692770 0.45555490
vt 0.97852640 0.49555690
vt 0.97907410 0.40805150
vt 0.96447270 0.40501030
vt 0.98464390 0.36562790
vt 0.94501730 0.40370160
vt 0.97048390 0.36106910
vt 0.99298980 0.33519840
vt 0.97952770 0.32991190
vt 0.95120480 0.35951930
vt 0.93419830 0.36141600
vt 0.96051570 0.32840140
vt 0.94324210 0.33025880
vt 0.91684010 0.80317830
vt 0.90970280 0.80587030
vt 0.92088510 0.84567760
vt 0.92688720 0.84045900
vt 0.93722540 0.87458130
vt 0.94162320 0.86818310
vt 0.90082970 0.80932930
vt 0.89365040 0.81247010
vt 0.90711520 0.85642740
vt 0.91333080 0.85176800
vt 0.98469320 0.54911600
vt 0.97199730 0.54371550
vt 0.97199730 0.56832090
vt 0.98469320 0.57211890
vt 0.97199730 0.59565680
vt 0.98469320 0.59723390
vt 0.95145480 0.59504640
vt 0.95145480 0.56678240
vt 0.97199730 0.61130890
vt 0.98469320 0.61150180
vt 0.97199730 0.62396930
vt 0.98469320 0.62305340
vt 0.95145480 0.62430750
vt 0.95145480 0.61122550
vt 0.93091240 0.62396930
vt 0.93091240 0.61130890
vt 0.91821640 0.62305340
vt 0.91821640 0.61150180
vt 0.93091240 0.59565680
vt 0.93091240 0.56832090
vt 0.91821640 0.59723390
vt 0.91821640 0.57211890
vt 0.99594190 0.01299820
vt 1.00000000 0.00015586
vt 0.97929230 0.00000600
vt 0.97724130 0.01285117
vt 0.99449290 0.03365225
vt 0.96711280 0.00000000
vt 0.97657490 0.03350750
vt 0.99608680 0.05422784
vt 0.97738610 0.05408080
vt 0.96631330 0.01284212
vt 0.95714670 0.00000599
vt 0.95737010 0.01284373
vt 0.96612010 0.03349717
vt 0.95756370 0.03349707
vt 0.96645810 0.05407174
vt 0.97952680 0.06671695
vt 0.95751490 0.05407337
vt 0.96734710 0.06671095
vt 0.95738110 0.06671695
vt 0.29154860 0.68682250
vt 0.29724460 0.69285880
vt 0.29670230 0.68423120
vt 0.29273360 0.69542750
vt 0.28534130 0.69125280
vt 0.27575730 0.70948210
vt 0.26871930 0.73969820
vt 0.26500670 0.78193190
vt 0.26496270 0.82929500
vt 0.26835090 0.86923930
vt 0.27508970 0.89688220
vt 0.28476280 0.91136850
vt 0.29623490 0.91531250
vt 0.29706740 0.90749150
vt 0.30583580 0.91143950
vt 0.30550300 0.90357640
vt 0.30845930 0.91038120
vt 0.30780640 0.90247980
vt 0.96914440 0.89665530
vt 0.97879270 0.90796540
vt 0.97899970 0.89932200
vt 0.96757080 0.90526320
vt 0.95714590 0.89238820
vt 0.95391130 0.90069530
vt 0.93157510 0.88221820
vt 0.90497510 0.76178250
vt 0.89555360 0.76181850
vt 0.90756980 0.72527830
vt 0.89837380 0.72181810
vt 0.91756240 0.70051350
vt 0.90965160 0.69422420
vt 0.93414250 0.68754300
vt 0.92859720 0.67988600
vt 0.95513720 0.68402060
vt 0.95251450 0.67615870
vt 0.97346970 0.68811620
vt 0.97331570 0.68023540
vt 0.97847860 0.68926220
vt 0.97899970 0.68134930
vt 0.29937770 0.98202970
vt 0.28468820 0.96928790
vt 0.27922930 0.98202970
vt 0.30263780 0.96928790
vt 0.31812930 0.98202970
vt 0.28680710 0.94867110
vt 0.31933210 0.96928790
vt 0.32325690 0.98202970
vt 0.32387640 0.96928790
vt 0.30382340 0.94867110
vt 0.28468820 0.92805440
vt 0.31976620 0.94867110
vt 0.32440960 0.94867100
vt 0.30263780 0.92805440
vt 0.27922930 0.91531250
vt 0.29937770 0.91531250
vt 0.31933210 0.92805430
vt 0.32393750 0.92811050
vt 0.31762140 0.91531250
vt 0.32306040 0.91531250
vt 0.97972760 0.54371550
vt 0.99298980 0.53752010
vt 0.98400590 0.52316200
vt 0.96982550 0.52828190
vt 0.95054920 0.53037000
vt 0.93353990 0.52862880
vt 0.27217710 0.92805430
vt 0.27496490 0.94867110
vt 0.26496270 0.91531250
vt 0.95743190 0.95887700
vt 0.94479850 0.98382670
vt 0.95757580 0.97721960
vt 0.94464510 0.96358580
vt 0.95744140 0.93506760
vt 0.92422630 0.98630190
vt 0.94466020 0.93739130
vt 0.95754690 0.91402760
vt 0.92406960 0.96533750
vt 0.90371730 0.98369990
vt 0.90356390 0.96345920
vt 0.94477000 0.91438010
vt 0.95757580 0.90827820
vt 0.94480010 0.90809210
vt 0.92409390 0.93818560
vt 0.92419890 0.91448030
vt 0.92422770 0.90800270
vt 0.90357900 0.93726460
vt 0.89096120 0.95867200
vt 0.89097060 0.93486260
vt 0.90368890 0.91425340
vt 0.90371890 0.90796540
vt 0.89107620 0.91382250
vt 0.89110510 0.90807320
vt 0.92394880 0.70616370
vt 0.91500380 0.72873500
vt 0.91266980 0.76284820
vt 0.90325020 0.68920440
vt 0.89096120 0.71948370
vt 0.29188120 0.67404310
vt 0.26633750 0.68335290
vt 0.29188110 0.68276540
vt 0.26633750 0.67463080
vt 0.29188110 0.35424680
vt 0.23238550 0.68381220
vt 0.26633750 0.35483440
vt 0.29188110 0.34434420
vt 0.26633750 0.34493180
vt 0.23238550 0.67509000
vt 0.19233890 0.68411180
vt 0.23238550 0.35529370
vt 0.19233890 0.67538960
vt 0.14892690 0.68423120
vt 0.14892690 0.67550900
vt 0.19233890 0.35559330
vt 0.14892690 0.35571270
vt 0.23238550 0.34539110
vt 0.19233890 0.34569060
vt 0.14892690 0.34581010
vt 0.14870600 0.33641820
vt 0.19051280 0.33630320
vt 0.22907860 0.33601470
vt 0.26177520 0.33557250
vt 0.10510780 0.68416250
vt 0.10510780 0.67544030
vt 0.06386788 0.68391010
vt 0.10510780 0.35564390
vt 0.06386788 0.67518790
vt 0.02801758 0.68349140
vt 0.02801759 0.67476920
vt 0.00000001 0.68293490
vt 0.00000003 0.67421270
vt 0.06386787 0.35539160
vt 0.02801757 0.35497290
vt 0.00000000 0.35441640
vt 0.10510780 0.34574130
vt 0.06386787 0.34548900
vt 0.02801757 0.34507030
vt 0.00000001 0.34451380
vt 0.03226758 0.33570580
vt 0.06679225 0.33610900
vt 0.10650720 0.33635200
vt 0.62615200 0.33712480
vt 0.65294930 0.32840140
vt 0.62615200 0.32840140
vt 0.65294930 0.33712480
vt 0.68787240 0.32840150
vt 0.62615200 0.65696380
vt 0.68787240 0.33712480
vt 0.65294940 0.65696380
vt 0.62615200 0.66686780
vt 0.68787250 0.65696380
vt 0.65294940 0.66686780
vt 0.68787250 0.66686770
vt 0.69099000 0.67615870
vt 0.65735830 0.67615870
vt 0.72854120 0.32840140
vt 0.72854120 0.33712480
vt 0.77218410 0.32840140
vt 0.72854130 0.65696380
vt 0.77218410 0.33712480
vt 0.81582710 0.32840140
vt 0.81582710 0.33712480
vt 0.85649590 0.32840140
vt 0.77218420 0.65696380
vt 0.72854130 0.66686770
vt 0.85649590 0.33712480
vt 0.89141890 0.32840140
vt 0.89141890 0.33712480
vt 0.91821630 0.32840140
vt 0.81582710 0.65696380
vt 0.85649590 0.65696380
vt 0.73015510 0.67615870
vt 0.77218420 0.67615870
vt 0.77218420 0.66686770
vt 0.85649590 0.66686770
vt 0.88701000 0.67615870
vt 0.91821630 0.33712480
vt 0.89141900 0.65696380
vt 0.91821640 0.65696380
vt 0.89141900 0.66686770
vt 0.91821640 0.66686770
vt 0.91281660 0.67615870
vt 0.33425660 0.33847670
vt 0.36222650 0.32917460
vt 0.33425660 0.32975470
vt 0.36222650 0.33789660
vt 0.33425660 0.65826950
vt 0.39804090 0.32873780
vt 0.36222650 0.65768940
vt 0.33425660 0.66817190
vt 0.39804090 0.33745990
vt 0.43925920 0.32847410
vt 0.43925920 0.33719620
vt 0.48307230 0.32840140
vt 0.39804090 0.65725260
vt 0.36222650 0.66759190
vt 0.48307230 0.33712350
vt 0.52649460 0.32852480
vt 0.36648290 0.67695930
vt 0.33954720 0.67751790
vt 0.43925920 0.65698890
vt 0.52649460 0.33724690
vt 0.56656670 0.32883570
vt 0.56656670 0.33755780
vt 0.52649460 0.65703960
vt 0.48307230 0.65691630
vt 0.43925920 0.66689140
vt 0.48286020 0.67621480
vt 0.48307230 0.66681880
vt 0.52649460 0.66694210
vt 0.59300430 0.03793761
vt 0.55673730 0.01669538
vt 0.51620020 0.00569958
vt 0.62252990 0.06797868
vt 0.47415580 0.00569964
vt 0.64330180 0.10477130
vt 0.43346930 0.01669547
vt 0.65390450 0.14580820
vt 0.39691320 0.03793776
vt 0.65361550 0.18829270
vt 0.36697900 0.06797887
vt 0.64245440 0.22932960
vt 0.34570660 0.10477150
vt 0.62118200 0.26612220
vt 0.33454560 0.14580840
vt 0.59124780 0.29616330
vt 0.33425660 0.18829290
vt 0.55469180 0.31740560
vt 0.34485930 0.22932980
vt 0.51400520 0.32840140
vt 0.36563130 0.26612250
vt 0.47196080 0.32840140
vt 0.39515680 0.29616350
vt 0.43142380 0.31740570
vt 0.60055800 0.32931300
vt 0.60055800 0.33803510
vt 0.62615190 0.32992420
vt 0.62615190 0.33864630
vt 0.56656680 0.65735050
vt 0.60055800 0.65782780
vt 0.62615200 0.65843900
vt 0.56656680 0.66725300
vt 0.60055800 0.66773030
vt 0.62615190 0.66834150
vt 0.59600160 0.67709260
vt 0.56326730 0.67663290
vt 0.52467690 0.67633350
vt 0.62724340 0.27042200
vt 0.59615980 0.30161660
vt 0.55820020 0.32367450
vt 0.56032430 0.01141798
vt 0.59798380 0.03347586
vt 0.51823060 0.00000000
vt 0.62615200 0.98438730
vt 0.62615200 0.99310950
vt 0.65152650 0.99258320
vt 0.65152650 0.98386110
vt 0.68401750 0.99218690
vt 0.62615200 0.90554830
vt 0.68401750 0.98346480
vt 0.65152650 0.90502200
vt 0.68401750 0.90462580
vt 0.62615200 0.68625640
vt 0.65152650 0.68573020
vt 0.62615200 0.67738630
vt 0.72141100 0.99194770
vt 0.72141100 0.98322560
vt 0.76115850 0.99188180
vt 0.76115860 0.98315970
vt 0.80055150 0.99199370
vt 0.72141100 0.90438660
vt 0.80055150 0.98327160
vt 0.83690520 0.99227580
vt 0.76115850 0.90432070
vt 0.83690520 0.98355360
vt 0.86774230 0.99270880
vt 0.80055150 0.90443250
vt 0.86774220 0.98398670
vt 0.89096120 0.99326320
vt 0.89096120 0.98454120
vt 0.83690520 0.90471460
vt 0.86774220 0.90514760
vt 0.89096120 0.90570210
vt 0.86774220 0.68585570
vt 0.89096120 0.68641020
vt 0.83690520 0.68542270
vt 0.86774220 0.67698570
vt 0.89096120 0.67754010
vt 0.83690510 0.67655270
vt 0.80055140 0.67627060
vt 0.80055140 0.68514060
vt 0.76115850 0.67615870
vt 0.76115850 0.68502870
vt 0.72141100 0.67622460
vt 0.72141100 0.68509470
vt 0.68401750 0.67646380
vt 0.68401750 0.68533390
vt 0.65152650 0.67686010
vt 0.50369850 0.98458470
vt 0.50369850 0.99330700
vt 0.54111160 0.99353590
vt 0.46394560 0.98452240
vt 0.46394560 0.99324460
vt 0.46394550 0.90568240
vt 0.50369850 0.90574480
vt 0.42456180 0.98463080
vt 0.42456180 0.99335290
vt 0.42456180 0.90579070
vt 0.46394560 0.68638800
vt 0.50369850 0.68645040
vt 0.38823130 0.98490250
vt 0.38823130 0.99362470
vt 0.46394550 0.67751790
vt 0.50369850 0.67758030
vt 0.42456180 0.67762630
vt 0.42456180 0.68649640
vt 0.38823130 0.67789800
vt 0.38823130 0.68676820
vt 0.35742990 0.67831470
vt 0.38823130 0.90606250
vt 0.35742990 0.68718480
vt 0.33425660 0.67884780
vt 0.33425660 0.68771790
vt 0.35742990 0.90647920
vt 0.33425660 0.90701230
vt 0.35742990 0.98531910
vt 0.00000004 0.99127670
vt 0.00000005 1.00000000
vt 0.02431080 1.00000000
vt 0.02431079 0.99127670
vt 0.05599319 1.00000000
vt 0.00000003 0.91242620
vt 0.05599319 0.99127670
vt 0.02431078 0.91242620
vt 0.00000000 0.69310250
vt 0.05599318 0.91242620
vt 0.02431075 0.69310250
vt 0.00000000 0.68423120
vt 0.05599316 0.69310250
vt 0.02431075 0.68423120
vt 0.05599316 0.68423120
vt 0.09288813 1.00000000
vt 0.09288813 0.99127670
vt 0.13248140 1.00000000
vt 0.09288812 0.91242620
vt 0.13248140 0.99127670
vt 0.17207460 1.00000000
vt 0.09288809 0.69310250
vt 0.09288809 0.68423120
vt 0.17207460 0.99127670
vt 0.20896950 1.00000000
vt 0.13248140 0.91242620
vt 0.13248140 0.69310250
vt 0.13248140 0.68423120
vt 0.20896950 0.99127670
vt 0.24065200 1.00000000
vt 0.17207460 0.91242620
vt 0.17207450 0.69310250
vt 0.17207450 0.68423120
vt 0.24065200 0.99127670
vt 0.26496270 1.00000000
vt 0.26496270 0.99127670
vt 0.20896950 0.91242620
vt 0.20896950 0.69310250
vt 0.20896950 0.68423120
vt 0.24065190 0.91242620
vt 0.26496270 0.91242620
vt 0.24065190 0.69310250
vt 0.24065190 0.68423120
vt 0.26496270 0.69310250
vt 0.26496270 0.68423120
vt 0.57363520 0.67818900
vt 0.59905290 0.68756410
vt 0.59905290 0.67869400
vt 0.57363520 0.68705920
vt 0.54111160 0.67780920
vt 0.59905290 0.90685840
vt 0.54111160 0.68667940
vt 0.57363520 0.90635360
vt 0.59905290 0.98569850
vt 0.54111160 0.90597370
vt 0.57363520 0.98519360
vt 0.59905290 0.99442060
vt 0.57363520 0.99391570
vt 0.54111160 0.98481370
vt 0.69053990 0.06359867
vt 0.68419350 0.05875308
vt 0.66423460 0.09346258
vt 0.71730230 0.03672932
vt 0.71242090 0.03041287
vt 0.67161690 0.09650676
vt 0.65390450 0.13217600
vt 0.75008050 0.01772975
vt 0.74699340 0.01037324
vt 0.66182290 0.13321100
vt 0.65390710 0.17225510
vt 0.78664040 0.00789490
vt 0.78555460 0.00000004
vt 0.66182540 0.17120990
vt 0.66424230 0.21096850
vt 0.82449070 0.00789488
vt 0.82547690 0.00000000
vt 0.67162420 0.20791410
vt 0.68420570 0.24567790
vt 0.86105190 0.01772972
vt 0.86403950 0.01037323
vt 0.69055150 0.24082220
vt 0.71243690 0.27401810
vt 0.89383240 0.03672920
vt 0.89861450 0.03041275
vt 0.71731740 0.26769150
vt 0.74701180 0.29405760
vt 0.92059840 0.06359851
vt 0.92684560 0.05875291
vt 0.75009790 0.28669090
vt 0.78557440 0.30443080
vt 0.93952570 0.09650657
vt 0.94680900 0.09346239
vt 0.78665920 0.29652570
vt 0.82549670 0.30443080
vt 0.94932440 0.13321070
vt 0.95714410 0.13217580
vt 0.82450940 0.29652570
vt 0.86405800 0.29405750
vt 0.94932690 0.17120980
vt 0.95714680 0.17225490
vt 0.86106940 0.28669090
vt 0.89863030 0.27401800
vt 0.93953290 0.20791390
vt 0.94681660 0.21096830
vt 0.89384750 0.26769130
vt 0.92685780 0.24567780
vt 0.92060990 0.24082200
vt 0.79261440 0.25312640
vt 0.81908950 0.25312640
vt 0.80584540 0.15218240
vt 0.76704100 0.24624720
vt 0.84466200 0.24624720
vt 0.74411210 0.23295770
vt 0.86758920 0.23295760
vt 0.72539020 0.21416350
vt 0.88630860 0.21416340
vt 0.71215110 0.19114540
vt 0.89954470 0.19114520
vt 0.70529720 0.16547200
vt 0.90639530 0.16547190
vt 0.70529540 0.13889290
vt 0.90639350 0.13889280
vt 0.71214600 0.11321950
vt 0.89953960 0.11321940
vt 0.72538200 0.09020136
vt 0.88630060 0.09020126
vt 0.74410150 0.07140713
vt 0.86757870 0.07140705
vt 0.76702880 0.05811753
vt 0.84464970 0.05811754
vt 0.79260130 0.05123840
vt 0.81907640 0.05123837
vt 0.01138954 0.23253870
vt 0.02584114 0.22653000
vt 0.01550847 0.18781600
vt 0.00000000 0.18986470
vt 0.03339240 0.27079980
vt 0.01550846 0.14773690
vt 0.04580227 0.26124080
vt 0.00000000 0.14568610
vt 0.06450915 0.30204080
vt 0.02584110 0.10902410
vt 0.07403157 0.28958280
vt 0.01138949 0.10301360
vt 0.10261920 0.32413260
vt 0.04580223 0.07431595
vt 0.10860520 0.30962460
vt 0.03339233 0.06475531
vt 0.14512540 0.33556960
vt 0.07403149 0.04597759
vt 0.14716720 0.32000030
vt 0.06450906 0.03351834
vt 0.18913120 0.33557250
vt 0.10860530 0.02594023
vt 0.18708940 0.32000290
vt 0.10261920 0.01143148
vt 0.23163740 0.32414090
vt 0.14716720 0.01556954
vt 0.22565130 0.30963220
vt 0.14512550 0.00000000
vt 0.26974750 0.30205410
vt 0.18708950 0.01557211
vt 0.26022500 0.28959490
vt 0.18913120 0.00000287
vt 0.30086420 0.27081720
vt 0.22565140 0.02594789
vt 0.28845430 0.26125660
vt 0.23163740 0.01143991
vt 0.32286700 0.23255890
vt 0.26022500 0.04598967
vt 0.30841540 0.22654840
vt 0.26974750 0.03353167
vt 0.33425660 0.18988640
vt 0.28845430 0.07433169
vt 0.31874810 0.18783560
vt 0.30086420 0.06477267
vt 0.33425660 0.14570780
vt 0.30841550 0.10904250
vt 0.31874810 0.14775650
vt 0.32286700 0.10303380
f 3/3/3 2/2/2 1/1/1
f 6/6/6 5/5/5 4/4/4
f 9/9/9 8/8/8 7/7/7
f 12/12/12 11/11/11 10/10/10
f 13/13/13 12/12/12 10/10/10
f 13/13/13 10/10/10 14/14/14
f 15/15/15 13/13/13 14/14/14
f 16/16/16 13/13/13 15/15/15
f 14/14/14 10/10/10 17/17/17
f 10/10/10 18/18/18 17/17/17
f 19/19/19 16/16/16 15/15/15
f 20/20/20 16/16/16 19/19/19
f 21/21/21 20/20/20 19/19/19
f 21/21/21 19/19/19 22/22/22
f 23/23/23 21/21/21 22/22/22
f 19/19/19 15/15/15 24/24/24
f 22/22/22 19/19/19 24/24/24
f 15/15/15 14/14/14 25/25/25
f 24/24/24 15/15/15 25/25/25
f 17/17/17 18/18/18 26/26/26
f 18/18/18 27/27/27 26/26/26
f 14/14/14 17/17/17 28/28/28
f 25/25/25 14/14/14 28/28/28
f 17/17/17 26/26/26 29/29/29
f 28/28/28 17/17/17 29/29/29
f 29/29/29 26/26/26 30/30/30
f 26/26/26 31/31/31 30/30/30
f 29/29/29 30/30/30 32/32/32
f 33/33/33 29/29/29 32/32/32
f 28/28/28 29/29/29 33/33/33
f 34/34/34 28/28/28 33/33/33
f 25/25/25 28/28/28 34/34/34
f 35/35/35 25/25/25 34/34/34
f 24/24/24 25/25/25 35/35/35
f 36/36/36 24/24/24 35/35/35
f 22/22/22 24/24/24 36/36/36
f 37/37/37 22/22/22 36/36/36
f 23/23/23 22/22/22 37/37/37
f 38/38/38 23/23/23 37/37/37
f 39/39/39 23/23/23 38/38/38
f 40/40/40 39/39/39 38/38/38
f 43/43/43 42/42/42 41/41/41
f 42/42/42 44/44/44 41/41/41
f 41/41/41 44/44/44 45/45/45
f 44/44/44 46/46/46 45/45/45
f 44/44/44 47/47/47 46/46/46
f 44/44/44 42/42/42 47/47/47
f 47/47/47 48/48/48 46/46/46
f 47/47/47 49/49/49 48/48/48
f 49/49/49 50/50/50 48/48/48
f 49/49/49 51/51/51 50/50/50
f 51/51/51 52/52/52 50/50/50
f 53/53/53 51/51/51 49/49/49
f 54/54/54 53/53/53 49/49/49
f 54/54/54 49/49/49 47/47/47
f 55/55/55 53/53/53 54/54/54
f 42/42/42 56/56/56 47/47/47
f 56/56/56 54/54/54 47/47/47
f 57/57/57 55/55/55 54/54/54
f 57/57/57 54/54/54 56/56/56
f 58/58/58 55/55/55 57/57/57
f 59/59/59 58/58/58 57/57/57
f 60/60/60 56/56/56 42/42/42
f 60/60/60 57/57/57 56/56/56
f 59/59/59 57/57/57 60/60/60
f 61/61/61 60/60/60 42/42/42
f 62/62/62 59/59/59 60/60/60
f 62/62/62 60/60/60 61/61/61
f 63/63/63 62/62/62 61/61/61
f 66/66/66 65/65/65 64/64/64
f 67/67/67 66/66/66 64/64/64
f 68/68/68 66/66/66 67/67/67
f 69/69/69 68/68/68 67/67/67
f 72/72/72 71/71/71 70/70/70
f 73/73/73 72/72/72 70/70/70
f 76/76/76 75/75/75 74/74/74
f 77/77/77 76/76/76 74/74/74
f 78/78/78 76/76/76 77/77/77
f 79/79/79 78/78/78 77/77/77
f 78/78/78 80/80/80 76/76/76
f 80/80/80 81/81/81 76/76/76
f 82/82/82 78/78/78 79/79/79
f 83/83/83 82/82/82 79/79/79
f 84/84/84 82/82/82 83/83/83
f 85/85/85 84/84/84 83/83/83
f 84/84/84 86/86/86 82/82/82
f 82/82/82 87/87/87 78/78/78
f 86/86/86 87/87/87 82/82/82
f 87/87/87 80/80/80 78/78/78
f 86/86/86 88/88/88 87/87/87
f 88/88/88 89/89/89 87/87/87
f 87/87/87 89/89/89 80/80/80
f 88/88/88 90/90/90 89/89/89
f 90/90/90 91/91/91 89/89/89
f 80/80/80 92/92/92 81/81/81
f 89/89/89 92/92/92 80/80/80
f 89/89/89 91/91/91 92/92/92
f 92/92/92 93/93/93 81/81/81
f 91/91/91 94/94/94 92/92/92
f 92/92/92 94/94/94 93/93/93
f 94/94/94 95/95/95 93/93/93
f 98/98/98 97/97/97 96/96/96
f 99/99/99 98/98/98 96/96/96
f 99/99/99 96/96/96 100/100/100
f 101/101/101 98/98/98 99/99/99
f 102/102/102 99/99/99 100/100/100
f 102/102/102 100/100/100 103/103/103
f 104/104/104 102/102/102 103/103/103
f 105/105/105 101/101/101 99/99/99
f 105/105/105 99/99/99 102/102/102
f 106/106/106 101/101/101 105/105/105
f 107/107/107 106/106/106 105/105/105
f 108/108/108 105/105/105 102/102/102
f 107/107/107 105/105/105 108/108/108
f 108/108/108 102/102/102 104/104/104
f 109/109/109 107/107/107 108/108/108
f 110/110/110 108/108/108 104/104/104
f 109/109/109 108/108/108 110/110/110
f 110/110/110 104/104/104 111/111/111
f 112/112/112 109/109/109 110/110/110
f 113/113/113 110/110/110 111/111/111
f 112/112/112 110/110/110 113/113/113
f 114/114/114 112/112/112 113/113/113
f 117/117/117 116/116/116 115/115/115
f 116/116/116 118/118/118 115/115/115
f 115/115/115 118/118/118 119/119/119
f 118/118/118 40/40/40 119/119/119
f 119/119/119 40/40/40 120/120/120
f 40/40/40 38/38/38 120/120/120
f 120/120/120 38/38/38 121/121/121
f 38/38/38 37/37/37 121/121/121
f 121/121/121 37/37/37 122/122/122
f 37/37/37 36/36/36 122/122/122
f 122/122/122 36/36/36 123/123/123
f 36/36/36 35/35/35 123/123/123
f 123/123/123 35/35/35 124/124/124
f 35/35/35 34/34/34 124/124/124
f 124/124/124 34/34/34 125/125/125
f 34/34/34 33/33/33 125/125/125
f 125/125/125 33/33/33 126/126/126
f 33/33/33 32/32/32 126/126/126
f 126/126/126 32/32/32 127/127/127
f 32/32/32 128/128/128 127/127/127
f 127/127/127 128/128/128 129/129/129
f 128/128/128 130/130/130 129/129/129
f 129/129/129 130/130/130 131/131/131
f 130/130/130 132/132/132 131/131/131
f 135/135/135 134/134/134 133/133/133
f 134/134/134 136/136/136 133/133/133
f 133/133/133 136/136/136 137/137/137
f 136/136/136 138/138/138 137/137/137
f 137/137/137 138/138/138 68/68/68
f 138/138/138 139/139/139 68/68/68
f 68/68/68 139/139/139 66/66/66
f 139/139/139 73/73/73 66/66/66
f 66/66/66 73/73/73 65/65/65
f 73/73/73 70/70/70 65/65/65
f 65/65/65 70/70/70 140/140/140
f 70/70/70 141/141/141 140/140/140
f 140/140/140 141/141/141 142/142/142
f 141/141/141 143/143/143 142/142/142
f 142/142/142 143/143/143 144/144/144
f 143/143/143 145/145/145 144/144/144
f 144/144/144 145/145/145 146/146/146
f 145/145/145 147/147/147 146/146/146
f 146/146/146 147/147/147 148/148/148
f 147/147/147 149/149/149 148/148/148
f 148/148/148 149/149/149 150/150/150
f 149/149/149 151/151/151 150/150/150
f 150/150/150 151/151/151 152/152/152
f 151/151/151 153/153/153 152/152/152
f 156/156/156 155/155/155 154/154/154
f 155/155/155 157/157/157 154/154/154
f 154/154/154 157/157/157 158/158/158
f 155/155/155 159/159/159 157/157/157
f 157/157/157 160/160/160 158/158/158
f 158/158/158 160/160/160 161/161/161
f 160/160/160 162/162/162 161/161/161
f 159/159/159 163/163/163 157/157/157
f 157/157/157 163/163/163 160/160/160
f 159/159/159 164/164/164 163/163/163
f 160/160/160 165/165/165 162/162/162
f 163/163/163 165/165/165 160/160/160
f 165/165/165 166/166/166 162/162/162
f 164/164/164 167/167/167 163/163/163
f 163/163/163 167/167/167 165/165/165
f 164/164/164 168/168/168 167/167/167
f 168/168/168 169/169/169 167/167/167
f 165/165/165 170/170/170 166/166/166
f 167/167/167 170/170/170 165/165/165
f 167/167/167 169/169/169 170/170/170
f 170/170/170 171/171/171 166/166/166
f 169/169/169 172/172/172 170/170/170
f 170/170/170 172/172/172 171/171/171
f 172/172/172 173/173/173 171/171/171
f 176/176/176 175/175/175 174/174/174
f 177/177/177 176/176/176 174/174/174
f 52/52/52 176/176/176 177/177/177
f 50/50/50 52/52/52 177/177/177
f 50/50/50 177/177/177 178/178/178
f 48/48/48 50/50/50 178/178/178
f 48/48/48 178/178/178 179/179/179
f 46/46/46 48/48/48 179/179/179
f 181/181/181 180/180/180 159/159/159
f 180/180/180 164/164/164 159/159/159
f 180/180/180 182/182/182 164/164/164
f 182/182/182 168/168/168 164/164/164
f 185/185/185 184/184/184 183/183/183
f 184/184/184 186/186/186 183/183/183
f 183/183/183 186/186/186 187/187/187
f 184/184/184 188/188/188 186/186/186
f 186/186/186 189/189/189 187/187/187
f 187/187/187 189/189/189 190/190/190
f 188/188/188 191/191/191 186/186/186
f 186/186/186 191/191/191 189/189/189
f 188/188/188 192/192/192 191/191/191
f 192/192/192 193/193/193 191/191/191
f 189/189/189 194/194/194 190/190/190
f 190/190/190 194/194/194 195/195/195
f 194/194/194 196/196/196 195/195/195
f 191/191/191 197/197/197 189/189/189
f 191/191/191 193/193/193 197/197/197
f 189/189/189 197/197/197 194/194/194
f 194/194/194 198/198/198 196/196/196
f 197/197/197 198/198/198 194/194/194
f 198/198/198 199/199/199 196/196/196
f 193/193/193 200/200/200 197/197/197
f 197/197/197 200/200/200 198/198/198
f 193/193/193 201/201/201 200/200/200
f 201/201/201 202/202/202 200/200/200
f 198/198/198 203/203/203 199/199/199
f 200/200/200 203/203/203 198/198/198
f 200/200/200 202/202/202 203/203/203
f 203/203/203 204/204/204 199/199/199
f 202/202/202 205/205/205 203/203/203
f 203/203/203 205/205/205 204/204/204
f 205/205/205 206/206/206 204/204/204
f 142/142/142 144/144/144 207/207/207
f 208/208/208 142/142/142 207/207/207
f 140/140/140 142/142/142 208/208/208
f 209/209/209 140/140/140 208/208/208
f 211/211/211 210/210/210 145/145/145
f 143/143/143 211/211/211 145/145/145
f 214/214/214 213/213/213 212/212/212
f 213/213/213 215/215/215 212/212/212
f 212/212/212 215/215/215 216/216/216
f 213/213/213 217/217/217 215/215/215
f 215/215/215 218/218/218 216/216/216
f 216/216/216 218/218/218 219/219/219
f 218/218/218 220/220/220 219/219/219
f 217/217/217 221/221/221 215/215/215
f 215/215/215 221/221/221 218/218/218
f 217/217/217 222/222/222 221/221/221
f 221/221/221 223/223/223 218/218/218
f 218/218/218 223/223/223 220/220/220
f 222/222/222 224/224/224 221/221/221
f 221/221/221 224/224/224 223/223/223
f 222/222/222 225/225/225 224/224/224
f 225/225/225 226/226/226 224/224/224
f 224/224/224 226/226/226 227/227/227
f 224/224/224 227/227/227 223/223/223
f 226/226/226 228/228/228 227/227/227
f 223/223/223 229/229/229 220/220/220
f 223/223/223 227/227/227 229/229/229
f 227/227/227 228/228/228 230/230/230
f 227/227/227 230/230/230 229/229/229
f 228/228/228 231/231/231 230/230/230
f 231/231/231 232/232/232 230/230/230
f 232/232/232 233/233/233 230/230/230
f 230/230/230 233/233/233 229/229/229
f 233/233/233 234/234/234 229/229/229
f 229/229/229 234/234/234 220/220/220
f 234/234/234 235/235/235 220/220/220
f 225/225/225 236/236/236 226/226/226
f 236/236/236 237/237/237 226/226/226
f 226/226/226 237/237/237 228/228/228
f 236/236/236 238/238/238 237/237/237
f 237/237/237 239/239/239 228/228/228
f 228/228/228 239/239/239 231/231/231
f 238/238/238 240/240/240 237/237/237
f 237/237/237 240/240/240 239/239/239
f 238/238/238 241/241/241 240/240/240
f 241/241/241 242/242/242 240/240/240
f 241/241/241 243/243/243 242/242/242
f 243/243/243 244/244/244 242/242/242
f 240/240/240 245/245/245 239/239/239
f 240/240/240 242/242/242 245/245/245
f 242/242/242 244/244/244 246/246/246
f 242/242/242 246/246/246 245/245/245
f 244/244/244 247/247/247 246/246/246
f 239/239/239 248/248/248 231/231/231
f 239/239/239 245/245/245 248/248/248
f 245/245/245 246/246/246 249/249/249
f 245/245/245 249/249/249 248/248/248
f 246/246/246 247/247/247 250/250/250
f 246/246/246 250/250/250 249/249/249
f 247/247/247 251/251/251 250/250/250
f 250/250/250 252/252/252 249/249/249
f 252/252/252 253/253/253 249/249/249
f 249/249/249 253/253/253 248/248/248
f 253/253/253 254/254/254 248/248/248
f 248/248/248 254/254/254 231/231/231
f 254/254/254 232/232/232 231/231/231
f 257/257/257 256/256/256 255/255/255
f 256/256/256 258/258/258 255/255/255
f 256/256/256 259/259/259 258/258/258
f 255/255/255 258/258/258 260/260/260
f 259/259/259 261/261/261 258/258/258
f 258/258/258 262/262/262 260/260/260
f 258/258/258 261/261/261 262/262/262
f 260/260/260 262/262/262 263/263/263
f 261/261/261 264/264/264 262/262/262
f 262/262/262 265/265/265 263/263/263
f 262/262/262 264/264/264 265/265/265
f 264/264/264 266/266/266 265/265/265
f 266/266/266 267/267/267 265/265/265
f 267/267/267 268/268/268 265/265/265
f 259/259/259 269/269/269 261/261/261
f 269/269/269 270/270/270 261/261/261
f 261/261/261 270/270/270 264/264/264
f 269/269/269 271/271/271 270/270/270
f 270/270/270 272/272/272 264/264/264
f 264/264/264 272/272/272 266/266/266
f 271/271/271 273/273/273 270/270/270
f 270/270/270 273/273/273 272/272/272
f 271/271/271 274/274/274 273/273/273
f 274/274/274 275/275/275 273/273/273
f 274/274/274 276/276/276 275/275/275
f 273/273/273 277/277/277 272/272/272
f 273/273/273 275/275/275 277/277/277
f 272/272/272 278/278/278 266/266/266
f 272/272/272 277/277/277 278/278/278
f 276/276/276 279/279/279 275/275/275
f 276/276/276 280/280/280 279/279/279
f 280/280/280 281/281/281 279/279/279
f 280/280/280 282/282/282 281/281/281
f 275/275/275 279/279/279 283/283/283
f 275/275/275 283/283/283 277/277/277
f 279/279/279 284/284/284 283/283/283
f 278/278/278 285/285/285 266/266/266
f 285/285/285 267/267/267 266/266/266
f 286/286/286 285/285/285 278/278/278
f 277/277/277 287/287/287 278/278/278
f 287/287/287 286/286/286 278/278/278
f 277/277/277 283/283/283 287/287/287
f 2/2/2 286/286/286 287/287/287
f 1/1/1 2/2/2 287/287/287
f 283/283/283 1/1/1 287/287/287
f 283/283/283 284/284/284 1/1/1
f 284/284/284 288/288/288 1/1/1
f 288/288/288 3/3/3 1/1/1
f 289/289/289 3/3/3 288/288/288
f 282/282/282 290/290/290 281/281/281
f 281/281/281 290/290/290 291/291/291
f 290/290/290 292/292/292 291/291/291
f 281/281/281 291/291/291 284/284/284
f 279/279/279 281/281/281 284/284/284
f 284/284/284 291/291/291 288/288/288
f 291/291/291 292/292/292 293/293/293
f 291/291/291 293/293/293 288/288/288
f 292/292/292 294/294/294 293/293/293
f 293/293/293 289/289/289 288/288/288
f 294/294/294 295/295/295 293/293/293
f 295/295/295 289/289/289 293/293/293
f 298/298/298 297/297/297 296/296/296
f 297/297/297 299/299/299 296/296/296
f 296/296/296 299/299/299 300/300/300
f 297/297/297 301/301/301 299/299/299
f 299/299/299 302/302/302 300/300/300
f 300/300/300 302/302/302 303/303/303
f 301/301/301 304/304/304 299/299/299
f 299/299/299 304/304/304 302/302/302
f 301/301/301 305/305/305 304/304/304
f 305/305/305 306/306/306 304/304/304
f 305/305/305 307/307/307 306/306/306
f 304/304/304 308/308/308 302/302/302
f 304/304/304 306/306/306 308/308/308
f 302/302/302 309/309/309 303/303/303
f 302/302/302 308/308/308 309/309/309
f 307/307/307 310/310/310 306/306/306
f 307/307/307 311/311/311 310/310/310
f 309/309/309 312/312/312 303/303/303
f 312/312/312 313/313/313 303/303/303
f 5/5/5 312/312/312 309/309/309
f 4/4/4 5/5/5 309/309/309
f 308/308/308 4/4/4 309/309/309
f 306/306/306 314/314/314 308/308/308
f 308/308/308 314/314/314 4/4/4
f 306/306/306 310/310/310 314/314/314
f 311/311/311 315/315/315 310/310/310
f 311/311/311 316/316/316 315/315/315
f 316/316/316 317/317/317 315/315/315
f 315/315/315 317/317/317 318/318/318
f 310/310/310 315/315/315 319/319/319
f 310/310/310 319/319/319 314/314/314
f 315/315/315 318/318/318 319/319/319
f 314/314/314 320/320/320 4/4/4
f 314/314/314 319/319/319 320/320/320
f 320/320/320 6/6/6 4/4/4
f 321/321/321 6/6/6 320/320/320
f 322/322/322 321/321/321 320/320/320
f 319/319/319 322/322/322 320/320/320
f 319/319/319 318/318/318 322/322/322
f 318/318/318 323/323/323 322/322/322
f 326/326/326 325/325/325 324/324/324
f 324/324/324 327/327/327 326/326/326
f 327/327/327 328/328/328 326/326/326
f 327/327/327 329/329/329 328/328/328
f 329/329/329 330/330/330 328/328/328
f 329/329/329 331/331/331 330/330/330
f 331/331/331 332/332/332 330/330/330
f 331/331/331 333/333/333 332/332/332
f 333/333/333 334/334/334 332/332/332
f 333/333/333 335/335/335 334/334/334
f 335/335/335 336/336/336 334/334/334
f 335/335/335 337/337/337 336/336/336
f 337/337/337 338/338/338 336/336/336
f 337/337/337 339/339/339 338/338/338
f 339/339/339 340/340/340 338/338/338
f 339/339/339 341/341/341 340/340/340
f 341/341/341 342/342/342 340/340/340
f 341/341/341 343/343/343 342/342/342
f 343/343/343 344/344/344 342/342/342
f 343/343/343 345/345/345 344/344/344
f 345/345/345 346/346/346 344/344/344
f 345/345/345 347/347/347 346/346/346
f 316/316/316 348/348/348 317/317/317
f 348/348/348 349/349/349 317/317/317
f 348/348/348 350/350/350 349/349/349
f 350/350/350 351/351/351 349/349/349
f 317/317/317 349/349/349 352/352/352
f 317/317/317 352/352/352 318/318/318
f 318/318/318 352/352/352 323/323/323
f 349/349/349 351/351/351 353/353/353
f 349/349/349 353/353/353 352/352/352
f 351/351/351 354/354/354 353/353/353
f 352/352/352 353/353/353 355/355/355
f 352/352/352 355/355/355 323/323/323
f 353/353/353 354/354/354 356/356/356
f 353/353/353 356/356/356 355/355/355
f 354/354/354 357/357/357 356/356/356
f 356/356/356 358/358/358 355/355/355
f 358/358/358 359/359/359 355/355/355
f 355/355/355 359/359/359 323/323/323
f 359/359/359 360/360/360 323/323/323
f 323/323/323 360/360/360 322/322/322
f 360/360/360 321/321/321 322/322/322
f 339/339/339 337/337/337 361/361/361
f 362/362/362 339/339/339 361/361/361
f 341/341/341 339/339/339 362/362/362
f 363/363/363 341/341/341 362/362/362
f 365/365/365 324/324/324 364/364/364
f 324/324/324 325/325/325 364/364/364
f 364/364/364 325/325/325 366/366/366
f 325/325/325 326/326/326 366/366/366
f 369/369/369 368/368/368 367/367/367
f 370/370/370 369/369/369 367/367/367
f 371/371/371 369/369/369 370/370/370
f 370/370/370 367/367/367 372/372/372
f 373/373/373 371/371/371 370/370/370
f 374/374/374 370/370/370 372/372/372
f 373/373/373 370/370/370 374/374/374
f 375/375/375 373/373/373 374/374/374
f 374/374/374 372/372/372 376/376/376
f 377/377/377 374/374/374 376/376/376
f 377/377/377 376/376/376 378/378/378
f 379/379/379 371/371/371 373/373/373
f 380/380/380 379/379/379 373/373/373
f 381/381/381 379/379/379 380/380/380
f 380/380/380 373/373/373 375/375/375
f 382/382/382 381/381/381 380/380/380
f 383/383/383 381/381/381 382/382/382
f 384/384/384 380/380/380 375/375/375
f 382/382/382 380/380/380 384/384/384
f 385/385/385 383/383/383 382/382/382
f 386/386/386 383/383/383 385/385/385
f 387/387/387 382/382/382 384/384/384
f 385/385/385 382/382/382 387/387/387
f 388/388/388 386/386/386 385/385/385
f 389/389/389 386/386/386 388/388/388
f 390/390/390 385/385/385 387/387/387
f 388/388/388 385/385/385 390/390/390
f 391/391/391 389/389/389 388/388/388
f 392/392/392 389/389/389 391/391/391
f 393/393/393 392/392/392 391/391/391
f 391/391/391 388/388/388 394/394/394
f 394/394/394 388/388/388 390/390/390
f 393/393/393 391/391/391 395/395/395
f 395/395/395 391/391/391 394/394/394
f 396/396/396 393/393/393 395/395/395
f 396/396/396 395/395/395 397/397/397
f 398/398/398 396/396/396 397/397/397
f 395/395/395 394/394/394 399/399/399
f 397/397/397 395/395/395 399/399/399
f 398/398/398 397/397/397 400/400/400
f 401/401/401 398/398/398 400/400/400
f 400/400/400 397/397/397 402/402/402
f 397/397/397 399/399/399 402/402/402
f 402/402/402 399/399/399 403/403/403
f 399/399/399 394/394/394 404/404/404
f 399/399/399 404/404/404 403/403/403
f 394/394/394 390/390/390 404/404/404
f 403/403/403 404/404/404 405/405/405
f 404/404/404 390/390/390 406/406/406
f 404/404/404 406/406/406 405/405/405
f 390/390/390 387/387/387 406/406/406
f 405/405/405 406/406/406 407/407/407
f 406/406/406 387/387/387 408/408/408
f 406/406/406 408/408/408 407/407/407
f 387/387/387 384/384/384 408/408/408
f 407/407/407 408/408/408 409/409/409
f 408/408/408 384/384/384 410/410/410
f 408/408/408 410/410/410 409/409/409
f 384/384/384 375/375/375 410/410/410
f 409/409/409 410/410/410 411/411/411
f 410/410/410 375/375/375 377/377/377
f 410/410/410 377/377/377 411/411/411
f 375/375/375 374/374/374 377/377/377
f 411/411/411 377/377/377 378/378/378
f 414/414/414 413/413/413 412/412/412
f 412/412/412 413/413/413 415/415/415
f 413/413/413 416/416/416 415/415/415
f 412/412/412 415/415/415 417/417/417
f 418/418/418 412/412/412 417/417/417
f 415/415/415 416/416/416 419/419/419
f 416/416/416 420/420/420 419/419/419
f 417/417/417 415/415/415 421/421/421
f 415/415/415 419/419/419 421/421/421
f 418/418/418 417/417/417 422/422/422
f 423/423/423 418/418/418 422/422/422
f 419/419/419 420/420/420 424/424/424
f 420/420/420 425/425/425 424/424/424
f 423/423/423 422/422/422 426/426/426
f 427/427/427 423/423/423 426/426/426
f 426/426/426 422/422/422 428/428/428
f 422/422/422 417/417/417 429/429/429
f 422/422/422 429/429/429 428/428/428
f 417/417/417 421/421/421 429/429/429
f 428/428/428 429/429/429 430/430/430
f 429/429/429 431/431/431 430/430/430
f 429/429/429 421/421/421 431/431/431
f 430/430/430 431/431/431 432/432/432
f 421/421/421 419/419/419 433/433/433
f 421/421/421 433/433/433 431/431/431
f 419/419/419 424/424/424 433/433/433
f 431/431/431 434/434/434 432/432/432
f 431/431/431 433/433/433 434/434/434
f 432/432/432 434/434/434 435/435/435
f 434/434/434 436/436/436 435/435/435
f 433/433/433 437/437/437 434/434/434
f 434/434/434 437/437/437 436/436/436
f 433/433/433 424/424/424 437/437/437
f 437/437/437 438/438/438 436/436/436
f 424/424/424 439/439/439 437/437/437
f 437/437/437 439/439/439 438/438/438
f 424/424/424 425/425/425 439/439/439
f 439/439/439 7/7/7 438/438/438
f 425/425/425 9/9/9 439/439/439
f 439/439/439 9/9/9 7/7/7
f 442/442/442 441/441/441 440/440/440
f 443/443/443 442/442/442 440/440/440
f 444/444/444 442/442/442 443/443/443
f 443/443/443 440/440/440 445/445/445
f 446/446/446 444/444/444 443/443/443
f 447/447/447 443/443/443 445/445/445
f 446/446/446 443/443/443 447/447/447
f 447/447/447 445/445/445 448/448/448
f 449/449/449 446/446/446 447/447/447
f 450/450/450 447/447/447 448/448/448
f 449/449/449 447/447/447 450/450/450
f 450/450/450 448/448/448 451/451/451
f 452/452/452 449/449/449 450/450/450
f 453/453/453 450/450/450 451/451/451
f 452/452/452 450/450/450 453/453/453
f 454/454/454 452/452/452 453/453/453
f 455/455/455 444/444/444 446/446/446
f 456/456/456 455/455/455 446/446/446
f 456/456/456 446/446/446 449/449/449
f 457/457/457 455/455/455 456/456/456
f 458/458/458 456/456/456 449/449/449
f 458/458/458 449/449/449 452/452/452
f 459/459/459 457/457/457 456/456/456
f 459/459/459 456/456/456 458/458/458
f 460/460/460 457/457/457 459/459/459
f 461/461/461 458/458/458 452/452/452
f 461/461/461 452/452/452 454/454/454
f 462/462/462 461/461/461 454/454/454
f 463/463/463 460/460/460 459/459/459
f 464/464/464 460/460/460 463/463/463
f 465/465/465 459/459/459 458/458/458
f 465/465/465 458/458/458 461/461/461
f 463/463/463 459/459/459 465/465/465
f 466/466/466 461/461/461 462/462/462
f 466/466/466 465/465/465 461/461/461
f 467/467/467 466/466/466 462/462/462
f 468/468/468 464/464/464 463/463/463
f 469/469/469 464/464/464 468/468/468
f 470/470/470 463/463/463 465/465/465
f 470/470/470 465/465/465 466/466/466
f 468/468/468 463/463/463 470/470/470
f 471/471/471 466/466/466 467/467/467
f 471/471/471 470/470/470 466/466/466
f 472/472/472 471/471/471 467/467/467
f 473/473/473 469/469/469 468/468/468
f 474/474/474 469/469/469 473/473/473
f 475/475/475 474/474/474 473/473/473
f 476/476/476 468/468/468 470/470/470
f 476/476/476 470/470/470 471/471/471
f 473/473/473 468/468/468 476/476/476
f 477/477/477 471/471/471 472/472/472
f 477/477/477 476/476/476 471/471/471
f 478/478/478 477/477/477 472/472/472
f 475/475/475 473/473/473 479/479/479
f 479/479/479 473/473/473 476/476/476
f 479/479/479 476/476/476 477/477/477
f 480/480/480 475/475/475 479/479/479
f 481/481/481 477/477/477 478/478/478
f 481/481/481 479/479/479 477/477/477
f 480/480/480 479/479/479 481/481/481
f 482/482/482 481/481/481 478/478/478
f 483/483/483 480/480/480 481/481/481
f 483/483/483 481/481/481 482/482/482
f 484/484/484 483/483/483 482/482/482
f 487/487/487 486/486/486 485/485/485
f 486/486/486 488/488/488 485/485/485
f 485/485/485 488/488/488 489/489/489
f 486/486/486 490/490/490 488/488/488
f 488/488/488 491/491/491 489/489/489
f 489/489/489 491/491/491 427/427/427
f 491/491/491 423/423/423 427/427/427
f 490/490/490 492/492/492 488/488/488
f 488/488/488 492/492/492 491/491/491
f 490/490/490 493/493/493 492/492/492
f 491/491/491 494/494/494 423/423/423
f 492/492/492 494/494/494 491/491/491
f 494/494/494 418/418/418 423/423/423
f 493/493/493 495/495/495 492/492/492
f 492/492/492 495/495/495 494/494/494
f 493/493/493 496/496/496 495/495/495
f 496/496/496 497/497/497 495/495/495
f 494/494/494 498/498/498 418/418/418
f 495/495/495 498/498/498 494/494/494
f 495/495/495 497/497/497 498/498/498
f 498/498/498 412/412/412 418/418/418
f 497/497/497 414/414/414 498/498/498
f 498/498/498 414/414/414 412/412/412
f 501/501/501 500/500/500 499/499/499
f 499/499/499 500/500/500 502/502/502
f 500/500/500 503/503/503 502/502/502
f 504/504/504 501/501/501 499/499/499
f 505/505/505 501/501/501 504/504/504
f 502/502/502 503/503/503 506/506/506
f 503/503/503 507/507/507 506/506/506
f 508/508/508 505/505/505 504/504/504
f 509/509/509 505/505/505 508/508/508
f 506/506/506 507/507/507 510/510/510
f 507/507/507 511/511/511 510/510/510
f 512/512/512 509/509/509 508/508/508
f 513/513/513 509/509/509 512/512/512
f 510/510/510 511/511/511 514/514/514
f 511/511/511 515/515/515 514/514/514
f 516/516/516 513/513/513 512/512/512
f 517/517/517 513/513/513 516/516/516
f 514/514/514 515/515/515 518/518/518
f 515/515/515 519/519/519 518/518/518
f 520/520/520 517/517/517 516/516/516
f 521/521/521 517/517/517 520/520/520
f 518/518/518 519/519/519 522/522/522
f 519/519/519 523/523/523 522/522/522
f 524/524/524 521/521/521 520/520/520
f 525/525/525 521/521/521 524/524/524
f 522/522/522 523/523/523 526/526/526
f 523/523/523 527/527/527 526/526/526
f 528/528/528 525/525/525 524/524/524
f 529/529/529 525/525/525 528/528/528
f 526/526/526 527/527/527 530/530/530
f 527/527/527 531/531/531 530/530/530
f 532/532/532 529/529/529 528/528/528
f 533/533/533 529/529/529 532/532/532
f 530/530/530 531/531/531 534/534/534
f 531/531/531 535/535/535 534/534/534
f 536/536/536 533/533/533 532/532/532
f 537/537/537 533/533/533 536/536/536
f 534/534/534 535/535/535 538/538/538
f 535/535/535 539/539/539 538/538/538
f 540/540/540 537/537/537 536/536/536
f 541/541/541 537/537/537 540/540/540
f 538/538/538 539/539/539 542/542/542
f 539/539/539 543/543/543 542/542/542
f 544/544/544 541/541/541 540/540/540
f 545/545/545 541/541/541 544/544/544
f 543/543/543 545/545/545 546/546/546
f 542/542/542 543/543/543 546/546/546
f 546/546/546 545/545/545 544/544/544
f 536/536/536 532/532/532 547/547/547
f 540/540/540 536/536/536 548/548/548
f 548/548/548 536/536/536 547/547/547
f 548/548/548 547/547/547 549/549/549
f 547/547/547 532/532/532 550/550/550
f 547/547/547 550/550/550 549/549/549
f 532/532/532 528/528/528 550/550/550
f 551/551/551 540/540/540 548/548/548
f 544/544/544 540/540/540 551/551/551
f 551/551/551 548/548/548 549/549/549
f 550/550/550 528/528/528 552/552/552
f 549/549/549 550/550/550 552/552/552
f 528/528/528 524/524/524 552/552/552
f 553/553/553 544/544/544 551/551/551
f 546/546/546 544/544/544 553/553/553
f 553/553/553 551/551/551 549/549/549
f 552/552/552 524/524/524 554/554/554
f 554/554/554 549/549/549 552/552/552
f 524/524/524 520/520/520 554/554/554
f 555/555/555 546/546/546 553/553/553
f 555/555/555 553/553/553 549/549/549
f 549/549/549 554/554/554 556/556/556
f 554/554/554 520/520/520 556/556/556
f 557/557/557 555/555/555 549/549/549
f 542/542/542 546/546/546 555/555/555
f 557/557/557 542/542/542 555/555/555
f 520/520/520 516/516/516 556/556/556
f 538/538/538 542/542/542 557/557/557
f 556/556/556 516/516/516 558/558/558
f 558/558/558 549/549/549 556/556/556
f 516/516/516 512/512/512 558/558/558
f 559/559/559 538/538/538 557/557/557
f 557/557/557 549/549/549 559/559/559
f 534/534/534 538/538/538 559/559/559
f 558/558/558 512/512/512 560/560/560
f 558/558/558 560/560/560 549/549/549
f 512/512/512 508/508/508 560/560/560
f 561/561/561 534/534/534 559/559/559
f 549/549/549 561/561/561 559/559/559
f 530/530/530 534/534/534 561/561/561
f 560/560/560 508/508/508 562/562/562
f 560/560/560 562/562/562 549/549/549
f 508/508/508 504/504/504 562/562/562
f 561/561/561 549/549/549 563/563/563
f 563/563/563 530/530/530 561/561/561
f 549/549/549 562/562/562 564/564/564
f 562/562/562 504/504/504 564/564/564
f 549/549/549 565/565/565 563/563/563
f 526/526/526 530/530/530 563/563/563
f 565/565/565 526/526/526 563/563/563
f 504/504/504 499/499/499 564/564/564
f 522/522/522 526/526/526 565/565/565
f 564/564/564 499/499/499 566/566/566
f 566/566/566 549/549/549 564/564/564
f 499/499/499 502/502/502 566/566/566
f 567/567/567 522/522/522 565/565/565
f 565/565/565 549/549/549 567/567/567
f 518/518/518 522/522/522 567/567/567
f 566/566/566 502/502/502 568/568/568
f 566/566/566 568/568/568 549/549/549
f 502/502/502 506/506/506 568/568/568
f 569/569/569 518/518/518 567/567/567
f 549/549/549 569/569/569 567/567/567
f 514/514/514 518/518/518 569/569/569
f 568/568/568 506/506/506 570/570/570
f 568/568/568 570/570/570 549/549/549
f 506/506/506 510/510/510 570/570/570
f 571/571/571 569/569/569 549/549/549
f 571/571/571 514/514/514 569/569/569
f 570/570/570 571/571/571 549/549/549
f 510/510/510 514/514/514 571/571/571
f 570/570/570 510/510/510 571/571/571
f 574/574/574 573/573/573 572/572/572
f 575/575/575 574/574/574 572/572/572
f 572/572/572 573/573/573 576/576/576
f 577/577/577 574/574/574 575/575/575
f 573/573/573 578/578/578 576/576/576
f 579/579/579 577/577/577 575/575/575
f 576/576/576 578/578/578 580/580/580
f 581/581/581 577/577/577 579/579/579
f 578/578/578 582/582/582 580/580/580
f 583/583/583 581/581/581 579/579/579
f 580/580/580 582/582/582 584/584/584
f 585/585/585 581/581/581 583/583/583
f 582/582/582 586/586/586 584/584/584
f 587/587/587 585/585/585 583/583/583
f 584/584/584 586/586/586 588/588/588
f 589/589/589 585/585/585 587/587/587
f 586/586/586 590/590/590 588/588/588
f 591/591/591 589/589/589 587/587/587
f 588/588/588 590/590/590 592/592/592
f 593/593/593 589/589/589 591/591/591
f 590/590/590 594/594/594 592/592/592
f 595/595/595 593/593/593 591/591/591
f 592/592/592 594/594/594 596/596/596
f 597/597/597 593/593/593 595/595/595
f 594/594/594 598/598/598 596/596/596
f 599/599/599 597/597/597 595/595/595
f 596/596/596 598/598/598 600/600/600
f 601/601/601 597/597/597 599/599/599
f 598/598/598 602/602/602 600/600/600
f 603/603/603 601/601/601 599/599/599
f 600/600/600 602/602/602 604/604/604
f 605/605/605 601/601/601 603/603/603
f 602/602/602 606/606/606 604/604/604
f 607/607/607 605/605/605 603/603/603
f 604/604/604 606/606/606 608/608/608
f 609/609/609 605/605/605 607/607/607
f 606/606/606 610/610/610 608/608/608
f 611/611/611 609/609/609 607/607/607
f 608/608/608 610/610/610 612/612/612
f 613/613/613 609/609/609 611/611/611
f 610/610/610 614/614/614 612/612/612
f 615/615/615 613/613/613 611/611/611
f 612/612/612 614/614/614 616/616/616
f 617/617/617 613/613/613 615/615/615
f 614/614/614 618/618/618 616/616/616
f 619/619/619 617/617/617 615/615/615
f 616/616/616 618/618/618 619/619/619
f 618/618/618 617/617/617 619/619/619

