# Blender 4.0.0
# www.blender.org
o decimated_mesh
v 0.062698 0.094913 0.010543
v 0.071186 0.071525 0.010547
v 0.068649 0.091111 0.010446
v 0.062691 0.093440 0.010497
v 0.069930 0.071525 0.010456
v 0.062713 0.096499 0.010073
v 0.065895 0.071446 -0.000139
v 0.076182 0.071462 -0.000027
v 0.071141 0.083461 0.010541
v 0.069370 0.091605 0.010131
v 0.062690 0.091954 0.010162
v 0.069142 0.071525 0.010206
v 0.066733 0.071523 0.006292
v 0.075307 0.071522 0.006186
v 0.073089 0.071528 0.010171
v 0.072113 0.084241 0.010214
v 0.070721 0.093112 0.007022
v 0.064483 0.095507 0.010190
v 0.062691 0.087351 0.000009
v 0.062813 0.088801 -0.006596
v 0.062691 0.088518 0.005649
v 0.072767 0.083678 0.009579
v 0.071701 0.092247 0.006168
v 0.064382 0.096650 0.008895
v 0.064939 0.097968 0.006323
v 0.062701 0.099223 0.000166
v 0.062807 0.092352 -0.010378
v 0.074426 0.084985 0.006315
v 0.070744 0.093766 0.005563
v 0.063652 0.098437 0.005649
v 0.062692 0.098452 0.006274
v 0.066756 0.071444 -0.006348
v 0.062844 0.098606 -0.005549
v 0.062813 0.098141 -0.006963
v 0.062814 0.096464 -0.010084
v 0.071185 0.071444 -0.010545
v 0.069930 0.071444 -0.010457
v 0.069139 0.071444 -0.010207
v 0.075646 0.084191 -0.000008
v 0.074922 0.083399 0.005649
v 0.074572 0.083399 0.006721
v 0.071877 0.093803 0.000009
v 0.066852 0.096625 0.006349
v 0.064917 0.098847 0.000022
v 0.062820 0.094868 -0.010536
v 0.068619 0.091013 -0.010466
v 0.071143 0.083375 -0.010543
v 0.073099 0.071447 -0.010159
v 0.075283 0.071444 -0.006239
v 0.064953 0.097964 -0.006290
v 0.064152 0.096369 -0.009461
v 0.064533 0.095447 -0.010211
v 0.069376 0.091599 -0.010128
v 0.074415 0.085016 -0.006307
v 0.074923 0.083399 -0.005650
v 0.074570 0.083399 -0.006722
v 0.066522 0.098039 0.000009
v 0.072117 0.084254 -0.010199
v 0.070722 0.093058 -0.007088
v 0.070681 0.093813 -0.005612
v 0.071680 0.092560 -0.005557
v 0.066852 0.096625 -0.006348
v 0.072810 0.083561 -0.009555
v 0.071856 0.091666 -0.006352
vn 0.9903 0.0415 0.1326
vn 0.7914 0.3077 0.5283
vn -0.5737 -0.1795 0.7992
vn -0.8231 -0.2534 -0.5082
vn -0.8226 -0.2587 0.5064
vn 0.2498 0.0934 0.9638
vn 0.5231 0.6753 -0.5200
vn -0.9786 -0.1965 -0.0611
vn -0.9768 0.2091 -0.0470
vn 0.7185 0.0529 0.6935
vn 0.0240 0.0180 -0.9995
vn 0.5502 0.6470 0.5278
vn -0.3005 -0.1010 0.9484
vn 0.9903 0.0419 -0.1327
vn 0.7602 0.5883 0.2757
vn 0.5665 0.8102 -0.1507
vn -0.1892 -0.0608 -0.9801
vn 0.8733 0.0322 0.4860
vn -0.9538 -0.2197 -0.2048
vn 0.1981 0.0009 -0.9802
vn 0.0902 0.2720 -0.9581
vn 0.9596 0.2345 0.1556
vn 0.9587 0.2378 -0.1562
vn 0.2859 0.8250 -0.4874
vn 0.8081 0.4722 -0.3520
vn 0.3509 0.6742 -0.6499
vn 0.3199 0.1285 -0.9387
vn -1.0000 0.0009 0.0010
vn 0.1786 0.8755 0.4491
vn 0.8363 0.2066 0.5079
vn 0.6008 0.7259 0.3348
vn 0.1321 0.1818 0.9744
vn 0.9496 0.0449 0.3103
vn 0.7076 0.0520 -0.7047
vn 0.7937 0.3026 -0.5278
vn 0.7563 0.5907 -0.2811
vn 0.8497 0.0464 -0.5252
vn 0.4931 0.7207 -0.4872
vn 0.9896 0.0384 0.1390
vn -0.0036 -0.0311 0.9995
vn -0.0122 -0.0059 0.9999
vn -0.0721 0.0002 0.9974
vn 0.0155 0.0175 0.9997
vn 0.1749 0.9340 -0.3114
vn 0.2672 0.8327 0.4850
vn 0.7743 0.3679 0.5150
vn 0.7990 0.3035 0.5191
vn 0.7870 0.3193 0.5279
vn 0.2254 0.2680 0.9367
vn -0.9604 -0.2220 0.1686
vn -0.9659 -0.2248 0.1285
vn 0.3206 0.1300 0.9382
vn 0.5269 0.6514 -0.5459
vn 0.5442 0.6535 -0.5261
vn -0.0022 1.0000 -0.0027
vn -0.0000 1.0000 -0.0006
vn 0.0002 1.0000 -0.0008
vn -0.0001 0.9999 -0.0119
vn -0.0014 0.9999 -0.0100
vn -0.0000 -1.0000 0.0004
vn -0.0000 1.0000 -0.0000
vn 0.0023 -1.0000 -0.0022
vn 0.0015 -1.0000 0.0027
vn 0.9268 0.3505 0.1347
vn 0.9246 0.3623 0.1179
vn 0.9489 0.0440 -0.3124
vn -0.0706 -0.0001 -0.9975
vn -0.0095 -0.0063 -0.9999
vn 0.5666 0.8101 0.1510
vn 0.6045 0.7836 0.1432
vn 0.6150 0.7776 0.1306
vn 0.3600 0.7134 0.6012
vn 0.5271 0.6518 0.5452
vn 0.5231 0.6757 0.5194
vn 0.5001 0.7217 0.4785
vn 0.2162 0.8601 -0.4620
vn 0.8358 0.2103 -0.5072
vn 0.9890 0.0369 -0.1432
vn 0.5971 0.7208 -0.3520
vn 0.6151 0.7777 -0.1295
vn 0.6036 0.7843 -0.1430
vn 0.3158 0.0212 -0.9486
vn 0.8467 0.0483 0.5299
vn 0.1935 0.0012 0.9811
vn -0.9659 -0.2214 -0.1340
vn 0.0972 0.9874 0.1248
vn 0.1736 0.9786 0.1103
vn 0.1603 0.9818 -0.1020
vn 0.1963 0.9402 0.2785
vn -0.2997 -0.0985 -0.9489
vn 0.1271 0.1734 -0.9766
vn 0.8029 0.5721 0.1675
vn 0.2208 0.2577 -0.9407
vn 0.4455 0.8870 -0.1214
vn 0.9376 0.1643 0.3064
vn 0.2550 0.0939 -0.9624
vn -0.9794 -0.1976 0.0409
vn 1.0000 -0.0001 -0.0016
vn 0.9998 -0.0010 0.0181
vn 0.9999 0.0006 0.0156
vn 1.0000 -0.0008 0.0002
vn 1.0000 -0.0001 0.0004
vn -1.0000 0.0046 0.0053
vn -0.9999 0.0124 0.0118
vn 1.0000 -0.0001 0.0014
vn 1.0000 0.0041 -0.0017
vn 1.0000 -0.0048 0.0065
vn 0.9362 0.1689 -0.3082
vn 0.3047 0.0202 0.9522
vn 0.4471 0.8861 0.1219
vn 0.2456 0.9602 -0.1328
vn 0.0948 0.2822 0.9547
vn 0.2775 0.9517 0.1317
vn 0.9249 0.3629 -0.1137
vn 0.9271 0.3496 -0.1354
vn 0.9163 0.3513 -0.1921
vn 0.7748 0.6106 -0.1638
vn 0.7770 0.3598 -0.5166
vn 0.7939 0.3019 -0.5278
vn 0.7945 0.3016 -0.5271
vn 0.8731 0.0324 -0.4865
vn 0.0006 1.0000 -0.0077
vn -0.0015 1.0000 -0.0067
vn -0.0031 1.0000 -0.0075
vn 0.0008 0.0005 1.0000
vn -0.0721 -0.0260 0.9971
vn 0.0027 1.0000 -0.0085
vn -0.0870 -0.0306 0.9957
vn 0.0233 0.9996 -0.0150
vn -0.0198 0.9997 -0.0126
vn 0.0307 0.0225 0.9993
vn 1.0000 0.0007 -0.0001
vn 1.0000 -0.0002 0.0003
vn 1.0000 -0.0008 0.0014
vn 0.9999 -0.0009 0.0107
vn 0.9993 0.0276 0.0244
vn 0.7946 0.3039 0.5256
vn 0.7844 0.2983 0.5439
vn 0.5262 0.6577 0.5391
vn 0.9999 -0.0026 0.0117
vn 0.9997 -0.0036 0.0255
vn -0.0706 -0.0248 -0.9972
vn -0.0006 0.0002 -1.0000
vn 0.9990 -0.0394 0.0216
vn 0.7942 0.3016 -0.5276
vn 0.7943 0.3021 -0.5270
vn 0.7969 0.3096 0.5188
vn 0.5293 0.6801 0.5072
vn 0.7934 0.3012 -0.5290
vn 0.5261 0.6571 -0.5398
vn 0.5268 0.6778 -0.5129
s 0
f 8//1 39//1 40//1
f 28//2 23//2 16//2
f 4//3 11//3 12//3
f 27//4 38//4 32//4
f 12//5 11//5 13//5
f 16//6 3//6 9//6
f 62//7 59//7 52//7
f 19//8 20//8 7//8
f 33//9 34//9 26//9
f 16//10 15//10 22//10
f 46//11 47//11 45//11
f 24//12 18//12 43//12
f 5//13 4//13 12//13
f 8//14 55//14 39//14
f 17//15 23//15 29//15
f 62//16 50//16 57//16
f 45//17 37//17 27//17
f 14//18 41//18 15//18
f 32//19 20//19 27//19
f 48//20 36//20 47//20
f 52//21 45//21 35//21
f 40//22 39//22 28//22
f 55//23 54//23 39//23
f 51//24 35//24 50//24
f 64//25 59//25 61//25
f 35//26 51//26 52//26
f 46//27 53//27 58//27
f 31//28 11//28 4//28
f 6//29 25//29 31//29
f 22//30 41//30 28//30
f 17//31 29//31 43//31
f 18//32 1//32 3//32
f 14//33 40//33 41//33
f 58//34 63//34 48//34
f 63//35 58//35 54//35
f 60//36 61//36 59//36
f 48//37 63//37 56//37
f 50//38 62//38 51//38
f 14//39 8//39 40//39
f 3//40 1//40 4//40
f 4//41 5//41 9//41
f 5//42 2//42 9//42
f 9//43 3//43 4//43
f 33//44 50//44 34//44
f 24//45 25//45 6//45
f 17//46 10//46 23//46
f 10//47 16//47 23//47
f 16//48 22//48 28//48
f 18//49 3//49 10//49
f 13//50 11//50 21//50
f 21//51 7//51 13//51
f 16//52 10//52 3//52
f 53//53 52//53 59//53
f 52//54 51//54 62//54
f 15//55 14//55 2//55
f 2//56 13//56 5//56
f 14//56 13//56 2//56
f 5//57 13//57 12//57
f 13//58 14//58 7//58
f 14//59 8//59 7//59
f 7//60 32//60 49//60
f 32//61 37//61 38//61
f 36//61 37//61 32//61
f 36//62 48//62 49//62
f 36//61 32//61 49//61
f 49//63 8//63 7//63
f 23//64 28//64 39//64
f 39//65 42//65 23//65
f 49//66 56//66 55//66
f 47//67 36//67 37//67
f 37//68 45//68 47//68
f 57//69 25//69 43//69
f 43//70 29//70 57//70
f 29//71 42//71 57//71
f 24//72 6//72 18//72
f 18//73 10//73 17//73
f 17//74 43//74 18//74
f 43//75 25//75 24//75
f 34//76 50//76 35//76
f 63//77 54//77 56//77
f 8//78 49//78 55//78
f 59//79 62//79 60//79
f 57//80 42//80 60//80
f 60//81 62//81 57//81
f 58//82 48//82 47//82
f 22//83 15//83 41//83
f 15//84 9//84 2//84
f 32//85 7//85 20//85
f 26//86 31//86 30//86
f 30//87 44//87 26//87
f 44//88 33//88 26//88
f 31//89 25//89 30//89
f 37//90 38//90 27//90
f 52//91 46//91 45//91
f 23//92 42//92 29//92
f 46//93 52//93 53//93
f 50//94 44//94 57//94
f 41//95 40//95 28//95
f 47//96 46//96 58//96
f 7//97 21//97 19//97
f 27//98 34//98 20//98
f 20//99 26//99 19//99
f 34//100 26//100 20//100
f 19//101 26//101 21//101
f 21//102 31//102 11//102
f 4//103 1//103 31//103
f 6//104 31//104 1//104
f 31//105 21//105 26//105
f 35//106 34//106 45//106
f 45//107 34//107 27//107
f 56//108 54//108 55//108
f 15//109 16//109 9//109
f 57//110 44//110 25//110
f 33//111 44//111 50//111
f 18//112 6//112 1//112
f 25//113 44//113 30//113
f 42//114 39//114 61//114
f 61//115 39//115 54//115
f 54//116 64//116 61//116
f 60//117 42//117 61//117
f 59//118 64//118 53//118
f 64//119 54//119 58//119
f 53//120 64//120 58//120
f 56//121 49//121 48//121
f 5//122 2//122 7//122
f 7//123 2//123 8//123
f 8//124 2//124 15//124
f 9//125 1//125 2//125
f 1//126 5//126 2//126
f 12//127 5//127 7//127
f 1//128 4//128 5//128
f 12//129 7//129 13//129
f 14//130 8//130 15//130
f 3//131 1//131 9//131
f 38//61 32//61 49//61
f 38//61 49//61 37//61
f 37//61 49//61 36//61
f 11//132 21//132 19//132
f 11//133 19//133 31//133
f 31//134 19//134 26//134
f 26//135 19//135 27//135
f 27//136 19//136 20//136
f 28//137 10//137 22//137
f 10//138 16//138 22//138
f 17//139 24//139 18//139
f 26//140 27//140 35//140
f 35//141 27//141 45//141
f 37//142 45//142 36//142
f 45//143 47//143 36//143
f 34//144 26//144 35//144
f 63//145 53//145 54//145
f 53//146 64//146 54//146
f 23//147 10//147 28//147
f 17//148 43//148 24//148
f 53//149 63//149 58//149
f 52//150 51//150 59//150
f 51//151 62//151 59//151
