# Blender 4.0.0
# www.blender.org
o decimated_mesh
v -0.020713 0.009863 0.046112
v -0.020626 0.006425 0.046436
v -0.020466 0.009863 0.038229
v -0.020509 0.006369 0.019942
v -0.028824 0.006364 -0.000006
v -0.043653 0.009863 -0.000008
v -0.035907 0.006369 0.035705
v -0.043840 0.006369 0.025392
v -0.048821 0.006369 0.013434
v -0.050646 0.006369 -0.000001
v -0.050633 0.009863 0.000001
v -0.035694 0.009863 0.035916
v -0.043861 0.009863 0.025366
v -0.048837 0.009863 0.013378
vn -0.0013 0.0005 -1.0000
vn 0.9993 -0.0358 0.0045
vn -0.9231 -0.0027 0.3845
vn 0.4121 0.8948 -0.1720
vn -0.9909 -0.0023 0.1346
vn -0.5615 0.0636 0.8250
vn -0.0000 1.0000 -0.0000
vn -0.0002 -0.0016 -1.0000
vn 0.9991 0.0282 0.0313
vn -0.9236 0.0021 0.3833
vn -0.9911 0.0036 0.1331
vn 0.0001 1.0000 -0.0003
vn 0.0022 -1.0000 0.0021
vn -0.0002 -1.0000 -0.0000
vn -0.7907 0.0112 0.6122
vn -0.7926 -0.0002 0.6098
vn 0.2275 0.9640 -0.1379
vn -0.5746 -0.0144 0.8183
vn -0.0002 1.0000 -0.0002
vn 0.0001 1.0000 -0.0001
vn 0.0002 1.0000 -0.0001
s 0
f 6//1 10//1 11//1
f 3//2 2//2 4//2
f 9//3 8//3 13//3
f 4//4 5//4 3//4
f 14//5 10//5 9//5
f 12//6 2//6 1//6
f 12//7 1//7 3//7
f 3//7 6//7 13//7
f 11//7 14//7 6//7
f 14//7 13//7 6//7
f 13//7 12//7 3//7
f 6//8 5//8 10//8
f 3//9 1//9 2//9
f 13//10 14//10 9//10
f 14//11 11//11 10//11
f 5//12 9//12 4//12
f 2//13 7//13 4//13
f 7//7 4//7 8//7
f 8//7 4//7 9//7
f 9//14 10//14 5//14
f 7//15 12//15 13//15
f 7//16 13//16 8//16
f 6//17 3//17 5//17
f 12//18 7//18 2//18
f 6//7 13//7 12//7
f 6//7 12//7 1//7
f 6//7 1//7 3//7
f 7//19 4//19 5//19
f 7//20 5//20 8//20
f 8//21 5//21 9//21
