# Blender 4.0.0
# www.blender.org
o decimated_mesh
v 0.049483 0.103358 0.000008
v 0.046070 0.103436 0.000008
v 0.030380 0.102925 -0.032569
v 0.045068 0.103148 0.000008
v 0.050588 0.102937 0.000007
v 0.047781 0.103373 -0.012863
v 0.049240 0.103011 -0.010300
v 0.033515 0.103436 -0.032568
v 0.044642 0.102231 0.000008
v 0.048223 0.103039 -0.014475
v 0.050661 0.096586 -0.010466
v 0.042951 0.103362 -0.024583
v 0.036877 0.103373 -0.032565
v 0.044047 0.102923 -0.024765
v 0.030294 0.014279 -0.032568
v 0.044594 0.014270 0.000008
v 0.050625 0.014268 0.000003
v 0.042817 0.102966 -0.026696
v 0.038271 0.102931 -0.032567
v 0.050657 0.030227 -0.010660
v 0.043737 0.014271 -0.025466
v 0.038366 0.014270 -0.032568
v 0.048802 0.014271 -0.013397
vn -0.0002 0.0002 -1.0000
vn 0.9867 -0.0917 -0.1343
vn 1.0000 0.0004 0.0036
vn -0.8401 0.3910 0.3761
vn 0.9490 0.2159 -0.2298
vn 0.9157 -0.0009 -0.4019
vn 0.0187 0.9997 -0.0128
vn 0.3554 0.9338 -0.0398
vn -0.1605 0.9851 0.0618
vn 0.9200 0.1149 -0.3746
vn 0.9213 -0.0408 -0.3866
vn -0.2743 0.9545 0.1171
vn -0.0000 -0.0000 -1.0000
vn -0.0008 -0.0000 -1.0000
vn -0.0002 -0.0000 -1.0000
vn -0.0004 0.0010 -1.0000
vn 0.0004 1.0000 0.0001
vn 0.0007 1.0000 -0.0000
vn 0.0011 1.0000 -0.0008
vn -0.0000 1.0000 -0.0000
vn 1.0000 -0.0001 0.0071
vn 0.8435 0.0013 -0.5372
vn 0.7976 -0.0001 -0.6032
vn 0.7906 0.0009 -0.6123
vn 0.0002 -0.0000 -1.0000
vn 0.0012 0.0080 -1.0000
vn 0.0002 -0.0011 -1.0000
vn 0.9680 0.2174 -0.1250
vn 0.9161 -0.0005 -0.4011
vn 0.0116 0.9999 -0.0045
vn 0.0229 0.9997 -0.0019
vn 0.0073 1.0000 -0.0039
vn 0.2940 0.9269 -0.2332
vn 0.2564 0.9470 -0.1938
vn 0.3048 0.9516 -0.0392
vn 0.3800 0.9209 -0.0863
vn 0.9059 0.0002 -0.4236
vn 0.9078 0.0012 -0.4194
vn 0.3460 0.9260 -0.1509
vn 0.3369 0.9213 -0.1941
vn 0.2853 0.9511 -0.1184
vn -0.0003 -0.0000 -1.0000
vn -0.0001 0.0017 -1.0000
vn 0.0095 0.9999 -0.0036
vn 0.0132 0.9999 -0.0063
vn 0.9161 -0.0009 -0.4011
vn 0.9157 -0.0005 -0.4019
vn 1.0000 0.0004 0.0067
vn 0.0011 1.0000 -0.0003
vn -0.0002 1.0000 0.0001
vn -0.0006 1.0000 0.0002
vn 1.0000 -0.0001 0.0028
s 0
f 1//1 9//1 2//1
f 17//2 23//2 20//2
f 5//3 17//3 20//3
f 4//4 3//4 9//4
f 7//5 11//5 10//5
f 16//6 15//6 3//6
f 12//7 13//7 8//7
f 5//8 7//8 1//8
f 2//9 8//9 3//9
f 14//10 10//10 11//10
f 20//11 23//11 21//11
f 3//12 4//12 2//12
f 2//13 9//13 4//13
f 9//14 17//14 16//14
f 17//15 9//15 5//15
f 9//16 1//16 5//16
f 23//17 16//17 17//17
f 16//18 21//18 15//18
f 15//19 21//19 22//19
f 21//20 16//20 23//20
f 20//21 11//21 5//21
f 18//22 14//22 21//22
f 21//23 22//23 18//23
f 22//24 19//24 18//24
f 19//25 22//25 3//25
f 22//13 15//13 3//13
f 8//26 13//26 19//26
f 3//27 8//27 19//27
f 7//28 5//28 11//28
f 16//29 3//29 9//29
f 8//30 2//30 12//30
f 2//31 1//31 6//31
f 6//32 12//32 2//32
f 13//33 18//33 19//33
f 13//34 12//34 18//34
f 6//35 1//35 7//35
f 7//36 10//36 6//36
f 21//37 14//37 20//37
f 14//38 11//38 20//38
f 10//39 14//39 12//39
f 14//40 18//40 12//40
f 12//41 6//41 10//41
f 4//13 16//13 9//13
f 4//13 2//13 16//13
f 16//42 2//42 5//42
f 5//43 2//43 1//43
f 6//44 8//44 2//44
f 6//45 12//45 8//45
f 15//46 3//46 9//46
f 15//17 16//17 17//17
f 17//14 16//14 5//14
f 9//47 16//47 15//47
f 17//48 11//48 5//48
f 17//49 22//49 15//49
f 21//50 22//50 17//50
f 21//51 17//51 23//51
f 20//52 11//52 17//52
