# Blender 4.0.0
# www.blender.org
o decimated_mesh
v 0.063539 0.094916 -0.010561
v 0.052289 0.095067 -0.010585
v 0.055845 0.096435 -0.010580
v 0.068546 0.090341 -0.010575
v 0.069748 0.088161 -0.010495
v 0.067085 0.088153 -0.010533
v 0.052289 0.093572 -0.010125
v 0.052289 0.096960 -0.010189
v 0.056824 0.097303 -0.010319
v 0.061484 0.096836 -0.009991
v 0.069319 0.091832 -0.010132
v 0.056502 0.098110 -0.009131
v 0.070748 0.088161 -0.010144
v 0.064001 0.096062 -0.010110
v 0.064578 0.098205 -0.006289
v 0.070826 0.093491 -0.006425
v 0.071797 0.092084 -0.006248
v 0.052288 0.091430 -0.006121
v 0.056885 0.099498 -0.006330
v 0.065565 0.098705 0.000010
v 0.066620 0.096838 -0.006412
v 0.071822 0.093107 -0.003586
v 0.073217 0.088161 -0.006395
v 0.057481 0.099970 0.000020
v 0.052290 0.098756 -0.006408
v 0.052289 0.099578 -0.000480
v 0.071892 0.093821 0.000003
v 0.063164 0.088161 -0.006162
v 0.052289 0.090705 0.000741
v 0.056836 0.099503 0.006326
v 0.064585 0.098205 0.006283
v 0.070856 0.093472 0.006414
v 0.071822 0.093106 0.003584
v 0.074203 0.088161 -0.000014
v 0.052289 0.098754 0.006361
v 0.056598 0.098182 0.009012
v 0.066595 0.096856 0.006417
v 0.064215 0.096916 0.008749
v 0.071787 0.092111 0.006239
v 0.061715 0.088161 0.000234
v 0.063128 0.088161 0.006079
v 0.061627 0.096818 0.009980
v 0.064190 0.095807 0.010204
v 0.073238 0.088163 0.006347
v 0.052289 0.091235 0.005082
v 0.056919 0.097299 0.010320
v 0.052290 0.096973 0.010210
v 0.069277 0.091842 0.010151
v 0.052289 0.091735 0.006923
v 0.066424 0.088161 0.010249
v 0.056177 0.096425 0.010579
v 0.063608 0.094858 0.010566
v 0.070677 0.088161 0.010227
v 0.067999 0.088155 0.010602
v 0.052289 0.093555 0.010121
v 0.052289 0.095067 0.010585
v 0.068577 0.090294 0.010577
vn 0.1536 0.9828 -0.1021
vn 1.0000 -0.0001 -0.0000
vn 0.6060 0.7850 0.1291
vn -0.1366 0.8991 0.4160
vn -0.0772 0.2041 -0.9759
vn 0.2899 0.1299 0.9482
vn -0.1556 0.9785 -0.1356
vn 0.3187 0.8239 -0.4687
vn 0.5269 0.6717 0.5207
vn 0.2643 0.9591 0.1012
vn 0.1115 0.4755 0.8726
vn 0.0493 0.2371 -0.9702
vn 0.7402 0.4481 -0.5014
vn 0.7411 0.4416 0.5057
vn -0.0814 0.9945 0.0653
vn 0.7948 0.3072 -0.5233
vn 0.2515 0.7678 0.5893
vn 0.6058 0.7851 -0.1288
vn 0.0022 -0.0022 -1.0000
vn -0.1605 0.9800 0.1180
vn 0.7900 0.3114 0.5281
vn 0.1290 0.2909 -0.9480
vn 0.2780 0.9582 -0.0672
vn 0.4662 0.7397 -0.4853
vn 0.9279 0.3449 0.1415
vn 0.3184 0.8358 0.4473
vn 0.8163 0.5367 -0.2138
vn 0.4724 0.7499 0.4631
vn 0.1761 0.1958 -0.9647
vn 0.2854 0.9248 -0.2515
vn 0.1388 -0.0258 0.9900
vn 0.1712 0.1888 0.9670
vn 0.1499 0.8803 0.4502
vn 0.3282 0.1310 -0.9355
vn 0.1539 0.9828 0.1023
vn 0.1930 0.4856 -0.8526
vn 0.1099 0.4906 -0.8644
vn 0.1461 0.8783 -0.4552
vn -0.0779 0.8145 -0.5748
vn 0.1655 0.9822 -0.0885
vn -0.0449 0.3189 0.9467
vn -0.0002 1.0000 0.0004
vn 0.0001 0.9998 0.0174
vn -0.0000 1.0000 -0.0000
vn -0.0001 1.0000 -0.0018
vn 0.0030 -1.0000 -0.0075
vn 0.0024 -1.0000 -0.0015
vn -0.0000 1.0000 0.0001
vn -0.0002 1.0000 -0.0004
vn 1.0000 -0.0003 0.0014
vn 1.0000 -0.0003 -0.0003
vn 1.0000 -0.0000 -0.0001
vn 1.0000 -0.0000 0.0001
vn 1.0000 0.0002 0.0002
vn 1.0000 -0.0001 0.0001
vn 1.0000 0.0002 -0.0003
vn 1.0000 -0.0002 -0.0001
vn 0.5440 0.8254 0.1507
vn 0.6157 0.7751 0.1417
vn -0.1438 0.8930 0.4265
vn -0.0686 0.9954 -0.0675
vn 0.7072 0.6905 0.1519
vn 0.0635 0.2338 0.9702
vn 0.0689 0.3186 0.9454
vn 0.2185 0.2795 -0.9350
vn 0.2796 0.9272 0.2492
vn 0.5280 0.6705 0.5211
vn 0.5325 0.6700 0.5172
vn 0.2875 0.9556 0.0651
vn 0.0851 0.3346 -0.9385
vn 0.5322 0.6708 -0.5166
vn 0.5315 0.6709 -0.5171
vn -0.1375 0.8947 -0.4249
vn -0.1372 0.8949 -0.4246
vn -0.0712 0.8187 0.5698
vn 0.7922 0.3102 -0.5256
vn 0.9217 0.3765 -0.0931
vn 0.9282 0.3433 -0.1434
vn 0.9294 0.3416 -0.1398
vn 0.6161 0.7748 -0.1420
vn 0.5438 0.8256 -0.1507
vn -0.0127 -0.0107 -0.9999
vn 0.0143 -0.0288 -0.9995
vn 0.0021 -0.0029 -1.0000
vn 0.8194 0.5331 0.2106
vn 0.7945 0.3064 0.5244
vn 0.2529 0.9604 -0.1172
vn 0.9219 0.3760 0.0933
vn 0.9282 0.3445 0.1408
vn 0.0018 0.0066 1.0000
vn 0.0069 0.0099 0.9999
vn 0.0017 -0.0005 1.0000
vn 0.2957 0.1283 -0.9466
vn 0.1214 0.8359 -0.5353
vn 0.1329 0.2915 0.9473
vn 0.2889 0.9297 -0.2283
vn -0.0658 0.1926 0.9791
vn 0.1528 0.8813 0.4471
vn 0.1949 0.8568 0.4773
vn 0.1978 0.2412 0.9501
vn 0.1650 0.9822 0.0895
vn 0.7023 0.6954 -0.1523
vn -0.0526 0.3424 -0.9381
vn 0.1503 0.8798 -0.4510
vn 0.2323 0.8329 -0.5022
vn 0.1240 0.8365 0.5338
vn 1.0000 0.0002 0.0003
vn 0.0009 0.0011 -1.0000
vn -0.0042 -0.0164 -0.9999
vn 1.0000 0.0005 -0.0000
vn 1.0000 -0.0000 -0.0000
vn 1.0000 0.0001 -0.0001
vn 1.0000 -0.0006 0.0001
vn 1.0000 0.0001 -0.0002
vn 1.0000 -0.0002 -0.0002
vn 0.2867 0.9527 0.1006
vn -0.1372 0.8948 -0.4250
vn -0.1376 0.8949 -0.4246
vn 0.0041 0.0077 -1.0000
vn -0.0016 1.0000 0.0004
vn -0.0010 1.0000 -0.0000
vn 0.0012 1.0000 -0.0001
vn 0.0026 1.0000 0.0006
vn 0.2631 0.9629 0.0596
vn 0.2570 0.9644 -0.0621
vn 0.2809 0.9527 -0.1163
vn 0.2850 0.9317 -0.2252
vn 0.2924 0.9228 -0.2509
vn 0.0004 0.0033 1.0000
vn -0.1318 0.8941 0.4281
vn -0.1448 0.8980 0.4155
vn 0.1538 0.9842 -0.0875
vn 0.1654 0.9808 -0.1038
vn 0.9289 0.3415 -0.1435
vn 0.9280 0.3449 -0.1411
vn -0.0021 1.0000 -0.0007
vn 0.0034 0.0077 1.0000
vn 0.0049 1.0000 -0.0038
vn 0.0017 1.0000 -0.0004
vn -0.0025 1.0000 -0.0011
vn 0.0528 0.2424 0.9687
vn 0.0793 0.3126 0.9466
vn 0.1516 0.8795 0.4512
vn 0.1502 0.8818 0.4471
vn 0.1648 0.9808 0.1039
vn 0.1541 0.9841 0.0886
s 0
f 15//1 24//1 20//1
f 45//2 35//2 49//2
f 37//3 27//3 20//3
f 36//4 35//4 47//4
f 2//5 8//5 3//5
f 48//6 57//6 53//6
f 25//7 26//7 19//7
f 49//8 55//8 50//8
f 37//9 38//9 43//9
f 29//10 40//10 18//10
f 43//11 42//11 46//11
f 1//12 3//12 9//12
f 11//13 16//13 17//13
f 48//14 39//14 32//14
f 26//15 30//15 24//15
f 17//16 23//16 13//16
f 43//17 38//17 42//17
f 21//18 20//18 27//18
f 3//19 1//19 2//19
f 26//20 35//20 30//20
f 39//21 48//21 53//21
f 55//22 56//22 54//22
f 45//23 41//23 40//23
f 15//24 21//24 14//24
f 33//25 39//25 44//25
f 7//26 18//26 6//26
f 17//27 16//27 22//27
f 37//28 31//28 38//28
f 11//29 4//29 1//29
f 45//30 49//30 41//30
f 54//31 53//31 57//31
f 57//32 48//32 52//32
f 31//33 30//33 42//33
f 13//34 5//34 11//34
f 24//35 31//35 20//35
f 55//36 54//36 50//36
f 10//37 14//37 9//37
f 10//38 12//38 19//38
f 8//39 12//39 9//39
f 15//40 19//40 24//40
f 47//41 51//41 46//41
f 44//42 41//42 53//42
f 54//43 53//43 50//43
f 50//44 53//44 41//44
f 41//44 34//44 40//44
f 40//44 34//44 28//44
f 28//45 23//45 6//45
f 6//46 5//46 13//46
f 13//47 23//47 6//47
f 23//48 28//48 34//48
f 34//49 41//49 44//49
f 49//2 35//2 55//2
f 56//50 55//50 47//50
f 55//51 35//51 47//51
f 35//52 29//52 26//52
f 26//53 29//53 25//53
f 8//54 7//54 2//54
f 7//55 25//55 18//55
f 8//56 25//56 7//56
f 18//57 25//57 29//57
f 29//2 35//2 45//2
f 20//58 31//58 37//58
f 37//59 32//59 27//59
f 36//60 30//60 35//60
f 19//61 26//61 24//61
f 27//62 32//62 33//62
f 43//63 46//63 51//63
f 51//64 52//64 43//64
f 11//65 1//65 14//65
f 18//66 28//66 6//66
f 43//67 48//67 37//67
f 48//68 32//68 37//68
f 28//69 18//69 40//69
f 9//70 14//70 1//70
f 21//71 16//71 11//71
f 14//72 21//72 11//72
f 8//73 25//73 12//73
f 25//74 19//74 12//74
f 47//75 46//75 36//75
f 13//76 11//76 17//76
f 22//77 27//77 34//77
f 34//78 23//78 22//78
f 22//79 23//79 17//79
f 27//80 16//80 21//80
f 21//81 15//81 20//81
f 1//82 4//82 6//82
f 4//83 5//83 6//83
f 6//84 2//84 1//84
f 39//85 33//85 32//85
f 39//86 53//86 44//86
f 45//87 40//87 29//87
f 34//88 27//88 33//88
f 44//89 34//89 33//89
f 56//90 54//90 52//90
f 52//91 54//91 57//91
f 52//92 51//92 56//92
f 5//93 4//93 11//93
f 12//94 10//94 9//94
f 6//95 2//95 7//95
f 41//96 49//96 50//96
f 56//97 51//97 47//97
f 36//98 42//98 30//98
f 42//99 38//99 31//99
f 48//100 43//100 52//100
f 24//101 30//101 31//101
f 22//102 16//102 27//102
f 8//103 9//103 3//103
f 19//104 15//104 10//104
f 15//105 14//105 10//105
f 46//106 42//106 36//106
f 7//107 2//107 18//107
f 18//107 2//107 8//107
f 3//108 4//108 2//108
f 4//109 6//109 2//109
f 29//110 18//110 45//110
f 45//2 18//2 49//2
f 49//111 18//111 55//111
f 55//112 18//112 56//112
f 56//113 18//113 47//113
f 47//114 18//114 35//114
f 35//52 18//52 26//52
f 26//55 18//55 25//55
f 25//115 18//115 8//115
f 28//116 18//116 29//116
f 25//117 19//117 8//117
f 19//118 12//118 8//118
f 1//119 4//119 3//119
f 23//120 6//120 34//120
f 34//121 6//121 54//121
f 54//122 6//122 40//122
f 40//123 6//123 28//123
f 28//124 29//124 40//124
f 40//125 29//125 41//125
f 41//126 29//126 45//126
f 41//127 45//127 50//127
f 50//128 45//128 49//128
f 54//129 51//129 56//129
f 36//130 30//130 47//130
f 30//131 35//131 47//131
f 24//132 20//132 19//132
f 20//133 15//133 19//133
f 17//134 34//134 23//134
f 17//135 22//135 34//135
f 44//136 34//136 54//136
f 52//137 51//137 54//137
f 50//138 54//138 41//138
f 41//139 54//139 40//139
f 44//140 54//140 53//140
f 52//141 46//141 51//141
f 52//142 43//142 46//142
f 42//143 31//143 36//143
f 31//144 30//144 36//144
f 31//145 20//145 30//145
f 20//146 24//146 30//146
