# Blender 4.0.0
# www.blender.org
o decimated_mesh
v -0.045795 0.102350 0.020603
v -0.045816 0.010745 0.020603
v -0.039325 0.010745 0.020603
v -0.045343 0.103350 0.020610
v -0.014094 0.010763 0.042018
v -0.043762 0.103251 0.025287
v -0.014094 0.010763 0.048578
v -0.043901 0.010745 0.025358
v -0.035830 0.102191 0.035803
v -0.035925 0.103238 0.035311
v -0.014093 0.102321 0.048492
v -0.039552 0.102692 0.020603
v -0.014094 0.102603 0.042242
v -0.024984 0.010747 0.044100
v -0.029776 0.103260 0.040301
v -0.039954 0.103398 0.020603
v -0.014095 0.103408 0.042643
v -0.035838 0.010754 0.035826
v -0.015419 0.103285 0.047788
v -0.025086 0.103203 0.043835
v -0.014096 0.103384 0.047932
vn 0.0001 -0.0002 -1.0000
vn -0.6029 0.2940 0.7417
vn -0.7983 0.0017 0.6023
vn -0.8693 0.3911 0.3022
vn -0.1303 0.4620 0.8773
vn 0.6471 0.0016 -0.7624
vn -0.6086 -0.3458 0.7142
vn -0.9276 0.0002 0.3736
vn -0.3803 0.0009 0.9249
vn 1.0000 -0.0000 -0.0000
vn -0.0003 1.0000 -0.0005
vn -0.6063 0.0002 0.7953
vn -0.0166 0.9997 0.0197
vn 0.0001 -0.0000 -1.0000
vn -0.0000 -0.0000 -1.0000
vn -0.0013 0.0076 -1.0000
vn -0.6008 0.0443 0.7982
vn -0.3752 0.1524 0.9144
vn -0.7922 0.0002 0.6102
vn 0.6476 0.0019 -0.7619
vn -0.6062 -0.3549 0.7117
vn -0.9174 0.0017 0.3980
vn -0.7696 0.2131 0.6019
vn -0.3899 0.0022 0.9208
vn 1.0000 -0.0000 -0.0002
vn 1.0000 0.0007 -0.0002
vn 1.0000 0.0033 0.0003
vn 0.0015 -1.0000 -0.0000
vn -0.0011 1.0000 0.0023
vn -0.0005 1.0000 -0.0005
vn -0.0000 -1.0000 -0.0000
vn -0.5988 0.0016 0.8009
vn -0.0756 0.9971 0.0045
vn -0.0126 0.9998 0.0144
vn -0.0088 0.9997 0.0242
vn -0.0188 0.9997 0.0161
vn -0.0108 0.9999 0.0090
vn -0.0148 0.9992 0.0358
vn -0.0000 1.0000 -0.0000
vn -0.0014 1.0000 0.0008
vn 0.0033 1.0000 -0.0034
vn -0.6084 -0.3457 0.7144
vn -0.0448 0.9983 0.0363
vn -0.0204 0.9996 0.0207
vn -0.0166 0.9997 0.0177
vn -0.0088 0.9999 0.0089
vn -0.0043 1.0000 0.0045
vn -0.6064 -0.3548 0.7116
vn -0.0967 0.9715 0.2163
vn -0.0445 0.9962 0.0751
s 0
f 16//1 12//1 1//1
f 9//2 15//2 10//2
f 8//3 9//3 6//3
f 6//4 4//4 1//4
f 21//5 19//5 11//5
f 5//6 3//6 12//6
f 17//7 16//7 12//7
f 8//8 1//8 2//8
f 7//9 11//9 14//9
f 11//10 7//10 5//10
f 3//11 18//11 5//11
f 9//12 18//12 14//12
f 20//13 19//13 17//13
f 12//14 3//14 1//14
f 3//15 2//15 1//15
f 4//16 16//16 1//16
f 9//17 20//17 15//17
f 20//18 11//18 19//18
f 8//19 18//19 9//19
f 13//20 5//20 12//20
f 17//21 12//21 13//21
f 8//22 6//22 1//22
f 9//23 10//23 6//23
f 20//24 14//24 11//24
f 5//25 13//25 11//25
f 11//26 13//26 17//26
f 17//27 21//27 11//27
f 7//28 14//28 5//28
f 14//29 5//29 18//29
f 18//30 3//30 8//30
f 8//31 2//31 3//31
f 14//32 20//32 9//32
f 21//33 17//33 19//33
f 17//34 16//34 10//34
f 4//35 6//35 16//35
f 6//36 10//36 16//36
f 10//37 15//37 17//37
f 15//38 20//38 17//38
f 14//39 3//39 8//39
f 5//40 3//40 14//40
f 14//41 8//41 18//41
f 16//42 12//42 13//42
f 10//43 4//43 6//43
f 10//44 15//44 4//44
f 15//45 21//45 4//45
f 21//46 16//46 4//46
f 21//47 17//47 16//47
f 17//48 16//48 13//48
f 19//49 21//49 20//49
f 21//50 15//50 20//50
