# Blender 4.0.0
# www.blender.org
o decimated_mesh
v -0.031267 0.010333 -0.031465
v -0.031267 0.010333 -0.039421
v -0.014726 0.102495 -0.041956
v -0.031267 0.102411 -0.031826
v -0.014727 0.010342 -0.041534
v -0.024985 0.010333 -0.044096
v -0.031268 0.102152 -0.039366
v -0.014729 0.010341 -0.048336
v -0.014728 0.103377 -0.042390
v -0.024996 0.102298 -0.044031
v -0.014727 0.101350 -0.048317
v -0.031267 0.103348 -0.032427
v -0.031258 0.103251 -0.039143
v -0.025021 0.103251 -0.043772
v -0.014736 0.103331 -0.048034
v -0.031267 0.103447 -0.037629
vn 1.0000 -0.0000 -0.0004
vn -0.3851 0.0006 -0.9229
vn -0.5968 0.0005 -0.8024
vn 0.0019 1.0000 -0.0082
vn 0.4515 0.4819 0.7509
vn 0.5223 0.0039 0.8528
vn -0.5911 0.1656 -0.7894
vn 1.0000 -0.0000 -0.0000
vn -1.0000 -0.0051 0.0010
vn -1.0000 -0.0013 0.0015
vn -0.3820 0.0002 -0.9242
vn -1.0000 -0.0000 -0.0000
vn -1.0000 0.0002 -0.0000
vn -0.9999 0.0108 -0.0078
vn -0.5971 0.0005 -0.8022
vn 0.4801 0.3875 0.7870
vn 0.0097 0.9998 0.0191
vn -0.3717 0.1294 -0.9193
vn -0.3737 0.2351 -0.8972
vn 0.0008 -1.0000 0.0004
vn -0.0001 -1.0000 -0.0000
vn 0.0009 -1.0000 0.0002
vn -0.5839 0.1995 -0.7869
vn 0.5200 0.0033 0.8542
vn -0.0362 0.9970 -0.0686
vn -0.0951 0.9872 -0.1283
vn -1.0000 -0.0052 0.0015
vn -1.0000 -0.0018 0.0004
s 0
f 3//1 5//1 8//1
f 11//2 6//2 10//2
f 6//3 7//3 10//3
f 16//4 9//4 15//4
f 12//5 4//5 9//5
f 4//6 5//6 3//6
f 7//7 13//7 10//7
f 8//8 11//8 3//8
f 3//9 15//9 11//9
f 15//10 3//10 9//10
f 8//11 6//11 11//11
f 7//12 2//12 1//12
f 1//12 4//12 7//12
f 7//13 4//13 12//13
f 12//13 16//13 7//13
f 13//14 7//14 16//14
f 6//15 2//15 7//15
f 4//16 3//16 9//16
f 16//17 12//17 9//17
f 11//18 10//18 15//18
f 10//19 14//19 15//19
f 5//20 1//20 6//20
f 1//21 2//21 6//21
f 6//22 8//22 5//22
f 10//23 13//23 14//23
f 4//24 1//24 5//24
f 15//25 14//25 16//25
f 14//26 13//26 16//26
f 15//27 11//27 9//27
f 9//28 11//28 3//28
