# Blender 4.0.0
# www.blender.org
o Mug_1_mug_1_0_collision_17
v 0.050656 0.010732 0.000628
v 0.050644 0.010732 0.000728
v 0.050656 0.007464 0.000628
v 0.050656 0.010732 -0.000629
v 0.050534 0.010732 0.001577
v 0.050571 0.007464 0.001299
v 0.050656 0.007464 -0.000629
v 0.050621 0.007464 -0.000907
v 0.050548 0.010732 -0.001478
v 0.050534 0.007464 0.001577
v 0.049504 0.010732 0.009416
v 0.050534 0.007464 -0.001578
v 0.049833 0.007464 -0.006912
v 0.049504 0.007464 0.009416
v 0.044519 0.010732 0.009416
v 0.049328 0.007464 -0.010741
v 0.049328 0.010732 -0.010741
v 0.033311 0.007464 0.009416
v 0.043522 0.010732 0.009231
v 0.043506 0.010726 0.009416
v 0.032874 0.007464 -0.010741
v 0.034041 0.007747 0.009416
v 0.043341 0.010732 -0.010682
v 0.033754 0.007792 -0.010741
vn 0.9928 -0.0000 0.1201
vn 1.0000 -0.0000 -0.0000
vn -0.0000 1.0000 -0.0000
vn -0.0000 1.0000 0.0003
vn 0.9917 0.0002 0.1282
vn 0.9920 -0.0002 0.1261
vn -0.0000 -1.0000 -0.0000
vn 0.9923 -0.0000 -0.1241
vn 0.9920 0.0002 -0.1262
vn 0.9915 -0.0000 0.1303
vn 0.9917 -0.0003 -0.1287
vn 0.9915 -0.0002 -0.1304
vn 0.9914 0.0002 -0.1307
vn 0.9914 -0.0000 -0.1306
vn -0.0000 -0.0000 1.0000
vn -0.0057 0.9995 0.0306
vn -0.0000 -0.0000 -1.0000
vn 0.0004 0.0188 -0.9998
vn -0.0099 -0.0000 -1.0000
vn -0.3611 0.9325 0.0078
vn -0.2933 0.9560 0.0027
vn -0.2968 0.9549 0.0046
vn -0.3003 0.9538 0.0064
vn -0.3488 0.9372 0.0071
vn 0.9915 -0.0005 -0.1302
vn 0.9914 0.0001 -0.1306
vn 0.9914 -0.0000 -0.1307
vn -0.0099 0.0523 -0.9986
s 0
f 1//1 2//1 3//1
f 1//2 3//2 7//2
f 1//2 7//2 4//2
f 1//3 4//3 9//3
f 1//3 9//3 17//3
f 1//3 17//3 23//3
f 1//3 23//3 19//3
f 1//3 19//3 15//3
f 1//3 15//3 11//3
f 1//3 11//3 5//3
f 1//4 5//4 2//4
f 2//5 5//5 6//5
f 2//6 6//6 3//6
f 3//7 6//7 10//7
f 3//7 10//7 14//7
f 3//7 14//7 18//7
f 3//7 18//7 21//7
f 3//7 21//7 16//7
f 3//7 16//7 13//7
f 3//7 13//7 12//7
f 3//7 12//7 8//7
f 3//7 8//7 7//7
f 4//8 7//8 8//8
f 4//9 8//9 9//9
f 5//10 10//10 6//10
f 5//10 11//10 14//10
f 5//10 14//10 10//10
f 8//11 12//11 9//11
f 9//12 12//12 13//12
f 9//13 13//13 16//13
f 9//14 16//14 17//14
f 11//15 15//15 20//15
f 11//15 20//15 22//15
f 11//15 22//15 18//15
f 11//15 18//15 14//15
f 15//16 19//16 20//16
f 16//17 21//17 24//17
f 16//18 24//18 23//18
f 16//19 23//19 17//19
f 18//20 22//20 21//20
f 19//21 23//21 24//21
f 19//22 24//22 20//22
f 20//23 24//23 22//23
f 21//24 22//24 24//24
f 3//2 7//2 4//2
f 3//2 4//2 1//2
f 4//3 9//3 17//3
f 4//3 17//3 23//3
f 4//3 23//3 19//3
f 4//3 19//3 15//3
f 4//3 15//3 11//3
f 4//3 11//3 5//3
f 4//3 5//3 2//3
f 4//3 2//3 1//3
f 6//7 14//7 18//7
f 6//7 18//7 21//7
f 6//7 21//7 16//7
f 6//7 16//7 13//7
f 6//7 13//7 8//7
f 6//7 8//7 7//7
f 6//7 7//7 3//7
f 11//10 6//10 5//10
f 11//10 14//10 6//10
f 13//25 9//25 8//25
f 13//26 17//26 9//26
f 15//15 20//15 22//15
f 15//15 22//15 18//15
f 15//15 18//15 14//15
f 15//15 14//15 11//15
f 16//27 17//27 13//27
f 16//17 24//17 17//17
f 24//28 23//28 17//28
