# Blender 4.0.0
# www.blender.org
o decimated_mesh
v -0.014726 0.010333 -0.048299
v -0.012572 0.010333 -0.049064
v -0.014726 0.010331 -0.041538
v -0.014726 0.102172 -0.048287
v -0.014726 0.102506 -0.041921
v -0.012482 0.102207 -0.049044
v 0.018149 0.010755 -0.040795
v 0.018156 0.013378 -0.040441
v 0.018156 0.102472 -0.040506
v -0.014725 0.103325 -0.047909
v -0.011552 0.103249 -0.048989
v 0.018156 0.010753 -0.046910
v 0.000072 0.101438 -0.050692
v -0.000090 0.103252 -0.050439
v 0.000257 0.010291 -0.050686
v 0.012861 0.010753 -0.049035
v 0.018156 0.103426 -0.041091
v -0.014725 0.103414 -0.042505
v 0.018151 0.103255 -0.046780
v 0.012829 0.102080 -0.049025
v 0.011559 0.103252 -0.049014
vn -1.0000 0.0001 -0.0000
vn 0.3725 0.0013 -0.9280
vn 0.0207 0.1337 -0.9908
vn 1.0000 -0.0009 -0.0008
vn -0.0257 0.9997 -0.0005
vn -0.3093 0.2970 -0.9034
vn -0.0538 0.9895 0.1340
vn -0.1254 -0.0003 -0.9921
vn 0.0337 -0.0041 -0.9994
vn -0.0361 0.5225 0.8519
vn 0.3022 0.3357 -0.8922
vn -0.1245 0.1261 -0.9842
vn -1.0000 0.0007 -0.0001
vn -1.0000 -0.0000 -0.0000
vn 0.0097 0.9995 -0.0301
vn 0.0030 0.9997 -0.0245
vn 0.0005 0.9998 -0.0195
vn -0.0037 0.9996 -0.0271
vn 0.0183 0.9997 -0.0164
vn 0.3886 0.0002 -0.9214
vn 1.0000 -0.0000 -0.0000
vn 1.0000 -0.0000 -0.0007
vn -1.0000 0.0027 -0.0011
vn -0.0123 0.9996 -0.0246
vn 0.0001 1.0000 0.0003
vn 0.0035 1.0000 0.0012
vn -0.3196 0.0005 -0.9475
vn -0.3348 0.0001 -0.9423
vn -0.2993 0.3145 -0.9008
vn -0.1301 0.0003 -0.9915
vn 0.0430 -0.0007 -0.9991
vn 0.1296 0.0002 -0.9916
vn 0.1299 0.0002 -0.9915
vn -0.0363 0.5407 0.8404
vn -0.1190 0.1578 -0.9803
vn 0.1201 0.1476 -0.9817
vn 0.1213 0.1406 -0.9826
vn 0.0029 1.0000 0.0003
vn 0.0334 -0.0007 -0.9994
vn 0.0430 -0.0041 -0.9991
vn -1.0000 -0.0000 -0.0002
vn -1.0000 -0.0000 -0.0001
vn -1.0000 0.0001 0.0017
vn 0.0051 0.9999 0.0144
vn 1.0000 -0.0000 0.0007
vn 0.0003 0.9999 -0.0164
vn 0.0013 0.9998 -0.0212
vn -0.0144 0.9936 -0.1120
vn -0.1215 0.1265 -0.9845
vn 0.3725 0.0002 -0.9280
vn 0.3884 0.0013 -0.9215
vn 1.0000 -0.0000 -0.0008
vn -0.1238 0.1621 -0.9790
s 0
f 4//1 5//1 18//1
f 16//2 19//2 12//2
f 3//3 8//3 7//3
f 17//4 9//4 19//4
f 15//5 7//5 12//5
f 10//6 6//6 4//6
f 16//7 15//7 12//7
f 2//8 13//8 15//8
f 8//9 3//9 5//9
f 17//10 5//10 9//10
f 19//11 20//11 21//11
f 14//12 13//12 11//12
f 18//13 10//13 4//13
f 4//14 1//14 5//14
f 1//14 3//14 5//14
f 19//15 21//15 17//15
f 21//16 14//16 17//16
f 17//17 14//17 18//17
f 14//18 11//18 18//18
f 10//19 18//19 11//19
f 16//20 20//20 19//20
f 12//21 19//21 8//21
f 9//22 8//22 19//22
f 8//23 12//23 7//23
f 7//24 15//24 3//24
f 1//25 3//25 2//25
f 2//26 3//26 15//26
f 6//27 2//27 4//27
f 2//28 1//28 4//28
f 10//29 11//29 6//29
f 2//30 6//30 13//30
f 8//31 5//31 9//31
f 20//32 16//32 13//32
f 16//33 15//33 13//33
f 17//34 18//34 5//34
f 13//35 6//35 11//35
f 14//36 21//36 13//36
f 21//37 20//37 13//37
f 1//38 3//38 15//38
f 8//39 3//39 9//39
f 9//40 3//40 5//40
f 5//41 18//41 3//41
f 18//42 10//42 3//42
f 10//43 4//43 3//43
f 4//14 1//14 3//14
f 2//44 1//44 15//44
f 13//32 20//32 15//32
f 20//33 16//33 15//33
f 12//21 17//21 8//21
f 17//45 9//45 8//45
f 17//46 10//46 18//46
f 17//47 14//47 10//47
f 14//48 11//48 10//48
f 6//49 14//49 13//49
f 12//50 16//50 20//50
f 19//51 12//51 20//51
f 19//52 17//52 12//52
f 6//53 11//53 14//53
