# Blender 4.0.0
# www.blender.org
o decimated_mesh
v 0.071229 0.072042 -0.010585
v 0.071146 0.083550 -0.010581
v 0.069972 0.072042 -0.010519
v 0.067460 0.088161 -0.010537
v 0.072149 0.084145 -0.010258
v 0.069116 0.072042 -0.010241
v 0.066291 0.088161 -0.010176
v 0.069623 0.088159 -0.010525
v 0.073006 0.082996 -0.009493
v 0.073113 0.072044 -0.010183
v 0.070669 0.088162 -0.010216
v 0.074718 0.083997 -0.006386
v 0.066752 0.072042 -0.006436
v 0.073218 0.088161 -0.006384
v 0.075317 0.072042 -0.006275
v 0.063007 0.088161 -0.005908
v 0.075646 0.084425 -0.000005
v 0.061691 0.088161 0.000015
v 0.074227 0.088160 -0.000004
v 0.065812 0.072043 -0.000193
v 0.074716 0.083998 0.006396
v 0.076234 0.072042 -0.000014
v 0.066733 0.072042 0.006398
v 0.063138 0.088161 0.006095
v 0.073195 0.088161 0.006423
v 0.072932 0.083101 0.009562
v 0.069118 0.072042 0.010243
v 0.075313 0.072042 0.006285
v 0.073111 0.072044 0.010182
v 0.066365 0.088161 0.010224
v 0.072141 0.084093 0.010270
v 0.070499 0.072041 0.010602
v 0.070682 0.088158 0.010198
v 0.069407 0.088159 0.010557
v 0.071155 0.083544 0.010585
v 0.067460 0.088161 0.010538
vn 0.9597 0.2471 -0.1340
vn 0.8700 0.0388 0.4915
vn 0.9881 0.0468 0.1466
vn 0.2086 0.0019 -0.9780
vn -0.0056 -0.0139 0.9999
vn -0.0004 1.0000 -0.0006
vn 0.9883 0.0482 -0.1447
vn 0.7853 0.1352 0.6042
vn 0.2695 0.1078 0.9569
vn 0.2517 0.0436 -0.9668
vn 0.2950 0.0479 0.9543
vn 0.9290 0.3386 0.1491
vn 0.7809 0.1326 -0.6104
vn 0.8105 0.2535 -0.5281
vn 0.9648 0.2194 0.1453
vn 0.7022 0.0516 -0.7101
vn 0.8653 0.0420 0.4995
vn 0.0008 1.0000 0.0028
vn -0.0000 1.0000 -0.0000
vn 0.0001 1.0000 -0.0000
vn -0.0000 1.0000 0.0001
vn 0.0007 1.0000 -0.0027
vn 0.0004 1.0000 0.0007
vn 0.0014 1.0000 0.0016
vn -0.0000 1.0000 -0.0001
vn -0.0038 1.0000 0.0029
vn 0.0004 1.0000 -0.0008
vn 0.2958 0.0168 0.9551
vn 0.7010 0.0512 0.7113
vn 0.8005 0.2891 0.5250
vn 0.7954 0.2949 0.5296
vn 0.8061 0.2646 0.5293
vn 0.8360 0.1772 0.5193
vn 0.9883 0.0480 0.1445
vn -0.0527 -0.0000 -0.9986
vn -0.0164 -0.0037 -0.9999
vn 0.0001 1.0000 0.0013
vn -0.0004 1.0000 -0.0013
vn -0.0004 1.0000 0.0039
vn -0.0004 1.0000 0.0005
vn 0.9880 0.0470 -0.1468
vn 0.2970 0.0178 -0.9547
vn 0.9516 0.2080 -0.2264
vn 0.2497 0.1020 -0.9629
vn 0.2816 0.1046 -0.9538
vn 0.2484 0.1062 0.9628
vn 0.1589 -0.0076 0.9873
vn 0.2754 0.0459 -0.9602
vn 0.8363 0.1768 -0.5189
vn 0.8704 0.0390 -0.4908
vn 0.8698 0.0394 -0.4919
vn 0.3082 0.0491 0.9500
vn 0.9231 0.3507 0.1575
vn -0.0099 0.0023 0.9999
vn -0.0102 0.0021 0.9999
vn 0.7948 0.2983 -0.5285
vn 0.8026 0.2895 -0.5215
vn 0.9478 0.2396 0.2106
vn 0.9305 0.3353 -0.1471
vn 0.9231 0.3508 -0.1578
vn -0.0527 -0.0094 -0.9986
vn -0.0114 0.0003 -0.9999
vn -0.0008 1.0000 0.0008
vn -0.0003 1.0000 -0.0000
vn -0.0002 1.0000 -0.0000
vn 0.0006 1.0000 0.0002
vn 0.0001 1.0000 0.0001
vn -0.0002 1.0000 0.0003
vn 0.3082 0.0502 0.9500
vn 0.2951 0.0471 0.9543
vn 0.0009 0.9999 -0.0131
vn -0.0003 1.0000 0.0005
vn -0.0003 1.0000 -0.0009
vn 0.2535 0.0954 -0.9626
vn 0.9880 0.0481 -0.1469
vn 0.9884 0.0470 -0.1447
vn 0.2813 0.1135 -0.9529
vn 0.9290 0.3348 -0.1575
vn 0.9245 0.3512 0.1484
vn 0.9279 0.3381 0.1573
vn 0.9880 0.0479 0.1467
vn 0.9884 0.0468 0.1445
vn 0.9247 0.3514 -0.1462
vn 0.9591 0.2434 0.1444
vn 0.9534 0.2146 0.2119
vn 0.0008 1.0000 -0.0000
vn 0.0007 1.0000 0.0010
vn -0.0012 1.0000 -0.0010
vn -0.0099 0.0021 0.9999
vn -0.0104 0.0021 0.9999
vn 0.2513 0.1010 0.9626
vn 0.2694 0.1136 0.9563
s 0
f 20//1 18//1 23//1
f 28//2 21//2 29//2
f 21//3 22//3 17//3
f 10//4 1//4 2//4
f 4//5 2//5 8//5
f 29//6 28//6 27//6
f 12//7 22//7 15//7
f 7//8 16//8 6//8
f 33//9 34//9 35//9
f 36//10 32//10 27//10
f 4//11 7//11 6//11
f 19//12 25//12 21//12
f 27//13 24//13 30//13
f 12//14 9//14 5//14
f 20//15 13//15 16//15
f 9//16 10//16 5//16
f 26//17 29//17 21//17
f 8//18 4//18 7//18
f 7//19 16//19 14//19
f 16//20 18//20 19//20
f 18//20 24//20 19//20
f 24//21 30//21 25//21
f 36//22 34//22 30//22
f 30//23 34//23 25//23
f 34//24 33//24 25//24
f 25//25 19//25 24//25
f 19//21 14//21 16//21
f 14//26 11//26 8//26
f 7//27 14//27 8//27
f 35//28 29//28 31//28
f 31//29 29//29 26//29
f 21//30 25//30 31//30
f 25//31 33//31 31//31
f 31//32 26//32 21//32
f 6//33 16//33 13//33
f 21//34 28//34 22//34
f 2//35 1//35 3//35
f 3//36 4//36 2//36
f 20//19 15//19 13//19
f 13//25 15//25 6//25
f 3//37 6//37 1//37
f 1//38 6//38 10//38
f 15//19 20//19 22//19
f 22//19 23//19 28//19
f 20//21 23//21 22//21
f 23//19 27//19 28//19
f 29//39 27//39 32//39
f 10//40 6//40 15//40
f 12//41 17//41 22//41
f 5//42 10//42 2//42
f 24//43 23//43 18//43
f 11//44 5//44 2//44
f 8//45 11//45 2//45
f 35//46 31//46 33//46
f 29//47 35//47 32//47
f 36//48 27//48 30//48
f 23//49 24//49 27//49
f 12//50 15//50 10//50
f 9//51 12//51 10//51
f 4//52 6//52 3//52
f 21//53 17//53 19//53
f 35//54 34//54 36//54
f 36//55 32//55 35//55
f 11//56 14//56 5//56
f 14//57 12//57 5//57
f 20//58 16//58 18//58
f 12//59 14//59 19//59
f 19//60 17//60 12//60
f 3//61 4//61 1//61
f 4//62 2//62 1//62
f 10//63 1//63 15//63
f 15//64 28//64 22//64
f 15//65 32//65 28//65
f 15//66 27//66 32//66
f 15//19 23//19 27//19
f 15//67 20//67 23//67
f 15//68 3//68 6//68
f 15//19 1//19 3//19
f 6//69 3//69 7//69
f 7//70 3//70 4//70
f 11//71 8//71 4//71
f 7//20 16//20 18//20
f 7//20 18//20 24//20
f 7//20 24//20 30//20
f 7//19 30//19 36//19
f 7//19 36//19 25//19
f 7//19 25//19 14//19
f 7//72 14//72 11//72
f 7//73 11//73 4//73
f 8//74 5//74 2//74
f 12//75 17//75 15//75
f 17//76 22//76 15//76
f 5//77 8//77 11//77
f 14//78 17//78 12//78
f 19//79 25//79 17//79
f 25//80 21//80 17//80
f 21//81 28//81 17//81
f 28//82 22//82 17//82
f 14//83 19//83 17//83
f 20//84 13//84 18//84
f 18//85 13//85 16//85
f 25//86 19//86 14//86
f 36//87 34//87 25//87
f 29//88 28//88 32//88
f 32//89 34//89 36//89
f 32//90 35//90 34//90
f 35//91 31//91 34//91
f 31//92 33//92 34//92
