# Blender 4.0.0
# www.blender.org
o decimated_mesh
v 0.052289 0.026495 -0.000069
v 0.055588 0.027554 -0.000550
v 0.055690 0.027654 0.001361
v 0.054480 0.027917 0.006191
v 0.052292 0.027350 -0.006398
v 0.054492 0.027919 -0.006177
v 0.055532 0.027858 -0.003216
v 0.052291 0.027348 0.006372
v 0.055673 0.028807 0.006867
v 0.055614 0.028775 -0.006876
v 0.057047 0.029511 0.006335
v 0.054435 0.030221 0.010218
v 0.054518 0.030235 -0.010215
v 0.057075 0.029525 -0.006338
v 0.062955 0.034097 0.006332
v 0.061393 0.035573 0.010165
v 0.052293 0.029525 0.010136
v 0.052294 0.029518 -0.010133
v 0.063059 0.034175 -0.006232
v 0.063167 0.033330 -0.000757
v 0.063197 0.033364 0.000784
v 0.069194 0.043141 0.005311
v 0.053636 0.030973 0.010543
v 0.053636 0.030973 -0.010543
v 0.061469 0.035674 -0.010167
v 0.068210 0.041906 -0.006306
v 0.069694 0.042626 -0.000141
v 0.068202 0.041891 0.006297
v 0.060763 0.036641 0.010556
v 0.052289 0.030953 0.010585
v 0.052289 0.030973 -0.010585
v 0.060679 0.036553 -0.010555
v 0.069363 0.044111 -0.006319
v 0.069162 0.043075 -0.005288
v 0.069363 0.044111 0.006321
v 0.052289 0.032234 -0.010570
v 0.071227 0.072040 -0.010585
v 0.067041 0.044421 -0.010180
v 0.067044 0.044421 0.010166
v 0.074306 0.056238 -0.000122
v 0.073231 0.055801 0.006371
v 0.071227 0.072040 0.010585
v 0.052289 0.032235 0.010570
v 0.052289 0.033373 -0.010245
v 0.069138 0.072040 -0.010251
v 0.069971 0.072040 -0.010518
v 0.073069 0.072041 -0.010184
v 0.066201 0.044797 -0.010500
v 0.073206 0.055615 -0.006305
v 0.071596 0.056919 0.009477
v 0.066201 0.044797 0.010496
v 0.071227 0.066157 0.010581
v 0.073066 0.072040 0.010186
v 0.069971 0.072040 0.010518
v 0.066710 0.072040 -0.006340
v 0.071227 0.066157 -0.010581
v 0.070744 0.055940 0.010255
v 0.074367 0.063030 0.006268
v 0.052289 0.033371 0.010255
v 0.069138 0.072040 0.010251
v 0.052289 0.036180 -0.006107
v 0.073158 0.070749 -0.010075
v 0.072057 0.063551 -0.010243
v 0.070748 0.055969 -0.010258
v 0.071600 0.056981 -0.009489
v 0.074367 0.063030 -0.006268
v 0.076247 0.071045 0.000003
v 0.072032 0.063267 0.010233
v 0.073164 0.070909 0.010081
v 0.076224 0.072040 0.000001
v 0.075382 0.072035 0.006280
v 0.066675 0.072040 0.006257
v 0.075385 0.072035 -0.006277
v 0.052289 0.035770 0.006900
v 0.065862 0.072040 -0.000453
v 0.052289 0.037110 0.000738
vn 1.0000 0.0010 -0.0065
vn -0.8185 0.5745 0.0036
vn 0.7455 -0.1290 0.6539
vn 0.9830 -0.1277 -0.1315
vn 0.1967 -0.2429 -0.9499
vn 0.3026 -0.1356 0.9434
vn 0.8248 -0.5548 0.1094
vn 0.7270 -0.4873 0.4838
vn 0.0082 -0.0126 -0.9999
vn 0.8727 -0.0991 -0.4782
vn 0.7968 -0.3471 0.4946
vn 0.6038 -0.7877 -0.1222
vn -0.0033 0.0095 0.9999
vn -0.0601 0.2957 0.9534
vn -0.2862 0.8287 0.4809
vn 0.3026 -0.1356 -0.9434
vn 0.9249 -0.3632 -0.1120
vn -0.2758 0.9526 0.1286
vn 0.8494 -0.4456 -0.2827
vn 0.1792 -0.2234 0.9581
vn 0.8967 -0.3602 -0.2574
vn 0.8474 -0.4462 0.2877
vn 0.9002 -0.3604 0.2445
vn -0.2722 0.9539 -0.1263
vn 0.4387 -0.0461 -0.8975
vn 0.2714 -0.1743 -0.9466
vn 0.5334 -0.2323 0.8133
vn 0.0006 1.0000 0.0007
vn 0.2119 -0.0007 0.9773
vn 0.9768 -0.1513 0.1516
vn 0.7980 -0.3478 -0.4922
vn 0.5091 -0.8381 -0.1959
vn 0.0343 -0.3653 0.9303
vn 0.8081 -0.2637 0.5268
vn 0.5125 -0.8408 0.1741
vn 0.5226 -0.2278 -0.8216
vn 0.3121 -0.1065 -0.9441
vn 0.6056 -0.7958 0.0055
vn -0.2876 0.8291 -0.4795
vn 0.7675 -0.4067 0.4956
vn 0.8150 -0.2716 -0.5119
vn 0.7689 -0.4048 -0.4949
vn 0.2856 -0.1835 0.9406
vn 1.0000 0.0013 0.0012
vn 1.0000 0.0003 0.0004
vn 1.0000 -0.0000 -0.0003
vn 1.0000 0.0012 -0.0012
vn 1.0000 0.0009 0.0059
vn 1.0000 -0.0000 -0.0010
vn 1.0000 0.0002 0.0002
vn 1.0000 0.0003 0.0001
vn 1.0000 -0.0000 -0.0000
vn 1.0000 0.0003 -0.0002
vn 1.0000 -0.0000 0.0009
vn 0.9756 -0.1520 -0.1584
vn 0.9820 -0.1112 -0.1524
vn 0.1728 -0.2201 -0.9601
vn 0.8181 -0.5612 0.1255
vn 0.8233 -0.5531 0.1276
vn 0.7213 -0.4608 0.5171
vn 0.9909 0.0228 -0.1325
vn 0.0308 0.0115 -0.9995
vn 0.0065 -0.0016 -1.0000
vn -0.0528 -0.0007 -0.9986
vn -0.0320 0.0037 -0.9995
vn -0.0026 0.0085 -1.0000
vn 0.8611 -0.1323 -0.4909
vn 0.8519 -0.1178 -0.5103
vn 0.8518 -0.1183 -0.5104
vn 0.6080 -0.7832 0.1301
vn 0.6066 -0.7847 0.1275
vn 0.6096 -0.7815 -0.1327
vn 0.6011 -0.7925 -0.1030
vn -0.0324 0.0036 0.9995
vn -0.0528 -0.0007 0.9986
vn 0.0070 -0.0018 1.0000
vn 0.0307 0.0115 0.9995
vn 0.0082 -0.0125 0.9999
vn -0.0285 0.3773 0.9257
vn -0.2575 0.8514 0.4569
vn -0.2601 0.7919 0.5525
vn 0.9199 -0.3691 0.1325
vn 0.9261 -0.3687 -0.0802
vn -0.2592 0.9594 0.1107
vn 0.2887 -0.9506 -0.1144
vn 0.5365 -0.6909 0.4846
vn 0.5351 -0.6909 0.4862
vn 0.5403 -0.6851 0.4886
vn 0.7431 -0.1271 -0.6571
vn -0.9406 0.3189 -0.1163
vn 0.9407 -0.3090 0.1403
vn 0.9405 -0.3118 0.1347
vn -0.2590 0.9588 -0.1170
vn 0.2616 -0.0431 0.9642
vn 0.3019 -0.0305 0.9529
vn 0.1465 -0.0384 0.9885
vn 0.3189 -0.1097 0.9414
vn 0.2788 -0.1804 -0.9433
vn -0.0000 1.0000 -0.0000
vn 0.0006 1.0000 0.0008
vn -0.0006 1.0000 -0.0017
vn 0.0006 1.0000 -0.0009
vn -0.0007 1.0000 0.0020
vn 0.0006 1.0000 -0.0006
vn 0.9831 -0.1300 0.1288
vn 0.9820 -0.1110 0.1528
vn 0.8598 0.0272 0.5099
vn 0.9909 0.0233 0.1328
vn 0.5430 -0.6879 -0.4816
vn 0.5343 -0.6960 -0.4797
vn 0.5417 -0.6879 -0.4831
vn 0.5070 -0.8360 -0.2099
vn 0.2124 -0.0007 -0.9772
vn 0.0605 -0.2994 0.9522
vn 0.9395 -0.3182 -0.1268
vn 0.9439 -0.3061 -0.1242
vn 0.9398 -0.3138 -0.1357
vn 0.3101 -0.9501 0.0332
vn 0.8143 -0.2717 0.5129
vn 0.8033 -0.2821 0.5244
vn 0.5081 -0.8366 0.2048
vn 0.2579 -0.0427 -0.9652
vn 0.1466 -0.0382 -0.9885
vn 0.2972 -0.0288 -0.9544
vn 0.6063 -0.7952 0.0093
vn 0.8221 -0.5535 -0.1332
vn 0.8155 -0.5639 -0.1304
vn 0.8274 -0.5523 -0.1016
vn 0.8528 -0.1162 0.5091
vn 0.8606 -0.1180 0.4955
vn 0.8515 -0.1265 0.5089
vn 0.8719 -0.0990 0.4796
vn 0.7217 -0.4605 -0.5168
vn 0.7277 -0.4894 -0.4805
vn 0.8602 0.0158 -0.5097
vn -0.2497 0.7753 -0.5802
vn -0.2591 0.8519 -0.4551
vn 0.4332 -0.0462 0.9001
vn 0.9315 -0.3603 0.0490
vn 0.8085 -0.2631 -0.5264
vn 0.8041 -0.2788 -0.5250
vn 0.1877 -0.2382 0.9529
vn 0.2808 -0.1795 0.9428
vn 1.0000 0.0001 -0.0000
vn 1.0000 0.0003 -0.0000
vn 1.0000 -0.0001 -0.0000
vn -0.0527 0.0247 -0.9983
vn -0.0250 0.0115 -0.9996
vn 0.0294 -0.2962 -0.9547
vn 1.0000 0.0039 0.0028
vn 1.0000 0.0014 0.0006
vn 0.0015 -0.0007 -1.0000
vn 0.0053 -0.0027 -1.0000
vn 0.0307 -0.0410 -0.9987
vn -0.2604 0.9568 0.1292
vn -0.2842 0.9513 0.1193
vn -0.2746 0.9540 -0.1206
vn -0.2594 0.9574 -0.1267
vn 1.0000 0.0011 -0.0005
vn 1.0000 0.0036 -0.0026
vn 0.0340 -0.2999 0.9534
vn 0.0315 -0.0418 0.9986
vn 0.0053 -0.0027 1.0000
vn 0.0015 -0.0007 1.0000
vn -0.0248 0.0115 0.9996
vn -0.0527 0.0247 0.9983
vn 0.9230 -0.3681 -0.1118
vn 0.9283 -0.3634 -0.0791
vn -0.0001 1.0000 -0.0000
vn -0.0001 1.0000 -0.0001
vn -0.0001 1.0000 -0.0004
vn -0.0001 1.0000 -0.0010
vn 0.0722 -0.3317 -0.9406
vn -0.2518 0.8370 0.4858
vn -0.2645 0.8373 0.4786
vn 0.0242 -0.0095 -0.9997
vn 0.2707 -0.1749 -0.9466
vn -0.3335 0.8187 0.4675
vn 0.6062 -0.7953 0.0055
vn 0.6058 -0.7956 0.0094
vn -0.3414 0.8142 -0.4696
vn -0.2577 0.8375 -0.4819
vn -0.2532 0.8374 -0.4844
vn 0.0711 -0.3308 0.9410
vn 0.1775 -0.2253 0.9580
vn 0.1896 -0.2370 0.9528
vn 0.2803 -0.1799 0.9429
vn 0.0263 -0.0102 0.9996
vn -0.0002 1.0000 -0.0000
vn 0.0052 1.0000 -0.0015
vn 0.0002 1.0000 -0.0000
vn 0.8501 -0.1180 -0.5132
vn 0.7983 -0.2599 -0.5434
vn 0.2793 -0.1793 -0.9433
vn 0.8172 -0.5669 -0.1036
vn 0.8189 -0.5633 0.1102
vn 0.5400 -0.6954 0.4741
vn 0.5371 -0.6904 0.4847
vn 0.5344 -0.6899 0.4884
vn 0.2860 -0.1828 0.9406
vn 0.0046 1.0000 0.0014
vn 0.7970 -0.2602 0.5450
vn 0.8525 -0.1191 0.5091
vn 0.8521 -0.1181 -0.5100
vn 0.8103 -0.2654 -0.5224
vn 0.8235 -0.5501 -0.1385
vn 0.8239 -0.5509 -0.1331
vn 0.9397 -0.3183 -0.1248
vn 0.8231 -0.5534 0.1276
vn 0.8231 -0.5535 0.1270
vn 0.8101 -0.2663 0.5223
vn 0.8580 -0.1276 0.4976
vn 0.9397 -0.3148 -0.1337
vn 0.9407 -0.3112 0.1348
vn 0.9394 -0.3115 0.1429
s 0
f 44//1 18//1 31//1
f 27//2 20//2 21//2
f 57//3 50//3 68//3
f 67//4 40//4 66//4
f 25//5 13//5 32//5
f 45//6 36//6 46//6
f 21//7 28//7 15//7
f 28//8 16//8 15//8
f 32//9 24//9 36//9
f 73//10 66//10 62//10
f 45//11 55//11 44//11
f 20//12 7//12 14//12
f 29//13 51//13 43//13
f 31//14 18//14 13//14
f 10//15 18//15 5//15
f 60//16 54//16 43//16
f 76//17 75//17 72//17
f 1//18 7//18 5//18
f 34//19 26//19 33//19
f 12//20 16//20 23//20
f 72//21 59//21 74//21
f 28//22 22//22 35//22
f 61//23 44//23 55//23
f 8//24 3//24 1//24
f 62//25 63//25 47//25
f 38//26 25//26 32//26
f 36//27 45//27 44//27
f 37//28 55//28 73//28
f 53//29 42//29 52//29
f 58//30 41//30 40//30
f 60//31 59//31 72//31
f 6//32 14//32 7//32
f 12//33 23//33 30//33
f 57//34 39//34 41//34
f 11//35 4//35 3//35
f 43//36 59//36 60//36
f 64//37 38//37 48//37
f 3//38 20//38 21//38
f 9//39 8//39 17//39
f 28//40 35//40 39//40
f 49//41 33//41 38//41
f 38//42 33//42 26//42
f 29//43 39//43 51//43
f 18//44 44//44 5//44
f 5//45 61//45 1//45
f 1//46 76//46 8//46
f 8//47 59//47 17//47
f 59//48 30//48 17//48
f 30//49 59//49 43//49
f 59//50 8//50 74//50
f 74//51 8//51 76//51
f 76//52 1//52 61//52
f 61//53 5//53 44//53
f 36//54 44//54 31//54
f 49//55 66//55 40//55
f 66//56 73//56 67//56
f 24//57 32//57 13//57
f 21//58 27//58 28//58
f 27//59 22//59 28//59
f 39//60 16//60 28//60
f 70//61 67//61 73//61
f 24//62 31//62 36//62
f 36//63 46//63 48//63
f 46//64 37//64 56//64
f 48//65 46//65 56//65
f 48//66 32//66 36//66
f 66//67 49//67 65//67
f 65//68 63//68 66//68
f 63//69 62//69 66//69
f 21//70 15//70 11//70
f 21//71 11//71 3//71
f 19//72 20//72 14//72
f 20//73 2//73 7//73
f 51//74 52//74 54//74
f 52//75 42//75 54//75
f 54//76 43//76 51//76
f 30//77 23//77 43//77
f 23//78 29//78 43//78
f 31//79 13//79 24//79
f 18//80 10//80 13//80
f 10//81 5//81 6//81
f 61//82 55//82 75//82
f 76//83 72//83 74//83
f 6//84 5//84 7//84
f 7//85 2//85 1//85
f 11//86 15//86 16//86
f 16//87 12//87 11//87
f 12//88 9//88 11//88
f 64//89 63//89 65//89
f 27//90 22//90 40//90
f 22//91 40//91 35//91
f 41//92 35//92 40//92
f 3//93 8//93 4//93
f 57//94 68//94 52//94
f 68//95 53//95 52//95
f 52//96 51//96 57//96
f 57//97 51//97 39//97
f 32//98 48//98 38//98
f 46//99 45//99 55//99
f 55//99 75//99 70//99
f 75//99 72//99 70//99
f 70//100 72//100 71//100
f 72//99 60//99 54//99
f 71//101 42//101 53//101
f 54//99 42//99 72//99
f 70//102 73//102 55//102
f 47//103 37//103 73//103
f 37//99 46//99 55//99
f 42//104 71//104 72//104
f 40//105 67//105 58//105
f 67//106 71//106 58//106
f 71//107 53//107 69//107
f 71//108 67//108 70//108
f 19//109 14//109 25//109
f 13//110 14//110 10//110
f 13//111 25//111 14//111
f 6//112 10//112 14//112
f 47//113 56//113 37//113
f 30//114 17//114 12//114
f 40//115 27//115 33//115
f 27//116 34//116 33//116
f 33//117 49//117 40//117
f 2//118 3//118 1//118
f 35//119 41//119 39//119
f 50//120 57//120 41//120
f 11//121 9//121 4//121
f 63//122 64//122 56//122
f 48//123 56//123 64//123
f 56//124 47//124 63//124
f 3//125 2//125 20//125
f 34//126 27//126 26//126
f 27//127 20//127 26//127
f 20//128 19//128 26//128
f 69//129 68//129 58//129
f 68//130 50//130 41//130
f 58//131 68//131 41//131
f 58//132 71//132 69//132
f 25//133 38//133 26//133
f 26//134 19//134 25//134
f 62//135 47//135 73//135
f 8//136 9//136 4//136
f 9//137 17//137 12//137
f 68//138 69//138 53//138
f 75//139 76//139 61//139
f 38//140 64//140 49//140
f 64//141 65//141 49//141
f 23//142 16//142 29//142
f 16//143 39//143 29//143
f 31//144 44//144 1//144
f 1//52 44//52 30//52
f 30//52 44//52 43//52
f 43//145 44//145 59//145
f 59//146 44//146 74//146
f 74//52 44//52 76//52
f 76//52 44//52 61//52
f 46//147 37//147 36//147
f 37//148 31//148 36//148
f 24//149 18//149 31//149
f 18//150 31//150 5//150
f 5//151 31//151 1//151
f 37//152 56//152 31//152
f 56//153 32//153 31//153
f 32//154 24//154 31//154
f 5//155 1//155 6//155
f 6//156 1//156 7//156
f 3//157 1//157 4//157
f 4//158 1//158 8//158
f 8//159 1//159 30//159
f 8//160 30//160 17//160
f 17//161 23//161 30//161
f 23//162 29//162 30//162
f 29//163 52//163 30//163
f 52//164 42//164 30//164
f 42//165 43//165 30//165
f 42//166 54//166 43//166
f 72//167 74//167 75//167
f 75//168 74//168 76//168
f 75//169 47//169 55//169
f 47//170 45//170 55//170
f 47//171 46//171 45//171
f 47//172 37//172 46//172
f 13//173 18//173 24//173
f 13//174 18//174 5//174
f 13//175 5//175 6//175
f 48//176 32//176 56//176
f 48//177 25//177 32//177
f 13//178 6//178 10//178
f 20//179 21//179 2//179
f 21//180 3//180 2//180
f 9//181 4//181 12//181
f 12//182 4//182 8//182
f 12//183 8//183 17//183
f 12//184 23//184 17//184
f 12//185 29//185 23//185
f 12//186 16//186 29//186
f 16//187 51//187 29//187
f 51//188 52//188 29//188
f 53//189 47//189 42//189
f 47//99 54//99 42//99
f 47//99 60//99 54//99
f 47//99 72//99 60//99
f 47//169 75//169 72//169
f 70//190 73//190 47//190
f 53//191 70//191 47//191
f 62//192 65//192 63//192
f 65//193 38//193 64//193
f 38//194 25//194 48//194
f 19//195 27//195 20//195
f 27//196 15//196 21//196
f 15//197 9//197 11//197
f 15//198 16//198 9//198
f 16//199 12//199 9//199
f 39//200 51//200 16//200
f 71//201 70//201 53//201
f 39//202 50//202 57//202
f 50//203 58//203 68//203
f 66//204 65//204 62//204
f 49//205 38//205 65//205
f 34//206 19//206 26//206
f 34//207 27//207 19//207
f 34//208 40//208 27//208
f 22//209 15//209 27//209
f 22//210 28//210 15//210
f 41//211 50//211 39//211
f 41//212 58//212 50//212
f 40//213 34//213 33//213
f 41//214 22//214 40//214
f 41//215 35//215 22//215
