# Blender 4.0.0
# www.blender.org
o decimated_mesh
v -0.045596 0.103344 0.000616
v -0.040206 0.103399 -0.022353
v -0.049432 0.103419 0.000616
v -0.044705 0.103023 0.000624
v -0.050283 0.103124 0.000616
v -0.038663 0.102890 -0.022353
v -0.043666 0.103417 -0.022353
v -0.047910 0.103409 -0.011939
v -0.050658 0.102127 0.000606
v -0.050140 0.103005 -0.003664
v -0.043729 0.009887 -0.000009
v -0.037518 0.009887 -0.022300
v -0.045092 0.102937 -0.022353
v -0.048858 0.102947 -0.013068
v -0.044580 0.019245 0.000616
v -0.050645 0.009886 -0.000017
v -0.045165 0.009887 -0.022300
v -0.048823 0.009887 -0.013404
vn -0.9632 -0.0120 -0.2684
vn -0.3810 0.9228 -0.0577
vn -0.9884 -0.0705 -0.1343
vn -0.0936 -0.0067 0.9956
vn 0.5978 0.0008 0.8017
vn -0.9249 0.0005 -0.3802
vn 0.3125 0.9468 0.0767
vn -0.9351 0.3520 -0.0410
vn -0.9671 -0.0084 -0.2543
vn -0.3098 0.9425 -0.1255
vn -0.3162 0.9399 -0.1292
vn -0.3276 0.9441 -0.0372
vn -0.3172 0.9475 -0.0393
vn -0.0000 -0.0006 -1.0000
vn -0.0001 -0.0006 -1.0000
vn -0.0001 -0.0004 -1.0000
vn -0.0001 -0.0005 -1.0000
vn -0.9909 0.0001 -0.1349
vn -0.9915 0.0007 -0.1304
vn 0.0052 1.0000 0.0030
vn 0.0196 0.9998 0.0015
vn 0.0065 1.0000 0.0039
vn -0.0012 -0.0668 0.9978
vn 0.0030 0.0001 -1.0000
vn 0.0023 0.0050 -1.0000
vn -0.0004 -0.0268 -0.9996
vn -0.0047 0.0116 -0.9999
vn -0.9267 0.0010 -0.3759
vn 0.3367 0.9381 0.0813
vn -0.0000 1.0000 -0.0000
vn -0.0014 0.0058 1.0000
vn -0.0015 -0.0001 1.0000
vn -0.9633 -0.0083 -0.2684
vn -0.9671 -0.0120 -0.2542
vn 0.3366 0.9380 0.0831
vn 0.3125 0.9469 0.0756
vn 0.0196 0.9998 0.0070
vn -0.0060 1.0000 -0.0016
vn 0.0052 1.0000 0.0012
vn -0.0222 -0.0015 0.9998
vn -0.0002 -0.0006 -1.0000
vn -0.0001 -0.0003 -1.0000
vn -0.9908 0.0001 -0.1351
vn -0.9927 0.0007 -0.1202
vn 0.0001 1.0000 -0.0000
s 0
f 6//1 12//1 11//1
f 14//2 10//2 8//2
f 9//3 10//3 14//3
f 9//4 16//4 15//4
f 4//5 15//5 11//5
f 13//6 17//6 18//6
f 2//7 4//7 6//7
f 5//8 10//8 9//8
f 6//9 11//9 4//9
f 8//10 7//10 14//10
f 13//11 14//11 7//11
f 5//12 3//12 10//12
f 3//13 8//13 10//13
f 6//14 12//14 17//14
f 17//15 13//15 6//15
f 13//16 7//16 6//16
f 7//17 2//17 6//17
f 14//18 18//18 16//18
f 16//19 9//19 14//19
f 7//20 8//20 2//20
f 8//21 3//21 1//21
f 1//22 2//22 8//22
f 16//23 11//23 15//23
f 15//24 9//24 4//24
f 9//25 3//25 4//25
f 1//26 4//26 3//26
f 3//27 9//27 5//27
f 18//28 14//28 13//28
f 2//29 1//29 4//29
f 16//30 11//30 18//30
f 18//30 12//30 17//30
f 12//30 18//30 11//30
f 3//31 5//31 4//31
f 5//32 15//32 4//32
f 11//33 4//33 12//33
f 12//34 4//34 6//34
f 6//35 1//35 4//35
f 6//36 2//36 1//36
f 2//37 3//37 1//37
f 7//38 8//38 3//38
f 2//39 7//39 3//39
f 9//40 15//40 5//40
f 16//30 11//30 12//30
f 17//14 2//14 12//14
f 2//41 6//41 12//41
f 16//30 12//30 17//30
f 17//15 13//15 2//15
f 13//42 7//42 2//42
f 14//43 18//43 10//43
f 18//18 16//18 10//18
f 16//44 9//44 10//44
f 18//45 16//45 17//45
