# Blender 4.0.0
# www.blender.org
o decimated_mesh
v 0.050651 0.030652 0.010707
v 0.050651 0.031910 0.010678
v 0.050651 0.029462 0.010445
v 0.054340 0.030117 0.010121
v 0.061422 0.035605 0.010109
v 0.061140 0.036929 0.010468
v 0.070917 0.046126 -0.000044
v 0.059780 0.046135 -0.000023
v 0.062903 0.041912 0.010583
v 0.050652 0.033171 0.010332
v 0.050651 0.028170 0.009202
v 0.065362 0.041894 0.010161
v 0.068079 0.041847 0.006302
v 0.050651 0.038822 0.000486
v 0.060856 0.041880 0.010182
v 0.055732 0.028627 0.006389
v 0.063364 0.034901 0.006460
v 0.050651 0.024460 0.000627
v 0.061973 0.033349 0.006357
v 0.062888 0.033940 0.005650
v 0.069394 0.042199 -0.000118
v 0.050655 0.038738 -0.000628
v 0.050655 0.033067 -0.010381
v 0.050656 0.032039 -0.010662
v 0.050655 0.030652 -0.010706
v 0.055482 0.027447 0.000136
v 0.069171 0.043649 -0.006164
v 0.060794 0.046131 -0.006356
v 0.063522 0.046131 -0.010216
v 0.065866 0.046130 -0.010600
v 0.050658 0.029203 -0.010337
v 0.059886 0.035671 -0.010478
v 0.050655 0.027165 -0.007346
v 0.050655 0.024469 -0.000628
v 0.063341 0.033490 0.000002
v 0.068006 0.041797 -0.006413
v 0.068152 0.043650 -0.007948
v 0.069939 0.046130 -0.006314
v 0.054338 0.030117 -0.010126
v 0.067572 0.046127 -0.010137
v 0.061360 0.035563 -0.010128
v 0.055687 0.028615 -0.006449
v 0.062959 0.034162 -0.006116
v 0.066825 0.044131 -0.010153
v 0.061967 0.033335 -0.006343
vn 0.3166 -0.8803 -0.3533
vn 0.0316 -0.0297 -0.9991
vn 0.0781 0.9052 0.4178
vn 0.0007 1.0000 0.0026
vn 1.0000 -0.0001 0.0001
vn 0.2894 -0.8785 0.3801
vn 0.3205 -0.8299 -0.4566
vn 0.1261 -0.1876 -0.9741
vn 0.6452 -0.6093 0.4610
vn 0.1678 -0.0819 0.9824
vn 0.6847 -0.6375 0.3533
vn 0.9180 -0.3592 0.1684
vn 0.5323 -0.6973 -0.4801
vn -0.1900 0.2418 0.9516
vn 0.1832 -0.6817 0.7083
vn -0.2476 0.2557 -0.9345
vn -0.6262 0.7773 -0.0607
vn 0.7830 -0.4320 -0.4475
vn -0.5691 0.7359 0.3668
vn 0.7297 -0.5005 -0.4658
vn 0.8217 -0.2570 -0.5087
vn 0.6045 -0.7887 -0.1117
vn 0.5339 -0.6878 0.4919
vn 0.5256 -0.8507 -0.0041
vn 0.5982 -0.7936 0.1113
vn 0.8228 -0.5558 0.1185
vn -0.1590 0.1759 -0.9715
vn 0.6263 -0.6237 -0.4676
vn -0.6748 0.6380 -0.3710
vn 0.7835 0.2931 0.5480
vn 0.1291 -0.1786 0.9754
vn 0.0073 0.0320 -0.9995
vn 0.1919 -0.1253 -0.9734
vn 0.2194 -0.1367 -0.9660
vn 0.2607 -0.0896 -0.9613
vn -0.0909 0.9157 0.3914
vn 0.3252 -0.8302 0.4527
vn 0.0002 1.0000 -0.0001
vn 0.0002 1.0000 -0.0006
vn 0.0009 1.0000 0.0005
vn 0.0008 1.0000 -0.0010
vn 1.0000 0.0006 0.0012
vn 1.0000 -0.0000 -0.0000
vn 1.0000 -0.0000 0.0032
vn 1.0000 0.0001 0.0041
vn -1.0000 -0.0000 -0.0000
vn 1.0000 -0.0000 -0.0001
vn 1.0000 -0.0000 0.0010
vn 1.0000 -0.0001 -0.0001
vn 1.0000 -0.0001 0.0005
vn 1.0000 0.0005 -0.0039
vn 0.9264 -0.3570 -0.1198
vn 0.9423 -0.3006 -0.1472
vn 0.2934 -0.1916 0.9366
vn 0.2310 -0.8041 -0.5477
vn 0.1160 -0.2449 -0.9626
vn 0.5339 -0.6885 -0.4909
vn 0.8457 -0.5110 -0.1538
vn 0.8118 -0.5662 -0.1428
vn 0.8269 -0.5510 -0.1121
vn -0.2070 0.2587 0.9435
vn -0.6226 0.7761 -0.1002
vn 0.0372 -0.0361 0.9987
vn 0.0088 0.0233 0.9997
vn -0.5911 0.6995 0.4015
vn 0.7214 -0.4617 -0.5161
vn 0.6956 -0.4898 -0.5255
vn 0.8319 -0.2863 -0.4754
vn 0.7902 -0.2913 -0.5391
vn 0.5356 -0.8342 -0.1312
vn 0.5977 -0.7924 -0.1218
vn 0.6516 -0.7485 -0.1229
vn 0.5317 -0.6995 0.4775
vn 0.5991 -0.7908 0.1252
vn 0.5310 -0.8363 0.1365
vn 0.6068 -0.7867 0.1133
vn 0.2045 -0.2640 -0.9426
vn 0.8509 -0.5139 0.1092
vn 0.8144 -0.5642 0.1359
vn 0.0015 0.9292 0.3696
vn -0.6340 0.6301 -0.4483
vn 0.7242 -0.4580 0.5155
vn 0.7300 -0.4845 0.4821
vn 0.1231 -0.2134 0.9692
vn 0.1745 -0.2231 0.9590
vn 0.0462 -0.0393 0.9982
vn -0.0113 0.0233 0.9997
vn 1.0000 -0.0003 -0.0003
vn 1.0000 -0.0081 0.0047
vn 1.0000 -0.0000 0.0004
vn 1.0000 -0.0001 0.0004
vn 0.0004 1.0000 -0.0003
vn -0.0002 1.0000 -0.0006
vn -0.0256 0.0320 -0.9992
vn 0.0450 -0.0374 -0.9983
vn 1.0000 0.0021 0.0022
vn 1.0000 0.0007 0.0007
vn 1.0000 0.0080 0.0032
vn 0.6023 -0.7891 0.1203
vn 0.0019 1.0000 -0.0017
vn 0.0003 1.0000 -0.0000
vn 0.1958 -0.1233 -0.9729
vn 0.2189 -0.1425 -0.9653
vn 0.6069 -0.7869 0.1114
vn 0.8168 -0.5662 0.1107
vn 0.8226 -0.5515 0.1383
vn 0.8168 -0.5505 0.1726
vn 0.8151 -0.5681 -0.1133
vn 0.8226 -0.5495 -0.1462
vn 0.7240 -0.4728 -0.5023
vn 0.7144 -0.4572 -0.5297
s 0
f 34//1 33//1 42//1
f 24//2 30//2 32//2
f 12//3 7//3 9//3
f 40//4 30//4 29//4
f 11//5 10//5 1//5
f 16//6 11//6 18//6
f 33//7 39//7 42//7
f 39//8 25//8 32//8
f 17//9 5//9 19//9
f 6//10 12//10 9//10
f 19//11 20//11 17//11
f 21//12 7//12 13//12
f 45//13 42//13 39//13
f 15//14 2//14 9//14
f 11//15 4//15 3//15
f 23//16 29//16 24//16
f 8//17 22//17 14//17
f 27//18 36//18 37//18
f 14//19 15//19 8//19
f 36//20 43//20 41//20
f 40//21 38//21 37//21
f 35//22 26//22 45//22
f 5//23 4//23 19//23
f 34//24 26//24 18//24
f 35//25 20//25 19//25
f 35//26 13//26 17//26
f 30//27 24//27 29//27
f 41//28 43//28 45//28
f 28//29 23//29 22//29
f 13//30 7//30 12//30
f 6//31 1//31 4//31
f 32//32 25//32 24//32
f 44//33 41//33 30//33
f 30//34 41//34 32//34
f 30//35 40//35 44//35
f 15//36 9//36 8//36
f 11//37 16//37 4//37
f 29//38 28//38 38//38
f 28//39 8//39 38//39
f 7//40 38//40 8//40
f 38//41 40//41 29//41
f 31//42 23//42 33//42
f 33//43 22//43 34//43
f 34//44 22//44 18//44
f 22//45 14//45 18//45
f 18//46 11//46 14//46
f 11//47 1//47 3//47
f 1//48 10//48 2//48
f 10//49 11//49 14//49
f 22//43 33//43 23//43
f 24//50 23//50 25//50
f 31//51 25//51 23//51
f 7//52 21//52 27//52
f 38//53 7//53 27//53
f 6//54 5//54 12//54
f 33//55 31//55 39//55
f 39//56 31//56 25//56
f 39//57 41//57 45//57
f 27//58 21//58 36//58
f 21//59 35//59 36//59
f 36//60 35//60 43//60
f 15//61 10//61 2//61
f 8//62 28//62 22//62
f 9//63 2//63 6//63
f 2//64 1//64 6//64
f 14//65 10//65 15//65
f 41//66 44//66 36//66
f 44//67 37//67 36//67
f 38//68 27//68 37//68
f 44//69 40//69 37//69
f 34//70 42//70 26//70
f 42//71 45//71 26//71
f 45//72 43//72 35//72
f 16//73 19//73 4//73
f 19//74 16//74 26//74
f 16//75 18//75 26//75
f 26//76 35//76 19//76
f 41//77 39//77 32//77
f 17//78 20//78 35//78
f 35//79 21//79 13//79
f 9//80 7//80 8//80
f 28//81 29//81 23//81
f 12//82 5//82 13//82
f 17//83 13//83 5//83
f 1//84 3//84 4//84
f 4//85 5//85 6//85
f 2//47 1//47 14//47
f 14//43 1//43 3//43
f 6//86 9//86 1//86
f 9//87 2//87 1//87
f 10//88 2//88 14//88
f 22//89 14//89 23//89
f 23//90 14//90 24//90
f 24//91 14//91 25//91
f 25//90 14//90 18//90
f 11//47 14//47 3//47
f 38//92 30//92 8//92
f 30//93 28//93 8//93
f 30//94 25//94 24//94
f 30//95 32//95 25//95
f 31//96 25//96 33//96
f 33//97 25//97 18//97
f 33//98 18//98 34//98
f 26//99 20//99 19//99
f 40//100 30//100 38//100
f 29//101 28//101 30//101
f 44//102 32//102 30//102
f 44//103 41//103 32//103
f 35//104 20//104 26//104
f 35//105 21//105 20//105
f 21//106 13//106 20//106
f 13//107 17//107 20//107
f 35//108 43//108 21//108
f 43//109 36//109 21//109
f 36//110 41//110 37//110
f 41//111 44//111 37//111
