# Blender 4.0.0
# www.blender.org
o decimated_mesh
v 0.003637 0.014270 0.044184
v 0.030258 0.014279 0.032599
v 0.003637 0.014270 0.050218
v 0.003637 0.102231 0.044243
v 0.030258 0.102932 0.032681
v 0.003637 0.102231 0.050199
v 0.003637 0.103315 0.044973
v 0.030256 0.014272 0.040143
v 0.012924 0.102943 0.048929
v 0.009850 0.103123 0.049141
v 0.030258 0.102231 0.040112
v 0.012849 0.014270 0.048993
v 0.025335 0.102937 0.043806
v 0.003638 0.103243 0.049513
v 0.030258 0.103357 0.034022
v 0.030229 0.103116 0.039653
v 0.024726 0.103395 0.042721
v 0.014676 0.103383 0.047092
v 0.030258 0.103423 0.038109
v 0.025284 0.014270 0.043922
vn 1.0000 -0.0001 -0.0000
vn -0.3984 0.0008 -0.9172
vn 0.6002 0.0003 0.7998
vn 0.1354 0.0006 0.9908
vn -0.3511 0.5231 -0.7766
vn 0.1330 0.9377 0.3210
vn -0.0185 0.9997 -0.0161
vn 1.0000 -0.0000 -0.0000
vn 1.0000 0.0002 -0.0001
vn 1.0000 -0.0001 0.0001
vn 1.0000 0.0002 -0.0000
vn 0.9985 0.0470 0.0279
vn 1.0000 -0.0000 0.0003
vn 0.0309 0.9798 0.1974
vn 0.3816 0.0003 0.9243
vn 0.3776 0.0010 0.9260
vn -0.3991 0.0006 -0.9169
vn 0.6051 0.0007 0.7962
vn 0.1318 0.0002 0.9913
vn -0.1248 0.9458 -0.2997
vn 0.5882 0.3878 0.7097
vn 0.1582 0.9678 0.1956
vn 0.0604 0.5599 0.8264
vn 0.0874 0.4470 0.8902
vn -0.0004 -1.0000 -0.0009
vn -0.0000 1.0000 -0.0000
vn -0.0000 -1.0000 -0.0008
vn 0.2043 0.9377 0.2810
vn 0.1609 0.9140 0.3724
vn 0.0761 0.9508 0.3004
vn -0.0047 1.0000 -0.0076
vn -0.0092 0.9998 0.0158
vn -0.0043 1.0000 -0.0071
vn -0.0053 1.0000 -0.0047
vn -0.0082 0.9998 -0.0161
vn 1.0000 -0.0000 0.0002
vn 1.0000 -0.0002 -0.0001
vn 0.1506 0.9192 0.3638
vn 0.1375 0.9379 0.3186
vn 0.0030 0.9999 0.0097
vn 0.3776 0.0003 0.9260
vn 0.3816 0.0010 0.9243
vn 0.6002 0.0007 0.7998
vn 0.6051 0.0003 0.7962
s 0
f 4//1 14//1 6//1
f 2//2 4//2 5//2
f 8//3 11//3 13//3
f 6//4 12//4 9//4
f 4//5 7//5 5//5
f 9//6 13//6 17//6
f 17//7 19//7 15//7
f 4//8 6//8 1//8
f 1//8 6//8 3//8
f 14//9 4//9 7//9
f 15//10 19//10 5//10
f 5//11 19//11 11//11
f 19//12 16//12 11//12
f 11//13 8//13 2//13
f 2//8 5//8 11//8
f 10//14 18//14 14//14
f 13//15 9//15 12//15
f 12//16 20//16 13//16
f 2//17 1//17 4//17
f 13//18 20//18 8//18
f 6//19 3//19 12//19
f 15//20 5//20 7//20
f 16//21 13//21 11//21
f 19//22 17//22 16//22
f 10//23 14//23 6//23
f 6//24 9//24 10//24
f 8//25 20//25 2//25
f 20//26 1//26 12//26
f 2//27 20//27 1//27
f 12//26 1//26 3//26
f 13//28 16//28 17//28
f 17//29 18//29 9//29
f 18//30 10//30 9//30
f 15//31 7//31 18//31
f 7//32 14//32 18//32
f 15//33 18//33 17//33
f 18//34 19//34 7//34
f 19//35 15//35 7//35
f 4//36 7//36 1//36
f 1//8 7//8 3//8
f 3//8 7//8 6//8
f 6//37 7//37 14//37
f 9//38 13//38 18//38
f 13//39 17//39 18//39
f 17//40 19//40 18//40
f 11//8 8//8 5//8
f 8//13 2//13 5//13
f 20//26 3//26 12//26
f 20//26 1//26 3//26
f 12//41 20//41 9//41
f 20//42 13//42 9//42
f 20//43 11//43 13//43
f 20//44 8//44 11//44
