# Blender 4.0.0
# www.blender.org
o decimated_mesh
v -0.014090 0.010745 0.048518
v -0.014090 0.010754 0.042022
v -0.012575 0.010745 0.049065
v -0.014089 0.102345 0.048491
v 0.003255 0.010745 0.044349
v 0.003256 0.102432 0.044388
v -0.011996 0.103182 0.048997
v 0.003254 0.010744 0.050304
v -0.014090 0.102397 0.042185
v -0.014090 0.103390 0.047923
v -0.014090 0.103357 0.042599
v -0.000244 0.103218 0.050522
v 0.003253 0.102499 0.050224
v 0.003255 0.103412 0.045042
v 0.000198 0.010745 0.050688
v 0.001960 0.103247 0.050276
v 0.003256 0.103378 0.049423
vn -0.0023 1.0000 -0.0063
vn 0.1330 0.0004 -0.9911
vn 0.1088 0.1190 0.9869
vn -0.3741 0.4427 0.8149
vn 0.1150 0.3933 -0.9122
vn 1.0000 -0.0032 0.0006
vn -0.2358 0.0022 0.9718
vn -0.1287 0.0015 0.9917
vn 0.1146 0.5514 -0.8263
vn 0.3865 0.6203 0.6825
vn 0.0856 0.0022 0.9963
vn -0.0000 1.0000 0.0077
vn 0.1260 0.0018 -0.9920
vn 0.0003 1.0000 0.0001
vn -0.0002 1.0000 0.0013
vn -0.0005 1.0000 0.0014
vn 0.0005 1.0000 0.0002
vn 1.0000 -0.0000 0.0006
vn 1.0000 -0.0000 0.0002
vn 1.0000 0.0011 -0.0002
vn -0.3398 0.0003 0.9405
vn -0.1260 0.0012 0.9920
vn -1.0000 -0.0000 0.0001
vn -1.0000 -0.0000 -0.0000
vn -1.0000 -0.0000 -0.0002
vn -1.0000 -0.0014 0.0001
vn -0.0188 0.9741 0.2253
vn -0.0155 0.9953 0.0959
vn 0.0046 0.9873 0.1587
vn 0.1246 0.0009 0.9922
vn -1.0000 -0.0000 -0.0001
vn -1.0000 -0.0000 0.0026
vn -0.0364 0.9655 0.2580
vn -0.0093 0.9933 0.1153
vn 1.0000 -0.0000 0.0042
vn 1.0000 -0.0000 -0.0000
vn 0.0005 1.0000 0.0001
vn -0.0001 1.0000 0.0014
vn 0.0001 1.0000 -0.0002
vn 0.0001 1.0000 -0.0011
s 0
f 10//1 14//1 11//1
f 2//2 6//2 5//2
f 13//3 16//3 12//3
f 4//4 7//4 10//4
f 6//5 9//5 11//5
f 13//6 6//6 17//6
f 4//7 3//7 7//7
f 3//8 12//8 7//8
f 11//9 14//9 6//9
f 13//10 17//10 16//10
f 15//11 13//11 12//11
f 10//12 17//12 14//12
f 2//13 9//13 6//13
f 8//14 5//14 15//14
f 15//15 2//15 3//15
f 3//16 2//16 1//16
f 2//17 15//17 5//17
f 13//18 8//18 6//18
f 8//19 5//19 6//19
f 14//20 17//20 6//20
f 4//21 1//21 3//21
f 3//22 15//22 12//22
f 9//23 2//23 4//23
f 2//24 1//24 4//24
f 10//25 11//25 9//25
f 4//26 10//26 9//26
f 17//27 10//27 7//27
f 7//28 12//28 17//28
f 12//29 16//29 17//29
f 15//30 8//30 13//30
f 9//31 2//31 10//31
f 2//24 1//24 10//24
f 1//32 4//32 10//32
f 7//33 12//33 10//33
f 12//34 17//34 10//34
f 13//35 8//35 17//35
f 8//19 5//19 17//19
f 5//36 6//36 17//36
f 5//37 2//37 8//37
f 8//38 2//38 1//38
f 8//39 1//39 3//39
f 15//40 8//40 3//40
