# Blender 4.0.0
# www.blender.org
o decimated_mesh
v -0.030148 0.019236 -0.040221
v -0.028775 0.009887 -0.041273
v -0.030148 0.019236 -0.032682
v -0.028775 0.009887 -0.032597
v -0.030150 0.102231 -0.032709
v -0.030143 0.102965 -0.040119
v -0.012458 0.009887 -0.041666
v -0.012466 0.009887 -0.049067
v -0.012497 0.103026 -0.043022
v -0.030143 0.103114 -0.033274
v -0.024939 0.102965 -0.044004
v -0.012484 0.103436 -0.044581
v -0.025009 0.009887 -0.044024
v -0.012493 0.102926 -0.049038
v -0.030148 0.103436 -0.034921
v -0.024576 0.103395 -0.042825
v -0.030148 0.103393 -0.038575
v -0.012490 0.103411 -0.047588
vn -1.0000 -0.0062 -0.0016
vn -0.0598 0.0003 0.9982
vn -0.9894 -0.1453 -0.0000
vn 0.4245 0.4856 0.7642
vn -1.0000 0.0091 -0.0007
vn -0.0000 1.0000 -0.0000
vn 0.1100 0.9756 0.1903
vn -0.5982 0.0010 -0.8013
vn -1.0000 0.0001 -0.0010
vn -1.0000 -0.0000 -0.0000
vn -0.9999 0.0114 0.0053
vn -1.0000 0.0017 -0.0000
vn -0.3731 0.0002 -0.9278
vn -0.3750 0.0005 -0.9270
vn -0.9994 0.0356 0.0015
vn -1.0000 -0.0004 0.0010
vn -1.0000 -0.0003 -0.0005
vn -0.0000 -1.0000 -0.0000
vn 0.1383 0.9576 0.2529
vn -0.5941 0.0006 -0.8044
vn -0.5897 0.0043 -0.8076
vn 0.4858 0.0083 0.8740
vn 0.5039 0.0128 0.8636
vn -0.0045 1.0000 -0.0083
vn -0.0094 0.9999 -0.0117
vn -0.2078 0.9377 -0.2784
vn -0.2005 0.9439 -0.2623
vn -0.1222 0.9438 -0.3070
vn -0.1242 0.9412 -0.3142
vn -1.0000 -0.0000 -0.0004
vn -1.0000 0.0001 -0.0033
vn -0.6040 0.0010 -0.7970
vn -1.0000 -0.0002 0.0010
vn -1.0000 -0.0005 -0.0079
vn 0.1444 0.9567 0.2527
vn 0.1041 0.9762 0.1904
vn -0.5982 0.0011 -0.8013
vn -0.5897 0.0006 -0.8076
vn -1.0000 -0.0003 0.0025
vn -1.0000 -0.0003 0.0018
s 0
f 6//1 5//1 17//1
f 3//2 4//2 5//2
f 4//3 1//3 2//3
f 5//4 9//4 10//4
f 9//5 18//5 14//5
f 7//6 13//6 4//6
f 9//7 15//7 10//7
f 1//8 6//8 11//8
f 6//9 1//9 5//9
f 1//10 3//10 5//10
f 10//11 15//11 5//11
f 15//12 17//12 5//12
f 4//3 3//3 1//3
f 8//13 13//13 14//13
f 13//14 11//14 14//14
f 18//15 9//15 12//15
f 9//16 8//16 7//16
f 8//17 9//17 14//17
f 2//6 4//6 13//6
f 13//18 8//18 7//18
f 9//19 12//19 15//19
f 11//20 13//20 1//20
f 13//21 2//21 1//21
f 4//22 7//22 5//22
f 7//23 9//23 5//23
f 18//24 16//24 12//24
f 16//25 17//25 15//25
f 12//24 16//24 15//24
f 11//26 6//26 16//26
f 6//27 17//27 16//27
f 16//28 18//28 11//28
f 14//29 11//29 18//29
f 17//30 1//30 5//30
f 2//3 4//3 3//3
f 2//3 3//3 1//3
f 17//31 6//31 1//31
f 6//32 2//32 1//32
f 2//6 7//6 13//6
f 2//6 4//6 7//6
f 8//33 7//33 12//33
f 12//34 7//34 9//34
f 12//35 10//35 9//35
f 12//36 15//36 10//36
f 12//24 18//24 15//24
f 18//24 16//24 15//24
f 6//37 11//37 2//37
f 11//38 13//38 2//38
f 14//39 8//39 18//39
f 18//40 8//40 12//40
