# Blender 4.0.0
# www.blender.org
o Mug_1_mug_1_1_collision_22
v 0.050611 0.014270 0.000002
v 0.050611 0.008788 0.000002
v 0.050611 0.014270 -0.000633
v 0.044594 0.014270 0.000002
v 0.039719 0.008788 0.000002
v 0.050611 0.008788 -0.000633
v 0.050497 0.010893 -0.001508
v 0.050502 0.014270 -0.001472
v 0.033766 0.014270 -0.028736
v 0.027352 0.008788 -0.028736
v 0.049243 0.008788 -0.011043
v 0.049960 0.014270 -0.005599
v 0.041301 0.014270 -0.028736
v 0.041301 0.008788 -0.028736
v 0.049124 0.008788 -0.011932
v 0.049124 0.014270 -0.011932
v 0.041434 0.014270 -0.028564
v 0.041313 0.010893 -0.028722
v 0.042740 0.008788 -0.026862
v 0.048969 0.008788 -0.012674
v 0.048862 0.010893 -0.013187
v 0.043023 0.014270 -0.026491
v 0.043023 0.010893 -0.026491
v 0.043020 0.008788 -0.026491
v 0.048862 0.008788 -0.013187
v 0.048421 0.014270 -0.014441
v 0.048860 0.014270 -0.013187
v 0.043551 0.014270 -0.025740
v 0.043553 0.010893 -0.025740
v 0.043553 0.008788 -0.025740
v 0.043239 0.008788 -0.026184
v 0.048421 0.008788 -0.014441
v 0.048325 0.010893 -0.014675
v 0.046568 0.010893 -0.018917
v 0.044780 0.010893 -0.023230
v 0.044370 0.014270 -0.024215
v 0.044086 0.014270 -0.024890
v 0.044086 0.008788 -0.024890
v 0.048207 0.008788 -0.014959
v 0.047904 0.008788 -0.015690
v 0.046467 0.008788 -0.019159
v 0.044969 0.008788 -0.022774
v 0.044780 0.008788 -0.023230
v 0.044282 0.010893 -0.024429
v 0.044350 0.008788 -0.024260
vn 1.0000 -0.0000 -0.0000
vn -0.0000 1.0000 -0.0000
vn -0.0000 -0.0000 1.0000
vn -0.0000 -1.0000 -0.0000
vn 0.9916 -0.0000 -0.1290
vn 0.9916 0.0001 -0.1293
vn 0.6311 -0.7383 -0.2378
vn 0.7114 -0.6325 -0.3062
vn 0.9915 -0.0006 -0.1303
vn 0.9915 0.0001 -0.1302
vn 0.9915 -0.0002 -0.1304
vn -0.0000 -0.0000 -1.0000
vn 0.9912 -0.0000 -0.1320
vn 0.9914 0.0002 -0.1308
vn 0.7926 0.0001 -0.6098
vn 0.7776 -0.0000 -0.6288
vn 0.7931 -0.0002 -0.6091
vn 0.9790 -0.0000 -0.2041
vn 0.9789 -0.0000 -0.2044
vn 0.9786 0.0007 -0.2060
vn 0.7937 0.0003 -0.6083
vn 0.7933 0.0001 -0.6089
vn 0.7961 -0.0000 -0.6052
vn 0.7984 -0.0009 -0.6021
vn 0.9789 -0.0000 -0.2046
vn 0.9433 -0.0000 -0.3320
vn 0.9438 0.0006 -0.3305
vn 0.8180 0.0006 -0.5752
vn 0.8168 -0.0000 -0.5769
vn 0.8166 -0.0002 -0.5772
vn 0.8143 -0.0009 -0.5804
vn 0.9254 -0.0000 -0.3790
vn 0.9239 0.0003 -0.3827
vn 0.9238 0.0004 -0.3828
vn 0.9238 0.0005 -0.3828
vn 0.8462 0.0006 -0.5329
vn 0.8472 -0.0000 -0.5312
vn 0.9241 -0.0004 -0.3821
vn 0.9240 -0.0003 -0.3825
vn 0.9239 -0.0003 -0.3826
vn 0.9239 -0.0000 -0.3827
vn 0.9238 -0.0000 -0.3828
vn 0.9233 -0.0000 -0.3841
vn 0.9237 -0.0000 -0.3830
vn 0.9215 0.0004 -0.3884
vn 0.9205 -0.0000 -0.3907
vn 0.9223 -0.0011 -0.3865
vn 0.9227 -0.0010 -0.3856
vn 0.7936 0.0003 -0.6084
vn 0.7931 -0.0000 -0.6091
vn 0.9789 -0.0000 -0.2043
s 0
f 1//1 2//1 6//1
f 1//1 6//1 3//1
f 1//2 3//2 8//2
f 1//2 8//2 12//2
f 1//2 12//2 16//2
f 1//2 16//2 27//2
f 1//2 27//2 26//2
f 1//2 26//2 36//2
f 1//2 36//2 37//2
f 1//2 37//2 28//2
f 1//2 28//2 22//2
f 1//2 22//2 17//2
f 1//2 17//2 13//2
f 1//2 13//2 9//2
f 1//2 9//2 4//2
f 1//3 4//3 5//3
f 1//3 5//3 2//3
f 2//4 5//4 10//4
f 2//4 10//4 14//4
f 2//4 14//4 19//4
f 2//4 19//4 24//4
f 2//4 24//4 31//4
f 2//4 31//4 30//4
f 2//4 30//4 38//4
f 2//4 38//4 45//4
f 2//4 45//4 43//4
f 2//4 43//4 42//4
f 2//4 42//4 41//4
f 2//4 41//4 40//4
f 2//4 40//4 39//4
f 2//4 39//4 32//4
f 2//4 32//4 25//4
f 2//4 25//4 20//4
f 2//4 20//4 15//4
f 2//4 15//4 11//4
f 2//4 11//4 6//4
f 3//5 6//5 7//5
f 3//6 7//6 8//6
f 4//7 10//7 9//7
f 4//8 5//8 10//8
f 6//9 11//9 7//9
f 7//10 12//10 8//10
f 7//11 11//11 12//11
f 9//12 13//12 14//12
f 9//12 14//12 10//12
f 11//13 15//13 16//13
f 11//14 16//14 12//14
f 13//15 17//15 18//15
f 13//16 18//16 14//16
f 14//17 18//17 19//17
f 15//18 20//18 16//18
f 16//19 20//19 21//19
f 16//20 21//20 27//20
f 17//21 22//21 19//21
f 17//22 19//22 18//22
f 19//23 22//23 23//23
f 19//24 23//24 24//24
f 20//25 25//25 21//25
f 21//26 25//26 32//26
f 21//26 32//26 26//26
f 21//27 26//27 27//27
f 22//28 28//28 29//28
f 22//29 29//29 30//29
f 22//29 30//29 23//29
f 23//30 30//30 31//30
f 23//31 31//31 24//31
f 26//32 32//32 33//32
f 26//33 33//33 34//33
f 26//34 34//34 35//34
f 26//35 35//35 36//35
f 29//36 28//36 37//36
f 29//37 37//37 38//37
f 29//37 38//37 30//37
f 32//38 39//38 33//38
f 33//39 39//39 40//39
f 33//40 40//40 41//40
f 33//41 41//41 34//41
f 34//42 41//42 42//42
f 34//42 42//42 35//42
f 35//43 43//43 44//43
f 35//43 44//43 36//43
f 35//44 42//44 43//44
f 36//45 44//45 37//45
f 37//46 44//46 38//46
f 38//47 44//47 45//47
f 43//48 45//48 44//48
f 2//1 6//1 3//1
f 2//1 3//1 1//1
f 3//2 8//2 12//2
f 3//2 12//2 16//2
f 3//2 16//2 27//2
f 3//2 27//2 26//2
f 3//2 26//2 36//2
f 3//2 36//2 37//2
f 3//2 37//2 28//2
f 3//2 28//2 22//2
f 3//2 22//2 13//2
f 3//2 13//2 9//2
f 3//2 9//2 4//2
f 3//2 4//2 1//2
f 4//3 5//3 2//3
f 4//3 2//3 1//3
f 5//4 10//4 14//4
f 5//4 14//4 19//4
f 5//4 19//4 24//4
f 5//4 24//4 31//4
f 5//4 31//4 30//4
f 5//4 30//4 38//4
f 5//4 38//4 45//4
f 5//4 45//4 43//4
f 5//4 43//4 41//4
f 5//4 41//4 39//4
f 5//4 39//4 32//4
f 5//4 32//4 25//4
f 5//4 25//4 15//4
f 5//4 15//4 11//4
f 5//4 11//4 6//4
f 5//4 6//4 2//4
f 13//12 14//12 10//12
f 13//12 10//12 9//12
f 22//49 19//49 13//49
f 19//50 14//50 13//50
f 15//51 25//51 21//51
f 15//51 21//51 16//51
f 29//29 30//29 23//29
f 29//29 23//29 22//29
f 25//26 32//26 26//26
f 25//26 26//26 21//26
f 37//37 38//37 30//37
f 37//37 30//37 29//37
f 34//35 36//35 26//35
f 39//40 41//40 33//40
f 41//42 35//42 34//42
f 35//35 36//35 34//35
f 43//42 35//42 41//42
