# Blender 4.0.0
# www.blender.org
o decimated_mesh
v -0.028843 0.009863 0.041226
v -0.035860 0.009863 0.035766
v -0.028845 0.009864 0.032481
v -0.029657 0.103417 0.038301
v -0.029669 0.102999 0.040488
v -0.029657 0.102227 0.033083
v -0.029657 0.103069 0.033513
v -0.029657 0.103423 0.034955
v -0.035157 0.103326 0.035051
v -0.035845 0.102917 0.035715
v -0.037703 0.009863 0.021759
v -0.039199 0.102976 0.021735
v -0.040579 0.103417 0.021736
v -0.045390 0.009863 0.021759
v -0.044294 0.103396 0.021743
v -0.043845 0.102961 0.025263
v -0.045310 0.102923 0.021748
v -0.043859 0.009863 0.025338
vn -0.0000 1.0000 -0.0000
vn -0.9195 0.0005 0.3931
vn 0.0020 0.0058 1.0000
vn -0.6114 0.0005 0.7913
vn -0.7941 0.0005 0.6078
vn 0.7657 0.0121 -0.6431
vn 0.2954 0.9230 -0.2467
vn -0.4159 0.8946 0.1637
vn -1.0000 -0.0088 -0.0007
vn -0.2050 0.9678 0.1459
vn -0.2490 0.9187 0.3066
vn -0.0000 -1.0000 -0.0000
vn -0.9231 0.0008 0.3847
vn -0.1261 0.9744 0.1859
vn -0.0177 0.9998 0.0018
vn -0.0175 0.9997 0.0140
vn -0.0056 0.9999 0.0092
vn -0.0000 -0.0003 -1.0000
vn 0.0020 0.0001 1.0000
vn 0.0019 0.0045 1.0000
vn -0.6141 0.0008 0.7892
vn -0.7934 0.0006 0.6086
vn 0.7709 0.0109 -0.6369
vn 0.2766 0.9333 -0.2289
vn 0.7385 0.3061 -0.6008
vn -0.3114 0.9189 0.2421
vn -0.9996 0.0290 0.0001
vn -1.0000 -0.0089 0.0002
vn -1.0000 0.0001 -0.0001
vn -1.0000 0.0028 -0.0019
vn -0.6141 0.0005 0.7892
vn -1.0000 -0.0087 0.0002
vn -1.0000 -0.0087 -0.0000
vn -0.9999 -0.0089 -0.0072
vn -0.6114 0.0008 0.7913
vn -0.7934 0.0005 0.6086
vn -0.7941 0.0006 0.6078
vn -0.9998 -0.0089 0.0175
vn -1.0000 -0.0087 0.0020
vn -0.0027 1.0000 0.0018
vn -0.0057 1.0000 0.0037
vn -0.0333 0.9990 0.0282
vn 0.0046 0.0001 1.0000
vn 0.0019 0.0001 1.0000
vn 0.0005 0.0002 1.0000
s 0
f 18//1 11//1 14//1
f 14//2 18//2 16//2
f 12//3 15//3 17//3
f 5//4 10//4 2//4
f 10//5 16//5 2//5
f 6//6 11//6 12//6
f 13//7 7//7 12//7
f 17//8 16//8 15//8
f 5//9 6//9 3//9
f 15//10 16//10 9//10
f 5//11 9//11 10//11
f 11//12 3//12 2//12
f 3//12 1//12 2//12
f 2//1 11//1 18//1
f 17//13 14//13 16//13
f 5//14 4//14 9//14
f 4//15 8//15 9//15
f 8//16 13//16 9//16
f 15//17 9//17 13//17
f 12//18 11//18 14//18
f 17//19 14//19 12//19
f 15//20 12//20 13//20
f 2//21 1//21 5//21
f 16//22 18//22 2//22
f 6//23 3//23 11//23
f 13//24 8//24 7//24
f 12//25 7//25 6//25
f 16//26 10//26 9//26
f 8//27 5//27 4//27
f 5//28 3//28 1//28
f 6//29 8//29 7//29
f 6//30 5//30 8//30
f 10//31 2//31 1//31
f 3//32 1//32 8//32
f 8//33 1//33 4//33
f 4//34 1//34 5//34
f 5//35 10//35 1//35
f 18//36 2//36 10//36
f 16//37 18//37 10//37
f 14//1 2//1 11//1
f 18//1 2//1 14//1
f 6//38 3//38 7//38
f 7//39 3//39 8//39
f 13//40 4//40 8//40
f 13//41 15//41 4//41
f 15//42 9//42 4//42
f 17//43 14//43 15//43
f 15//44 14//44 13//44
f 13//45 14//45 12//45
