# Blender 4.0.0
# www.blender.org
o decimated_mesh
v 0.062815 0.087188 -0.000316
v 0.050651 0.088538 0.000627
v 0.050656 0.088551 -0.000628
v 0.062692 0.088751 0.006288
v 0.050651 0.091153 0.006838
v 0.050656 0.094696 -0.010704
v 0.050656 0.093531 -0.010422
v 0.050657 0.092084 -0.008710
v 0.062813 0.088641 -0.006322
v 0.062806 0.099206 -0.000047
v 0.062690 0.094222 0.010613
v 0.062690 0.091939 0.010153
v 0.050652 0.100912 0.000907
v 0.050656 0.100931 -0.000860
v 0.050656 0.098149 -0.007921
v 0.050656 0.096786 -0.010433
v 0.062812 0.093914 -0.010629
v 0.062812 0.091723 -0.010104
v 0.062690 0.098487 0.006277
v 0.062675 0.096491 0.010086
v 0.050652 0.094936 0.010724
v 0.050651 0.093564 0.010441
v 0.050651 0.092697 0.009599
v 0.057458 0.099291 -0.006511
v 0.056505 0.097780 -0.009657
v 0.058930 0.096934 -0.010272
v 0.062811 0.098428 -0.006282
v 0.057458 0.099308 0.006448
v 0.058825 0.096934 0.010267
v 0.056554 0.097780 0.009656
v 0.050651 0.096878 0.010343
v 0.062809 0.096487 -0.010093
v 0.050651 0.098143 0.007907
vn 0.0049 0.5968 -0.8024
vn 0.1577 0.9808 0.1145
vn 0.0899 0.9695 -0.2278
vn 0.0029 0.2023 -0.9793
vn 0.0950 0.7717 0.6288
vn -0.0859 0.8757 -0.4751
vn 0.1185 0.7831 -0.6105
vn 0.0767 0.6949 -0.7151
vn -0.0817 0.8845 0.4594
vn 0.1024 0.9668 0.2339
vn 0.1399 0.9901 0.0107
vn 1.0000 0.0002 -0.0000
vn 0.0144 0.1288 -0.9916
vn 0.0777 0.7692 -0.6343
vn 0.0034 0.5913 0.8065
vn 0.1521 0.8750 0.4596
vn 1.0000 0.0001 -0.0002
vn 0.1500 0.8628 -0.4828
vn 0.0091 0.2349 0.9720
vn 0.1111 0.9937 0.0111
vn 0.1472 0.8735 -0.4641
vn 0.0078 0.1928 0.9812
vn 0.1464 0.9836 0.1050
vn 0.0032 0.1975 -0.9803
vn 0.0962 0.7604 0.6423
vn -0.0801 0.9274 -0.3654
vn -0.0663 0.9071 -0.4157
vn 0.0686 0.2036 -0.9767
vn 0.0168 0.1385 -0.9902
vn -0.0667 0.9080 0.4137
vn -0.0800 0.9269 0.3667
vn 0.1468 0.9832 -0.1085
vn 0.1632 0.9790 -0.1221
vn 0.9999 0.0088 0.0086
vn 1.0000 0.0002 0.0004
vn 1.0000 -0.0000 -0.0000
vn 0.9998 0.0003 0.0184
vn 1.0000 0.0007 -0.0001
vn 1.0000 0.0002 0.0007
vn 1.0000 0.0015 -0.0013
vn 0.9998 0.0002 0.0184
vn 0.1779 0.9017 0.3941
vn 0.1525 0.8752 0.4592
vn 0.1638 0.9092 -0.3828
vn 1.0000 -0.0000 0.0001
vn 1.0000 -0.0001 0.0038
vn 1.0000 0.0001 0.0023
vn 1.0000 0.0001 -0.0000
vn 1.0000 0.0001 0.0004
vn 0.0092 0.2329 0.9725
vn 0.1182 0.7700 0.6271
vn 0.1611 0.8794 -0.4480
vn 0.0182 0.1519 0.9882
vn 0.0718 0.2261 0.9714
vn 1.0000 -0.0003 -0.0004
vn 1.0000 0.0003 -0.0001
vn 1.0000 0.0007 0.0007
vn 0.9999 0.0004 0.0111
vn 0.9999 -0.0027 0.0131
vn 0.9992 -0.0305 0.0257
vn 1.0000 0.0088 0.0039
vn 0.0095 0.2349 0.9720
vn 0.0090 0.2329 0.9725
vn 0.9991 0.0349 0.0223
vn 0.9998 0.0104 0.0158
vn 0.0026 0.1975 -0.9803
vn 0.0038 0.2023 -0.9793
vn 1.0000 -0.0000 0.0004
vn 1.0000 0.0001 0.0005
vn 1.0000 0.0017 0.0012
vn 1.0000 -0.0056 0.0023
vn 1.0000 -0.0027 0.0014
vn 1.0000 -0.0000 -0.0001
s 0
f 25//1 26//1 16//1
f 19//2 10//2 28//2
f 1//3 2//3 4//3
f 22//4 21//4 11//4
f 8//5 9//5 18//5
f 25//6 16//6 15//6
f 26//7 25//7 32//7
f 23//8 22//8 12//8
f 33//9 31//9 30//9
f 3//10 1//10 9//10
f 14//11 13//11 10//11
f 27//12 18//12 17//12
f 17//13 6//13 16//13
f 23//14 12//14 4//14
f 30//15 31//15 29//15
f 28//16 30//16 20//16
f 16//17 15//17 8//17
f 5//18 23//18 4//18
f 17//19 6//19 7//19
f 3//20 2//20 1//20
f 25//21 24//21 32//21
f 29//22 31//22 21//22
f 10//23 13//23 28//23
f 22//24 11//24 12//24
f 8//25 18//25 7//25
f 14//26 24//26 15//26
f 24//27 25//27 15//27
f 32//28 17//28 26//28
f 17//29 16//29 26//29
f 30//30 28//30 33//30
f 28//31 13//31 33//31
f 24//32 14//32 10//32
f 10//33 27//33 24//33
f 20//34 11//34 19//34
f 12//35 4//35 19//35
f 11//36 12//36 19//36
f 4//37 1//37 10//37
f 1//38 9//38 10//38
f 10//39 9//39 27//39
f 9//12 18//12 27//12
f 17//40 32//40 27//40
f 10//41 19//41 4//41
f 9//42 8//42 3//42
f 19//43 28//43 20//43
f 5//44 4//44 2//44
f 7//17 16//17 8//17
f 8//45 14//45 3//45
f 3//46 13//46 2//46
f 2//36 13//36 5//36
f 3//47 14//47 13//47
f 5//36 33//36 23//36
f 23//36 21//36 22//36
f 33//36 21//36 23//36
f 21//36 33//36 31//36
f 33//36 5//36 13//36
f 14//48 8//48 15//48
f 16//49 7//49 6//49
f 17//50 7//50 18//50
f 30//51 29//51 20//51
f 24//52 27//52 32//52
f 21//53 11//53 29//53
f 29//54 11//54 20//54
f 9//55 18//55 1//55
f 18//56 27//56 1//56
f 27//57 10//57 1//57
f 10//58 11//58 1//58
f 11//59 12//59 1//59
f 12//60 4//60 1//60
f 2//61 3//61 8//61
f 7//62 18//62 6//62
f 6//63 18//63 17//63
f 19//64 20//64 10//64
f 20//65 11//65 10//65
f 21//66 11//66 12//66
f 21//67 12//67 22//67
f 5//36 22//36 23//36
f 5//36 31//36 22//36
f 5//36 33//36 31//36
f 5//36 2//36 33//36
f 33//36 2//36 13//36
f 13//68 2//68 16//68
f 16//69 2//69 6//69
f 6//69 2//69 7//69
f 7//70 2//70 8//70
f 14//71 13//71 15//71
f 15//72 13//72 16//72
f 31//73 21//73 22//73
