# Blender 4.0.0
# www.blender.org
o decimated_mesh
v 0.030259 0.102229 0.040109
v 0.029721 0.009501 0.030406
v 0.030259 0.014282 0.040135
v 0.040284 0.009501 0.013067
v 0.040018 0.009501 0.030406
v 0.030256 0.103249 0.039317
v 0.030249 0.103415 0.034392
v 0.030260 0.102961 0.032727
v 0.031693 0.102912 0.038976
v 0.042020 0.102231 0.014315
v 0.048906 0.009501 0.013031
v 0.035812 0.014283 0.035811
v 0.034337 0.103428 0.035141
v 0.043583 0.103421 0.014318
v 0.042485 0.103132 0.014315
v 0.035046 0.103084 0.036095
v 0.035745 0.102117 0.035853
v 0.047324 0.103353 0.014315
v 0.048367 0.102971 0.014324
v 0.043961 0.009501 0.025152
v 0.037625 0.102978 0.033391
v 0.042563 0.103339 0.025437
v 0.043772 0.102892 0.025389
vn -0.0000 -0.8975 0.4410
vn 0.8423 -0.0182 0.5387
vn 0.5798 -0.3314 0.7444
vn -0.3821 0.8909 -0.2454
vn -0.7667 0.3959 -0.5054
vn 0.6207 0.2639 0.7383
vn -0.0013 -0.0008 1.0000
vn 0.9999 0.0167 0.0017
vn -0.2501 0.9539 -0.1658
vn 0.6131 0.0231 0.7897
vn 0.3145 0.5829 0.7492
vn 0.6880 0.3364 0.6430
vn 0.2983 0.8670 0.3991
vn 0.0181 0.9998 0.0090
vn 0.9235 0.0009 0.3836
vn 0.9259 0.0001 0.3777
vn -0.0000 1.0000 -0.0000
vn 0.8538 -0.0230 0.5201
vn 0.1770 0.9607 0.2140
vn 0.2222 0.9583 0.1796
vn 0.3480 0.9252 0.1511
vn 0.3393 0.9292 0.1464
vn 0.2421 0.9508 0.1935
vn 0.3442 0.9037 0.2547
vn 0.7930 0.0103 0.6091
vn 0.7934 0.0003 0.6086
vn 0.7995 0.0250 0.6001
vn 0.7944 0.0001 0.6074
vn -0.0032 0.0017 1.0000
vn 0.0013 0.0273 0.9996
vn 0.0002 -0.0138 0.9999
vn 0.0042 -0.0135 0.9999
vn 1.0000 0.0014 -0.0014
vn 0.9986 -0.0044 -0.0531
vn 1.0000 -0.0000 0.0001
vn 0.6145 0.0002 0.7890
vn 0.6130 0.0001 0.7901
vn -0.0093 0.9994 0.0337
vn -0.0013 0.9999 -0.0102
vn 0.0123 0.9999 0.0084
vn 0.6130 0.0002 0.7901
vn 0.9985 -0.0000 -0.0553
vn 0.6145 0.0001 0.7890
vn 0.7893 0.0003 0.6140
vn 0.7934 0.0008 0.6087
vn 0.9999 -0.0048 -0.0095
vn 1.0000 -0.0056 -0.0017
vn 1.0000 -0.0060 0.0079
vn 0.8539 -0.0178 0.5202
vn 0.0001 1.0000 0.0001
vn 0.7998 0.0001 0.6003
vn 0.8421 -0.0230 0.5388
vn 0.0270 -0.0140 0.9995
vn 0.0042 -0.0134 0.9999
vn -0.0028 1.0000 -0.0016
vn -0.0138 -0.0139 0.9998
vn 0.0008 -0.0137 0.9999
vn 0.0006 -0.0137 0.9999
vn 0.0246 0.9996 0.0118
vn 0.0181 0.9998 0.0077
s 0
f 3//1 2//1 5//1
f 10//2 8//2 2//2
f 12//3 3//3 5//3
f 15//4 8//4 7//4
f 8//5 15//5 10//5
f 17//6 16//6 9//6
f 14//7 10//7 19//7
f 8//8 7//8 1//8
f 7//9 14//9 15//9
f 17//10 9//10 1//10
f 6//11 1//11 9//11
f 17//12 21//12 16//12
f 16//13 6//13 9//13
f 22//14 18//14 14//14
f 23//15 20//15 19//15
f 20//16 11//16 19//16
f 11//17 4//17 20//17
f 20//17 2//17 5//17
f 2//17 20//17 4//17
f 10//18 2//18 4//18
f 13//19 6//19 16//19
f 16//20 22//20 13//20
f 23//21 19//21 22//21
f 22//22 19//22 18//22
f 22//23 16//23 21//23
f 21//24 23//24 22//24
f 21//25 17//25 23//25
f 17//26 12//26 23//26
f 12//27 5//27 20//27
f 20//28 23//28 12//28
f 10//29 14//29 15//29
f 14//30 19//30 18//30
f 19//31 10//31 11//31
f 10//32 4//32 11//32
f 6//33 1//33 7//33
f 8//34 3//34 2//34
f 3//35 8//35 1//35
f 1//36 3//36 12//36
f 12//37 17//37 1//37
f 6//38 13//38 7//38
f 13//39 22//39 7//39
f 7//40 22//40 14//40
f 17//41 1//41 3//41
f 1//42 3//42 2//42
f 12//43 17//43 3//43
f 12//44 5//44 17//44
f 5//45 23//45 17//45
f 6//46 1//46 2//46
f 4//17 2//17 5//17
f 6//47 2//47 7//47
f 7//48 2//48 8//48
f 8//49 2//49 4//49
f 4//17 5//17 11//17
f 11//50 5//50 20//50
f 20//51 23//51 5//51
f 8//52 4//52 10//52
f 10//53 4//53 15//53
f 15//54 4//54 11//54
f 13//55 14//55 7//55
f 18//56 11//56 19//56
f 15//57 11//57 14//57
f 14//58 11//58 18//58
f 18//59 13//59 22//59
f 18//60 14//60 13//60
