# Blender 4.0.0
# www.blender.org
o decimated_mesh
v 0.049469 0.010733 0.010657
v 0.049646 0.019346 0.010700
v 0.043389 0.010735 0.010593
v 0.043439 0.019352 0.010593
v 0.022691 0.010733 0.038187
v 0.022515 0.019363 0.042829
v 0.022841 0.010733 0.045211
v 0.039614 0.019352 0.032179
v 0.041345 0.010726 0.029959
vn 0.0106 -0.0001 -0.9999
vn 0.9037 0.0727 0.4220
vn -0.8000 0.0046 -0.6000
vn 0.5125 0.2465 0.8226
vn 0.0173 0.0047 -0.9998
vn 0.9215 -0.0209 0.3878
vn -0.8086 0.2658 -0.5249
vn -0.9993 -0.0319 0.0215
vn 0.0010 1.0000 0.0002
vn 0.0007 1.0000 0.0001
vn 0.6344 -0.0708 0.7697
vn -0.0003 -1.0000 -0.0005
vn -0.0004 -1.0000 -0.0000
vn -0.0006 -1.0000 -0.0005
s 0
f 4//1 1//1 3//1
f 9//2 2//2 8//2
f 5//3 4//3 3//3
f 7//4 8//4 6//4
f 4//5 2//5 1//5
f 9//6 1//6 2//6
f 5//7 6//7 4//7
f 6//8 5//8 7//8
f 8//9 2//9 4//9
f 4//10 6//10 8//10
f 7//11 9//11 8//11
f 1//12 9//12 3//12
f 9//13 7//13 5//13
f 5//14 3//14 9//14
